<svg width="639" height="491" viewBox="0 0 639 491" fill="none" xmlns="http://www.w3.org/2000/svg">
<g filter="url(#filter0_d_9_1222)">
<path d="M595 424.815C595 434.325 587.295 442.029 577.79 442.029H61.2142C51.7048 442.029 44 434.325 44 424.815V57.2142C44 47.7048 51.7048 40 61.2142 40H577.79C587.295 40 595 47.7048 595 57.2142V424.815Z" fill="white"/>
</g>
<path d="M75.872 59.6566V69.6124H74.6664V59.6566H75.872ZM79.2809 65.1207V69.6124H78.1337V62.1456H79.242V63.3123H79.3393C79.5143 62.9331 79.78 62.6285 80.1365 62.3984C80.493 62.165 80.9532 62.0484 81.5171 62.0484C82.0227 62.0484 82.465 62.1521 82.8442 62.3595C83.2234 62.5636 83.5183 62.8748 83.7289 63.2928C83.9396 63.7077 84.0449 64.2327 84.0449 64.8679V69.6124H82.8977V64.9456C82.8977 64.3591 82.7454 63.9021 82.4407 63.5748C82.1361 63.2442 81.718 63.0789 81.1865 63.0789C80.8203 63.0789 80.493 63.1583 80.2046 63.3171C79.9194 63.4759 79.6941 63.7077 79.5288 64.0123C79.3636 64.3169 79.2809 64.6864 79.2809 65.1207ZM91.4303 63.8178L90.3998 64.1095C90.3349 63.9378 90.2393 63.7709 90.1129 63.6088C89.9898 63.4435 89.8213 63.3074 89.6074 63.2005C89.3935 63.0935 89.1196 63.04 88.7858 63.04C88.3289 63.04 87.9481 63.1454 87.6434 63.356C87.342 63.5634 87.1913 63.8276 87.1913 64.1484C87.1913 64.4336 87.2951 64.6588 87.5025 64.8241C87.7099 64.9894 88.034 65.1271 88.4747 65.2373L89.5831 65.5096C90.2507 65.6716 90.7481 65.9195 91.0755 66.2533C91.4028 66.5839 91.5665 67.0101 91.5665 67.5318C91.5665 67.9596 91.4433 68.342 91.197 68.6791C90.9539 69.0161 90.6137 69.2819 90.1761 69.4763C89.7386 69.6708 89.2298 69.768 88.6497 69.768C87.8881 69.768 87.2578 69.6027 86.7587 69.2721C86.2596 68.9416 85.9436 68.4587 85.8108 67.8235L86.8997 67.5513C87.0034 67.9531 87.1995 68.2545 87.4879 68.4555C87.7796 68.6564 88.1604 68.7569 88.6303 68.7569C89.165 68.7569 89.5896 68.6434 89.9039 68.4166C90.2215 68.1865 90.3803 67.911 90.3803 67.5902C90.3803 67.3309 90.2896 67.1138 90.1081 66.9388C89.9266 66.7605 89.6479 66.6276 89.272 66.5401L88.0275 66.2485C87.3437 66.0864 86.8413 65.8353 86.5205 65.495C86.2029 65.1514 86.0441 64.722 86.0441 64.2067C86.0441 63.7854 86.1624 63.4127 86.399 63.0887C86.6388 62.7646 86.9645 62.5102 87.3761 62.3254C87.7909 62.1407 88.2608 62.0484 88.7858 62.0484C89.5247 62.0484 90.1048 62.2104 90.5262 62.5345C90.9507 62.8586 91.2521 63.2864 91.4303 63.8178ZM93.2934 69.6124V62.1456H94.4407V69.6124H93.2934ZM93.8768 60.9011C93.6531 60.9011 93.4603 60.8249 93.2983 60.6726C93.1395 60.5203 93.0601 60.3372 93.0601 60.1233C93.0601 59.9094 93.1395 59.7263 93.2983 59.574C93.4603 59.4217 93.6531 59.3455 93.8768 59.3455C94.1004 59.3455 94.2916 59.4217 94.4504 59.574C94.6124 59.7263 94.6934 59.9094 94.6934 60.1233C94.6934 60.3372 94.6124 60.5203 94.4504 60.6726C94.2916 60.8249 94.1004 60.9011 93.8768 60.9011ZM99.5559 72.5681C99.0017 72.5681 98.5253 72.4968 98.1267 72.3542C97.7281 72.2148 97.3959 72.0301 97.1301 71.8C96.8676 71.5731 96.6586 71.3301 96.503 71.0708L97.4169 70.4291C97.5206 70.5652 97.6519 70.7208 97.8107 70.8958C97.9695 71.074 98.1866 71.228 98.4621 71.3576C98.7408 71.4905 99.1054 71.5569 99.5559 71.5569C100.159 71.5569 100.656 71.4111 101.048 71.1194C101.44 70.8277 101.636 70.3708 101.636 69.7485V68.2318H101.539C101.455 68.368 101.335 68.5365 101.18 68.7374C101.027 68.9351 100.807 69.1117 100.518 69.2673C100.233 69.4196 99.8476 69.4958 99.3614 69.4958C98.7586 69.4958 98.2174 69.3532 97.7378 69.068C97.2614 68.7828 96.8838 68.368 96.6051 67.8235C96.3296 67.279 96.1919 66.6179 96.1919 65.8401C96.1919 65.0753 96.3264 64.4093 96.5954 63.8422C96.8644 63.2718 97.2387 62.831 97.7183 62.5199C98.198 62.2055 98.7522 62.0484 99.3809 62.0484C99.867 62.0484 100.253 62.1294 100.538 62.2914C100.826 62.4502 101.047 62.6317 101.199 62.8359C101.355 63.0368 101.474 63.2021 101.559 63.3317H101.675V62.1456H102.784V69.8263C102.784 70.468 102.638 70.9898 102.346 71.3916C102.058 71.7967 101.669 72.0933 101.18 72.2812C100.693 72.4724 100.152 72.5681 99.5559 72.5681ZM99.517 68.4652C99.9772 68.4652 100.366 68.3599 100.684 68.1492C101.001 67.9385 101.243 67.6355 101.408 67.2401C101.573 66.8448 101.656 66.3716 101.656 65.8207C101.656 65.2827 101.575 64.8079 101.413 64.3963C101.251 63.9847 101.011 63.6623 100.693 63.4289C100.376 63.1956 99.9837 63.0789 99.517 63.0789C99.0309 63.0789 98.6258 63.2021 98.3017 63.4484C97.9808 63.6947 97.7394 64.0253 97.5774 64.4401C97.4186 64.8549 97.3392 65.3151 97.3392 65.8207C97.3392 66.3392 97.4202 66.7978 97.5822 67.1964C97.7475 67.5918 97.9906 67.9029 98.3114 68.1298C98.6355 68.3534 99.0373 68.4652 99.517 68.4652ZM106.031 65.1207V69.6124H104.884V59.6566H106.031V63.3123H106.128C106.303 62.9266 106.566 62.6204 106.916 62.3935C107.269 62.1634 107.739 62.0484 108.326 62.0484C108.834 62.0484 109.28 62.1504 109.662 62.3546C110.045 62.5555 110.341 62.865 110.552 63.2831C110.766 63.6979 110.873 64.2262 110.873 64.8679V69.6124H109.726V64.9456C109.726 64.3526 109.572 63.894 109.264 63.5699C108.959 63.2426 108.536 63.0789 107.995 63.0789C107.619 63.0789 107.282 63.1583 106.984 63.3171C106.689 63.4759 106.456 63.7077 106.284 64.0123C106.115 64.3169 106.031 64.6864 106.031 65.1207ZM116.219 62.1456V63.1178H112.349V62.1456H116.219ZM113.477 60.3567H114.624V67.4735C114.624 67.7976 114.671 68.0406 114.765 68.2027C114.863 68.3615 114.986 68.4684 115.135 68.5235C115.287 68.5754 115.448 68.6013 115.616 68.6013C115.743 68.6013 115.846 68.5948 115.927 68.5818C116.008 68.5656 116.073 68.5527 116.122 68.543L116.355 69.5735C116.277 69.6027 116.169 69.6319 116.029 69.661C115.89 69.6934 115.713 69.7097 115.499 69.7097C115.175 69.7097 114.858 69.64 114.547 69.5006C114.239 69.3613 113.983 69.149 113.779 68.8638C113.578 68.5786 113.477 68.2189 113.477 67.7846V60.3567Z" fill="#29292E"/>
<path d="M44 327.515H595" stroke="#D9D9D9" stroke-width="0.570384" stroke-miterlimit="10"/>
<path d="M82.2361 363.024H81.3935L83.8306 356.387H84.6602L87.0973 363.024H86.2547L84.2713 357.437H84.2195L82.2361 363.024ZM82.5472 360.432H85.9436V361.145H82.5472V360.432ZM90.0497 363.128C89.583 363.128 89.1812 363.018 88.8441 362.798C88.5071 362.577 88.2478 362.274 88.0663 361.887C87.8849 361.5 87.7941 361.058 87.7941 360.561C87.7941 360.056 87.887 359.61 88.0728 359.223C88.2608 358.834 88.5222 358.53 88.8571 358.312C89.1941 358.092 89.5874 357.982 90.0368 357.982C90.3868 357.982 90.7022 358.047 90.9831 358.176C91.2639 358.306 91.494 358.487 91.6734 358.721C91.8527 358.954 91.964 359.226 92.0072 359.537H91.2423C91.184 359.31 91.0544 359.11 90.8534 358.935C90.6547 358.757 90.3868 358.669 90.0497 358.669C89.7516 358.669 89.4901 358.747 89.2654 358.902C89.0429 359.055 88.869 359.273 88.7437 359.553C88.6205 359.832 88.5589 360.16 88.5589 360.535C88.5589 360.92 88.6194 361.255 88.7404 361.54C88.8636 361.825 89.0364 362.047 89.259 362.204C89.4837 362.362 89.7472 362.441 90.0497 362.441C90.2485 362.441 90.4289 362.406 90.5909 362.337C90.753 362.268 90.8902 362.169 91.0025 362.039C91.1149 361.91 91.1948 361.754 91.2423 361.573H92.0072C91.964 361.866 91.857 362.131 91.6863 362.367C91.5178 362.6 91.2942 362.786 91.0155 362.924C90.7389 363.06 90.417 363.128 90.0497 363.128ZM95.1475 363.128C94.6808 363.128 94.279 363.018 93.9419 362.798C93.6049 362.577 93.3456 362.274 93.1641 361.887C92.9827 361.5 92.8919 361.058 92.8919 360.561C92.8919 360.056 92.9848 359.61 93.1706 359.223C93.3586 358.834 93.62 358.53 93.9549 358.312C94.2919 358.092 94.6852 357.982 95.1346 357.982C95.4846 357.982 95.8 358.047 96.0809 358.176C96.3618 358.306 96.5918 358.487 96.7712 358.721C96.9505 358.954 97.0618 359.226 97.105 359.537H96.3401C96.2818 359.31 96.1522 359.11 95.9512 358.935C95.7525 358.757 95.4846 358.669 95.1475 358.669C94.8494 358.669 94.5879 358.747 94.3632 358.902C94.1407 359.055 93.9668 359.273 93.8415 359.553C93.7183 359.832 93.6567 360.16 93.6567 360.535C93.6567 360.92 93.7172 361.255 93.8382 361.54C93.9614 361.825 94.1342 362.047 94.3568 362.204C94.5815 362.362 94.845 362.441 95.1475 362.441C95.3463 362.441 95.5267 362.406 95.6887 362.337C95.8508 362.268 95.988 362.169 96.1003 362.039C96.2127 361.91 96.2926 361.754 96.3401 361.573H97.105C97.0618 361.866 96.9548 362.131 96.7841 362.367C96.6156 362.6 96.392 362.786 96.1133 362.924C95.8367 363.06 95.5148 363.128 95.1475 363.128ZM100.245 363.128C99.7959 363.128 99.4016 363.021 99.0624 362.807C98.7254 362.593 98.4618 362.294 98.2717 361.91C98.0837 361.525 97.9897 361.076 97.9897 360.561C97.9897 360.043 98.0837 359.59 98.2717 359.203C98.4618 358.817 98.7254 358.516 99.0624 358.303C99.4016 358.089 99.7959 357.982 100.245 357.982C100.695 357.982 101.088 358.089 101.425 358.303C101.764 358.516 102.028 358.817 102.216 359.203C102.406 359.59 102.501 360.043 102.501 360.561C102.501 361.076 102.406 361.525 102.216 361.91C102.028 362.294 101.764 362.593 101.425 362.807C101.088 363.021 100.695 363.128 100.245 363.128ZM100.245 362.441C100.587 362.441 100.868 362.354 101.088 362.179C101.308 362.004 101.471 361.773 101.577 361.488C101.683 361.203 101.736 360.894 101.736 360.561C101.736 360.229 101.683 359.919 101.577 359.631C101.471 359.344 101.308 359.112 101.088 358.935C100.868 358.757 100.587 358.669 100.245 358.669C99.904 358.669 99.6231 358.757 99.4027 358.935C99.1823 359.112 99.0192 359.344 98.9134 359.631C98.8075 359.919 98.7546 360.229 98.7546 360.561C98.7546 360.894 98.8075 361.203 98.9134 361.488C99.0192 361.773 99.1823 362.004 99.4027 362.179C99.6231 362.354 99.904 362.441 100.245 362.441ZM106.806 360.989V358.047H107.57V363.024H106.806V362.182H106.754C106.637 362.435 106.456 362.65 106.209 362.827C105.963 363.002 105.652 363.089 105.276 363.089C104.965 363.089 104.688 363.021 104.446 362.885C104.204 362.747 104.014 362.539 103.876 362.263C103.738 361.984 103.668 361.633 103.668 361.21V358.047H104.433V361.158C104.433 361.521 104.535 361.81 104.738 362.026C104.943 362.242 105.205 362.35 105.522 362.35C105.712 362.35 105.906 362.302 106.102 362.204C106.301 362.107 106.467 361.958 106.601 361.757C106.737 361.556 106.806 361.3 106.806 360.989ZM109.736 360.03V363.024H108.971V358.047H109.71V358.824H109.775C109.892 358.572 110.069 358.368 110.306 358.215C110.544 358.059 110.851 357.982 111.227 357.982C111.564 357.982 111.859 358.051 112.112 358.189C112.364 358.325 112.561 358.533 112.701 358.811C112.842 359.088 112.912 359.438 112.912 359.861V363.024H112.147V359.913C112.147 359.522 112.046 359.218 111.843 358.999C111.64 358.779 111.361 358.669 111.006 358.669C110.762 358.669 110.544 358.722 110.352 358.828C110.162 358.933 110.012 359.088 109.901 359.291C109.791 359.494 109.736 359.74 109.736 360.03ZM116.475 358.047V358.695H113.895V358.047H116.475ZM114.647 356.854H115.412V361.598C115.412 361.815 115.443 361.977 115.506 362.085C115.57 362.19 115.652 362.262 115.752 362.298C115.853 362.333 115.96 362.35 116.073 362.35C116.157 362.35 116.226 362.346 116.28 362.337C116.334 362.327 116.377 362.318 116.41 362.311L116.565 362.998C116.513 363.018 116.441 363.037 116.348 363.057C116.255 363.078 116.137 363.089 115.995 363.089C115.779 363.089 115.567 363.043 115.36 362.95C115.154 362.857 114.984 362.715 114.848 362.525C114.714 362.335 114.647 362.095 114.647 361.806V356.854ZM120.295 363.024V356.387H122.538C123.057 356.387 123.482 356.476 123.815 356.653C124.148 356.828 124.394 357.069 124.554 357.376C124.714 357.682 124.794 358.031 124.794 358.422C124.794 358.814 124.714 359.16 124.554 359.463C124.394 359.765 124.149 360.003 123.818 360.176C123.488 360.346 123.065 360.432 122.551 360.432H120.736V359.706H122.525C122.879 359.706 123.165 359.654 123.381 359.55C123.599 359.447 123.757 359.3 123.854 359.11C123.953 358.917 124.003 358.688 124.003 358.422C124.003 358.157 123.953 357.924 123.854 357.726C123.754 357.527 123.596 357.374 123.377 357.265C123.159 357.155 122.871 357.1 122.512 357.1H121.099V363.024H120.295ZM123.42 360.043L125.053 363.024H124.12L122.512 360.043H123.42ZM128.063 363.128C127.583 363.128 127.17 363.022 126.822 362.811C126.476 362.597 126.209 362.298 126.021 361.916C125.835 361.531 125.742 361.084 125.742 360.574C125.742 360.064 125.835 359.615 126.021 359.226C126.209 358.835 126.471 358.53 126.805 358.312C127.142 358.092 127.536 357.982 127.985 357.982C128.244 357.982 128.5 358.025 128.753 358.111C129.006 358.198 129.236 358.338 129.443 358.533C129.651 358.725 129.816 358.98 129.939 359.297C130.062 359.615 130.124 360.006 130.124 360.471V360.795H126.287V360.134H129.346C129.346 359.853 129.29 359.602 129.178 359.382C129.068 359.161 128.91 358.987 128.705 358.86C128.501 358.732 128.262 358.669 127.985 358.669C127.68 358.669 127.417 358.744 127.194 358.896C126.974 359.045 126.804 359.239 126.686 359.479C126.567 359.719 126.507 359.976 126.507 360.25V360.691C126.507 361.067 126.572 361.386 126.702 361.647C126.834 361.906 127.016 362.104 127.249 362.24C127.483 362.374 127.754 362.441 128.063 362.441C128.264 362.441 128.445 362.413 128.607 362.357C128.772 362.298 128.913 362.212 129.032 362.098C129.151 361.981 129.243 361.836 129.307 361.663L130.046 361.871C129.968 362.121 129.838 362.342 129.654 362.532C129.47 362.72 129.244 362.867 128.974 362.973C128.703 363.076 128.4 363.128 128.063 363.128ZM132.752 363.141C132.437 363.141 132.151 363.082 131.894 362.963C131.636 362.842 131.432 362.668 131.281 362.441C131.13 362.212 131.054 361.935 131.054 361.611C131.054 361.326 131.11 361.095 131.223 360.918C131.335 360.739 131.485 360.598 131.673 360.497C131.861 360.395 132.069 360.319 132.295 360.27C132.524 360.218 132.755 360.177 132.986 360.147C133.288 360.108 133.533 360.079 133.721 360.059C133.911 360.037 134.05 360.002 134.136 359.952C134.225 359.902 134.269 359.816 134.269 359.693V359.667C134.269 359.347 134.182 359.099 134.007 358.922C133.834 358.744 133.571 358.656 133.219 358.656C132.854 358.656 132.568 358.736 132.36 358.896C132.153 359.055 132.007 359.226 131.923 359.408L131.197 359.148C131.326 358.846 131.499 358.61 131.715 358.442C131.934 358.271 132.171 358.152 132.428 358.085C132.688 358.016 132.942 357.982 133.193 357.982C133.353 357.982 133.537 358.001 133.744 358.04C133.954 358.077 134.156 358.153 134.35 358.27C134.547 358.387 134.71 358.563 134.839 358.798C134.969 359.034 135.034 359.349 135.034 359.745V363.024H134.269V362.35H134.23C134.178 362.458 134.092 362.574 133.971 362.697C133.85 362.82 133.689 362.925 133.488 363.011C133.287 363.098 133.042 363.141 132.752 363.141ZM132.869 362.454C133.171 362.454 133.426 362.395 133.634 362.276C133.843 362.157 134.001 362.004 134.107 361.816C134.215 361.628 134.269 361.43 134.269 361.223V360.523C134.237 360.561 134.165 360.597 134.055 360.629C133.947 360.66 133.822 360.687 133.679 360.71C133.539 360.732 133.402 360.752 133.268 360.769C133.136 360.784 133.029 360.797 132.947 360.808C132.748 360.834 132.562 360.876 132.389 360.934C132.219 360.99 132.08 361.076 131.975 361.19C131.871 361.302 131.819 361.456 131.819 361.65C131.819 361.916 131.917 362.117 132.114 362.253C132.313 362.387 132.564 362.454 132.869 362.454ZM138.452 363.128C137.985 363.128 137.584 363.018 137.247 362.798C136.91 362.577 136.65 362.274 136.469 361.887C136.287 361.5 136.197 361.058 136.197 360.561C136.197 360.056 136.289 359.61 136.475 359.223C136.663 358.834 136.925 358.53 137.26 358.312C137.597 358.092 137.99 357.982 138.439 357.982C138.789 357.982 139.105 358.047 139.385 358.176C139.666 358.306 139.896 358.487 140.076 358.721C140.255 358.954 140.366 359.226 140.41 359.537H139.645C139.586 359.31 139.457 359.11 139.256 358.935C139.057 358.757 138.789 358.669 138.452 358.669C138.154 358.669 137.893 358.747 137.668 358.902C137.445 359.055 137.271 359.273 137.146 359.553C137.023 359.832 136.961 360.16 136.961 360.535C136.961 360.92 137.022 361.255 137.143 361.54C137.266 361.825 137.439 362.047 137.661 362.204C137.886 362.362 138.15 362.441 138.452 362.441C138.651 362.441 138.831 362.406 138.993 362.337C139.155 362.268 139.293 362.169 139.405 362.039C139.517 361.91 139.597 361.754 139.645 361.573H140.41C140.366 361.866 140.259 362.131 140.089 362.367C139.92 362.6 139.697 362.786 139.418 362.924C139.141 363.06 138.819 363.128 138.452 363.128ZM142.293 360.03V363.024H141.528V356.387H142.293V358.824H142.357C142.474 358.567 142.649 358.363 142.882 358.212C143.118 358.058 143.431 357.982 143.822 357.982C144.161 357.982 144.458 358.05 144.713 358.186C144.968 358.32 145.166 358.526 145.306 358.805C145.449 359.081 145.52 359.434 145.52 359.861V363.024H144.756V359.913C144.756 359.518 144.653 359.212 144.448 358.996C144.245 358.778 143.963 358.669 143.602 358.669C143.351 358.669 143.126 358.722 142.928 358.828C142.731 358.933 142.576 359.088 142.461 359.291C142.349 359.494 142.293 359.74 142.293 360.03ZM149.007 363.128C148.527 363.128 148.113 363.022 147.765 362.811C147.42 362.597 147.153 362.298 146.965 361.916C146.779 361.531 146.686 361.084 146.686 360.574C146.686 360.064 146.779 359.615 146.965 359.226C147.153 358.835 147.414 358.53 147.749 358.312C148.086 358.092 148.48 357.982 148.929 357.982C149.188 357.982 149.444 358.025 149.697 358.111C149.95 358.198 150.18 358.338 150.387 358.533C150.595 358.725 150.76 358.98 150.883 359.297C151.006 359.615 151.068 360.006 151.068 360.471V360.795H147.231V360.134H150.29C150.29 359.853 150.234 359.602 150.122 359.382C150.011 359.161 149.854 358.987 149.648 358.86C149.445 358.732 149.205 358.669 148.929 358.669C148.624 358.669 148.361 358.744 148.138 358.896C147.918 359.045 147.748 359.239 147.629 359.479C147.51 359.719 147.451 359.976 147.451 360.25V360.691C147.451 361.067 147.516 361.386 147.646 361.647C147.777 361.906 147.96 362.104 148.193 362.24C148.427 362.374 148.698 362.441 149.007 362.441C149.208 362.441 149.389 362.413 149.551 362.357C149.715 362.298 149.857 362.212 149.976 362.098C150.095 361.981 150.186 361.836 150.251 361.663L150.99 361.871C150.912 362.121 150.782 362.342 150.598 362.532C150.414 362.72 150.187 362.867 149.917 362.973C149.647 363.076 149.344 363.128 149.007 363.128ZM154.111 363.128C153.696 363.128 153.33 363.023 153.012 362.814C152.695 362.602 152.446 362.304 152.267 361.919C152.088 361.533 151.998 361.076 151.998 360.548C151.998 360.026 152.088 359.572 152.267 359.187C152.446 358.803 152.696 358.506 153.016 358.296C153.335 358.086 153.705 357.982 154.124 357.982C154.448 357.982 154.704 358.036 154.892 358.144C155.082 358.25 155.227 358.371 155.326 358.507C155.428 358.641 155.507 358.751 155.563 358.837H155.628V356.387H156.392V363.024H155.654V362.26H155.563C155.507 362.35 155.427 362.465 155.323 362.603C155.219 362.739 155.071 362.861 154.879 362.969C154.687 363.075 154.431 363.128 154.111 363.128ZM154.215 362.441C154.521 362.441 154.781 362.361 154.992 362.201C155.204 362.039 155.365 361.816 155.475 361.53C155.586 361.243 155.641 360.911 155.641 360.535C155.641 360.164 155.587 359.839 155.479 359.56C155.371 359.279 155.211 359.061 154.999 358.905C154.787 358.748 154.526 358.669 154.215 358.669C153.891 358.669 153.621 358.752 153.404 358.918C153.191 359.082 153.03 359.306 152.922 359.589C152.816 359.87 152.763 360.185 152.763 360.535C152.763 360.89 152.817 361.212 152.925 361.501C153.035 361.789 153.197 362.018 153.411 362.188C153.627 362.357 153.895 362.441 154.215 362.441ZM158.457 363.076C158.297 363.076 158.16 363.019 158.045 362.905C157.931 362.79 157.874 362.653 157.874 362.493C157.874 362.333 157.931 362.196 158.045 362.081C158.16 361.967 158.297 361.91 158.457 361.91C158.617 361.91 158.754 361.967 158.868 362.081C158.983 362.196 159.04 362.333 159.04 362.493C159.04 362.599 159.013 362.696 158.959 362.785C158.907 362.873 158.837 362.944 158.749 362.998C158.662 363.05 158.565 363.076 158.457 363.076ZM158.457 359.382C158.297 359.382 158.16 359.324 158.045 359.21C157.931 359.095 157.874 358.958 157.874 358.798C157.874 358.639 157.931 358.501 158.045 358.387C158.16 358.272 158.297 358.215 158.457 358.215C158.617 358.215 158.754 358.272 158.868 358.387C158.983 358.501 159.04 358.639 159.04 358.798C159.04 358.904 159.013 359.001 158.959 359.09C158.907 359.179 158.837 359.25 158.749 359.304C158.662 359.356 158.565 359.382 158.457 359.382ZM164.924 361.858V357.58H165.65V361.858H164.924ZM163.148 360.082V359.356H167.426V360.082H163.148ZM168.67 363.024V362.441L170.861 360.043C171.118 359.762 171.33 359.518 171.496 359.31C171.663 359.101 171.786 358.904 171.866 358.721C171.948 358.535 171.989 358.34 171.989 358.137C171.989 357.904 171.933 357.702 171.82 357.531C171.71 357.361 171.559 357.229 171.367 357.136C171.174 357.043 170.958 356.996 170.719 356.996C170.464 356.996 170.241 357.049 170.051 357.155C169.863 357.259 169.717 357.405 169.613 357.593C169.512 357.781 169.461 358.001 169.461 358.254H168.696C168.696 357.865 168.786 357.524 168.965 357.23C169.145 356.936 169.389 356.707 169.698 356.543C170.009 356.379 170.358 356.296 170.744 356.296C171.133 356.296 171.478 356.379 171.778 356.543C172.079 356.707 172.314 356.928 172.485 357.207C172.655 357.486 172.741 357.796 172.741 358.137C172.741 358.381 172.697 358.62 172.608 358.853C172.522 359.085 172.37 359.343 172.154 359.628C171.94 359.911 171.643 360.257 171.263 360.665L169.772 362.26V362.311H172.857V363.024H168.67ZM176.361 363.115C175.873 363.115 175.457 362.982 175.113 362.717C174.77 362.449 174.507 362.061 174.326 361.553C174.144 361.043 174.053 360.427 174.053 359.706C174.053 358.989 174.144 358.376 174.326 357.868C174.509 357.358 174.773 356.969 175.116 356.702C175.462 356.432 175.877 356.296 176.361 356.296C176.845 356.296 177.258 356.432 177.602 356.702C177.948 356.969 178.211 357.358 178.393 357.868C178.576 358.376 178.668 358.989 178.668 359.706C178.668 360.427 178.578 361.043 178.396 361.553C178.215 362.061 177.952 362.449 177.609 362.717C177.265 362.982 176.849 363.115 176.361 363.115ZM176.361 362.402C176.845 362.402 177.221 362.169 177.489 361.702C177.757 361.235 177.89 360.57 177.89 359.706C177.89 359.131 177.829 358.642 177.706 358.238C177.585 357.834 177.41 357.526 177.181 357.314C176.954 357.102 176.681 356.996 176.361 356.996C175.881 356.996 175.506 357.233 175.236 357.706C174.966 358.177 174.831 358.844 174.831 359.706C174.831 360.281 174.892 360.769 175.013 361.171C175.134 361.573 175.308 361.878 175.534 362.088C175.763 362.297 176.039 362.402 176.361 362.402ZM180.238 363.076C180.079 363.076 179.941 363.019 179.827 362.905C179.712 362.79 179.655 362.653 179.655 362.493C179.655 362.333 179.712 362.196 179.827 362.081C179.941 361.967 180.079 361.91 180.238 361.91C180.398 361.91 180.536 361.967 180.65 362.081C180.765 362.196 180.822 362.333 180.822 362.493C180.822 362.599 180.795 362.696 180.741 362.785C180.689 362.873 180.619 362.944 180.53 362.998C180.444 363.05 180.346 363.076 180.238 363.076ZM182.026 361.663V361.002L184.942 356.387H185.422V357.411H185.098L182.894 360.898V360.95H186.822V361.663H182.026ZM185.15 363.024V361.462V361.154V356.387H185.915V363.024H185.15ZM193.987 361.78V361.43C193.987 361.188 194.036 360.966 194.136 360.766C194.237 360.562 194.384 360.4 194.577 360.279C194.771 360.156 195.007 360.095 195.283 360.095C195.564 360.095 195.799 360.156 195.99 360.279C196.18 360.4 196.323 360.562 196.421 360.766C196.518 360.966 196.566 361.188 196.566 361.43V361.78C196.566 362.022 196.517 362.244 196.417 362.448C196.32 362.648 196.175 362.811 195.983 362.934C195.793 363.055 195.56 363.115 195.283 363.115C195.002 363.115 194.766 363.055 194.573 362.934C194.381 362.811 194.235 362.648 194.136 362.448C194.036 362.244 193.987 362.022 193.987 361.78ZM194.648 361.43V361.78C194.648 361.981 194.695 362.161 194.791 362.321C194.886 362.479 195.05 362.558 195.283 362.558C195.51 362.558 195.67 362.479 195.763 362.321C195.858 362.161 195.905 361.981 195.905 361.78V361.43C195.905 361.229 195.86 361.05 195.769 360.892C195.679 360.732 195.516 360.652 195.283 360.652C195.056 360.652 194.893 360.732 194.794 360.892C194.697 361.05 194.648 361.229 194.648 361.43ZM190.681 357.982V357.632C190.681 357.39 190.731 357.168 190.83 356.967C190.932 356.764 191.079 356.602 191.271 356.481C191.465 356.358 191.701 356.296 191.977 356.296C192.258 356.296 192.494 356.358 192.684 356.481C192.874 356.602 193.018 356.764 193.115 356.967C193.212 357.168 193.261 357.39 193.261 357.632V357.982C193.261 358.224 193.211 358.446 193.112 358.649C193.015 358.85 192.87 359.012 192.678 359.135C192.487 359.256 192.254 359.317 191.977 359.317C191.697 359.317 191.46 359.256 191.268 359.135C191.075 359.012 190.93 358.85 190.83 358.649C190.731 358.446 190.681 358.224 190.681 357.982ZM191.342 357.632V357.982C191.342 358.183 191.39 358.363 191.485 358.523C191.58 358.681 191.744 358.759 191.977 358.759C192.204 358.759 192.364 358.681 192.457 358.523C192.552 358.363 192.6 358.183 192.6 357.982V357.632C192.6 357.431 192.554 357.251 192.464 357.094C192.373 356.934 192.211 356.854 191.977 356.854C191.751 356.854 191.588 356.934 191.488 357.094C191.391 357.251 191.342 357.431 191.342 357.632ZM190.927 363.024L195.491 356.387H196.229L191.666 363.024H190.927ZM200.87 359.706C200.87 358.889 200.976 358.138 201.188 357.453C201.402 356.766 201.706 356.134 202.102 355.558H202.776C202.62 355.771 202.474 356.035 202.338 356.348C202.204 356.659 202.087 357.002 201.985 357.376C201.884 357.747 201.804 358.132 201.745 358.529C201.689 358.927 201.661 359.319 201.661 359.706C201.661 360.22 201.711 360.742 201.81 361.271C201.91 361.8 202.043 362.292 202.212 362.746C202.381 363.199 202.568 363.569 202.776 363.854H202.102C201.706 363.277 201.402 362.646 201.188 361.961C200.976 361.274 200.87 360.523 200.87 359.706ZM206.225 356.387V363.024H205.421V357.23H205.382L203.762 358.306V357.489L205.421 356.387H206.225ZM210.208 363.115C209.828 363.115 209.485 363.04 209.181 362.888C208.876 362.737 208.632 362.53 208.448 362.266C208.264 362.002 208.164 361.702 208.147 361.365H208.925C208.955 361.665 209.091 361.914 209.333 362.111C209.577 362.305 209.869 362.402 210.208 362.402C210.48 362.402 210.722 362.338 210.934 362.211C211.148 362.083 211.315 361.908 211.436 361.686C211.559 361.461 211.621 361.207 211.621 360.924C211.621 360.635 211.557 360.377 211.43 360.15C211.304 359.921 211.132 359.74 210.911 359.609C210.691 359.477 210.439 359.41 210.156 359.408C209.953 359.406 209.744 359.437 209.531 359.502C209.317 359.564 209.141 359.645 209.002 359.745L208.25 359.654L208.652 356.387H212.101V357.1H209.326L209.093 359.058H209.132C209.268 358.95 209.439 358.86 209.644 358.789C209.849 358.717 210.063 358.682 210.286 358.682C210.692 358.682 211.054 358.779 211.371 358.973C211.691 359.166 211.942 359.429 212.123 359.764C212.307 360.099 212.399 360.481 212.399 360.911C212.399 361.335 212.304 361.713 212.113 362.046C211.926 362.376 211.666 362.638 211.336 362.83C211.005 363.02 210.629 363.115 210.208 363.115ZM213.531 361.663V361.002L216.447 356.387H216.927V357.411H216.603L214.399 360.898V360.95H218.327V361.663H213.531ZM216.655 363.024V361.462V361.154V356.387H217.42V363.024H216.655ZM219.8 363.076C219.64 363.076 219.503 363.019 219.388 362.905C219.274 362.79 219.217 362.653 219.217 362.493C219.217 362.333 219.274 362.196 219.388 362.081C219.503 361.967 219.64 361.91 219.8 361.91C219.96 361.91 220.097 361.967 220.211 362.081C220.326 362.196 220.383 362.333 220.383 362.493C220.383 362.599 220.356 362.696 220.302 362.785C220.25 362.873 220.18 362.944 220.092 362.998C220.005 363.05 219.908 363.076 219.8 363.076ZM223.283 356.387V363.024H222.479V357.23H222.44L220.82 358.306V357.489L222.479 356.387H223.283ZM225.192 363.024V362.441L227.383 360.043C227.64 359.762 227.851 359.518 228.018 359.31C228.184 359.101 228.307 358.904 228.387 358.721C228.469 358.535 228.51 358.34 228.51 358.137C228.51 357.904 228.454 357.702 228.342 357.531C228.232 357.361 228.08 357.229 227.888 357.136C227.696 357.043 227.48 356.996 227.24 356.996C226.985 356.996 226.763 357.049 226.572 357.155C226.384 357.259 226.239 357.405 226.135 357.593C226.033 357.781 225.983 358.001 225.983 358.254H225.218C225.218 357.865 225.307 357.524 225.487 357.23C225.666 356.936 225.91 356.707 226.219 356.543C226.53 356.379 226.879 356.296 227.266 356.296C227.655 356.296 227.999 356.379 228.3 356.543C228.6 356.707 228.836 356.928 229.006 357.207C229.177 357.486 229.262 357.796 229.262 358.137C229.262 358.381 229.218 358.62 229.129 358.853C229.043 359.085 228.892 359.343 228.676 359.628C228.462 359.911 228.165 360.257 227.784 360.665L226.294 362.26V362.311H229.379V363.024H225.192ZM232.882 363.115C232.394 363.115 231.978 362.982 231.635 362.717C231.291 362.449 231.029 362.061 230.847 361.553C230.666 361.043 230.575 360.427 230.575 359.706C230.575 358.989 230.666 358.376 230.847 357.868C231.031 357.358 231.294 356.969 231.638 356.702C231.983 356.432 232.398 356.296 232.882 356.296C233.366 356.296 233.78 356.432 234.124 356.702C234.469 356.969 234.733 357.358 234.914 357.868C235.098 358.376 235.19 358.989 235.19 359.706C235.19 360.427 235.099 361.043 234.918 361.553C234.736 362.061 234.474 362.449 234.13 362.717C233.786 362.982 233.371 363.115 232.882 363.115ZM232.882 362.402C233.366 362.402 233.742 362.169 234.01 361.702C234.278 361.235 234.412 360.57 234.412 359.706C234.412 359.131 234.35 358.642 234.227 358.238C234.106 357.834 233.931 357.526 233.702 357.314C233.475 357.102 233.202 356.996 232.882 356.996C232.403 356.996 232.028 357.233 231.758 357.706C231.488 358.177 231.353 358.844 231.353 359.706C231.353 360.281 231.413 360.769 231.534 361.171C231.655 361.573 231.829 361.878 232.056 362.088C232.285 362.297 232.56 362.402 232.882 362.402ZM238.068 359.706C238.068 360.523 237.961 361.274 237.747 361.961C237.535 362.646 237.231 363.277 236.836 363.854H236.162C236.318 363.64 236.462 363.377 236.596 363.063C236.732 362.752 236.851 362.411 236.953 362.039C237.054 361.665 237.133 361.28 237.189 360.882C237.248 360.483 237.277 360.09 237.277 359.706C237.277 359.192 237.227 358.67 237.128 358.141C237.028 357.611 236.894 357.12 236.726 356.666C236.557 356.212 236.369 355.843 236.162 355.558H236.836C237.231 356.134 237.535 356.766 237.747 357.453C237.961 358.138 238.068 358.889 238.068 359.706Z" fill="#5F616E"/>
<path d="M82.2361 385.84H81.3935L83.8306 379.203H84.6602L87.0973 385.84H86.2547L84.2713 380.253H84.2195L82.2361 385.84ZM82.5472 383.247H85.9436V383.96H82.5472V383.247ZM90.0497 385.944C89.583 385.944 89.1812 385.833 88.8441 385.613C88.5071 385.393 88.2478 385.089 88.0663 384.702C87.8849 384.316 87.7941 383.874 87.7941 383.377C87.7941 382.871 87.887 382.425 88.0728 382.038C88.2608 381.649 88.5222 381.346 88.8571 381.128C89.1941 380.907 89.5874 380.797 90.0368 380.797C90.3868 380.797 90.7022 380.862 90.9831 380.992C91.2639 381.121 91.494 381.303 91.6734 381.536C91.8527 381.769 91.964 382.042 92.0072 382.353H91.2423C91.184 382.126 91.0544 381.925 90.8534 381.75C90.6547 381.573 90.3868 381.484 90.0497 381.484C89.7516 381.484 89.4901 381.562 89.2654 381.718C89.0429 381.871 88.869 382.088 88.7437 382.369C88.6205 382.648 88.5589 382.975 88.5589 383.351C88.5589 383.735 88.6194 384.07 88.7404 384.356C88.8636 384.641 89.0364 384.862 89.259 385.02C89.4837 385.178 89.7472 385.256 90.0497 385.256C90.2485 385.256 90.4289 385.222 90.5909 385.153C90.753 385.084 90.8902 384.984 91.0025 384.855C91.1149 384.725 91.1948 384.569 91.2423 384.388H92.0072C91.964 384.682 91.857 384.946 91.6863 385.182C91.5178 385.415 91.2942 385.601 91.0155 385.739C90.7389 385.875 90.417 385.944 90.0497 385.944ZM95.1475 385.944C94.6808 385.944 94.279 385.833 93.9419 385.613C93.6049 385.393 93.3456 385.089 93.1641 384.702C92.9827 384.316 92.8919 383.874 92.8919 383.377C92.8919 382.871 92.9848 382.425 93.1706 382.038C93.3586 381.649 93.62 381.346 93.9549 381.128C94.2919 380.907 94.6852 380.797 95.1346 380.797C95.4846 380.797 95.8 380.862 96.0809 380.992C96.3618 381.121 96.5918 381.303 96.7712 381.536C96.9505 381.769 97.0618 382.042 97.105 382.353H96.3401C96.2818 382.126 96.1522 381.925 95.9512 381.75C95.7525 381.573 95.4846 381.484 95.1475 381.484C94.8494 381.484 94.5879 381.562 94.3632 381.718C94.1407 381.871 93.9668 382.088 93.8415 382.369C93.7183 382.648 93.6567 382.975 93.6567 383.351C93.6567 383.735 93.7172 384.07 93.8382 384.356C93.9614 384.641 94.1342 384.862 94.3568 385.02C94.5815 385.178 94.845 385.256 95.1475 385.256C95.3463 385.256 95.5267 385.222 95.6887 385.153C95.8508 385.084 95.988 384.984 96.1003 384.855C96.2127 384.725 96.2926 384.569 96.3401 384.388H97.105C97.0618 384.682 96.9548 384.946 96.7841 385.182C96.6156 385.415 96.392 385.601 96.1133 385.739C95.8367 385.875 95.5148 385.944 95.1475 385.944ZM100.245 385.944C99.7959 385.944 99.4016 385.837 99.0624 385.623C98.7254 385.409 98.4618 385.11 98.2717 384.725C98.0837 384.34 97.9897 383.891 97.9897 383.377C97.9897 382.858 98.0837 382.406 98.2717 382.019C98.4618 381.632 98.7254 381.332 99.0624 381.118C99.4016 380.904 99.7959 380.797 100.245 380.797C100.695 380.797 101.088 380.904 101.425 381.118C101.764 381.332 102.028 381.632 102.216 382.019C102.406 382.406 102.501 382.858 102.501 383.377C102.501 383.891 102.406 384.34 102.216 384.725C102.028 385.11 101.764 385.409 101.425 385.623C101.088 385.837 100.695 385.944 100.245 385.944ZM100.245 385.256C100.587 385.256 100.868 385.169 101.088 384.994C101.308 384.819 101.471 384.589 101.577 384.304C101.683 384.019 101.736 383.71 101.736 383.377C101.736 383.044 101.683 382.734 101.577 382.447C101.471 382.159 101.308 381.927 101.088 381.75C100.868 381.573 100.587 381.484 100.245 381.484C99.904 381.484 99.6231 381.573 99.4027 381.75C99.1823 381.927 99.0192 382.159 98.9134 382.447C98.8075 382.734 98.7546 383.044 98.7546 383.377C98.7546 383.71 98.8075 384.019 98.9134 384.304C99.0192 384.589 99.1823 384.819 99.4027 384.994C99.6231 385.169 99.904 385.256 100.245 385.256ZM106.806 383.805V380.862H107.57V385.84H106.806V384.997H106.754C106.637 385.25 106.456 385.465 106.209 385.642C105.963 385.817 105.652 385.905 105.276 385.905C104.965 385.905 104.688 385.837 104.446 385.7C104.204 385.562 104.014 385.355 103.876 385.078C103.738 384.8 103.668 384.448 103.668 384.025V380.862H104.433V383.973C104.433 384.336 104.535 384.626 104.738 384.842C104.943 385.058 105.205 385.166 105.522 385.166C105.712 385.166 105.906 385.117 106.102 385.02C106.301 384.923 106.467 384.774 106.601 384.573C106.737 384.372 106.806 384.116 106.806 383.805ZM109.736 382.845V385.84H108.971V380.862H109.71V381.64H109.775C109.892 381.387 110.069 381.184 110.306 381.03C110.544 380.875 110.851 380.797 111.227 380.797C111.564 380.797 111.859 380.866 112.112 381.005C112.364 381.141 112.561 381.348 112.701 381.627C112.842 381.903 112.912 382.253 112.912 382.677V385.84H112.147V382.729C112.147 382.338 112.046 382.033 111.843 381.815C111.64 381.594 111.361 381.484 111.006 381.484C110.762 381.484 110.544 381.537 110.352 381.643C110.162 381.749 110.012 381.903 109.901 382.106C109.791 382.31 109.736 382.556 109.736 382.845ZM116.475 380.862V381.51H113.895V380.862H116.475ZM114.647 379.669H115.412V384.414C115.412 384.63 115.443 384.792 115.506 384.9C115.57 385.006 115.652 385.077 115.752 385.114C115.853 385.148 115.96 385.166 116.073 385.166C116.157 385.166 116.226 385.161 116.28 385.153C116.334 385.142 116.377 385.133 116.41 385.127L116.565 385.814C116.513 385.833 116.441 385.853 116.348 385.872C116.255 385.894 116.137 385.905 115.995 385.905C115.779 385.905 115.567 385.858 115.36 385.765C115.154 385.672 114.984 385.531 114.848 385.341C114.714 385.151 114.647 384.911 114.647 384.621V379.669ZM120.295 385.84V379.203H124.301V379.916H121.099V382.158H124.094V382.871H121.099V385.127H124.353V385.84H120.295ZM126.411 382.845V385.84H125.646V380.862H126.385V381.64H126.45C126.566 381.387 126.744 381.184 126.981 381.03C127.219 380.875 127.526 380.797 127.902 380.797C128.239 380.797 128.534 380.866 128.786 381.005C129.039 381.141 129.236 381.348 129.376 381.627C129.517 381.903 129.587 382.253 129.587 382.677V385.84H128.822V382.729C128.822 382.338 128.721 382.033 128.517 381.815C128.314 381.594 128.036 381.484 127.681 381.484C127.437 381.484 127.219 381.537 127.027 381.643C126.837 381.749 126.686 381.903 126.576 382.106C126.466 382.31 126.411 382.556 126.411 382.845ZM132.994 387.81C132.624 387.81 132.307 387.763 132.041 387.668C131.775 387.575 131.554 387.452 131.377 387.298C131.202 387.147 131.062 386.985 130.959 386.812L131.568 386.384C131.637 386.475 131.724 386.579 131.83 386.695C131.936 386.814 132.081 386.917 132.265 387.003C132.45 387.092 132.693 387.136 132.994 387.136C133.396 387.136 133.727 387.039 133.989 386.844C134.25 386.65 134.381 386.345 134.381 385.931V384.919H134.316C134.26 385.01 134.18 385.123 134.076 385.256C133.975 385.388 133.828 385.506 133.635 385.61C133.445 385.711 133.188 385.762 132.864 385.762C132.462 385.762 132.101 385.667 131.782 385.477C131.464 385.287 131.212 385.01 131.027 384.647C130.843 384.284 130.751 383.843 130.751 383.325C130.751 382.815 130.841 382.371 131.02 381.993C131.199 381.613 131.449 381.319 131.769 381.111C132.089 380.902 132.458 380.797 132.877 380.797C133.201 380.797 133.458 380.851 133.648 380.959C133.841 381.065 133.988 381.186 134.089 381.322C134.193 381.456 134.273 381.566 134.329 381.653H134.407V380.862H135.146V385.982C135.146 386.41 135.048 386.758 134.854 387.026C134.662 387.296 134.402 387.494 134.076 387.619C133.752 387.747 133.391 387.81 132.994 387.81ZM132.968 385.075C133.275 385.075 133.534 385.005 133.746 384.864C133.957 384.724 134.118 384.522 134.229 384.258C134.339 383.995 134.394 383.679 134.394 383.312C134.394 382.953 134.34 382.637 134.232 382.362C134.124 382.088 133.964 381.873 133.752 381.718C133.54 381.562 133.279 381.484 132.968 381.484C132.644 381.484 132.374 381.566 132.158 381.73C131.944 381.895 131.783 382.115 131.675 382.392C131.569 382.668 131.516 382.975 131.516 383.312C131.516 383.658 131.57 383.963 131.678 384.229C131.788 384.493 131.95 384.7 132.164 384.851C132.38 385 132.648 385.075 132.968 385.075ZM138.011 385.957C137.695 385.957 137.409 385.897 137.152 385.778C136.895 385.657 136.69 385.483 136.539 385.256C136.388 385.027 136.312 384.751 136.312 384.427C136.312 384.142 136.369 383.91 136.481 383.733C136.593 383.554 136.743 383.414 136.931 383.312C137.119 383.21 137.327 383.135 137.554 383.085C137.783 383.033 138.013 382.992 138.244 382.962C138.546 382.923 138.792 382.894 138.98 382.874C139.17 382.853 139.308 382.817 139.394 382.768C139.483 382.718 139.527 382.631 139.527 382.508V382.482C139.527 382.163 139.44 381.914 139.265 381.737C139.092 381.56 138.829 381.471 138.477 381.471C138.112 381.471 137.826 381.551 137.618 381.711C137.411 381.871 137.265 382.042 137.181 382.223L136.455 381.964C136.585 381.661 136.757 381.426 136.974 381.257C137.192 381.087 137.429 380.968 137.686 380.901C137.946 380.832 138.201 380.797 138.451 380.797C138.611 380.797 138.795 380.817 139.002 380.855C139.212 380.892 139.414 380.969 139.608 381.086C139.805 381.202 139.968 381.378 140.098 381.614C140.227 381.849 140.292 382.165 140.292 382.56V385.84H139.527V385.166H139.488C139.437 385.274 139.35 385.389 139.229 385.513C139.108 385.636 138.947 385.74 138.746 385.827C138.545 385.913 138.3 385.957 138.011 385.957ZM138.127 385.269C138.43 385.269 138.685 385.21 138.892 385.091C139.102 384.972 139.259 384.819 139.365 384.631C139.473 384.443 139.527 384.245 139.527 384.038V383.338C139.495 383.377 139.424 383.412 139.313 383.445C139.205 383.475 139.08 383.502 138.937 383.526C138.797 383.548 138.66 383.567 138.526 383.584C138.394 383.599 138.287 383.612 138.205 383.623C138.006 383.649 137.82 383.691 137.648 383.75C137.477 383.806 137.339 383.891 137.233 384.006C137.129 384.118 137.077 384.271 137.077 384.466C137.077 384.731 137.176 384.932 137.372 385.069C137.571 385.202 137.823 385.269 138.127 385.269ZM143.697 387.81C143.328 387.81 143.01 387.763 142.745 387.668C142.479 387.575 142.257 387.452 142.08 387.298C141.905 387.147 141.766 386.985 141.662 386.812L142.271 386.384C142.341 386.475 142.428 386.579 142.534 386.695C142.64 386.814 142.785 386.917 142.968 387.003C143.154 387.092 143.397 387.136 143.697 387.136C144.099 387.136 144.431 387.039 144.692 386.844C144.954 386.65 145.084 386.345 145.084 385.931V384.919H145.02C144.963 385.01 144.884 385.123 144.78 385.256C144.678 385.388 144.531 385.506 144.339 385.61C144.149 385.711 143.892 385.762 143.568 385.762C143.166 385.762 142.805 385.667 142.485 385.477C142.168 385.287 141.916 385.01 141.73 384.647C141.547 384.284 141.455 383.843 141.455 383.325C141.455 382.815 141.544 382.371 141.724 381.993C141.903 381.613 142.153 381.319 142.472 381.111C142.792 380.902 143.162 380.797 143.581 380.797C143.905 380.797 144.162 380.851 144.352 380.959C144.544 381.065 144.691 381.186 144.793 381.322C144.897 381.456 144.976 381.566 145.033 381.653H145.11V380.862H145.849V385.982C145.849 386.41 145.752 386.758 145.558 387.026C145.365 387.296 145.106 387.494 144.78 387.619C144.456 387.747 144.095 387.81 143.697 387.81ZM143.671 385.075C143.978 385.075 144.238 385.005 144.449 384.864C144.661 384.724 144.822 384.522 144.932 384.258C145.042 383.995 145.097 383.679 145.097 383.312C145.097 382.953 145.043 382.637 144.935 382.362C144.827 382.088 144.667 381.873 144.456 381.718C144.244 381.562 143.983 381.484 143.671 381.484C143.347 381.484 143.077 381.566 142.861 381.73C142.647 381.895 142.486 382.115 142.378 382.392C142.273 382.668 142.22 382.975 142.22 383.312C142.22 383.658 142.274 383.963 142.382 384.229C142.492 384.493 142.654 384.7 142.868 384.851C143.084 385 143.352 385.075 143.671 385.075ZM149.336 385.944C148.857 385.944 148.443 385.838 148.095 385.626C147.75 385.412 147.483 385.114 147.295 384.731C147.109 384.347 147.016 383.9 147.016 383.39C147.016 382.88 147.109 382.431 147.295 382.042C147.483 381.651 147.744 381.346 148.079 381.128C148.416 380.907 148.809 380.797 149.259 380.797C149.518 380.797 149.774 380.84 150.027 380.927C150.28 381.013 150.51 381.154 150.717 381.348C150.924 381.54 151.09 381.795 151.213 382.113C151.336 382.431 151.398 382.822 151.398 383.286V383.61H147.56V382.949H150.62C150.62 382.668 150.564 382.418 150.451 382.197C150.341 381.977 150.183 381.803 149.978 381.675C149.775 381.548 149.535 381.484 149.259 381.484C148.954 381.484 148.69 381.56 148.468 381.711C148.248 381.86 148.078 382.055 147.959 382.294C147.84 382.534 147.781 382.791 147.781 383.066V383.506C147.781 383.882 147.846 384.201 147.975 384.462C148.107 384.722 148.29 384.919 148.523 385.056C148.756 385.19 149.027 385.256 149.336 385.256C149.537 385.256 149.719 385.228 149.881 385.172C150.045 385.114 150.187 385.027 150.305 384.913C150.424 384.796 150.516 384.652 150.581 384.479L151.32 384.686C151.242 384.937 151.111 385.157 150.928 385.347C150.744 385.535 150.517 385.682 150.247 385.788C149.977 385.892 149.673 385.944 149.336 385.944ZM154.441 385.944C154.026 385.944 153.66 385.839 153.342 385.629C153.024 385.417 152.776 385.119 152.597 384.735C152.417 384.348 152.328 383.891 152.328 383.364C152.328 382.841 152.417 382.387 152.597 382.003C152.776 381.618 153.026 381.321 153.345 381.111C153.665 380.902 154.035 380.797 154.454 380.797C154.778 380.797 155.034 380.851 155.222 380.959C155.412 381.065 155.557 381.186 155.656 381.322C155.758 381.456 155.836 381.566 155.893 381.653H155.957V379.203H156.722V385.84H155.983V385.075H155.893C155.836 385.166 155.756 385.28 155.653 385.419C155.549 385.555 155.401 385.677 155.209 385.785C155.016 385.891 154.76 385.944 154.441 385.944ZM154.544 385.256C154.851 385.256 155.11 385.177 155.322 385.017C155.534 384.855 155.695 384.631 155.805 384.346C155.915 384.058 155.97 383.727 155.97 383.351C155.97 382.979 155.916 382.654 155.808 382.375C155.7 382.095 155.54 381.876 155.329 381.721C155.117 381.563 154.856 381.484 154.544 381.484C154.22 381.484 153.95 381.567 153.734 381.734C153.52 381.898 153.359 382.122 153.251 382.405C153.145 382.685 153.093 383.001 153.093 383.351C153.093 383.705 153.147 384.027 153.255 384.317C153.365 384.604 153.527 384.833 153.741 385.004C153.957 385.172 154.225 385.256 154.544 385.256ZM158.787 385.892C158.627 385.892 158.49 385.834 158.375 385.72C158.261 385.605 158.203 385.468 158.203 385.308C158.203 385.148 158.261 385.011 158.375 384.897C158.49 384.782 158.627 384.725 158.787 384.725C158.947 384.725 159.084 384.782 159.198 384.897C159.313 385.011 159.37 385.148 159.37 385.308C159.37 385.414 159.343 385.511 159.289 385.6C159.237 385.689 159.167 385.76 159.078 385.814C158.992 385.866 158.895 385.892 158.787 385.892ZM158.787 382.197C158.627 382.197 158.49 382.14 158.375 382.025C158.261 381.911 158.203 381.774 158.203 381.614C158.203 381.454 158.261 381.317 158.375 381.202C158.49 381.088 158.627 381.03 158.787 381.03C158.947 381.03 159.084 381.088 159.198 381.202C159.313 381.317 159.37 381.454 159.37 381.614C159.37 381.72 159.343 381.817 159.289 381.905C159.237 381.994 159.167 382.065 159.078 382.119C158.992 382.171 158.895 382.197 158.787 382.197ZM165.254 384.673V380.395H165.98V384.673H165.254ZM163.478 382.897V382.171H167.756V382.897H163.478ZM171.645 379.203V385.84H170.842V380.045H170.803L169.182 381.121V380.305L170.842 379.203H171.645ZM175.719 385.931C175.231 385.931 174.815 385.798 174.471 385.532C174.128 385.264 173.865 384.876 173.684 384.369C173.502 383.859 173.412 383.243 173.412 382.521C173.412 381.804 173.502 381.191 173.684 380.684C173.868 380.174 174.131 379.785 174.475 379.517C174.82 379.247 175.235 379.112 175.719 379.112C176.203 379.112 176.617 379.247 176.96 379.517C177.306 379.785 177.57 380.174 177.751 380.684C177.935 381.191 178.027 381.804 178.027 382.521C178.027 383.243 177.936 383.859 177.754 384.369C177.573 384.876 177.31 385.264 176.967 385.532C176.623 385.798 176.207 385.931 175.719 385.931ZM175.719 385.218C176.203 385.218 176.579 384.984 176.847 384.518C177.115 384.051 177.249 383.385 177.249 382.521C177.249 381.947 177.187 381.457 177.064 381.053C176.943 380.649 176.768 380.341 176.539 380.13C176.312 379.918 176.039 379.812 175.719 379.812C175.239 379.812 174.865 380.049 174.595 380.522C174.324 380.993 174.189 381.659 174.189 382.521C174.189 383.096 174.25 383.584 174.371 383.986C174.492 384.388 174.666 384.694 174.893 384.903C175.122 385.113 175.397 385.218 175.719 385.218ZM179.597 385.892C179.437 385.892 179.3 385.834 179.185 385.72C179.071 385.605 179.013 385.468 179.013 385.308C179.013 385.148 179.071 385.011 179.185 384.897C179.3 384.782 179.437 384.725 179.597 384.725C179.757 384.725 179.894 384.782 180.008 384.897C180.123 385.011 180.18 385.148 180.18 385.308C180.18 385.414 180.153 385.511 180.099 385.6C180.047 385.689 179.977 385.76 179.888 385.814C179.802 385.866 179.705 385.892 179.597 385.892ZM183.533 385.931C183.105 385.931 182.724 385.857 182.389 385.71C182.056 385.563 181.791 385.359 181.595 385.098C181.4 384.834 181.294 384.528 181.277 384.181H182.094C182.111 384.394 182.185 384.579 182.314 384.735C182.444 384.888 182.613 385.007 182.823 385.091C183.033 385.175 183.265 385.218 183.52 385.218C183.805 385.218 184.058 385.168 184.278 385.069C184.498 384.969 184.671 384.831 184.797 384.654C184.922 384.477 184.985 384.271 184.985 384.038C184.985 383.794 184.924 383.579 184.803 383.393C184.682 383.205 184.505 383.058 184.272 382.952C184.038 382.846 183.753 382.793 183.416 382.793H182.885V382.08H183.416C183.68 382.08 183.911 382.033 184.11 381.938C184.311 381.843 184.467 381.709 184.58 381.536C184.694 381.363 184.751 381.16 184.751 380.927C184.751 380.702 184.702 380.507 184.602 380.34C184.503 380.174 184.362 380.044 184.181 379.951C184.002 379.858 183.79 379.812 183.546 379.812C183.317 379.812 183.101 379.854 182.898 379.938C182.697 380.02 182.532 380.14 182.405 380.298C182.277 380.454 182.208 380.642 182.198 380.862H181.42C181.433 380.514 181.537 380.209 181.734 379.948C181.931 379.684 182.188 379.479 182.505 379.332C182.825 379.185 183.176 379.112 183.559 379.112C183.969 379.112 184.321 379.195 184.615 379.361C184.909 379.526 185.135 379.743 185.292 380.013C185.45 380.283 185.529 380.575 185.529 380.888C185.529 381.262 185.431 381.58 185.234 381.844C185.04 382.108 184.775 382.29 184.44 382.392V382.443C184.859 382.513 185.187 382.691 185.422 382.978C185.658 383.263 185.775 383.617 185.775 384.038C185.775 384.399 185.677 384.723 185.48 385.01C185.286 385.295 185.02 385.52 184.683 385.684C184.346 385.848 183.963 385.931 183.533 385.931ZM193.051 384.595V384.245C193.051 384.003 193.101 383.782 193.2 383.581C193.302 383.378 193.449 383.216 193.641 383.095C193.835 382.972 194.071 382.91 194.347 382.91C194.628 382.91 194.864 382.972 195.054 383.095C195.244 383.216 195.388 383.378 195.485 383.581C195.582 383.782 195.631 384.003 195.631 384.245V384.595C195.631 384.837 195.581 385.06 195.482 385.263C195.384 385.464 195.24 385.626 195.047 385.749C194.857 385.87 194.624 385.931 194.347 385.931C194.066 385.931 193.83 385.87 193.638 385.749C193.445 385.626 193.299 385.464 193.2 385.263C193.101 385.06 193.051 384.837 193.051 384.595ZM193.712 384.245V384.595C193.712 384.796 193.76 384.977 193.855 385.137C193.95 385.294 194.114 385.373 194.347 385.373C194.574 385.373 194.734 385.294 194.827 385.137C194.922 384.977 194.97 384.796 194.97 384.595V384.245C194.97 384.044 194.924 383.865 194.833 383.707C194.743 383.548 194.581 383.468 194.347 383.468C194.12 383.468 193.957 383.548 193.858 383.707C193.761 383.865 193.712 384.044 193.712 384.245ZM189.745 380.797V380.447C189.745 380.205 189.795 379.984 189.894 379.783C189.996 379.58 190.143 379.418 190.335 379.297C190.53 379.173 190.765 379.112 191.042 379.112C191.323 379.112 191.558 379.173 191.748 379.297C191.938 379.418 192.082 379.58 192.179 379.783C192.276 379.984 192.325 380.205 192.325 380.447V380.797C192.325 381.039 192.275 381.262 192.176 381.465C192.079 381.666 191.934 381.828 191.742 381.951C191.552 382.072 191.318 382.132 191.042 382.132C190.761 382.132 190.524 382.072 190.332 381.951C190.14 381.828 189.994 381.666 189.894 381.465C189.795 381.262 189.745 381.039 189.745 380.797ZM190.406 380.447V380.797C190.406 380.998 190.454 381.178 190.549 381.338C190.644 381.496 190.808 381.575 191.042 381.575C191.269 381.575 191.428 381.496 191.521 381.338C191.616 381.178 191.664 380.998 191.664 380.797V380.447C191.664 380.246 191.619 380.067 191.528 379.909C191.437 379.749 191.275 379.669 191.042 379.669C190.815 379.669 190.652 379.749 190.552 379.909C190.455 380.067 190.406 380.246 190.406 380.447ZM189.992 385.84L194.555 379.203H195.294L190.731 385.84H189.992ZM199.935 382.521C199.935 381.705 200.04 380.954 200.252 380.269C200.466 379.582 200.771 378.95 201.166 378.373H201.84C201.685 378.587 201.539 378.85 201.403 379.164C201.269 379.475 201.151 379.817 201.049 380.191C200.948 380.563 200.868 380.947 200.81 381.345C200.753 381.742 200.725 382.135 200.725 382.521C200.725 383.035 200.775 383.557 200.874 384.087C200.974 384.616 201.108 385.107 201.276 385.561C201.445 386.015 201.633 386.384 201.84 386.669H201.166C200.771 386.093 200.466 385.462 200.252 384.777C200.04 384.09 199.935 383.338 199.935 382.521ZM203.163 385.84L206.132 379.967V379.916H202.709V379.203H206.961V379.955L204.006 385.84H203.163ZM210.154 385.931C209.774 385.931 209.432 385.855 209.127 385.704C208.822 385.552 208.578 385.345 208.395 385.081C208.211 384.818 208.111 384.518 208.093 384.181H208.871C208.901 384.481 209.037 384.729 209.279 384.926C209.524 385.12 209.815 385.218 210.154 385.218C210.427 385.218 210.669 385.154 210.88 385.026C211.094 384.899 211.262 384.724 211.383 384.501C211.506 384.277 211.567 384.023 211.567 383.74C211.567 383.45 211.504 383.192 211.376 382.965C211.251 382.736 211.078 382.556 210.858 382.424C210.637 382.292 210.386 382.225 210.103 382.223C209.899 382.221 209.691 382.252 209.477 382.317C209.263 382.38 209.087 382.461 208.949 382.56L208.197 382.469L208.599 379.203H212.047V379.916H209.273L209.04 381.873H209.078C209.215 381.765 209.385 381.675 209.591 381.604C209.796 381.533 210.01 381.497 210.232 381.497C210.638 381.497 211 381.594 211.318 381.789C211.638 381.981 211.888 382.245 212.07 382.58C212.253 382.914 212.345 383.297 212.345 383.727C212.345 384.15 212.25 384.528 212.06 384.861C211.872 385.192 211.613 385.453 211.282 385.645C210.952 385.836 210.576 385.931 210.154 385.931ZM213.953 385.892C213.794 385.892 213.656 385.834 213.542 385.72C213.427 385.605 213.37 385.468 213.37 385.308C213.37 385.148 213.427 385.011 213.542 384.897C213.656 384.782 213.794 384.725 213.953 384.725C214.113 384.725 214.251 384.782 214.365 384.897C214.48 385.011 214.537 385.148 214.537 385.308C214.537 385.414 214.51 385.511 214.456 385.6C214.404 385.689 214.334 385.76 214.245 385.814C214.159 385.866 214.061 385.892 213.953 385.892ZM215.741 384.479V383.818L218.658 379.203H219.137V380.227H218.813L216.609 383.714V383.766H220.537V384.479H215.741ZM218.865 385.84V384.278V383.97V379.203H219.63V385.84H218.865ZM223.826 385.931C223.446 385.931 223.103 385.855 222.798 385.704C222.494 385.552 222.25 385.345 222.066 385.081C221.882 384.818 221.782 384.518 221.765 384.181H222.542C222.573 384.481 222.709 384.729 222.951 384.926C223.195 385.12 223.487 385.218 223.826 385.218C224.098 385.218 224.34 385.154 224.552 385.026C224.766 384.899 224.933 384.724 225.054 384.501C225.177 384.277 225.239 384.023 225.239 383.74C225.239 383.45 225.175 383.192 225.048 382.965C224.922 382.736 224.749 382.556 224.529 382.424C224.309 382.292 224.057 382.225 223.774 382.223C223.571 382.221 223.362 382.252 223.148 382.317C222.935 382.38 222.759 382.461 222.62 382.56L221.868 382.469L222.27 379.203H225.718V379.916H222.944L222.711 381.873H222.75C222.886 381.765 223.057 381.675 223.262 381.604C223.467 381.533 223.681 381.497 223.904 381.497C224.31 381.497 224.672 381.594 224.989 381.789C225.309 381.981 225.56 382.245 225.741 382.58C225.925 382.914 226.017 383.297 226.017 383.727C226.017 384.15 225.922 384.528 225.731 384.861C225.543 385.192 225.284 385.453 224.954 385.645C224.623 385.836 224.247 385.931 223.826 385.931ZM229.469 385.931C228.981 385.931 228.565 385.798 228.221 385.532C227.878 385.264 227.615 384.876 227.434 384.369C227.252 383.859 227.161 383.243 227.161 382.521C227.161 381.804 227.252 381.191 227.434 380.684C227.617 380.174 227.881 379.785 228.224 379.517C228.57 379.247 228.985 379.112 229.469 379.112C229.953 379.112 230.367 379.247 230.71 379.517C231.056 379.785 231.319 380.174 231.501 380.684C231.685 381.191 231.776 381.804 231.776 382.521C231.776 383.243 231.686 383.859 231.504 384.369C231.323 384.876 231.06 385.264 230.717 385.532C230.373 385.798 229.957 385.931 229.469 385.931ZM229.469 385.218C229.953 385.218 230.329 384.984 230.597 384.518C230.865 384.051 230.999 383.385 230.999 382.521C230.999 381.947 230.937 381.457 230.814 381.053C230.693 380.649 230.518 380.341 230.289 380.13C230.062 379.918 229.789 379.812 229.469 379.812C228.989 379.812 228.614 380.049 228.344 380.522C228.074 380.993 227.939 381.659 227.939 382.521C227.939 383.096 228 383.584 228.121 383.986C228.242 384.388 228.416 384.694 228.642 384.903C228.871 385.113 229.147 385.218 229.469 385.218ZM234.654 382.521C234.654 383.338 234.547 384.09 234.333 384.777C234.122 385.462 233.818 386.093 233.423 386.669H232.749C232.904 386.456 233.049 386.192 233.183 385.879C233.319 385.568 233.438 385.226 233.539 384.855C233.641 384.481 233.72 384.095 233.776 383.698C233.834 383.298 233.863 382.906 233.863 382.521C233.863 382.007 233.814 381.485 233.714 380.956C233.615 380.427 233.481 379.935 233.312 379.481C233.144 379.028 232.956 378.658 232.749 378.373H233.423C233.818 378.95 234.122 379.582 234.333 380.269C234.547 380.954 234.654 381.705 234.654 382.521Z" fill="#5F616E"/>
<path d="M87.227 402.018V408.655H86.4492L82.8324 403.444H82.7676V408.655H81.9639V402.018H82.7417L86.3714 407.242H86.4362V402.018H87.227ZM90.8186 408.759C90.339 408.759 89.9252 408.653 89.5774 408.441C89.2317 408.227 88.9649 407.929 88.7769 407.547C88.5911 407.162 88.4982 406.715 88.4982 406.205C88.4982 405.695 88.5911 405.246 88.7769 404.857C88.9649 404.466 89.2263 404.161 89.5612 403.943C89.8982 403.723 90.2914 403.612 90.7408 403.612C91.0001 403.612 91.2561 403.656 91.5089 403.742C91.7617 403.828 91.9918 403.969 92.1992 404.163C92.4066 404.356 92.5719 404.611 92.695 404.928C92.8182 405.246 92.8798 405.637 92.8798 406.101V406.425H89.0426V405.764H92.102C92.102 405.483 92.0458 405.233 91.9334 405.012C91.8233 404.792 91.6655 404.618 91.4603 404.491C91.2572 404.363 91.0174 404.299 90.7408 404.299C90.4362 404.299 90.1726 404.375 89.9501 404.526C89.7297 404.675 89.5601 404.87 89.4413 405.11C89.3224 405.35 89.263 405.607 89.263 405.881V406.322C89.263 406.698 89.3278 407.016 89.4575 407.278C89.5893 407.537 89.7718 407.735 90.0052 407.871C90.2385 408.005 90.5096 408.072 90.8186 408.072C91.0195 408.072 91.201 408.044 91.3631 407.988C91.5273 407.929 91.6688 407.843 91.7876 407.728C91.9064 407.612 91.9983 407.467 92.0631 407.294L92.802 407.501C92.7242 407.752 92.5935 407.972 92.4098 408.163C92.2262 408.351 91.9993 408.497 91.7293 408.603C91.4592 408.707 91.1556 408.759 90.8186 408.759ZM95.171 408.655L93.6543 403.677H94.458L95.534 407.488H95.5858L96.6488 403.677H97.4655L98.5155 407.475H98.5674L99.6434 403.677H100.447L98.9304 408.655H98.1785L97.0896 404.831H97.0118L95.9229 408.655H95.171ZM104.129 408.655V402.018H108.108V402.731H104.932V404.974H107.81V405.687H104.932V408.655H104.129ZM111.038 408.759C110.589 408.759 110.194 408.652 109.855 408.438C109.518 408.224 109.255 407.925 109.064 407.54C108.876 407.156 108.782 406.706 108.782 406.192C108.782 405.674 108.876 405.221 109.064 404.834C109.255 404.447 109.518 404.147 109.855 403.933C110.194 403.719 110.589 403.612 111.038 403.612C111.487 403.612 111.881 403.719 112.218 403.933C112.557 404.147 112.821 404.447 113.008 404.834C113.199 405.221 113.294 405.674 113.294 406.192C113.294 406.706 113.199 407.156 113.008 407.54C112.821 407.925 112.557 408.224 112.218 408.438C111.881 408.652 111.487 408.759 111.038 408.759ZM111.038 408.072C111.379 408.072 111.66 407.984 111.881 407.809C112.101 407.634 112.264 407.404 112.37 407.119C112.476 406.834 112.529 406.525 112.529 406.192C112.529 405.859 112.476 405.549 112.37 405.262C112.264 404.975 112.101 404.742 111.881 404.565C111.66 404.388 111.379 404.299 111.038 404.299C110.697 404.299 110.416 404.388 110.195 404.565C109.975 404.742 109.812 404.975 109.706 405.262C109.6 405.549 109.547 405.859 109.547 406.192C109.547 406.525 109.6 406.834 109.706 407.119C109.812 407.404 109.975 407.634 110.195 407.809C110.416 407.984 110.697 408.072 111.038 408.072ZM115.226 402.018V408.655H114.461V402.018H115.226ZM117.392 402.018V408.655H116.627V402.018H117.392ZM120.815 408.759C120.365 408.759 119.971 408.652 119.632 408.438C119.295 408.224 119.031 407.925 118.841 407.54C118.653 407.156 118.559 406.706 118.559 406.192C118.559 405.674 118.653 405.221 118.841 404.834C119.031 404.447 119.295 404.147 119.632 403.933C119.971 403.719 120.365 403.612 120.815 403.612C121.264 403.612 121.657 403.719 121.994 403.933C122.334 404.147 122.597 404.447 122.785 404.834C122.975 405.221 123.07 405.674 123.07 406.192C123.07 406.706 122.975 407.156 122.785 407.54C122.597 407.925 122.334 408.224 121.994 408.438C121.657 408.652 121.264 408.759 120.815 408.759ZM120.815 408.072C121.156 408.072 121.437 407.984 121.657 407.809C121.878 407.634 122.041 407.404 122.147 407.119C122.253 406.834 122.306 406.525 122.306 406.192C122.306 405.859 122.253 405.549 122.147 405.262C122.041 404.975 121.878 404.742 121.657 404.565C121.437 404.388 121.156 404.299 120.815 404.299C120.473 404.299 120.193 404.388 119.972 404.565C119.752 404.742 119.589 404.975 119.483 405.262C119.377 405.549 119.324 405.859 119.324 406.192C119.324 406.525 119.377 406.834 119.483 407.119C119.589 407.404 119.752 407.634 119.972 407.809C120.193 407.984 120.473 408.072 120.815 408.072ZM125.196 408.655L123.68 403.677H124.483L125.559 407.488H125.611L126.674 403.677H127.491L128.541 407.475H128.593L129.669 403.677H130.472L128.956 408.655H128.204L127.115 404.831H127.037L125.948 408.655H125.196ZM133.401 408.759C132.922 408.759 132.508 408.653 132.16 408.441C131.814 408.227 131.548 407.929 131.36 407.547C131.174 407.162 131.081 406.715 131.081 406.205C131.081 405.695 131.174 405.246 131.36 404.857C131.548 404.466 131.809 404.161 132.144 403.943C132.481 403.723 132.874 403.612 133.324 403.612C133.583 403.612 133.839 403.656 134.092 403.742C134.344 403.828 134.575 403.969 134.782 404.163C134.989 404.356 135.155 404.611 135.278 404.928C135.401 405.246 135.462 405.637 135.462 406.101V406.425H131.625V405.764H134.685C134.685 405.483 134.629 405.233 134.516 405.012C134.406 404.792 134.248 404.618 134.043 404.491C133.84 404.363 133.6 404.299 133.324 404.299C133.019 404.299 132.755 404.375 132.533 404.526C132.312 404.675 132.143 404.87 132.024 405.11C131.905 405.35 131.846 405.607 131.846 405.881V406.322C131.846 406.698 131.911 407.016 132.04 407.278C132.172 407.537 132.355 407.735 132.588 407.871C132.821 408.005 133.092 408.072 133.401 408.072C133.602 408.072 133.784 408.044 133.946 407.988C134.11 407.929 134.252 407.843 134.37 407.728C134.489 407.612 134.581 407.467 134.646 407.294L135.385 407.501C135.307 407.752 135.176 407.972 134.993 408.163C134.809 408.351 134.582 408.497 134.312 408.603C134.042 408.707 133.738 408.759 133.401 408.759ZM136.626 408.655V403.677H137.365V404.429H137.417C137.507 404.183 137.672 403.983 137.909 403.83C138.147 403.676 138.415 403.599 138.713 403.599C138.769 403.599 138.839 403.601 138.924 403.603C139.008 403.605 139.072 403.608 139.115 403.612V404.39C139.089 404.384 139.03 404.374 138.937 404.361C138.846 404.346 138.75 404.338 138.648 404.338C138.406 404.338 138.19 404.389 138 404.491C137.812 404.59 137.663 404.728 137.553 404.906C137.445 405.081 137.391 405.28 137.391 405.505V408.655H136.626ZM143.548 404.792L142.86 404.987C142.817 404.872 142.754 404.761 142.669 404.653C142.587 404.543 142.475 404.452 142.332 404.381C142.19 404.309 142.007 404.274 141.785 404.274C141.48 404.274 141.226 404.344 141.023 404.484C140.822 404.622 140.722 404.799 140.722 405.012C140.722 405.203 140.791 405.353 140.929 405.463C141.067 405.573 141.283 405.665 141.577 405.738L142.316 405.92C142.761 406.028 143.093 406.193 143.311 406.416C143.529 406.636 143.638 406.92 143.638 407.268C143.638 407.553 143.556 407.808 143.392 408.033C143.23 408.258 143.003 408.435 142.711 408.564C142.42 408.694 142.081 408.759 141.694 408.759C141.186 408.759 140.766 408.649 140.433 408.428C140.1 408.208 139.89 407.886 139.801 407.463L140.527 407.281C140.596 407.549 140.727 407.75 140.919 407.884C141.114 408.018 141.368 408.085 141.681 408.085C142.037 408.085 142.32 408.009 142.53 407.858C142.742 407.705 142.848 407.521 142.848 407.307C142.848 407.134 142.787 406.989 142.666 406.873C142.545 406.754 142.359 406.665 142.109 406.607L141.279 406.413C140.823 406.304 140.488 406.137 140.274 405.91C140.063 405.681 139.957 405.395 139.957 405.051C139.957 404.77 140.036 404.522 140.193 404.306C140.353 404.09 140.57 403.92 140.845 403.797C141.121 403.674 141.435 403.612 141.785 403.612C142.277 403.612 142.664 403.72 142.945 403.937C143.228 404.153 143.429 404.438 143.548 404.792ZM145.347 408.707C145.187 408.707 145.05 408.65 144.935 408.535C144.821 408.421 144.764 408.284 144.764 408.124C144.764 407.964 144.821 407.827 144.935 407.712C145.05 407.598 145.187 407.54 145.347 407.54C145.507 407.54 145.644 407.598 145.759 407.712C145.873 407.827 145.93 407.964 145.93 408.124C145.93 408.23 145.903 408.327 145.849 408.415C145.797 408.504 145.727 408.575 145.639 408.629C145.552 408.681 145.455 408.707 145.347 408.707ZM145.347 405.012C145.187 405.012 145.05 404.955 144.935 404.841C144.821 404.726 144.764 404.589 144.764 404.429C144.764 404.269 144.821 404.132 144.935 404.018C145.05 403.903 145.187 403.846 145.347 403.846C145.507 403.846 145.644 403.903 145.759 404.018C145.873 404.132 145.93 404.269 145.93 404.429C145.93 404.535 145.903 404.632 145.849 404.721C145.797 404.809 145.727 404.881 145.639 404.935C145.552 404.987 145.455 405.012 145.347 405.012ZM151.814 407.488V403.211H152.54V407.488H151.814ZM150.038 405.712V404.987H154.316V405.712H150.038ZM158.206 402.018V408.655H157.402V402.861H157.363L155.743 403.937V403.12L157.402 402.018H158.206ZM160.115 408.655V408.072L162.305 405.674C162.562 405.393 162.774 405.149 162.941 404.941C163.107 404.732 163.23 404.535 163.31 404.351C163.392 404.166 163.433 403.971 163.433 403.768C163.433 403.535 163.377 403.333 163.265 403.162C163.154 402.991 163.003 402.859 162.811 402.767C162.619 402.674 162.403 402.627 162.163 402.627C161.908 402.627 161.685 402.68 161.495 402.786C161.307 402.89 161.161 403.036 161.058 403.224C160.956 403.412 160.905 403.632 160.905 403.885H160.141C160.141 403.496 160.23 403.154 160.409 402.861C160.589 402.567 160.833 402.338 161.142 402.174C161.453 402.009 161.802 401.927 162.189 401.927C162.578 401.927 162.922 402.009 163.223 402.174C163.523 402.338 163.758 402.559 163.929 402.838C164.1 403.117 164.185 403.427 164.185 403.768C164.185 404.012 164.141 404.251 164.052 404.484C163.966 404.715 163.815 404.974 163.598 405.259C163.385 405.542 163.087 405.887 162.707 406.296L161.216 407.89V407.942H164.302V408.655H160.115ZM171.59 407.411V407.061C171.59 406.819 171.64 406.597 171.739 406.396C171.841 406.193 171.988 406.031 172.18 405.91C172.375 405.787 172.61 405.725 172.887 405.725C173.168 405.725 173.403 405.787 173.593 405.91C173.783 406.031 173.927 406.193 174.024 406.396C174.121 406.597 174.17 406.819 174.17 407.061V407.411C174.17 407.653 174.12 407.875 174.021 408.078C173.924 408.279 173.779 408.441 173.587 408.564C173.397 408.685 173.163 408.746 172.887 408.746C172.606 408.746 172.369 408.685 172.177 408.564C171.985 408.441 171.839 408.279 171.739 408.078C171.64 407.875 171.59 407.653 171.59 407.411ZM172.251 407.061V407.411C172.251 407.612 172.299 407.792 172.394 407.952C172.489 408.11 172.653 408.188 172.887 408.188C173.113 408.188 173.273 408.11 173.366 407.952C173.461 407.792 173.509 407.612 173.509 407.411V407.061C173.509 406.86 173.464 406.68 173.373 406.523C173.282 406.363 173.12 406.283 172.887 406.283C172.66 406.283 172.497 406.363 172.397 406.523C172.3 406.68 172.251 406.86 172.251 407.061ZM168.285 403.612V403.262C168.285 403.02 168.334 402.799 168.434 402.598C168.535 402.395 168.682 402.233 168.875 402.112C169.069 401.989 169.304 401.927 169.581 401.927C169.862 401.927 170.097 401.989 170.288 402.112C170.478 402.233 170.621 402.395 170.719 402.598C170.816 402.799 170.864 403.02 170.864 403.262V403.612C170.864 403.854 170.815 404.077 170.715 404.28C170.618 404.481 170.473 404.643 170.281 404.766C170.091 404.887 169.858 404.948 169.581 404.948C169.3 404.948 169.064 404.887 168.871 404.766C168.679 404.643 168.533 404.481 168.434 404.28C168.334 404.077 168.285 403.854 168.285 403.612ZM168.946 403.262V403.612C168.946 403.813 168.993 403.994 169.088 404.154C169.183 404.311 169.348 404.39 169.581 404.39C169.808 404.39 169.968 404.311 170.061 404.154C170.156 403.994 170.203 403.813 170.203 403.612V403.262C170.203 403.061 170.158 402.882 170.067 402.724C169.976 402.565 169.814 402.485 169.581 402.485C169.354 402.485 169.191 402.565 169.092 402.724C168.994 402.882 168.946 403.061 168.946 403.262ZM168.531 408.655L173.094 402.018H173.833L169.27 408.655H168.531ZM178.474 405.337C178.474 404.52 178.58 403.769 178.791 403.084C179.005 402.397 179.31 401.765 179.705 401.188H180.379C180.224 401.402 180.078 401.666 179.942 401.979C179.808 402.29 179.69 402.633 179.589 403.006C179.487 403.378 179.407 403.763 179.349 404.16C179.293 404.558 179.265 404.95 179.265 405.337C179.265 405.851 179.314 406.373 179.414 406.902C179.513 407.431 179.647 407.923 179.816 408.376C179.984 408.83 180.172 409.2 180.379 409.485H179.705C179.31 408.908 179.005 408.277 178.791 407.592C178.58 406.905 178.474 406.153 178.474 405.337ZM181.34 407.294V406.633L184.256 402.018H184.736V403.042H184.412L182.208 406.529V406.581H186.136V407.294H181.34ZM184.464 408.655V407.093V406.785V402.018H185.228V408.655H184.464ZM189.515 408.746C189.027 408.746 188.611 408.613 188.268 408.347C187.924 408.079 187.662 407.692 187.48 407.184C187.299 406.674 187.208 406.058 187.208 405.337C187.208 404.619 187.299 404.007 187.48 403.499C187.664 402.989 187.927 402.6 188.271 402.332C188.616 402.062 189.031 401.927 189.515 401.927C189.999 401.927 190.413 402.062 190.757 402.332C191.102 402.6 191.366 402.989 191.547 403.499C191.731 404.007 191.823 404.619 191.823 405.337C191.823 406.058 191.732 406.674 191.551 407.184C191.369 407.692 191.107 408.079 190.763 408.347C190.419 408.613 190.004 408.746 189.515 408.746ZM189.515 408.033C189.999 408.033 190.375 407.8 190.643 407.333C190.911 406.866 191.045 406.201 191.045 405.337C191.045 404.762 190.983 404.272 190.86 403.868C190.739 403.464 190.564 403.157 190.335 402.945C190.108 402.733 189.835 402.627 189.515 402.627C189.036 402.627 188.661 402.864 188.391 403.337C188.121 403.808 187.986 404.474 187.986 405.337C187.986 405.911 188.046 406.4 188.167 406.801C188.288 407.203 188.462 407.509 188.689 407.719C188.918 407.928 189.193 408.033 189.515 408.033ZM195.219 408.746C194.731 408.746 194.315 408.613 193.971 408.347C193.628 408.079 193.365 407.692 193.184 407.184C193.002 406.674 192.912 406.058 192.912 405.337C192.912 404.619 193.002 404.007 193.184 403.499C193.368 402.989 193.631 402.6 193.975 402.332C194.32 402.062 194.735 401.927 195.219 401.927C195.703 401.927 196.117 402.062 196.46 402.332C196.806 402.6 197.07 402.989 197.251 403.499C197.435 404.007 197.527 404.619 197.527 405.337C197.527 406.058 197.436 406.674 197.254 407.184C197.073 407.692 196.81 408.079 196.467 408.347C196.123 408.613 195.707 408.746 195.219 408.746ZM195.219 408.033C195.703 408.033 196.079 407.8 196.347 407.333C196.615 406.866 196.749 406.201 196.749 405.337C196.749 404.762 196.687 404.272 196.564 403.868C196.443 403.464 196.268 403.157 196.039 402.945C195.812 402.733 195.539 402.627 195.219 402.627C194.739 402.627 194.365 402.864 194.095 403.337C193.824 403.808 193.689 404.474 193.689 405.337C193.689 405.911 193.75 406.4 193.871 406.801C193.992 407.203 194.166 407.509 194.393 407.719C194.622 407.928 194.897 408.033 195.219 408.033ZM200.404 405.337C200.404 406.153 200.297 406.905 200.084 407.592C199.872 408.277 199.568 408.908 199.173 409.485H198.499C198.654 409.271 198.799 409.007 198.933 408.694C199.069 408.383 199.188 408.042 199.29 407.67C199.391 407.296 199.47 406.911 199.526 406.513C199.584 406.113 199.614 405.721 199.614 405.337C199.614 404.822 199.564 404.301 199.465 403.771C199.365 403.242 199.231 402.75 199.063 402.297C198.894 401.843 198.706 401.473 198.499 401.188H199.173C199.568 401.765 199.872 402.397 200.084 403.084C200.297 403.769 200.404 404.52 200.404 405.337Z" fill="#5F616E"/>
<path d="M557.839 355.968H356.199V363.65H557.839V355.968Z" fill="#E8E9ED"/>
<path d="M412.733 355.968H356.199V363.65H412.733V355.968Z" fill="#00BAD1"/>
<path d="M557.839 378.89H356.199V386.572H557.839V378.89Z" fill="#E8E9ED"/>
<path d="M496.579 378.89H356.199V386.572H496.579V378.89Z" fill="#9E83BD"/>
<path d="M557.839 401.813H356.199V409.495H557.839V401.813Z" fill="#E8E9ED"/>
<path d="M381.362 401.813H356.199V409.495H381.362V401.813Z" fill="#26ACE2"/>
<path d="M92.6172 321.785V291.833C92.6172 288.669 90.0522 286.104 86.8882 286.104C83.7242 286.104 81.1593 288.669 81.1593 291.833V321.785C81.1593 324.949 83.7242 327.514 86.8882 327.514C90.0522 327.514 92.6172 324.949 92.6172 321.785Z" fill="#00BAD1"/>
<path d="M106.685 321.788V270.472C106.685 267.309 104.121 264.745 100.958 264.745C97.7957 264.745 95.2318 267.309 95.2318 270.472V321.788C95.2318 324.951 97.7957 327.514 100.958 327.514C104.121 327.514 106.685 324.951 106.685 321.788Z" fill="#9E83BD"/>
<path d="M120.755 321.787V319.562C120.755 316.399 118.191 313.834 115.028 313.834C111.864 313.834 109.3 316.399 109.3 319.562V321.787C109.3 324.95 111.864 327.515 115.028 327.515C118.191 327.515 120.755 324.95 120.755 321.787Z" fill="#26ACE2"/>
<path d="M180.03 321.789V224.044C180.03 220.881 177.466 218.318 174.304 218.318C171.142 218.318 168.579 220.881 168.579 224.044V321.789C168.579 324.951 171.142 327.515 174.304 327.515C177.466 327.515 180.03 324.951 180.03 321.789Z" fill="#00BAD1"/>
<path d="M194.105 321.786V161.099C194.105 157.935 191.54 155.37 188.376 155.37C185.212 155.37 182.647 157.935 182.647 161.099V321.786C182.647 324.95 185.212 327.515 188.376 327.515C191.54 327.515 194.105 324.95 194.105 321.786Z" fill="#9E83BD"/>
<path d="M208.17 321.789V308.116C208.17 304.954 205.607 302.39 202.445 302.39C199.283 302.39 196.719 304.954 196.719 308.116V321.789C196.719 324.951 199.283 327.515 202.445 327.515C205.607 327.515 208.17 324.951 208.17 321.789Z" fill="#26ACE2"/>
<path d="M267.449 321.79V189.564C267.449 186.401 264.885 183.837 261.722 183.837C258.56 183.837 255.996 186.401 255.996 189.564V321.79C255.996 324.953 258.56 327.517 261.722 327.517C264.885 327.517 267.449 324.953 267.449 321.79Z" fill="#00BAD1"/>
<path d="M281.521 321.785V237.255C281.521 234.091 278.957 231.526 275.793 231.526C272.629 231.526 270.064 234.091 270.064 237.255V321.785C270.064 324.949 272.629 327.514 275.793 327.514C278.957 327.514 281.521 324.949 281.521 321.785Z" fill="#9E83BD"/>
<path d="M295.587 321.789V319.56C295.587 316.398 293.024 313.834 289.862 313.834C286.699 313.834 284.136 316.398 284.136 319.56V321.789C284.136 324.951 286.699 327.515 289.862 327.515C293.024 327.515 295.587 324.951 295.587 321.789Z" fill="#26ACE2"/>
<path d="M354.861 321.789V161.096C354.861 157.934 352.298 155.37 349.136 155.37C345.974 155.37 343.41 157.934 343.41 161.096V321.789C343.41 324.951 345.974 327.515 349.136 327.515C352.298 327.515 354.861 324.951 354.861 321.789Z" fill="#00BAD1"/>
<path d="M368.936 321.786V119.724C368.936 116.56 366.371 113.995 363.207 113.995C360.043 113.995 357.478 116.56 357.478 119.724V321.786C357.478 324.95 360.043 327.515 363.207 327.515C366.371 327.515 368.936 324.95 368.936 321.786Z" fill="#9E83BD"/>
<path d="M383.002 321.789V291.83C383.002 288.668 380.438 286.105 377.276 286.105C374.114 286.105 371.551 288.668 371.551 291.83V321.789C371.551 324.951 374.114 327.515 377.276 327.515C380.438 327.515 383.002 324.951 383.002 321.789Z" fill="#26ACE2"/>
<path d="M442.285 321.785V177.903C442.285 174.739 439.72 172.174 436.556 172.174C433.392 172.174 430.828 174.739 430.828 177.903V321.785C430.828 324.949 433.392 327.514 436.556 327.514C439.72 327.514 442.285 324.949 442.285 321.785Z" fill="#00BAD1"/>
<path d="M456.353 321.788V103.198C456.353 100.036 453.789 97.4718 450.627 97.4718C447.464 97.4718 444.9 100.036 444.9 103.198V321.788C444.9 324.951 447.464 327.515 450.627 327.515C453.789 327.515 456.353 324.951 456.353 321.788Z" fill="#9E83BD"/>
<path d="M470.424 321.786V226.484C470.424 223.32 467.859 220.755 464.695 220.755C461.531 220.755 458.966 223.32 458.966 226.484V321.786C458.966 324.95 461.531 327.515 464.695 327.515C467.859 327.515 470.424 324.95 470.424 321.786Z" fill="#26ACE2"/>
<path d="M529.698 321.787V291.833C529.698 288.669 527.134 286.105 523.97 286.105C520.807 286.105 518.242 288.669 518.242 291.833V321.787C518.242 324.95 520.807 327.515 523.97 327.515C527.134 327.515 529.698 324.95 529.698 321.787Z" fill="#00BAD1"/>
<path d="M543.766 321.789V207.703C543.766 204.541 541.203 201.978 538.04 201.978C534.878 201.978 532.315 204.541 532.315 207.703V321.789C532.315 324.951 534.878 327.515 538.04 327.515C541.203 327.515 543.766 324.951 543.766 321.789Z" fill="#9E83BD"/>
<path d="M557.839 321.787V251.178C557.839 248.014 555.274 245.45 552.111 245.45C548.947 245.45 546.383 248.014 546.383 251.178V321.787C546.383 324.95 548.947 327.515 552.111 327.515C555.274 327.515 557.839 324.95 557.839 321.787Z" fill="#26ACE2"/>
<defs>
<filter id="filter0_d_9_1222" x="0" y="0" width="639" height="490.029" filterUnits="userSpaceOnUse" color-interpolation-filters="sRGB">
<feFlood flood-opacity="0" result="BackgroundImageFix"/>
<feColorMatrix in="SourceAlpha" type="matrix" values="0 0 0 0 0 0 0 0 0 0 0 0 0 0 0 0 0 0 127 0" result="hardAlpha"/>
<feOffset dy="4"/>
<feGaussianBlur stdDeviation="22"/>
<feComposite in2="hardAlpha" operator="out"/>
<feColorMatrix type="matrix" values="0 0 0 0 0.465 0 0 0 0 0.465 0 0 0 0 0.465 0 0 0 0.15 0"/>
<feBlend mode="normal" in2="BackgroundImageFix" result="effect1_dropShadow_9_1222"/>
<feBlend mode="normal" in="SourceGraphic" in2="effect1_dropShadow_9_1222" result="shape"/>
</filter>
</defs>
</svg>
