<svg width="508" height="358" viewBox="0 0 508 358" fill="none" xmlns="http://www.w3.org/2000/svg">
<path d="M387.165 142.728C375.858 129.421 355.898 128.565 346.233 106.606C338.443 88.9046 345.339 78.891 337.214 71.1784C320.193 55.0199 281.648 91.119 248.414 73.957C233.204 66.103 236.681 56.1711 219.97 47.5601C195.591 34.998 157.493 40.3132 143.657 60.7583C129.796 81.2411 152.159 99.3653 140.188 127.445C126.77 158.921 89.4706 157.729 84.6882 181.628C82.5512 192.308 84.7984 215.961 115.389 241.368C157.957 267.073 192.127 242.797 243.079 239.39C283.102 236.714 329.139 287.868 373.197 231.634C412.992 180.84 398.083 155.576 387.165 142.728Z" fill="#EBEDFF"/>
<path d="M168.55 122.614H167.815C167.606 121.66 167.256 120.757 166.789 119.933L167.398 119.322C168.309 118.411 168.309 116.933 167.398 116.021C166.488 115.11 165.012 115.11 164.102 116.021L163.581 116.542C162.78 116.028 161.9 115.631 160.963 115.373L160.963 115.372V114.509C160.963 113.22 159.919 112.175 158.631 112.175C157.344 112.175 156.3 113.22 156.3 114.509V115.245C155.347 115.455 154.445 115.805 153.622 116.273L153.012 115.663C152.102 114.751 150.626 114.751 149.716 115.663C148.805 116.574 148.805 118.053 149.716 118.964L150.236 119.485C149.722 120.288 149.325 121.168 149.067 122.107V122.107H148.206C146.918 122.107 145.874 123.152 145.874 124.442C145.874 125.731 146.918 126.776 148.206 126.776H148.94C149.149 127.731 149.499 128.633 149.967 129.458L149.358 130.068C148.447 130.98 148.447 132.458 149.358 133.369C150.268 134.281 151.744 134.281 152.654 133.369L153.173 132.85L153.174 132.85C153.975 133.363 154.857 133.76 155.794 134.021V134.881C155.794 136.17 156.837 137.216 158.125 137.216C159.412 137.216 160.456 136.171 160.456 134.881V134.146C161.409 133.936 162.311 133.586 163.135 133.118L163.744 133.728C164.654 134.639 166.13 134.639 167.04 133.728C167.951 132.816 167.951 131.338 167.04 130.427L166.522 129.907C167.034 129.105 167.43 128.222 167.691 127.284H168.551C169.838 127.284 170.882 126.239 170.882 124.949C170.882 123.66 169.838 122.614 168.55 122.614ZM165.319 124.695C165.319 128.533 162.21 131.646 158.378 131.646C154.545 131.646 151.436 128.533 151.436 124.695C151.436 120.856 154.545 117.745 158.378 117.745C162.21 117.745 165.319 120.856 165.319 124.695Z" fill="#B3D7FF"/>
<path d="M153.99 124.696C153.99 127.122 155.954 129.089 158.378 129.089C160.801 129.089 162.767 127.122 162.767 124.696C162.767 122.269 160.8 120.301 158.378 120.301C155.954 120.3 153.99 122.269 153.99 124.696Z" fill="#B3D7FF"/>
<path d="M360.696 174.827C360.547 174.827 360.421 174.736 360.408 174.615C360.395 174.488 360.514 174.376 360.673 174.366C361.553 174.308 362.452 174.234 363.347 174.148C363.507 174.132 363.65 174.223 363.669 174.349C363.689 174.476 363.576 174.591 363.417 174.606C362.515 174.694 361.608 174.768 360.721 174.826C360.712 174.827 360.705 174.827 360.696 174.827Z" fill="#325899"/>
<path d="M368.693 173.941C368.557 173.941 368.436 173.864 368.409 173.754C368.379 173.628 368.482 173.507 368.639 173.483C370.361 173.219 372.121 172.903 373.868 172.544C374.025 172.513 374.181 172.586 374.22 172.71C374.26 172.833 374.167 172.959 374.013 172.991C372.253 173.353 370.482 173.671 368.748 173.937C368.729 173.94 368.711 173.941 368.693 173.941ZM379.106 171.805C378.984 171.805 378.87 171.743 378.83 171.645C378.782 171.523 378.865 171.393 379.018 171.354C380.711 170.92 382.412 170.441 384.075 169.929C384.223 169.883 384.391 169.943 384.449 170.062C384.506 170.182 384.432 170.315 384.283 170.361C382.61 170.876 380.897 171.358 379.194 171.794C379.165 171.801 379.135 171.805 379.106 171.805ZM389.143 168.718C389.033 168.718 388.928 168.667 388.879 168.582C388.814 168.466 388.878 168.329 389.024 168.276C390.661 167.685 392.282 167.053 393.841 166.398C393.982 166.338 394.157 166.381 394.232 166.495C394.306 166.608 394.252 166.747 394.11 166.807C392.541 167.466 390.91 168.103 389.262 168.698C389.224 168.711 389.183 168.718 389.143 168.718ZM398.654 164.714C398.557 164.714 398.462 164.674 398.407 164.603C398.324 164.494 398.367 164.352 398.503 164.285C400.052 163.529 401.557 162.736 402.975 161.928C403.105 161.854 403.286 161.878 403.378 161.982C403.471 162.086 403.441 162.231 403.311 162.305C401.882 163.119 400.366 163.918 398.805 164.68C398.758 164.703 398.706 164.714 398.654 164.714ZM407.393 159.716C407.311 159.716 407.229 159.688 407.172 159.634C407.068 159.536 407.084 159.39 407.206 159.308C408.606 158.362 409.923 157.383 411.121 156.398C411.232 156.307 411.415 156.305 411.53 156.393C411.645 156.482 411.647 156.629 411.536 156.72C410.325 157.716 408.994 158.706 407.579 159.661C407.525 159.698 407.459 159.716 407.393 159.716ZM414.838 153.54C414.777 153.54 414.716 153.525 414.663 153.493C414.536 153.416 414.511 153.271 414.608 153.169C415.722 151.994 416.695 150.793 417.5 149.598C417.576 149.485 417.751 149.443 417.892 149.504C418.033 149.564 418.085 149.704 418.009 149.817C417.19 151.033 416.201 152.255 415.068 153.448C415.012 153.508 414.926 153.54 414.838 153.54ZM419.835 145.989C419.808 145.989 419.779 145.986 419.751 145.979C419.598 145.942 419.512 145.813 419.559 145.691C420.086 144.308 420.403 142.91 420.5 141.535C420.509 141.408 420.641 141.307 420.805 141.317C420.965 141.324 421.087 141.434 421.078 141.561C420.978 142.973 420.653 144.408 420.112 145.826C420.074 145.925 419.96 145.989 419.835 145.989ZM420.402 137.508C420.267 137.508 420.147 137.432 420.119 137.323C419.777 135.976 419.216 134.625 418.451 133.307C418.383 133.191 418.446 133.054 418.592 133C418.737 132.947 418.908 132.997 418.975 133.113C419.76 134.464 420.336 135.849 420.686 137.231C420.718 137.356 420.617 137.478 420.46 137.504C420.441 137.506 420.422 137.508 420.402 137.508ZM415.987 129.747C415.897 129.747 415.808 129.713 415.752 129.65C415.428 129.29 415.084 128.928 414.73 128.574C414.009 127.852 413.188 127.141 412.29 126.46C412.173 126.372 412.169 126.226 412.279 126.133C412.389 126.04 412.572 126.037 412.688 126.125C413.605 126.82 414.444 127.547 415.182 128.285C415.542 128.646 415.892 129.014 416.221 129.381C416.315 129.484 416.285 129.629 416.155 129.704C416.104 129.732 416.045 129.747 415.987 129.747ZM408.325 123.85C408.268 123.85 408.211 123.836 408.16 123.809C406.781 123.049 405.247 122.306 403.601 121.603C403.461 121.543 403.408 121.403 403.483 121.29C403.559 121.177 403.734 121.135 403.875 121.195C405.54 121.907 407.092 122.659 408.489 123.428C408.621 123.501 408.654 123.645 408.563 123.75C408.507 123.815 408.417 123.85 408.325 123.85ZM398.895 119.772C398.857 119.772 398.818 119.766 398.78 119.753C397.219 119.213 395.541 118.684 393.794 118.182C393.643 118.138 393.565 118.006 393.619 117.886C393.673 117.765 393.839 117.702 393.99 117.746C395.749 118.252 397.438 118.784 399.01 119.328C399.157 119.379 399.224 119.515 399.161 119.632C399.114 119.72 399.007 119.772 398.895 119.772ZM388.784 116.843C388.756 116.843 388.728 116.84 388.699 116.832C387.054 116.431 385.315 116.038 383.531 115.663C383.377 115.631 383.285 115.504 383.325 115.381C383.366 115.257 383.524 115.183 383.679 115.216C385.47 115.592 387.216 115.987 388.869 116.391C389.021 116.428 389.107 116.557 389.061 116.679C389.023 116.779 388.908 116.843 388.784 116.843ZM378.377 114.646C378.356 114.646 378.334 114.644 378.312 114.64C376.619 114.331 374.851 114.028 373.056 113.74C372.899 113.715 372.798 113.593 372.829 113.468C372.86 113.343 373.014 113.262 373.17 113.287C374.97 113.575 376.743 113.879 378.442 114.19C378.597 114.218 378.695 114.342 378.659 114.467C378.628 114.574 378.509 114.646 378.377 114.646ZM367.823 112.946C367.806 112.946 367.789 112.944 367.772 112.942C366.068 112.7 364.283 112.461 362.468 112.232C362.31 112.212 362.202 112.093 362.227 111.967C362.252 111.841 362.4 111.757 362.558 111.775C364.377 112.005 366.165 112.244 367.873 112.486C368.03 112.509 368.135 112.629 368.107 112.754C368.082 112.867 367.961 112.946 367.823 112.946ZM357.189 111.599C357.175 111.599 357.162 111.599 357.148 111.597C355.416 111.402 353.622 111.21 351.816 111.027C351.657 111.011 351.544 110.895 351.565 110.769C351.585 110.642 351.731 110.554 351.889 110.569C353.698 110.752 355.495 110.944 357.229 111.139C357.387 111.157 357.497 111.274 357.475 111.401C357.454 111.516 357.331 111.599 357.189 111.599ZM346.507 110.517C346.496 110.517 346.485 110.516 346.474 110.515C344.724 110.356 342.924 110.2 341.125 110.052C340.966 110.039 340.851 109.926 340.867 109.798C340.883 109.671 341.028 109.578 341.184 109.592C342.986 109.74 344.787 109.896 346.54 110.056C346.699 110.07 346.813 110.185 346.794 110.312C346.778 110.43 346.653 110.517 346.507 110.517ZM335.798 109.633C335.789 109.633 335.779 109.633 335.77 109.633C333.999 109.501 332.212 109.373 330.41 109.251C330.251 109.241 330.133 109.129 330.146 109.002C330.16 108.874 330.297 108.779 330.459 108.791C332.262 108.913 334.051 109.04 335.824 109.172C335.983 109.184 336.1 109.297 336.085 109.424C336.071 109.543 335.945 109.633 335.798 109.633ZM325.07 108.905C325.063 108.905 325.055 108.904 325.047 108.904C323.27 108.794 321.481 108.689 319.681 108.587C319.521 108.578 319.402 108.468 319.413 108.34C319.424 108.212 319.565 108.121 319.722 108.126C321.524 108.227 323.314 108.333 325.092 108.443C325.251 108.453 325.371 108.564 325.358 108.691C325.346 108.812 325.22 108.905 325.07 108.905ZM314.331 108.296C314.325 108.296 314.319 108.296 314.312 108.296C312.531 108.203 310.74 108.114 308.941 108.028C308.782 108.02 308.661 107.91 308.67 107.783C308.68 107.656 308.822 107.556 308.976 107.566C310.776 107.653 312.567 107.742 314.35 107.834C314.509 107.843 314.63 107.952 314.62 108.08C314.61 108.202 314.482 108.296 314.331 108.296ZM303.585 107.781C303.579 107.781 303.574 107.781 303.569 107.78C301.784 107.701 299.993 107.624 298.195 107.55C298.035 107.543 297.913 107.435 297.921 107.307C297.929 107.179 298.062 107.078 298.225 107.088C300.023 107.162 301.816 107.239 303.601 107.318C303.761 107.326 303.883 107.435 303.874 107.562C303.865 107.686 303.737 107.781 303.585 107.781ZM292.834 107.335C292.829 107.335 292.825 107.335 292.82 107.335C291.033 107.265 289.24 107.198 287.444 107.132C287.285 107.127 287.161 107.018 287.169 106.891C287.176 106.763 287.313 106.656 287.471 106.67C289.268 106.736 291.06 106.804 292.848 106.873C293.008 106.879 293.131 106.988 293.123 107.115C293.116 107.239 292.987 107.335 292.834 107.335ZM282.092 106.941C282.088 106.941 282.084 106.941 282.08 106.94C280.29 106.878 278.497 106.817 276.703 106.757C276.543 106.751 276.419 106.644 276.426 106.516C276.433 106.389 276.572 106.286 276.727 106.295C278.522 106.355 280.315 106.416 282.105 106.479C282.265 106.484 282.388 106.592 282.381 106.72C282.374 106.844 282.246 106.941 282.092 106.941ZM271.327 106.579C271.323 106.579 271.319 106.579 271.315 106.578C269.523 106.52 267.73 106.462 265.937 106.405C265.777 106.4 265.653 106.292 265.659 106.165C265.666 106.038 265.795 105.932 265.96 105.943C267.753 106 269.546 106.058 271.339 106.117C271.498 106.122 271.622 106.23 271.616 106.357C271.61 106.481 271.482 106.579 271.327 106.579ZM260.57 106.235C260.567 106.235 260.563 106.235 260.559 106.235L255.181 106.064C255.021 106.059 254.897 105.951 254.903 105.824C254.909 105.696 255.049 105.589 255.203 105.602L260.582 105.773C260.741 105.778 260.865 105.886 260.859 106.013C260.853 106.138 260.725 106.235 260.57 106.235ZM249.814 105.892C249.81 105.892 249.806 105.892 249.802 105.891C248.005 105.833 246.212 105.775 244.424 105.715C244.264 105.71 244.14 105.602 244.146 105.475C244.153 105.347 244.281 105.236 244.448 105.254C246.236 105.313 248.029 105.372 249.825 105.43C249.985 105.435 250.109 105.542 250.103 105.67C250.096 105.794 249.968 105.892 249.814 105.892ZM239.058 105.534C239.054 105.534 239.049 105.534 239.045 105.533C237.246 105.471 235.453 105.408 233.667 105.344C233.507 105.338 233.384 105.23 233.391 105.102C233.398 104.975 233.537 104.873 233.693 104.882C235.479 104.946 237.272 105.009 239.07 105.072C239.23 105.077 239.354 105.185 239.347 105.313C239.34 105.437 239.212 105.534 239.058 105.534ZM228.303 105.144C228.299 105.144 228.294 105.144 228.289 105.144C226.488 105.075 224.695 105.004 222.912 104.931C222.753 104.924 222.63 104.816 222.638 104.688C222.646 104.56 222.778 104.458 222.942 104.469C224.725 104.542 226.517 104.613 228.317 104.682C228.477 104.688 228.6 104.796 228.592 104.924C228.585 105.048 228.457 105.144 228.303 105.144ZM217.552 104.703C217.547 104.703 217.541 104.703 217.536 104.703C215.733 104.624 213.941 104.541 212.16 104.456C212.001 104.449 211.879 104.339 211.889 104.212C211.898 104.085 212.033 103.988 212.195 103.995C213.974 104.08 215.765 104.162 217.568 104.241C217.727 104.248 217.85 104.357 217.841 104.485C217.832 104.608 217.704 104.703 217.552 104.703ZM206.805 104.188C206.799 104.188 206.792 104.188 206.786 104.187C204.981 104.093 203.189 103.995 201.414 103.894C201.254 103.885 201.134 103.774 201.146 103.646C201.157 103.519 201.298 103.426 201.455 103.432C203.23 103.534 205.02 103.632 206.824 103.726C206.984 103.734 207.105 103.844 207.094 103.972C207.084 104.094 206.956 104.188 206.805 104.188ZM196.066 103.572C196.058 103.572 196.051 103.571 196.043 103.571C194.235 103.456 192.445 103.338 190.676 103.214C190.517 103.203 190.399 103.091 190.413 102.963C190.427 102.836 190.566 102.743 190.727 102.753C192.495 102.877 194.283 102.996 196.089 103.11C196.248 103.12 196.367 103.231 196.355 103.359C196.343 103.48 196.216 103.572 196.066 103.572ZM185.341 102.818C185.332 102.818 185.322 102.818 185.313 102.817C183.483 102.674 181.68 102.526 179.954 102.374C179.795 102.361 179.681 102.247 179.698 102.12C179.715 101.993 179.858 101.898 180.017 101.915C181.741 102.066 183.542 102.214 185.369 102.357C185.528 102.369 185.644 102.482 185.629 102.609C185.614 102.729 185.488 102.818 185.341 102.818ZM174.638 101.88C174.626 101.88 174.614 101.879 174.602 101.878C172.777 101.699 170.98 101.51 169.259 101.319C169.101 101.301 168.99 101.184 169.012 101.058C169.035 100.932 169.182 100.843 169.339 100.861C171.057 101.052 172.851 101.24 174.673 101.419C174.831 101.435 174.944 101.55 174.924 101.677C174.906 101.794 174.782 101.88 174.638 101.88ZM163.974 100.688C163.96 100.688 163.944 100.687 163.929 100.685C162.113 100.455 160.325 100.211 158.615 99.9624C158.458 99.9393 158.354 99.8192 158.382 99.6932C158.411 99.5675 158.561 99.4858 158.719 99.5071C160.425 99.7558 162.208 99.9986 164.019 100.228C164.177 100.248 164.285 100.367 164.26 100.493C164.237 100.607 164.114 100.688 163.974 100.688ZM153.385 99.1364C153.365 99.1364 153.345 99.1349 153.325 99.1312C151.507 98.8235 149.738 98.4995 148.07 98.1676C147.915 98.137 147.82 98.0113 147.859 97.8875C147.898 97.7634 148.054 97.6873 148.21 97.719C149.872 98.049 151.634 98.3723 153.445 98.6789C153.602 98.7053 153.702 98.828 153.668 98.9526C153.639 99.0618 153.519 99.1364 153.385 99.1364ZM142.948 97.0462C142.921 97.0462 142.893 97.0432 142.865 97.0365C141.066 96.6088 139.342 96.1561 137.742 95.691C137.592 95.6474 137.514 95.5147 137.569 95.3946C137.624 95.2745 137.791 95.2141 137.94 95.2566C139.53 95.7186 141.242 96.1688 143.031 96.5935C143.184 96.6301 143.271 96.7587 143.225 96.881C143.188 96.981 143.073 97.0462 142.948 97.0462ZM132.873 94.0819C132.833 94.0819 132.791 94.0752 132.752 94.0607C131.02 93.4226 129.421 92.7439 127.999 92.0432C127.863 91.9761 127.82 91.8336 127.905 91.7251C127.988 91.6169 128.167 91.5826 128.303 91.6494C129.705 92.3404 131.284 93.0105 132.995 93.6411C133.14 93.6945 133.203 93.8317 133.136 93.948C133.087 94.0323 132.983 94.0819 132.873 94.0819ZM123.886 89.5536C123.817 89.5536 123.748 89.5338 123.692 89.4935C122.285 88.4747 121.124 87.3832 120.243 86.2488C120.159 86.1403 120.201 85.9978 120.336 85.9303C120.471 85.8632 120.65 85.8968 120.735 86.0049C121.587 87.1024 122.713 88.1607 124.081 89.1508C124.199 89.2366 124.208 89.3828 124.101 89.4775C124.044 89.5279 123.965 89.5536 123.886 89.5536ZM118.476 82.4074C118.348 82.4074 118.231 82.3391 118.197 82.2358C117.73 80.8322 117.414 79.3972 117.26 77.9704C117.247 77.8429 117.365 77.731 117.524 77.7202C117.684 77.7086 117.823 77.8037 117.837 77.9305C117.988 79.3304 118.297 80.739 118.756 82.1165C118.797 82.2396 118.705 82.3664 118.551 82.3992C118.526 82.4051 118.501 82.4074 118.476 82.4074ZM117.559 73.9012C117.55 73.9012 117.542 73.9008 117.533 73.9004C117.374 73.8889 117.256 73.7766 117.27 73.6494C117.428 72.2368 117.742 70.8048 118.202 69.393C118.242 69.2692 118.399 69.1942 118.555 69.2274C118.71 69.2595 118.802 69.3859 118.762 69.5093C118.31 70.8966 118.002 72.3032 117.847 73.6905C117.834 73.8105 117.707 73.9012 117.559 73.9012ZM120.222 65.6287C120.184 65.6287 120.146 65.6228 120.109 65.6101C119.962 65.5601 119.893 65.4244 119.956 65.3069C120.644 64.0189 121.467 62.7234 122.402 61.4566C122.484 61.3462 122.661 61.3096 122.798 61.3749C122.936 61.4394 122.982 61.5815 122.901 61.6911C121.978 62.9411 121.167 64.2184 120.489 65.4878C120.442 65.5762 120.334 65.6287 120.222 65.6287ZM125.639 58.2401C125.579 58.2401 125.518 58.2252 125.465 58.1939C125.338 58.1171 125.312 57.9724 125.408 57.8702C126.46 56.7515 127.621 55.6353 128.86 54.5527C128.968 54.4584 129.151 54.4521 129.268 54.5382C129.386 54.6243 129.395 54.7705 129.287 54.8649C128.061 55.9366 126.912 57.0408 125.871 58.148C125.814 58.2081 125.727 58.2401 125.639 58.2401ZM132.864 51.8976C132.786 51.8976 132.709 51.8726 132.652 51.8234C132.543 51.7298 132.55 51.5836 132.667 51.4967C133.954 50.5443 135.331 49.5989 136.76 48.6871C136.885 48.6077 137.067 48.6237 137.166 48.7237C137.266 48.8233 137.246 48.9687 137.121 49.0485C135.703 49.9536 134.337 50.8911 133.061 51.8357C133.005 51.8771 132.934 51.8976 132.864 51.8976ZM141.248 46.5306C141.156 46.5306 141.066 46.4959 141.01 46.4317C140.919 46.327 140.951 46.1826 141.082 46.1095C142.525 45.3048 144.042 44.5108 145.593 43.7493C145.729 43.6826 145.907 43.7162 145.991 43.825C146.075 43.9336 146.032 44.076 145.896 44.1428C144.355 44.8994 142.847 45.6889 141.413 46.4884C141.363 46.5171 141.305 46.5306 141.248 46.5306ZM150.398 42.0268C150.296 42.0268 150.196 41.9832 150.144 41.906C150.067 41.7941 150.119 41.6536 150.26 41.5924C151.813 40.9167 153.426 40.2555 155.055 39.6268C155.199 39.5712 155.372 39.6193 155.442 39.7345C155.511 39.8494 155.451 39.9877 155.307 40.0433C153.686 40.6691 152.081 41.3265 150.536 41.9989C150.492 42.0179 150.445 42.0268 150.398 42.0268ZM160.073 38.285C159.961 38.285 159.854 38.2324 159.807 38.1452C159.744 38.0277 159.812 37.8919 159.959 37.8416C161.585 37.2841 163.265 36.7411 164.954 36.2272C165.102 36.1829 165.27 36.2418 165.327 36.3611C165.384 36.4805 165.309 36.614 165.159 36.6595C163.478 37.1707 161.805 37.7115 160.187 38.2667C160.15 38.279 160.112 38.285 160.073 38.285ZM170.118 35.2248C169.997 35.2248 169.885 35.1641 169.844 35.0675C169.793 34.9463 169.875 34.815 170.026 34.7744C171.708 34.3224 173.436 33.8861 175.163 33.4781C175.317 33.4408 175.477 33.5117 175.522 33.634C175.568 33.7563 175.48 33.885 175.327 33.9215C173.607 34.3276 171.885 34.7621 170.21 35.2125C170.18 35.2211 170.149 35.2248 170.118 35.2248ZM180.427 32.786C180.298 32.786 180.18 32.7166 180.147 32.6126C180.107 32.4888 180.2 32.3627 180.354 32.3306C182.078 31.9756 183.84 31.6378 185.592 31.3267C185.748 31.2999 185.903 31.3775 185.937 31.5024C185.972 31.6269 185.874 31.7508 185.717 31.7784C183.971 32.0882 182.216 32.425 180.499 32.7785C180.475 32.7834 180.451 32.786 180.427 32.786ZM190.921 30.9192C190.785 30.9192 190.663 30.842 190.637 30.7308C190.608 30.6055 190.711 30.4847 190.868 30.4608C192.616 30.1976 194.402 29.9511 196.175 29.7292C196.333 29.7102 196.481 29.7956 196.506 29.922C196.53 30.048 196.422 30.1662 196.265 30.1864C194.497 30.4075 192.718 30.6529 190.975 30.9158C190.957 30.9177 190.939 30.9192 190.921 30.9192ZM201.543 29.5875C201.399 29.5875 201.274 29.5021 201.256 29.385C201.236 29.2582 201.348 29.1426 201.507 29.1269C203.27 28.949 205.071 28.7887 206.858 28.6511C207.014 28.6365 207.159 28.7316 207.174 28.8588C207.189 28.986 207.073 29.0989 206.914 29.1109C205.132 29.2489 203.337 29.4085 201.579 29.5856C201.567 29.5871 201.555 29.5875 201.543 29.5875ZM212.244 28.7596C212.094 28.7596 211.967 28.6664 211.956 28.544C211.945 28.4169 212.066 28.3065 212.225 28.2979C213.996 28.2013 215.805 28.123 217.602 28.0648C217.759 28.0499 217.896 28.1588 217.902 28.2864C217.909 28.4139 217.785 28.5217 217.625 28.5265C215.834 28.5847 214.03 28.6626 212.265 28.7588C212.258 28.7592 212.251 28.7596 212.244 28.7596Z" fill="#325899"/>
<path d="M223.049 28.4106C222.891 28.4106 222.762 28.3091 222.759 28.1823C222.757 28.0548 222.885 27.95 223.045 27.9481C223.942 27.9384 224.844 27.9336 225.749 27.9336C225.909 27.9336 226.039 28.0373 226.039 28.1648C226.039 28.2923 225.909 28.396 225.749 28.396C224.846 28.396 223.947 28.4009 223.052 28.4106C223.051 28.4106 223.05 28.4106 223.049 28.4106Z" fill="#325899"/>
<path d="M221.849 28.5459L230.74 28.9986L228.081 25.3892L221.849 28.5459Z" fill="#244885"/>
<path d="M230.041 30.1343L241.637 27.44L227.279 26.8828L230.041 30.1343Z" fill="#3A67B3"/>
<path d="M241.648 27.4289L223.83 20.7671L226.36 24.073L241.648 27.4289Z" fill="#3A67B3"/>
<path d="M241.637 27.4402L227.248 26.9136L221.849 28.5462L226.36 24.0205L241.637 27.4402Z" fill="#295399"/>
<path d="M305.124 220.561H233.408V225.829H305.124V220.561Z" fill="#63699E"/>
<path d="M175.849 220.561C169.324 220.561 164.016 215.245 164.016 208.712V78.9499C164.016 72.4167 169.324 67.1016 175.849 67.1016H360.085C366.61 67.1016 371.918 72.4167 371.918 78.9499V208.712C371.918 215.245 366.61 220.561 360.085 220.561H175.849Z" fill="#A8D1FF"/>
<path d="M369.162 78.9497V208.712C369.162 213.73 365.1 217.801 360.084 217.801H175.847C170.835 217.801 166.773 213.73 166.773 208.712V78.9497C166.773 73.9314 170.835 69.8599 175.847 69.8599H360.084C365.1 69.8599 369.162 73.9314 369.162 78.9497Z" fill="white"/>
<path d="M350.843 82.3822H187.689C187.253 82.3822 186.899 82.0283 186.899 81.5917V81.3306C186.899 80.8939 187.253 80.54 187.689 80.54H350.843C351.279 80.54 351.633 80.8939 351.633 81.3306V81.5917C351.633 82.0283 351.279 82.3822 350.843 82.3822Z" fill="#A8D1FF"/>
<path d="M350.843 88.5595H187.689C187.253 88.5595 186.899 88.2056 186.899 87.7689V87.5079C186.899 87.0712 187.253 86.7173 187.689 86.7173H350.843C351.279 86.7173 351.633 87.0712 351.633 87.5079V87.7689C351.633 88.2056 351.279 88.5595 350.843 88.5595Z" fill="#A8D1FF"/>
<path d="M350.843 94.5746H187.689C187.253 94.5746 186.899 94.2207 186.899 93.784V93.523C186.899 93.0863 187.253 92.7324 187.689 92.7324H350.843C351.279 92.7324 351.633 93.0863 351.633 93.523V93.784C351.633 94.2207 351.279 94.5746 350.843 94.5746Z" fill="#A8D1FF"/>
<path d="M201.466 174.439H187.494V203.66H201.466V174.439Z" fill="#9ECCFF"/>
<path d="M226.394 155.597H212.423V203.66H226.394V155.597Z" fill="#D94559"/>
<path d="M251.323 180.994H237.352V203.66H251.323V180.994Z" fill="#9ECCFF"/>
<path d="M276.252 141.123H262.281V203.66H276.252V141.123Z" fill="#D94559"/>
<path d="M301.181 158.328H287.209V203.66H301.181V158.328Z" fill="#9ECCFF"/>
<path d="M326.109 143.308H312.138V203.66H326.109V143.308Z" fill="#D94559"/>
<path d="M351.038 120.915H337.066V203.66H351.038V120.915Z" fill="#9ECCFF"/>
<path d="M330.666 102.62C330.423 100.941 328.861 99.7749 327.178 100.015C325.495 100.255 324.327 101.81 324.57 103.489C324.58 103.557 324.595 103.623 324.61 103.69L309.203 114.604C308.611 114.241 307.894 114.074 307.153 114.179C306.009 114.342 305.105 115.114 304.718 116.118L297.277 114.858C296.778 113.54 295.415 112.695 293.959 112.902C292.276 113.142 291.108 114.697 291.351 116.376C291.366 116.476 291.385 116.573 291.409 116.669L271.277 130.93C270.701 130.599 270.015 130.448 269.305 130.549C268.862 130.612 268.457 130.768 268.101 130.992L259.283 118.628C259.285 118.619 259.287 118.611 259.289 118.603C259.571 116.931 258.441 115.345 256.763 115.061C255.086 114.777 253.498 115.902 253.215 117.575C253.153 117.942 253.163 118.304 253.228 118.65L233.067 132.931C232.761 132.756 232.421 132.628 232.052 132.565C231.589 132.487 231.135 132.519 230.711 132.637L224.823 124.382C224.924 124.154 225.001 123.911 225.044 123.654C225.326 121.982 224.196 120.396 222.519 120.112C220.855 119.831 219.28 120.936 218.979 122.586L205.193 125.692C204.737 125.126 204.082 124.716 203.308 124.585C201.631 124.302 200.043 125.427 199.76 127.098C199.478 128.77 200.609 130.356 202.285 130.64C203.963 130.923 205.551 129.798 205.833 128.127C205.85 128.025 205.862 127.924 205.869 127.823L219.407 124.774C219.858 125.487 220.597 126.015 221.496 126.167C222.099 126.269 222.689 126.186 223.213 125.964L228.923 133.972C228.718 134.301 228.572 134.673 228.503 135.078C228.221 136.75 229.352 138.336 231.029 138.62C232.706 138.904 234.294 137.778 234.576 136.106C234.66 135.608 234.617 135.118 234.473 134.667L254.41 120.544C254.79 120.828 255.24 121.03 255.739 121.115C256.551 121.252 257.341 121.057 257.973 120.632L266.739 132.923C266.661 133.274 266.641 133.645 266.696 134.022C266.939 135.701 268.501 136.867 270.184 136.627C271.867 136.387 273.035 134.832 272.792 133.153C272.767 132.986 272.727 132.825 272.677 132.669L292.692 118.492C293.302 118.897 294.055 119.092 294.837 118.981C295.955 118.822 296.842 118.081 297.243 117.11L304.746 118.38C305.27 119.653 306.605 120.461 308.032 120.258C309.715 120.018 310.882 118.462 310.64 116.784C310.619 116.645 310.587 116.512 310.55 116.38L325.836 105.552C326.458 105.994 327.242 106.209 328.056 106.093C329.742 105.855 330.909 104.299 330.666 102.62Z" fill="#FFBC47"/>
<path d="M315.625 325.319L294.468 225.83H291.569L294.361 238.96H243.589L246.381 225.83H243.482L222.325 325.319H220.181V326.94H227.338V325.319H225.224L243.061 241.443H294.889L312.726 325.319H311V326.94H318.157V325.319H315.625Z" fill="#C8CBE3"/>
<path d="M323.808 67.1012H211.483V66.6018C211.483 63.9243 213.651 61.7539 216.325 61.7539H318.966C321.641 61.7539 323.808 63.9243 323.808 66.6018L323.808 67.1012Z" fill="#63699E"/>
<path d="M273.775 46.149V48.9835C271.187 48.906 268.695 47.98 266.691 46.3515L268.32 44.0137C269.849 45.3219 271.761 46.0703 273.775 46.149Z" fill="#B3D7FF"/>
<path d="M273.775 46.149V48.9835C271.187 48.906 268.695 47.98 266.691 46.3515L268.32 44.0137C269.849 45.3219 271.761 46.0703 273.775 46.149Z" fill="#B3D7FF"/>
<path d="M267.794 43.5274L266.153 45.8834C263.733 43.6657 262.354 40.5414 262.354 37.2504C262.354 37.1501 262.355 37.0591 262.357 36.9756H265.201C265.198 37.0666 265.197 37.1579 265.197 37.2504C265.197 39.5983 266.139 41.8683 267.794 43.5274Z" fill="#B3D7FF"/>
<path d="M267.794 43.5274L266.153 45.8834C263.733 43.6657 262.354 40.5414 262.354 37.2504C262.354 37.1501 262.355 37.0591 262.357 36.9756H265.201C265.198 37.0666 265.197 37.1579 265.197 37.2504C265.197 39.5983 266.139 41.8683 267.794 43.5274Z" fill="#B3D7FF"/>
<path d="M271.237 28.8239C267.983 29.936 265.629 32.8615 265.252 36.2674H262.398C262.587 33.9661 263.442 31.8002 264.884 29.9811C266.309 28.1837 268.195 26.8576 270.355 26.1304L271.237 28.8239Z" fill="#B3D7FF"/>
<path d="M271.237 28.8239C267.983 29.936 265.629 32.8615 265.252 36.2674H262.398C262.587 33.9661 263.442 31.8002 264.884 29.9811C266.309 28.1837 268.195 26.8576 270.355 26.1304L271.237 28.8239Z" fill="#B3D7FF"/>
<path d="M285.905 37.2518C285.905 38.3937 285.741 39.5176 285.418 40.6002L282.784 39.4546C282.967 38.7386 283.06 37.9991 283.06 37.2518C283.06 34.512 281.783 31.9165 279.627 30.2339L281.415 28.0288C282.74 29.0707 283.839 30.4006 284.609 31.8922C285.469 33.5599 285.905 35.363 285.905 37.2518Z" fill="#B3D7FF"/>
<path d="M285.194 41.2756C284.396 43.4605 282.979 45.3404 281.081 46.7261C279.149 48.1372 276.874 48.9137 274.483 48.9834V46.1489C278.147 46.0019 281.393 43.5899 282.579 40.1382L285.194 41.2756Z" fill="#B3D7FF"/>
<path d="M285.194 41.2756C284.396 43.4605 282.979 45.3404 281.081 46.7261C279.149 48.1372 276.874 48.9137 274.483 48.9834V46.1489C278.147 46.0019 281.393 43.5899 282.579 40.1382L285.194 41.2756Z" fill="#B3D7FF"/>
<path d="M280.845 27.6077L279.051 29.8202C277.591 28.8547 275.896 28.3468 274.13 28.3468C273.927 28.3468 273.725 28.3535 273.529 28.367C272.984 28.4028 272.442 28.4889 271.914 28.6239L271.031 25.9251C271.977 25.6682 272.957 25.5306 273.95 25.5157C274.009 25.5149 274.069 25.5142 274.128 25.5142C276.555 25.5142 278.868 26.2365 280.845 27.6077Z" fill="#B3D7FF"/>
<path d="M280.845 27.6077L279.051 29.8202C277.591 28.8547 275.896 28.3468 274.13 28.3468C273.927 28.3468 273.725 28.3535 273.529 28.367C272.984 28.4028 272.442 28.4889 271.914 28.6239L271.031 25.9251C271.977 25.6682 272.957 25.5306 273.95 25.5157C274.009 25.5149 274.069 25.5142 274.128 25.5142C276.555 25.5142 278.868 26.2365 280.845 27.6077Z" fill="#B3D7FF"/>
<path d="M401.489 101.275C398.7 101.275 396.039 100.306 393.921 98.5335L401.613 90.4341L411.216 96.1598C410.222 97.6056 408.909 98.821 407.385 99.7011C405.602 100.731 403.563 101.275 401.489 101.275Z" fill="#B3D7FF"/>
<path d="M402.201 88.8196V77.8096C408.131 78.1631 412.894 82.9092 413.25 88.8196H402.201Z" fill="#B3D7FF"/>
<path d="M406.274 90.6406H415.451C415.351 92.2833 414.908 93.8846 414.151 95.3375L406.274 90.6406Z" fill="#B3D7FF"/>
<path d="M392.886 97.5569C390.83 95.3753 389.706 92.552 389.706 89.5313C389.706 83.2939 394.611 78.1768 400.778 77.8091V89.2468L392.886 97.5569Z" fill="#B3D7FF"/>
<path d="M422.755 194.578C422.847 194.726 422.876 194.906 422.833 195.083C422.776 195.316 422.605 195.495 422.375 195.563L420.152 196.211C419.922 196.279 419.681 196.22 419.508 196.054C419.335 195.888 419.266 195.649 419.322 195.416L419.872 193.164C419.929 192.931 420.1 192.752 420.331 192.684C420.561 192.617 420.802 192.676 420.975 192.842L422.647 194.445C422.69 194.486 422.726 194.53 422.755 194.578ZM419.847 195.647C419.855 195.66 419.864 195.67 419.87 195.676C419.887 195.692 419.936 195.729 420.006 195.709L422.228 195.06C422.298 195.039 422.32 194.982 422.325 194.958C422.331 194.935 422.339 194.875 422.286 194.823L420.614 193.221C420.561 193.17 420.501 193.181 420.477 193.187C420.454 193.194 420.398 193.218 420.38 193.289L419.83 195.541C419.819 195.587 419.832 195.623 419.847 195.647Z" fill="#D94559"/>
<path d="M157.449 64.5572C157.541 64.706 157.57 64.8857 157.527 65.0621C157.47 65.2952 157.299 65.4749 157.068 65.5421L154.846 66.1909C154.616 66.2581 154.375 66.1992 154.202 66.0332C154.029 65.8673 153.959 65.6286 154.016 65.3955L154.566 63.1438C154.623 62.9104 154.794 62.731 155.024 62.6639C155.254 62.5968 155.495 62.6557 155.668 62.8216L157.341 64.4241C157.383 64.4651 157.419 64.5095 157.449 64.5572ZM154.54 65.6263C154.549 65.6394 154.557 65.6491 154.563 65.6551C154.581 65.6718 154.63 65.7091 154.7 65.6883L156.922 65.0394C156.992 65.0189 157.013 64.9614 157.019 64.9379C157.025 64.9144 157.033 64.854 156.98 64.8033L155.307 63.2005C155.254 63.1498 155.194 63.1603 155.171 63.167C155.147 63.1737 155.091 63.1972 155.074 63.2684L154.524 65.5201C154.513 65.5663 154.525 65.6021 154.54 65.6263Z" fill="#D94559"/>
<path d="M385.14 139.663L385.958 138.844C386.143 138.659 386.143 138.357 385.958 138.172C385.772 137.986 385.471 137.986 385.286 138.172L384.468 138.99L383.651 138.172C383.465 137.986 383.164 137.986 382.979 138.172C382.793 138.357 382.793 138.659 382.979 138.844L383.796 139.663L382.98 140.48C382.795 140.666 382.795 140.967 382.98 141.153C383.073 141.245 383.195 141.292 383.316 141.292C383.438 141.292 383.56 141.245 383.652 141.153L384.468 140.336L385.284 141.153C385.377 141.245 385.499 141.292 385.62 141.292C385.742 141.292 385.863 141.245 385.956 141.153C386.142 140.967 386.142 140.666 385.956 140.48L385.14 139.663Z" fill="#FFB86B"/>
<path d="M80.7842 187.528L81.6017 186.709C81.7872 186.523 81.7872 186.222 81.6017 186.036C81.4162 185.851 81.1153 185.851 80.9298 186.036L80.1124 186.855L79.2949 186.036C79.1094 185.851 78.8085 185.851 78.623 186.036C78.4375 186.222 78.4375 186.523 78.623 186.709L79.4405 187.528L78.6245 188.345C78.439 188.53 78.439 188.832 78.6245 189.017C78.7172 189.11 78.839 189.157 78.9604 189.157C79.0818 189.157 79.2036 189.11 79.2964 189.017L80.1124 188.2L80.9284 189.017C81.0211 189.11 81.1429 189.157 81.2643 189.157C81.3857 189.157 81.5075 189.11 81.6002 189.017C81.7857 188.832 81.7857 188.53 81.6002 188.345L80.7842 187.528Z" fill="#FFB86B"/>
<path d="M350.678 57.2013C349.648 57.2013 348.811 56.3626 348.811 55.3318C348.811 54.3011 349.648 53.4624 350.678 53.4624C351.707 53.4624 352.545 54.3011 352.545 55.3318C352.545 56.3626 351.707 57.2013 350.678 57.2013ZM350.678 54.0471C349.97 54.0471 349.395 54.6233 349.395 55.3315C349.395 56.0396 349.97 56.6158 350.678 56.6158C351.385 56.6158 351.96 56.0396 351.96 55.3315C351.96 54.6233 351.385 54.0471 350.678 54.0471Z" fill="#195494"/>
<path d="M183.041 240.711C182.012 240.711 181.174 239.872 181.174 238.841C181.174 237.81 182.012 236.972 183.041 236.972C184.071 236.972 184.908 237.81 184.908 238.841C184.908 239.872 184.071 240.711 183.041 240.711ZM183.041 237.556C182.334 237.556 181.759 238.133 181.759 238.841C181.759 239.549 182.334 240.125 183.041 240.125C183.749 240.125 184.324 239.549 184.324 238.841C184.324 238.133 183.749 237.556 183.041 237.556Z" fill="#195494"/>
<path d="M457.6 326.926H50.4004C50.0141 326.926 49.7009 326.612 49.7009 326.225V325.994C49.7009 325.608 50.0141 325.294 50.4004 325.294H457.6C457.986 325.294 458.299 325.608 458.299 325.994V326.225C458.299 326.612 457.986 326.926 457.6 326.926Z" fill="#C8CBE3"/>
<path d="M233.902 337.233H169.893C169.516 337.233 169.209 336.927 169.209 336.548V336.322C169.209 335.944 169.516 335.638 169.893 335.638H233.902C234.28 335.638 234.586 335.944 234.586 336.322V336.548C234.586 336.927 234.28 337.233 233.902 337.233Z" fill="#C8CBE3"/>
<path d="M279.902 337.233H255.646C255.268 337.233 254.962 336.927 254.962 336.548V336.322C254.962 335.944 255.268 335.638 255.646 335.638H279.902C280.28 335.638 280.586 335.944 280.586 336.322V336.548C280.586 336.927 280.28 337.233 279.902 337.233Z" fill="#C8CBE3"/>
</svg>
