<svg width="1640" height="757" viewBox="0 0 1640 757" fill="none" xmlns="http://www.w3.org/2000/svg">
<rect x="200" y="200" width="1440" height="512" fill="#051623"/>
<g opacity="0.2" filter="url(#filter0_f_1_16)">
<ellipse cx="367" cy="378.5" rx="167" ry="178.5" fill="url(#paint0_linear_1_16)"/>
</g>
<path opacity="0.02" d="M1479.84 536.723L1475.2 520.418L1478.06 517.549C1479.94 515.655 1479.89 512.548 1477.94 510.609C1476 508.669 1472.89 508.633 1471 510.526L1468.15 513.395L1417.29 499.183L1402.85 448.393L1439.23 411.847L1490.08 426.068L1504.53 476.848L1501.66 479.726C1499.78 481.62 1499.83 484.727 1501.78 486.666C1503.73 488.606 1506.83 488.642 1508.72 486.749L1513.56 481.889C1514.78 480.663 1515.23 478.86 1514.75 477.159L1499.52 423.641L1535.9 387.095L1552.21 391.663C1554.84 392.399 1557.51 390.881 1558.17 388.272C1558.83 385.665 1557.24 382.953 1554.61 382.217L1538.28 377.645L1523.83 326.864L1534.99 315.657C1536.88 313.764 1536.82 310.656 1534.88 308.717C1532.93 306.777 1529.82 306.741 1527.94 308.634L1516.78 319.842L1465.94 305.63L1461.3 289.325C1460.55 286.699 1457.83 285.117 1455.23 285.791C1452.62 286.465 1451.11 289.139 1451.86 291.765L1456.5 308.058L1420.12 344.603L1366.54 329.616C1364.83 329.14 1363.03 329.602 1361.81 330.828L1323.46 369.356L1307.13 364.796C1304.5 364.062 1301.83 365.582 1301.18 368.191C1300.73 369.942 1301.3 371.739 1302.53 372.953C1303.12 373.548 1303.88 374.003 1304.74 374.245L1321.07 378.807L1335.51 429.595L1323.83 441.328C1321.95 443.221 1322 446.329 1323.95 448.268C1325.9 450.208 1329 450.244 1330.89 448.351L1342.57 436.618L1393.41 450.821L1407.85 501.61L1396.7 512.818C1394.81 514.711 1394.86 517.819 1396.81 519.758C1398.76 521.697 1401.87 521.734 1403.75 519.841L1414.91 508.633L1465.76 522.846L1470.4 539.156C1470.64 540.02 1471.1 540.771 1471.7 541.366C1472.92 542.58 1474.72 543.145 1476.47 542.694C1479.07 542.022 1480.58 539.348 1479.84 536.723ZM1514.39 329.291L1528.84 380.072L1492.46 416.617L1441.62 402.397L1427.18 351.626L1463.56 315.08L1514.39 329.291ZM1330.51 376.378L1366.89 339.833L1417.74 354.053L1432.18 404.824L1395.8 441.371L1344.95 427.169L1330.51 376.378Z" fill="white"/>
<defs>
<filter id="filter0_f_1_16" x="0" y="0" width="734" height="757" filterUnits="userSpaceOnUse" color-interpolation-filters="sRGB">
<feFlood flood-opacity="0" result="BackgroundImageFix"/>
<feBlend mode="normal" in="SourceGraphic" in2="BackgroundImageFix" result="shape"/>
<feGaussianBlur stdDeviation="100" result="effect1_foregroundBlur_1_16"/>
</filter>
<linearGradient id="paint0_linear_1_16" x1="206.661" y1="378.5" x2="534" y2="378.5" gradientUnits="userSpaceOnUse">
<stop stop-color="#26ACE2"/>
<stop offset="1" stop-color="#9E83BD"/>
</linearGradient>
</defs>
</svg>
