<svg width="637" height="960" viewBox="0 0 637 960" fill="none" xmlns="http://www.w3.org/2000/svg">
<g opacity="0.08" clip-path="url(#clip0_11_1393)">
<path d="M383.801 382.758C383.003 379.813 380.695 377.517 377.748 376.73L323.3 362.219C320.345 361.431 317.193 362.281 315.034 364.449L275.361 404.302C273.203 406.47 272.367 409.626 273.168 412.578L287.925 466.96C288.324 468.432 289.101 469.742 290.145 470.782C291.191 471.823 292.505 472.594 293.98 472.986L348.41 487.48C351.366 488.266 354.516 487.416 356.674 485.248L396.347 445.396C398.505 443.228 399.342 440.073 398.541 437.122L383.801 382.758ZM348.036 469.675L303.146 457.721L290.975 412.87L323.673 380.024L368.578 391.993L380.735 436.828L348.036 469.675Z" fill="#00BAD1"/>
<path d="M317.966 243.253L332.705 297.618C333.105 299.091 333.882 300.401 334.927 301.442C335.972 302.482 337.285 303.252 338.759 303.645L393.207 318.156C396.163 318.944 399.315 318.094 401.473 315.926L441.146 276.073C443.304 273.905 444.14 270.749 443.34 267.797L428.582 213.416C427.782 210.472 425.476 208.174 422.527 207.389L368.097 192.895C365.142 192.108 361.991 192.959 359.833 195.127L320.16 234.979C318.003 237.147 317.167 240.301 317.966 243.253ZM368.472 210.701L413.361 222.655L425.533 267.506L392.835 300.351L347.93 288.383L335.773 243.547L368.472 210.701Z" fill="#00BAD1"/>
<path d="M224.073 363.703C227.029 364.49 230.18 363.639 232.337 361.472L272.01 321.619C274.168 319.452 275.005 316.297 274.204 313.345L259.465 258.981C258.666 256.037 256.358 253.74 253.411 252.954L198.964 238.442C196.008 237.655 192.856 238.505 190.698 240.673L151.025 280.526C148.866 282.694 148.03 285.85 148.831 288.802L163.588 343.184C163.988 344.656 164.764 345.966 165.809 347.006C166.854 348.046 168.168 348.818 169.643 349.21L224.073 363.703ZM178.809 333.944L166.638 289.093L199.335 256.248L244.241 268.216L256.398 313.051L223.699 345.898L178.809 333.944Z" fill="#00BAD1"/>
<path d="M379.622 553.408L371.946 525.093L376.996 520.02C380.329 516.672 380.317 511.256 376.969 507.922C373.62 504.589 368.203 504.602 364.87 507.95L359.821 513.022L271.517 489.499L247.593 401.297L311.922 336.678L400.213 360.217L424.151 448.401L419.086 453.49C415.753 456.838 415.765 462.255 419.113 465.588C422.462 468.921 427.879 468.909 431.211 465.561L439.765 456.968C441.924 454.8 442.76 451.644 441.958 448.692L416.729 355.752L481.056 291.134L509.385 298.695C513.951 299.914 518.638 297.201 519.857 292.636C521.076 288.073 518.363 283.384 513.798 282.165L485.449 274.598L461.51 186.413L481.238 166.596C484.57 163.249 484.559 157.832 481.21 154.498C477.862 151.165 472.445 151.178 469.112 154.526L449.384 174.343L361.11 150.819L353.415 122.504C352.174 117.945 347.475 115.253 342.916 116.492C338.357 117.732 335.665 122.431 336.904 126.991L344.593 155.286L280.266 219.904L187.214 195.095C184.258 194.307 181.106 195.158 178.947 197.326L111.129 265.451L82.7797 257.904C78.2141 256.688 73.5274 259.404 72.3127 263.969C71.497 267.034 72.4513 270.152 74.5484 272.24C75.5754 273.262 76.8777 274.037 78.3788 274.437L106.741 281.987L130.663 370.185L110.01 390.931C106.677 394.279 106.689 399.696 110.037 403.03C113.386 406.363 118.803 406.35 122.136 403.002L142.787 382.257L231.077 405.765L254.999 493.963L235.271 513.781C231.938 517.129 231.95 522.546 235.298 525.879C238.647 529.212 244.064 529.199 247.396 525.852L267.124 506.035L355.431 529.559L363.11 557.885C363.516 559.384 364.297 560.683 365.324 561.705C367.42 563.792 370.545 564.733 373.605 563.903C378.164 562.667 380.858 557.968 379.622 553.408ZM444.994 190.878L468.933 279.061L404.604 343.681L316.314 320.142L292.392 231.975L356.722 167.354L444.994 190.878ZM123.256 277.52L187.584 212.901L275.874 236.44L299.796 324.607L235.466 389.228L147.179 365.721L123.256 277.52Z" fill="#00BAD1"/>
<path d="M386.699 261.562L386.733 261.528C390.066 258.18 390.037 252.78 386.689 249.447C383.34 246.113 377.907 246.143 374.574 249.491C371.241 252.839 371.253 258.256 374.601 261.589C377.95 264.923 383.366 264.91 386.699 261.562Z" fill="#00BAD1"/>
<path d="M217.561 295.019C214.213 291.686 208.788 291.706 205.454 295.055C202.121 298.403 202.133 303.82 205.482 307.153C208.83 310.486 214.247 310.473 217.58 307.126L217.597 307.109C220.93 303.76 220.909 298.352 217.561 295.019Z" fill="#00BAD1"/>
<path d="M329.792 418.831C326.459 422.178 326.471 427.595 329.819 430.929C333.168 434.262 338.585 434.249 341.917 430.901L341.934 430.884C345.267 427.537 345.246 422.129 341.898 418.795C338.549 415.462 333.125 415.483 329.792 418.831Z" fill="#00BAD1"/>
<path d="M404.093 480.675C400.745 477.341 395.32 477.363 391.986 480.711C388.653 484.059 388.665 489.476 392.014 492.809C395.362 496.142 400.779 496.13 404.112 492.782L404.129 492.765C407.462 489.416 407.442 484.008 404.093 480.675Z" fill="#00BAD1"/>
</g>
<g opacity="0.08" clip-path="url(#clip1_11_1393)">
<path d="M304.266 831.499C304.754 828.487 303.599 825.443 301.239 823.51L257.631 787.825C255.264 785.888 252.042 785.362 249.181 786.446L196.598 806.378C193.738 807.462 191.674 809.992 191.186 813.011L182.188 868.636C181.944 870.142 182.111 871.656 182.634 873.034C183.156 874.414 184.035 875.659 185.216 876.624L228.817 912.286C231.184 914.222 234.405 914.747 237.265 913.664L289.848 893.732C292.707 892.648 294.772 890.119 295.26 887.101L304.266 831.499ZM235.823 895.914L199.865 866.502L207.286 820.625L250.623 804.198L286.588 833.63L279.162 879.486L235.823 895.914Z" fill="#00BAD1"/>
<path d="M301.861 677.259L292.854 732.861C292.61 734.368 292.777 735.882 293.3 737.261C293.823 738.64 294.701 739.883 295.881 740.849L339.49 776.535C341.857 778.471 345.08 778.998 347.94 777.913L400.523 757.982C403.383 756.898 405.447 754.368 405.936 751.349L414.933 695.723C415.419 692.711 414.266 689.667 411.904 687.736L368.305 652.073C365.938 650.136 362.716 649.612 359.856 650.696L307.274 670.627C304.414 671.711 302.351 674.24 301.861 677.259ZM361.299 668.447L397.255 697.859L389.836 743.736L346.499 760.162L310.533 730.731L317.96 684.874L361.299 668.447Z" fill="#00BAD1"/>
<path d="M166.633 748.233C169 750.169 172.221 750.694 175.081 749.611L227.664 729.679C230.523 728.595 232.588 726.066 233.076 723.048L242.082 667.446C242.57 664.434 241.415 661.39 239.055 659.457L195.447 623.772C193.08 621.835 189.858 621.309 186.997 622.393L134.415 642.325C131.554 643.409 129.49 645.939 129.002 648.958L120.004 704.583C119.76 706.089 119.927 707.603 120.45 708.981C120.972 710.361 121.851 711.606 123.033 712.571L166.633 748.233ZM137.681 702.448L145.102 656.571L188.439 640.144L224.404 669.576L216.977 715.433L173.639 731.86L137.681 702.448Z" fill="#00BAD1"/>
<path d="M230.043 985.219L234.735 956.26L241.428 953.723C245.845 952.048 248.07 947.109 246.395 942.691C244.721 938.273 239.781 936.05 235.364 937.724L228.671 940.261L157.941 882.397L172.545 792.183L257.805 759.865L328.516 817.739L313.934 907.943L307.22 910.488C302.803 912.162 300.578 917.101 302.253 921.519C303.928 925.937 308.867 928.161 313.285 926.487L324.622 922.189C327.483 921.105 329.546 918.575 330.035 915.555L345.403 820.486L430.662 788.169L453.347 806.746C457.003 809.74 462.392 809.203 465.386 805.548C468.379 801.894 467.843 796.504 464.188 793.51L441.487 774.919L456.069 684.714L482.216 674.803C486.633 673.129 488.858 668.19 487.183 663.772C485.508 659.354 480.569 657.13 476.152 658.805L450.004 668.716L379.302 610.863L383.976 581.895C384.728 577.231 381.557 572.84 376.894 572.087C372.229 571.335 367.838 574.505 367.085 579.17L362.414 608.117L277.155 640.434L202.631 579.439C200.263 577.502 197.041 576.975 194.18 578.06L104.294 612.131L81.5849 593.558C77.9278 590.567 72.5381 591.107 69.5478 594.764C67.5399 597.22 67.1227 600.454 68.1715 603.221C68.6851 604.576 69.5516 605.819 70.7541 606.802L93.4733 625.383L78.8704 715.593L51.4975 725.969C47.0803 727.643 44.8557 732.582 46.5304 737C48.205 741.418 53.1446 743.642 57.5618 741.968L84.9338 731.592L155.657 789.437L141.054 879.647L114.906 889.559C110.488 891.233 108.264 896.172 109.939 900.59C111.613 905.008 116.553 907.232 120.97 905.557L147.116 895.647L217.849 953.514L213.155 982.483C212.907 984.017 213.082 985.522 213.596 986.877C214.644 989.643 217.102 991.789 220.231 992.296C224.894 993.051 229.288 989.883 230.043 985.219ZM439.182 681.966L424.6 772.17L339.34 804.487L268.629 746.614L283.219 656.433L368.482 624.114L439.182 681.966ZM110.36 628.129L195.621 595.811L266.331 653.684L251.741 743.866L166.478 776.185L95.7568 718.342L110.36 628.129Z" fill="#00BAD1"/>
<path d="M356.914 722.298L356.96 722.28C361.377 720.606 363.579 715.675 361.905 711.257C360.23 706.839 355.268 704.624 350.851 706.299C346.434 707.973 344.209 712.912 345.884 717.33C347.558 721.748 352.497 723.972 356.914 722.298Z" fill="#00BAD1"/>
<path d="M189.042 682.982C187.367 678.564 182.417 676.344 177.999 678.019C173.581 679.693 171.358 684.632 173.032 689.05C174.707 693.468 179.646 695.692 184.064 694.017L184.086 694.009C188.504 692.334 190.716 687.399 189.042 682.982Z" fill="#00BAD1"/>
<path d="M240.184 842.071C235.767 843.746 233.542 848.685 235.217 853.103C236.892 857.521 241.831 859.744 246.248 858.07L246.271 858.062C250.688 856.387 252.901 851.453 251.226 847.035C249.551 842.617 244.601 840.397 240.184 842.071Z" fill="#00BAD1"/>
<path d="M282.347 929.064C280.672 924.646 275.721 922.427 271.303 924.101C266.885 925.776 264.661 930.715 266.336 935.133C268.011 939.551 272.95 941.774 277.367 940.1L277.39 940.091C281.808 938.417 284.021 933.482 282.347 929.064Z" fill="#00BAD1"/>
</g>
<defs>
<clipPath id="clip0_11_1393">
<rect width="438" height="438" fill="white" transform="translate(326.012) rotate(44.8706)"/>
</clipPath>
<clipPath id="clip1_11_1393">
<rect width="368.833" height="438" fill="white" transform="translate(409.565 459) rotate(69.2409)"/>
</clipPath>
</defs>
</svg>
