<svg width="598" height="398" viewBox="0 0 598 398" fill="none" xmlns="http://www.w3.org/2000/svg">
<path d="M399 173.918H199V316.822H399V173.918Z" fill="#C4850C"/>
<path d="M399 173.918H332.626V316.822H399V173.918Z" fill="#E59B10"/>
<path d="M332.626 178.516V311.853" stroke="#6B4C01" stroke-width="0.75" stroke-miterlimit="10"/>
<path d="M205.324 192.148H393.281" stroke="#6B4C01" stroke-width="0.75" stroke-miterlimit="10"/>
<path d="M321.143 213.182H278.876V239.808H321.143V213.182Z" fill="#F2CF7B"/>
<path d="M321.142 244.301H238.29V291.176H321.142V244.301Z" fill="#F2CF7B"/>
<path d="M274.549 173.918H253.914V208.19H274.549V173.918Z" fill="#EDB300"/>
<path d="M380.55 173.918H359.916V208.19H380.55V173.918Z" fill="#EDB300"/>
<path d="M332.666 163.34L312.001 141.497C316.946 135.333 319.913 127.511 319.913 118.992C319.913 99.1145 303.798 83 283.92 83C264.042 83 247.928 99.1145 247.928 118.992C247.928 138.87 264.042 154.985 283.92 154.985C290.462 154.985 296.591 153.23 301.878 150.179L332.666 163.34Z" fill="url(#paint0_linear_1_17)"/>
<path d="M281.589 133.39C281.081 133.39 280.573 133.197 280.186 132.81L263.519 116.143C262.744 115.369 262.744 114.111 263.519 113.338C264.294 112.563 265.549 112.563 266.323 113.338L281.596 128.61L301.522 108.867C302.299 108.096 303.556 108.101 304.327 108.88C305.098 109.658 305.093 110.914 304.314 111.685L282.984 132.815C282.599 133.199 282.094 133.39 281.589 133.39Z" fill="white"/>
<defs>
<linearGradient id="paint0_linear_1_17" x1="249.618" y1="123.17" x2="332.666" y2="123.17" gradientUnits="userSpaceOnUse">
<stop stop-color="#26ACE2"/>
<stop offset="1" stop-color="#9E83BD"/>
</linearGradient>
</defs>
</svg>
