<svg width="460" height="460" viewBox="0 0 460 460" fill="none" xmlns="http://www.w3.org/2000/svg">
<path d="M228.089 457.208C351.852 457.208 452.181 447.992 452.181 436.624C452.181 425.256 351.852 416.04 228.089 416.04C104.326 416.04 3.99683 425.256 3.99683 436.624C3.99683 447.992 104.326 457.208 228.089 457.208Z" fill="#E2E1E0"/>
<path d="M371.124 170.984L317.753 172.389L303.792 208.767L299.841 215.912L318.045 208.774L362.774 208.795L371.124 170.984Z" fill="white"/>
<path d="M332.943 191.211C331.716 188.357 328.877 186.349 325.575 186.349C325.143 186.349 324.72 186.385 324.308 186.448C320.495 187.058 317.565 190.376 317.565 194.363C317.565 194.494 317.569 194.628 317.573 194.759C317.577 194.83 317.581 194.906 317.589 194.977C317.6 195.127 317.616 195.278 317.636 195.428C317.648 195.515 317.66 195.602 317.676 195.686C317.687 195.773 317.703 195.86 317.723 195.943C317.814 196.406 317.949 196.854 318.119 197.285C318.155 197.376 318.19 197.467 318.23 197.555C318.269 197.646 318.309 197.733 318.353 197.82C318.578 198.295 318.851 198.746 319.172 199.166C319.228 199.245 319.287 199.32 319.35 199.396C319.426 199.491 319.501 199.582 319.584 199.673C319.742 199.851 319.909 200.021 320.083 200.188C320.17 200.271 320.261 200.35 320.352 200.429C320.966 200.96 321.659 201.399 322.415 201.724C322.419 201.724 322.423 201.728 322.427 201.728C323.393 202.143 324.458 202.373 325.575 202.373C327.459 202.373 329.19 201.72 330.559 200.627C331.058 200.231 331.51 199.772 331.898 199.269C332.852 198.05 333.454 196.553 333.565 194.926C333.581 194.74 333.589 194.553 333.589 194.363C333.589 193.246 333.359 192.178 332.943 191.211ZM328.251 197.911C328.22 197.939 328.188 197.962 328.148 197.99C327.424 198.505 326.533 198.81 325.575 198.81C325.305 198.81 325.04 198.786 324.783 198.738C324.775 198.738 324.771 198.734 324.763 198.734C324.636 198.711 324.514 198.683 324.391 198.647C324.332 198.631 324.272 198.612 324.213 198.592C324.13 198.568 324.047 198.536 323.967 198.505C323.037 198.14 322.257 197.475 321.75 196.624C321.746 196.616 321.742 196.612 321.738 196.604C321.409 196.042 321.196 195.4 321.14 194.711C321.132 194.6 321.128 194.482 321.128 194.363C321.128 191.979 323.009 190.027 325.361 189.916C325.432 189.912 325.504 189.912 325.575 189.912C327.305 189.912 328.806 190.902 329.538 192.344C329.851 192.949 330.025 193.638 330.025 194.363C330.025 194.494 330.021 194.624 330.005 194.751C329.954 195.317 329.803 195.856 329.562 196.339C329.491 196.485 329.407 196.624 329.32 196.759C329.035 197.202 328.675 197.594 328.251 197.911Z" fill="#FCBF49"/>
<path d="M332.943 191.211L329.538 192.344C328.806 190.903 327.305 189.913 325.575 189.913C325.504 189.913 325.432 189.913 325.361 189.917L324.308 186.448C324.72 186.385 325.143 186.349 325.575 186.349C328.877 186.349 331.716 188.357 332.943 191.211Z" fill="#312A40"/>
<path d="M323.967 198.505C323.991 198.513 324.011 198.52 324.035 198.528L322.427 201.728C321.667 201.403 320.97 200.964 320.352 200.429C320.261 200.35 320.17 200.271 320.083 200.188C319.909 200.021 319.743 199.851 319.584 199.673C319.501 199.582 319.426 199.491 319.351 199.396C319.287 199.32 319.228 199.245 319.172 199.166C318.852 198.746 318.578 198.295 318.353 197.82C318.309 197.733 318.27 197.646 318.23 197.554C318.191 197.467 318.155 197.376 318.119 197.285C317.949 196.854 317.814 196.406 317.723 195.943C317.703 195.86 317.688 195.773 317.676 195.686C317.66 195.602 317.648 195.515 317.636 195.428C317.616 195.278 317.601 195.127 317.589 194.977C317.581 194.906 317.577 194.83 317.573 194.759C317.569 194.628 317.565 194.494 317.565 194.363C317.565 190.376 320.495 187.058 324.308 186.448L325.361 189.916C323.009 190.027 321.128 191.979 321.128 194.363C321.128 194.482 321.132 194.6 321.14 194.711C321.184 195.491 321.386 196.113 321.738 196.604C321.742 196.612 321.746 196.616 321.75 196.624C322.257 197.475 323.037 198.14 323.967 198.505Z" fill="#F29D52"/>
<path d="M331.898 199.269C331.51 199.772 331.059 200.231 330.56 200.627C329.19 201.72 327.46 202.373 325.575 202.373C324.458 202.373 323.393 202.144 322.427 201.728C322.423 201.728 322.419 201.724 322.415 201.724L323.967 198.505C324.047 198.536 324.13 198.568 324.213 198.592C324.272 198.616 324.332 198.631 324.391 198.647C324.514 198.683 324.636 198.711 324.763 198.734C324.771 198.734 324.775 198.738 324.783 198.738C325.04 198.786 325.306 198.81 325.575 198.81C326.533 198.81 327.424 198.505 328.149 197.99C328.188 197.962 328.22 197.939 328.251 197.911C328.675 197.594 329.036 197.202 329.321 196.759L331.898 199.269Z" fill="#D9564A"/>
<path d="M344.476 195.14C345.196 198.163 347.648 200.628 350.901 201.195C351.326 201.269 351.75 201.307 352.166 201.315C356.027 201.369 359.483 198.603 360.167 194.675C360.19 194.546 360.209 194.413 360.228 194.283C360.236 194.212 360.245 194.138 360.249 194.066C360.264 193.916 360.274 193.765 360.28 193.613C360.283 193.525 360.287 193.438 360.285 193.353C360.289 193.265 360.288 193.176 360.283 193.091C360.272 192.619 360.216 192.155 360.123 191.701C360.103 191.605 360.084 191.509 360.06 191.417C360.036 191.32 360.012 191.228 359.984 191.134C359.844 190.627 359.652 190.136 359.408 189.667C359.367 189.579 359.321 189.495 359.272 189.41C359.214 189.304 359.156 189.201 359.089 189.097C358.964 188.894 358.829 188.698 358.686 188.504C358.615 188.407 358.538 188.314 358.462 188.22C357.949 187.592 357.342 187.04 356.652 186.59C356.648 186.59 356.645 186.585 356.641 186.585C355.761 186.009 354.751 185.6 353.651 185.409C351.794 185.085 349.978 185.432 348.44 186.273C347.881 186.578 347.358 186.952 346.889 187.381C345.74 188.419 344.89 189.79 344.501 191.374C344.454 191.555 344.414 191.737 344.382 191.924C344.19 193.024 344.232 194.117 344.476 195.14ZM350.248 189.346C350.284 189.324 350.32 189.306 350.363 189.285C351.166 188.903 352.096 188.755 353.04 188.92C353.305 188.966 353.562 189.035 353.808 189.126C353.815 189.127 353.819 189.132 353.826 189.133C353.947 189.178 354.063 189.227 354.178 189.283C354.234 189.308 354.289 189.338 354.344 189.368C354.422 189.405 354.498 189.451 354.571 189.496C355.425 190.014 356.079 190.803 356.433 191.729C356.435 191.738 356.438 191.742 356.441 191.751C356.668 192.361 356.769 193.03 356.705 193.718C356.694 193.828 356.677 193.946 356.657 194.063C356.248 196.411 354.06 198.012 351.724 197.717C351.653 197.709 351.583 197.697 351.512 197.684C349.808 197.387 348.499 196.155 348.025 194.609C347.821 193.958 347.768 193.25 347.892 192.536C347.914 192.407 347.941 192.279 347.978 192.157C348.126 191.608 348.367 191.104 348.688 190.669C348.783 190.537 348.889 190.415 348.997 190.297C349.354 189.909 349.777 189.585 350.248 189.346Z" fill="#312A40"/>
<path d="M344.476 195.14L348.025 194.609C348.499 196.155 349.808 197.388 351.512 197.684C351.583 197.697 351.653 197.709 351.724 197.717L352.166 201.315C351.75 201.307 351.326 201.269 350.901 201.195C347.648 200.628 345.196 198.163 344.476 195.14Z" fill="#F29D52"/>
<path d="M354.571 189.496C354.549 189.484 354.531 189.473 354.509 189.461L356.641 186.585C357.334 187.035 357.946 187.588 358.462 188.22C358.538 188.314 358.614 188.408 358.686 188.505C358.829 188.698 358.964 188.895 359.089 189.097C359.155 189.201 359.214 189.304 359.272 189.411C359.321 189.496 359.367 189.58 359.408 189.667C359.652 190.136 359.843 190.628 359.984 191.134C360.012 191.228 360.036 191.32 360.06 191.417C360.084 191.509 360.103 191.605 360.123 191.701C360.216 192.156 360.272 192.62 360.282 193.091C360.288 193.177 360.288 193.265 360.285 193.353C360.286 193.438 360.283 193.526 360.28 193.614C360.274 193.765 360.263 193.916 360.249 194.066C360.245 194.138 360.236 194.213 360.227 194.284C360.209 194.413 360.19 194.546 360.167 194.675C359.483 198.603 356.027 201.369 352.166 201.315L351.724 197.717C354.06 198.012 356.248 196.412 356.657 194.064C356.677 193.946 356.694 193.829 356.705 193.718C356.796 192.942 356.704 192.295 356.441 191.751C356.438 191.742 356.435 191.738 356.432 191.729C356.079 190.803 355.425 190.014 354.571 189.496Z" fill="#FCBF49"/>
<path d="M346.889 187.382C347.357 186.953 347.881 186.578 348.44 186.274C349.978 185.432 351.794 185.086 353.651 185.409C354.751 185.601 355.761 186.01 356.641 186.585C356.645 186.586 356.648 186.59 356.652 186.591L354.571 189.496C354.498 189.451 354.422 189.406 354.344 189.368C354.289 189.334 354.234 189.309 354.178 189.283C354.063 189.227 353.947 189.178 353.826 189.133C353.818 189.132 353.815 189.127 353.807 189.126C353.562 189.035 353.305 188.966 353.039 188.92C352.095 188.755 351.165 188.903 350.363 189.285C350.319 189.306 350.284 189.324 350.248 189.346C349.776 189.585 349.354 189.909 348.997 190.297L346.889 187.382Z" fill="#D9564A"/>
<path d="M325.577 176.405L351.957 175.986" stroke="#312A40" stroke-width="2" stroke-miterlimit="10" stroke-linecap="round"/>
<path d="M325.577 181.162L342.583 180.742" stroke="#312A40" stroke-width="2" stroke-miterlimit="10" stroke-linecap="round"/>
<path d="M345.727 204.916H358.935" stroke="#312A40" stroke-width="2" stroke-miterlimit="10" stroke-linecap="round"/>
<path d="M213.398 111.951C213.462 112.588 213.566 113.278 213.703 114.018" stroke="#D9564A" stroke-width="2" stroke-miterlimit="10"/>
<path d="M214.665 118.179C220.884 141.669 244.48 194.576 194.852 205.556C167.85 211.53 163.204 257.724 166.353 274.952" stroke="#D9564A" stroke-width="2" stroke-miterlimit="10" stroke-dasharray="20.43 20.43"/>
<path d="M166.81 277.039C167.006 277.79 167.221 278.456 167.453 279.027" stroke="#D9564A" stroke-width="2" stroke-miterlimit="10"/>
<path d="M72.5157 246.223C72.4812 245.52 72.4484 244.824 72.417 244.135" stroke="#D9564A" stroke-width="2" stroke-miterlimit="10"/>
<path d="M72.2456 239.995C70.6193 196.431 75.995 183.209 86.1771 177.586C94.3967 173.047 116.796 156.602 144.762 176.405C175.118 197.9 211.881 200.796 221.724 186.057" stroke="#D9564A" stroke-width="2" stroke-miterlimit="10" stroke-dasharray="19.81 19.81"/>
<path d="M222.748 184.259C223.046 183.637 223.301 182.989 223.512 182.314" stroke="#D9564A" stroke-width="2" stroke-miterlimit="10"/>
<path d="M161.773 339.519C161.311 339.519 160.841 339.45 160.377 339.305C157.906 338.535 156.528 335.907 157.298 333.437L164.362 310.781C165.132 308.31 167.76 306.932 170.231 307.702C172.701 308.472 174.08 311.1 173.31 313.57L166.246 336.226C165.62 338.233 163.77 339.519 161.773 339.519Z" fill="#FFCE76"/>
<path d="M160.847 339.519C160.384 339.519 159.915 339.45 159.45 339.305C156.979 338.535 155.601 335.907 156.371 333.437L163.435 310.781C164.205 308.31 166.833 306.932 169.304 307.702C171.775 308.472 173.153 311.1 172.383 313.57L165.319 336.226C164.693 338.233 162.843 339.519 160.847 339.519Z" fill="#F29D52"/>
<path d="M140.337 333.776L186.889 333.247C190.381 333.207 192.187 333.796 191.972 335.284L191.014 340.96C190.39 341.354 182.569 339.501 180.379 339.51L132.738 339.704C129.179 339.719 126.664 339.055 127.906 338.429L135.92 334.39C136.615 334.039 138.347 333.799 140.337 333.776Z" fill="#FFCE76"/>
<path d="M138.721 333.776L185.273 333.247C188.764 333.207 190.147 333.778 190.356 335.284L189.67 340.63C189.046 341.024 180.952 339.501 178.763 339.509L131.121 339.704C127.562 339.718 125.047 339.055 126.289 338.429L134.303 334.39C134.998 334.039 136.73 333.799 138.721 333.776Z" fill="#E08B4B"/>
<path d="M152.799 278.794L198.562 274.53C202.054 274.226 205.482 279.211 204.487 284.027L197.562 317.515C196.939 320.53 195.023 322.439 192.834 322.508L145.111 323.999C141.552 324.11 139.125 319.21 140.367 314.418L148.381 283.494C149.077 280.81 150.809 278.967 152.799 278.794Z" fill="#FFCE76"/>
<path d="M150.36 278.688L196.911 274.636C200.403 274.332 203.043 279.104 202.047 283.92L195.123 317.409C194.499 320.424 192.591 322.516 190.401 322.584L142.76 324.072C139.201 324.183 136.686 319.103 137.928 314.312L145.942 283.387C146.637 280.704 148.369 278.861 150.36 278.688Z" fill="#F29D52"/>
<path d="M198.666 285.231L193.918 308.666L192.546 315.417C192.445 315.914 192.31 316.386 192.134 316.823C191.367 318.768 189.953 320.03 188.371 320.081L181.847 320.291L174.641 320.518L166.501 320.779L161.038 320.956L160.339 320.981L157.654 321.065L146.231 321.427C143.083 321.52 140.861 316.949 141.955 312.631L148.226 287.967L149.042 284.751C149.665 282.335 151.197 280.668 152.957 280.517L161.551 279.751L165.954 279.364L194.128 276.864C197.218 276.586 199.55 280.888 198.666 285.231Z" fill="white"/>
<path d="M172.745 296.287C172.249 296.734 172.075 297.348 172.355 297.659C172.635 297.969 173.263 297.859 173.759 297.412C174.254 296.965 174.429 296.351 174.149 296.041C173.869 295.73 173.241 295.841 172.745 296.287Z" fill="#EFC392"/>
<path d="M169.409 290.664C177.347 284.664 177.028 295.124 177.4 298.257C177.772 301.39 180.48 298.257 180.48 298.257C180.48 298.257 179.63 302.241 176.975 300.753C174.32 299.266 175.451 296.014 173.472 294.328C171.493 292.642 169.977 292.894 169.977 292.894L169.409 290.664Z" fill="#312A40"/>
<path d="M163.997 301.916C162.213 299.656 160.98 295.018 162.475 292.974C163.969 290.929 167.421 289.628 169.784 290.876C172.147 292.124 174.723 294.793 173.01 298.702C171.297 302.611 163.997 301.916 163.997 301.916Z" fill="#312A40"/>
<path d="M174.641 320.519L161.038 320.956C160.971 320.636 160.929 320.274 160.912 319.879C160.887 319.273 160.904 318.591 160.904 317.884V310.022C160.904 308.035 162.099 306.36 163.74 305.821C164.094 305.703 164.473 305.644 164.86 305.644H170.702C172.107 305.644 173.345 306.461 174.044 307.681C174.431 308.355 174.658 309.155 174.658 310.022V317.884C174.675 319.079 174.7 319.921 174.641 320.519Z" fill="#EFBD81"/>
<path d="M230.876 187.793C235.281 221.185 266.844 204.472 276.377 212.253C285.91 220.034 279.581 235.141 279.581 235.141" stroke="#D9564A" stroke-width="2" stroke-miterlimit="10" stroke-dasharray="20 20"/>
<path d="M167.788 309.585C166.833 309.585 166.058 308.643 166.058 307.481V300.498C166.058 299.336 166.833 298.394 167.788 298.394C168.743 298.394 169.518 299.336 169.518 300.498V307.481C169.518 308.643 168.743 309.585 167.788 309.585Z" fill="#EFC392"/>
<path d="M184.861 305.139C184.364 306.048 180.702 312.631 179.178 315.375C178.85 315.964 178.067 316.116 177.537 315.687C177.2 315.409 176.796 315.08 176.359 314.727C175.828 314.298 175.248 313.826 174.658 313.346C172.705 311.764 170.66 310.106 170.087 309.643C169.683 309.289 169.448 308.893 169.347 308.498C169.187 307.808 169.422 307.101 169.885 306.595C170.609 305.804 171.872 305.518 172.933 306.536L174.044 307.681L177.47 311.208L177.916 311.663L183.556 303.902C184.473 302.446 185.677 303.624 184.861 305.139Z" fill="#EFC392"/>
<path d="M165.87 307.968C165.861 308.355 165.752 308.742 165.525 309.087L160.903 316.141L160.146 317.303L160.129 317.32L160.339 320.982L157.654 321.066L156.528 317.401C156.43 317.082 156.44 316.732 156.589 316.433C156.925 315.757 157.338 315.167 157.629 314.441L161.88 306.991C162.267 306.31 162.983 305.838 163.74 305.821C163.9 305.821 164.052 305.838 164.212 305.872C164.919 306.032 165.424 306.495 165.676 307.059C165.803 307.345 165.87 307.656 165.87 307.968Z" fill="#EFC392"/>
<path d="M173.109 297.481C173.109 300.891 170.886 303.465 168.158 303.657C163.735 303.967 163.207 300.891 163.207 297.481C163.207 294.069 165.423 291.304 168.158 291.304C170.892 291.304 173.109 294.069 173.109 297.481Z" fill="#EFC392"/>
<path d="M167.434 291.036C167.756 293.95 163.96 298.35 163.327 299.711C162.695 301.071 163.757 303.116 163.757 303.116C163.757 303.116 161.819 301.34 162.243 299.48C162.668 297.62 163.641 292.377 164.849 291.952C166.058 291.527 167.434 291.036 167.434 291.036Z" fill="#312A40"/>
<path d="M167.453 291.367C168.111 296.074 172.84 296.099 172.84 296.099L173.252 295.981L173.049 294.992L171.868 292.854L169.677 291.304L168.005 291.036L167.453 291.367Z" fill="#312A40"/>
<path d="M177.47 311.208L176.88 313.086L176.813 313.288L176.358 314.727C175.828 314.298 175.247 313.826 174.658 313.347V317.884C174.675 319.079 174.7 319.921 174.641 320.519L161.038 320.956L160.912 319.879C160.887 319.273 160.904 318.591 160.904 317.884V316.141L160.146 317.303L157.629 314.441L161.88 306.991C162.267 306.309 162.983 305.838 163.74 305.821C164.094 305.703 164.473 305.644 164.86 305.644H165.676C167.478 307.067 169.532 305.897 169.885 305.687C169.919 305.653 169.936 305.644 169.936 305.644H170.702C172.108 305.644 173.345 306.461 174.044 307.681L177.47 311.208Z" fill="#8F93D9"/>
<path d="M185.616 304.09C185.896 303.167 185.502 302.231 184.737 301.999C183.972 301.768 183.666 302.255 183.386 303.177C183.107 304.1 182.959 305.109 183.725 305.341C184.49 305.573 185.337 305.012 185.616 304.09Z" fill="#EFC392"/>
<path d="M183.556 304.32C183.388 304.32 183.23 304.218 183.166 304.053L182.325 301.88C182.241 301.665 182.348 301.423 182.564 301.339C182.779 301.256 183.021 301.363 183.105 301.579L183.946 303.751C184.029 303.966 183.922 304.208 183.707 304.292C183.657 304.311 183.606 304.32 183.556 304.32Z" fill="#EFC392"/>
<path d="M183.845 303.234C183.827 303.234 183.809 303.233 183.791 303.23C183.562 303.2 183.4 302.991 183.43 302.762L183.792 299.986C183.822 299.758 184.031 299.595 184.261 299.626C184.49 299.656 184.651 299.865 184.621 300.095L184.26 302.87C184.232 303.08 184.052 303.234 183.845 303.234Z" fill="#EFC392"/>
<path d="M184.633 303.049C184.592 303.049 184.549 303.042 184.508 303.029C184.287 302.96 184.165 302.726 184.234 302.505L185.174 299.497C185.243 299.277 185.478 299.155 185.698 299.223C185.919 299.292 186.042 299.526 185.973 299.747L185.032 302.755C184.976 302.934 184.811 303.049 184.633 303.049Z" fill="#EFC392"/>
<path d="M184.753 303.811C184.682 303.811 184.609 303.793 184.543 303.754C184.344 303.638 184.276 303.382 184.392 303.182L186.025 300.377C186.141 300.178 186.397 300.11 186.596 300.226C186.796 300.343 186.864 300.598 186.748 300.798L185.115 303.603C185.037 303.736 184.897 303.811 184.753 303.811Z" fill="#EFC392"/>
<path d="M184.761 304.914C184.666 304.914 184.57 304.882 184.492 304.815C184.315 304.666 184.293 304.402 184.442 304.226L186.389 301.926C186.538 301.75 186.802 301.728 186.978 301.877C187.154 302.026 187.176 302.29 187.027 302.466L185.081 304.766C184.998 304.864 184.88 304.914 184.761 304.914Z" fill="#EFC392"/>
<path d="M182.896 283.8L182.715 292.398L182.333 294.732L184.753 292.398L193.078 290.951L193.914 284.233L182.896 283.8Z" fill="#F3EFEA"/>
<path d="M184.945 286.851L192.624 286.485" stroke="#312A40" stroke-miterlimit="10" stroke-linecap="round"/>
<path d="M185.379 289.023L189.218 288.84" stroke="#312A40" stroke-miterlimit="10" stroke-linecap="round"/>
<path d="M223.212 168.553C223.167 169.271 223.129 169.967 223.1 170.641" stroke="#D9564A" stroke-width="2" stroke-miterlimit="10"/>
<path d="M223.026 174.85C223.448 210.459 253.823 170.619 307.282 158.743C412.642 135.338 395.928 205.438 394.009 241.918" stroke="#D9564A" stroke-width="2" stroke-miterlimit="10" stroke-dasharray="20.13 20.13"/>
<path d="M393.914 244.019C393.888 244.731 393.869 245.427 393.859 246.108" stroke="#D9564A" stroke-width="2" stroke-miterlimit="10"/>
<path d="M268.601 127.413C263.644 135.39 256.442 136.768 250.932 147.969C248.792 152.318 247.583 157.248 247.016 162.261C246.939 162.939 246.876 163.625 246.821 164.303C246.646 166.491 246.583 168.687 246.625 170.833C246.688 175.294 247.149 179.573 247.806 183.314C247.869 183.706 247.939 184.083 248.016 184.461C248.072 184.748 248.065 185.097 248.002 185.475C247.995 185.545 247.981 185.608 247.967 185.678C247.953 185.748 247.939 185.818 247.918 185.887C247.904 185.964 247.876 186.048 247.848 186.132C247.848 186.139 247.848 186.139 247.848 186.139C247.786 186.356 247.709 186.566 247.604 186.782C247.569 186.873 247.52 186.964 247.471 187.055C247.415 187.16 247.359 187.265 247.296 187.37C247.226 187.502 247.142 187.628 247.038 187.754C246.968 187.866 246.884 187.971 246.8 188.069L246.737 188.132C246.667 188.216 246.59 188.299 246.499 188.376C246.478 188.404 246.45 188.425 246.422 188.446C246.359 188.516 246.289 188.572 246.219 188.621C246.142 188.684 246.073 188.74 245.996 188.789C245.856 188.887 245.702 188.978 245.541 189.055C245.45 189.104 245.352 189.146 245.247 189.181C245.121 189.236 244.982 189.278 244.842 189.306C244.702 189.341 244.555 189.369 244.408 189.383C237.032 190.174 222.488 191.642 208.581 190.25C208.434 190.236 208.287 190.208 208.154 190.167C208.043 190.146 207.931 190.111 207.826 190.062C207.721 190.02 207.616 189.971 207.511 189.908C207.497 189.901 207.483 189.894 207.469 189.88C207.378 189.831 207.287 189.768 207.203 189.698C207.126 189.642 207.049 189.579 206.98 189.509C206.91 189.453 206.847 189.383 206.784 189.313C206.714 189.236 206.644 189.153 206.581 189.069C206.511 188.978 206.448 188.887 206.392 188.796C206.322 188.691 206.259 188.579 206.203 188.467C206.154 188.376 206.106 188.285 206.063 188.188C206.015 188.097 205.98 188.006 205.952 187.915C205.917 187.838 205.889 187.761 205.868 187.684C205.833 187.579 205.798 187.481 205.777 187.377C205.756 187.306 205.735 187.244 205.721 187.181C205.721 187.181 205.721 187.181 205.721 187.174C205.693 187.048 205.665 186.929 205.651 186.81C205.63 186.636 205.616 186.475 205.616 186.335V186.23L205.714 184.72C205.917 182.056 206.273 178.588 206.336 174.735C206.504 165.121 204.819 153.157 194.149 145.564C173.215 130.671 168.83 115.973 168.754 102.933C168.711 97.102 169.53 91.6062 170.117 86.5648C172.131 69.1685 191.205 48.6886 215.223 45.3885C215.601 45.3325 215.985 45.2836 216.37 45.2418C217.16 45.1508 217.957 45.081 218.761 45.0249C224.425 44.6544 230.333 45.2627 236.325 47.1016C272.873 58.3097 280.844 107.73 268.601 127.413Z" fill="#F29D52"/>
<path d="M210.804 187.068C208.864 186.856 208.348 186.262 208.393 185.309C208.769 177.29 212.062 154.055 198.445 143.529C172.341 123.351 173.012 104.207 174.64 88.9105C176.86 68.0541 206.277 41.8122 234.784 51.3143C266.278 61.8117 273.142 108.094 262.598 126.525C258.326 133.993 252.116 135.282 247.367 145.778C242.634 156.237 244.659 170.15 244.856 179.954C245.072 190.763 238.999 188.833 236.742 188.349C230.483 187.008 222.792 188.377 210.804 187.068Z" fill="#FFCC7B"/>
<path d="M232.487 182.723L231.967 72.5601C231.967 72.5601 249.742 63.1012 249.574 88.2835C249.57 88.8665 248.726 103.082 223.813 102.868C223.205 102.862 222.596 102.877 221.99 102.929C209.188 104.023 198.035 99.5878 194.665 90.9818C192.427 85.2676 192.67 75.6264 198.26 71.8661C203.157 68.5721 210.711 73.6474 210.711 73.6474L220.59 183.429" stroke="#D9564A" stroke-width="3" stroke-miterlimit="10" stroke-linecap="round"/>
<path opacity="0.76" d="M235.175 180.296L218.691 180.629C216.092 180.629 214.135 178.429 214.135 176.127V168.775C214.135 166.472 216.242 164.605 218.841 164.605H235.174C237.773 164.605 239.88 166.472 239.88 168.775V176.127C239.88 178.429 237.774 180.296 235.175 180.296Z" fill="#F29D52"/>
<path opacity="0.76" d="M243.655 142.179C243.823 138.968 231.591 138.958 217.984 139.73C204.378 140.502 207.554 142.739 209.937 145.209C209.944 145.217 209.951 145.223 209.958 145.231C210.738 146.049 210.882 147.285 210.363 148.29C209.994 149.006 209.785 149.818 209.785 150.679V155.162C209.785 159.533 213.328 163.076 217.699 163.076H233.712C238.083 163.076 241.626 159.533 241.626 155.162V150.679C241.626 149.801 241.409 148.975 241.027 148.249C240.372 147.007 240.736 145.474 241.931 144.737C242.783 144.212 243.582 143.576 243.655 142.179Z" fill="#F29D52"/>
<path opacity="0.76" d="M206.131 137.959C206.131 137.959 239.995 139.004 243.595 136.809C247.195 134.614 268.683 118.621 263.508 112.976C258.333 107.331 181.493 109.109 182.73 115.798C183.968 122.488 197.356 137.331 206.131 137.959Z" fill="#F29D52"/>
<path d="M248.002 185.475C247.995 185.545 247.981 185.607 247.967 185.677C247.953 185.747 247.939 185.817 247.918 185.887C247.904 185.964 247.876 186.048 247.848 186.132C247.848 186.139 247.848 186.139 247.848 186.139C247.785 186.356 247.708 186.565 247.604 186.782C247.569 186.873 247.52 186.964 247.471 187.055C247.415 187.16 247.359 187.264 247.296 187.369C247.226 187.502 247.142 187.628 247.037 187.754C246.968 187.866 246.884 187.971 246.8 188.069L246.737 188.132C246.667 188.215 246.59 188.299 246.499 188.376C246.478 188.404 246.45 188.425 246.422 188.446C246.359 188.516 246.289 188.572 246.219 188.621C246.149 188.684 246.073 188.74 245.996 188.789C245.856 188.887 245.702 188.978 245.541 189.054C245.45 189.103 245.352 189.145 245.247 189.18C245.121 189.236 244.981 189.278 244.842 189.306C244.702 189.341 244.555 189.369 244.408 189.383C237.032 190.173 222.488 191.642 208.581 190.25C208.434 190.236 208.287 190.208 208.154 190.166C208.042 190.145 207.931 190.11 207.826 190.061C207.721 190.019 207.616 189.97 207.511 189.908C207.497 189.901 207.483 189.894 207.469 189.88C207.378 189.831 207.287 189.768 207.203 189.698C207.126 189.642 207.049 189.579 206.979 189.509C206.91 189.453 206.847 189.383 206.784 189.313C206.714 189.236 206.644 189.152 206.581 189.068C206.511 188.978 206.448 188.887 206.392 188.796C206.322 188.691 206.259 188.579 206.203 188.467C206.154 188.376 206.105 188.285 206.063 188.187C206.014 188.096 205.98 188.005 205.952 187.915C205.917 187.838 205.889 187.761 205.868 187.684C205.833 187.579 205.798 187.481 205.777 187.376C205.756 187.306 205.735 187.244 205.721 187.173C205.693 187.048 205.665 186.929 205.651 186.81C205.63 186.635 205.616 186.474 205.616 186.334V186.229L205.714 184.719C205.783 184.698 205.853 184.684 205.923 184.663C206.734 184.439 207.58 184.244 208.461 184.055C212.076 183.3 216.223 182.824 220.509 182.573C224.487 182.328 228.585 182.272 232.486 182.342C236.975 182.426 241.212 182.67 244.722 182.992C245.673 183.076 246.568 183.167 247.4 183.265C247.54 183.279 247.673 183.3 247.806 183.314C247.869 183.705 247.939 184.083 248.016 184.46C248.072 184.748 248.065 185.097 248.002 185.475Z" fill="#F29D52"/>
<path d="M247.897 198.997C246.744 200.151 216.769 200.822 211.294 201.396C206.693 201.885 205.756 198.774 205.63 195.033C205.588 193.823 206.525 192.795 207.735 192.725C212.203 192.481 222.985 191.886 232.214 191.453H232.249C236.193 191.271 239.85 191.124 242.604 191.04C242.611 191.04 242.611 191.04 242.618 191.04C245.087 190.963 246.828 190.949 247.422 191.019C250.694 191.404 249.051 197.844 247.897 198.997Z" fill="#F29D52"/>
<path d="M244.779 210.941C244.403 211.305 244.027 211.669 243.651 212.02L243.645 212.026C240.026 215.427 236.292 218.191 228.065 218.434C220.743 218.652 215.275 216.579 211.462 213.324C210.504 212.511 209.649 211.62 208.897 210.669C207.212 208.535 205.418 203.406 208.133 203.315L241.832 201.588C252.271 200.29 247.422 208.383 244.779 210.941Z" fill="#F29D52"/>
<path d="M243.657 212.008L243.651 212.02L243.645 212.026C240.026 215.427 236.292 218.192 228.066 218.434C220.743 218.652 215.275 216.579 211.462 213.324C222.519 215.464 243.657 212.008 243.657 212.008Z" fill="#DD8543"/>
<path d="M202.566 258.339L221.317 283.396L238.871 268.671L218.979 242.422L202.566 258.339Z" fill="white"/>
<path d="M226.444 260.678V260.909C226.444 261.011 226.444 261.094 226.435 261.196C226.425 261.344 226.416 261.493 226.398 261.631C226.148 264.029 224.611 266.084 222.417 267.223C222.333 267.26 222.259 267.297 222.176 267.334C222.111 267.362 222.046 267.399 221.982 267.427C220.917 267.918 219.723 268.177 218.454 268.177C214.038 268.177 210.465 264.927 210.465 260.909C210.465 260.196 210.585 259.493 210.798 258.835C211.372 257.086 212.631 255.623 214.297 254.697C214.548 254.549 214.816 254.429 215.094 254.318L215.27 254.244C216.251 253.855 217.316 253.642 218.454 253.642C222.778 253.642 226.305 256.771 226.444 260.678Z" fill="#F3EFEA"/>
<path d="M218.114 261.275L210.797 258.834C211.369 257.09 212.63 255.621 214.3 254.693L218.114 261.275Z" fill="#312A40"/>
<path d="M226.439 260.682L219.004 261.275L215.094 254.315L215.272 254.241C216.251 253.855 217.32 253.64 218.455 253.64C222.781 253.64 226.306 256.771 226.439 260.682Z" fill="#F29D52"/>
<path d="M226.398 261.632C226.148 264.029 224.611 266.085 222.417 267.223C222.333 267.26 222.259 267.297 222.176 267.334C222.111 267.362 222.046 267.399 221.982 267.427C220.991 265.696 220 263.965 219 262.233L226.398 261.632Z" fill="#D9564A"/>
<path d="M220.222 273.943L230.877 265.386" stroke="#312A40" stroke-width="2" stroke-miterlimit="10" stroke-linecap="round"/>
<path d="M221.859 275.735L232.514 267.178" stroke="#312A40" stroke-width="2" stroke-miterlimit="10" stroke-linecap="round"/>
<path d="M133.998 297.388C133.674 297.74 132.962 298.499 131.98 299.564C126.583 305.387 113.063 315.948 109.647 319.624C109.314 319.976 109.396 319.494 109.276 319.624L105.38 320.352L102.661 318.792L87.2927 304.498L81.0622 298.703C78.0164 295.87 77.8405 291.102 80.6733 288.056C81.4047 287.26 82.2749 286.668 83.21 286.27C86.154 285.001 89.7924 285.714 91.968 288.334L109.428 309.127L127.888 295.37L130.462 293.454C133.063 291.565 136.155 295.018 133.998 297.388Z" fill="#EFC392"/>
<path d="M199.806 317.283H198.037V318.593H199.806V317.283Z" fill="#312A40"/>
<path d="M204.082 338.766H196.724L195.424 320.806H205.628L204.082 338.766Z" fill="#D9564A"/>
<path d="M204.945 331.486L195.977 331.57L195.591 327.099H205.428L204.945 331.486Z" fill="#4F456B"/>
<path d="M205.676 320.806H195.375C195.092 320.806 194.863 320.576 194.863 320.293C194.863 320.01 195.092 319.78 195.375 319.78H205.676C205.959 319.78 206.189 320.01 206.189 320.293C206.189 320.576 205.959 320.806 205.676 320.806Z" fill="#312A40"/>
<path d="M205.428 320.077H195.346L196.171 317.835H204.752L205.428 320.077Z" fill="#312A40"/>
<path d="M241.229 317.276H239.46V318.585H241.229V317.276Z" fill="#312A40"/>
<path d="M245.505 338.759H238.147L236.847 320.799H247.051L245.505 338.759Z" fill="#D9564A"/>
<path d="M246.368 331.479L237.401 331.563L237.014 327.092H246.851L246.368 331.479Z" fill="#4F456B"/>
<path d="M247.099 320.799H236.799C236.516 320.799 236.286 320.569 236.286 320.286C236.286 320.003 236.516 319.773 236.799 319.773H247.099C247.382 319.773 247.612 320.003 247.612 320.286C247.612 320.569 247.382 320.799 247.099 320.799Z" fill="#312A40"/>
<path d="M246.852 320.07H236.769L237.594 317.828H246.175L246.852 320.07Z" fill="#312A40"/>
<path d="M270.37 333.655L259.354 376.628L259.448 375.353L260.625 418.223C260.67 419.847 259.39 421.2 257.766 421.244C256.222 421.286 254.923 420.12 254.76 418.611L250.28 375.96L250.231 375.493L250.374 374.685L258.108 331.002C258.713 327.588 261.97 325.311 265.384 325.916C268.965 326.533 271.285 330.14 270.37 333.655Z" fill="#EFC392"/>
<path d="M294.924 333.754L289.73 374.196L289.751 373.744L288.214 418.142C288.151 419.979 286.61 421.416 284.773 421.353C283.017 421.292 281.626 419.87 281.562 418.142C281.557 418.116 280.028 373.716 280.024 373.686L280.047 373.292L282.433 332.588C282.636 329.127 285.605 326.486 289.066 326.689C292.68 326.886 295.397 330.168 294.924 333.754Z" fill="#EFC392"/>
<path d="M305.727 296.185C305.766 296.355 305.804 296.525 305.839 296.696C306.965 302.097 300.527 305.86 297.272 310.314L288.679 321.868L297.154 331.586L296.627 333.123C296.617 333.132 296.608 333.151 296.608 333.16L296.099 334.651C295.599 336.03 294.442 336.613 293.312 336.567C291.757 336.493 290.239 335.224 290.563 333.216L292.747 320.718L296.08 301.628L284.008 270.54C282.471 266.569 284.443 262.106 288.406 260.57C288.461 260.551 288.517 260.523 288.572 260.514C292.803 258.94 297.589 261.467 298.663 265.874C301.018 275.978 303.372 286.082 305.727 296.185Z" fill="#797FB7"/>
<path d="M291.791 276.193L294.698 310.768C294.698 314.453 293.161 317.767 290.708 320.128C291.782 320.961 292.624 322.072 293.124 323.359C293.458 324.201 293.634 325.118 293.634 326.08V332.681C293.634 333.255 293.569 333.82 293.439 334.366C293.319 334.903 293.143 335.412 292.911 335.903C292.902 335.912 292.893 335.931 292.893 335.94C292.189 337.393 291.032 338.597 289.597 339.347C288.551 339.893 287.366 340.198 286.107 340.198H266.647C262.49 340.198 259.12 336.829 259.12 332.672V326.08C259.12 324.812 259.435 323.627 259.991 322.581C260.009 322.547 260.027 322.512 260.045 322.478C260.908 320.894 267.544 318.496 266.61 316.953C265.428 314.998 267.755 306.841 267.755 304.384L258.056 275.912C258.056 269.765 262.323 264.618 268.054 263.257C269.017 263.025 270.026 262.905 271.063 262.905H281.691C282.783 262.905 283.848 263.044 284.857 263.294C286.459 263.701 287.949 264.396 289.255 265.34C292.55 267.691 291.791 271.833 291.791 276.193Z" fill="#EFBD81"/>
<path d="M270.424 263.97C269.656 263.599 268.85 263.359 268.054 263.257C264.971 262.868 261.842 264.442 260.407 267.386C255.76 276.801 250.992 286.79 246.456 296.381C242.966 293.743 239.235 290.928 235.513 288.151C231.643 285.253 226.388 282.638 222.879 280.092C219.916 277.982 217.713 280.748 220.222 283.396C223.129 286.377 226.487 290.586 229.736 293.854C234.171 298.307 238.707 302.815 242.743 306.796C246.123 309.972 251.983 309.185 254.464 305.241C255.575 303.473 256.788 301.538 258.056 299.52C263.166 291.373 269.239 281.698 273.516 274.579C275.803 270.857 274.359 265.877 270.424 263.97Z" fill="#EFC392"/>
<path d="M296.522 324.905C296.151 324.917 296.531 323.244 296.161 323.257L293.124 323.359L289.032 323.497L263.323 324.377L265.076 325.359C265.058 325.393 265.094 325.324 265.076 325.359C265.09 325.333 266.333 324.892 265.486 323.354C263.265 319.324 263.194 306.909 263.504 303.745C263.761 301.125 265.277 297.351 262.468 292.48C261.2 294.498 255.575 303.473 254.464 305.241C251.983 309.185 246.123 309.972 242.743 306.797C238.707 302.816 234.171 298.307 229.736 293.854L235.513 288.151C239.235 290.929 242.966 293.743 246.456 296.382C250.992 286.791 255.76 276.801 260.408 267.386C261.843 264.442 264.972 262.868 268.055 263.257C269.017 263.026 270.026 262.905 271.063 262.905H281.691C282.784 262.905 283.848 263.044 284.857 263.294C285.505 263.063 286.163 262.915 286.811 262.85C287.283 262.813 287.746 262.813 288.209 262.869C288.357 262.878 288.514 262.896 288.672 262.924C288.922 262.961 289.162 263.008 289.394 263.082C289.514 263.1 289.635 263.137 289.746 263.174C289.838 263.202 289.931 263.239 290.023 263.267C290.357 263.387 290.671 263.526 290.977 263.684C291.134 263.758 291.282 263.841 291.43 263.934C291.644 264.063 291.847 264.193 292.041 264.341C292.245 264.489 292.44 264.637 292.625 264.804C292.634 264.813 292.643 264.822 292.652 264.822C292.828 264.989 292.995 265.156 293.152 265.322C293.296 265.473 293.425 265.631 293.553 265.79C293.774 266.066 294.093 266.544 294.258 266.857C294.349 267.031 294.44 267.214 294.523 267.396C294.606 267.591 294.68 267.785 294.754 267.979C294.763 268.007 294.773 268.035 294.782 268.062C294.847 268.257 294.902 268.451 294.948 268.655C295.116 272.583 292.922 269.223 295.355 279.678C297.944 290.801 295.807 294.291 296.106 301.328C296.414 308.55 296.214 317.681 296.522 324.905Z" fill="#8F93D9"/>
<path d="M220.222 283.485C220.079 283.485 219.934 283.455 219.796 283.393L214.753 281.142C213.83 280.73 213.233 279.81 213.233 278.799V270.297C213.233 269.719 213.701 269.251 214.278 269.251C214.856 269.251 215.324 269.719 215.324 270.297V278.799C215.324 278.986 215.434 279.156 215.605 279.233L220.649 281.484C221.176 281.72 221.412 282.338 221.177 282.865C221.003 283.254 220.622 283.485 220.222 283.485Z" fill="#EFC392"/>
<path d="M221.35 282.295C221.182 282.295 221.011 282.255 220.853 282.169L215.067 279.035L215.13 274.592C215.138 274.02 215.605 273.562 216.175 273.562C216.18 273.562 216.185 273.562 216.191 273.562C216.768 273.57 217.229 274.045 217.221 274.622L217.176 277.799L221.849 280.33C222.357 280.605 222.545 281.24 222.27 281.748C222.081 282.097 221.721 282.295 221.35 282.295Z" fill="#EFC392"/>
<path d="M299.841 369.909C296.656 374.474 250.869 369.895 250.869 369.895C250.869 369.895 257.853 323.721 262.194 314.619C262.259 314.481 262.321 314.354 262.386 314.234C262.62 313.797 262.844 313.476 263.059 313.283C263.214 313.145 263.363 313.074 263.505 313.072C267.436 313.036 290.528 312.733 296.313 312.961C296.441 312.965 296.564 313.041 296.681 313.168C296.917 313.427 297.131 313.908 297.29 314.498C297.327 314.63 297.361 314.768 297.392 314.91C297.532 315.556 297.614 316.286 297.607 316.978L299.841 369.909Z" fill="#F29D52"/>
<path d="M297.392 314.91C295.63 315.039 286.356 315.69 277.263 315.69C271.526 315.69 265.863 315.432 262.194 314.619C262.259 314.481 262.321 314.354 262.386 314.234C271.793 316.271 294.153 314.728 297.29 314.498C297.327 314.63 297.361 314.768 297.392 314.91Z" fill="#F5F4F0"/>
<path d="M262.191 243.526C262.268 234.12 261.602 225.692 272.026 228.258C278.661 229.892 282.49 229.738 285.4 237.75C288.311 245.762 285.463 254.148 279.041 256.481C273.094 258.642 263.432 255.288 262.259 248.017C261.804 247.669 261.333 247.183 260.972 246.507C260.413 245.462 261.277 244.542 262.191 243.526Z" fill="#EFC392"/>
<path d="M262.975 229.245C274.551 220.749 284.733 220.823 289.997 227.14C295.261 233.457 294.734 237.155 293.506 244.956C292.278 252.758 297.717 249.062 298.244 254.244C298.77 259.425 293.155 262.408 295.436 266.093C297.717 269.778 305.707 270.999 301.444 279.293C298.807 284.424 288.94 287.721 285.01 286.668C281.079 285.615 267.537 288.904 266.133 282.587C264.73 276.27 269.994 275.568 269.818 270.129C269.643 264.689 261.396 264.689 269.292 255.565C269.292 255.565 262.799 245.213 268.59 238.019C268.59 238.019 260.382 231.149 262.975 229.245Z" fill="#312A40"/>
<path d="M296.681 313.168L263.059 313.283C263.214 313.145 263.363 313.074 263.505 313.072C267.436 313.036 290.528 312.733 296.313 312.961C296.441 312.965 296.564 313.041 296.681 313.168Z" fill="#F5F4F0"/>
<path d="M255.467 417.389C255.042 420.502 244.145 417.672 243.154 420.361C242.164 423.05 249.381 425.314 255.467 424.323C261.552 423.333 260.419 418.142 260.419 418.142L255.467 417.389Z" fill="#EFBD81"/>
<path d="M247.32 418.999C249.82 418.812 253.901 418.135 254.803 418.548C259.015 420.474 260.641 418.574 260.641 418.574L260.419 424.996C260.419 424.996 241.934 427.119 241.509 424.996C241.084 422.873 239.547 419.579 247.32 418.999Z" fill="#8F93D9"/>
<path d="M260.422 424.899L260.373 425.762C260.366 425.989 260.281 426.097 260.281 426.097L241.76 426.723L241.546 425.099L260.422 424.899Z" fill="#312A40"/>
<path d="M247.993 418.938L248.349 421.932" stroke="#F5F4F0" stroke-width="2" stroke-miterlimit="10"/>
<path d="M250.984 418.639L251.339 421.633" stroke="#F5F4F0" stroke-width="2" stroke-miterlimit="10"/>
<path d="M283.34 417.358C282.916 420.471 272.019 417.641 271.028 420.33C270.037 423.019 277.255 425.283 283.34 424.293C289.426 423.302 288.293 418.111 288.293 418.111L283.34 417.358Z" fill="#EFBD81"/>
<path d="M275.056 418.184C277.555 417.998 281.637 417.321 282.539 417.733C286.751 419.66 288.376 417.76 288.376 417.76L288.154 424.181C288.154 424.181 269.669 426.304 269.245 424.181C268.82 422.059 267.283 418.764 275.056 418.184Z" fill="#8F93D9"/>
<path d="M288.158 424.085L288.108 424.947C288.102 425.174 288.017 425.282 288.017 425.282L269.496 425.908L269.281 424.285L288.158 424.085Z" fill="#312A40"/>
<path d="M275.616 418.138L275.844 421.144" stroke="#F5F4F0" stroke-width="2" stroke-miterlimit="10"/>
<path d="M278.438 417.798L278.774 420.794" stroke="#F5F4F0" stroke-width="2" stroke-miterlimit="10"/>
<path d="M398.198 286.421L388.967 286.485L388.921 278.912V277.607L388.893 272.515V272.488L388.856 264.887L398.086 264.822L398.114 270.923L398.123 271.136L398.16 278.986L398.198 286.421Z" fill="#EFC392"/>
<path d="M345.298 336.191C345.289 338.237 343.632 339.885 341.595 339.885C341.586 339.885 341.586 339.885 341.576 339.885L298.842 339.7L297.13 332.321L289.436 299.216C288.983 297.272 290.149 295.337 292.047 294.8C292.093 294.79 292.149 294.772 292.204 294.763C294.019 294.346 295.824 295.337 296.482 297.022L296.491 297.031C296.556 297.198 296.611 297.364 296.648 297.54L304.73 332.321L305.934 332.331L310.711 332.349C311.609 332.358 312.433 332.358 313.155 332.358C315.025 332.368 316.192 332.368 316.192 332.368H316.303L341.604 332.479C342.373 332.479 343.095 332.719 343.687 333.136C344.668 333.794 345.307 334.923 345.298 336.191Z" fill="#E08B4B"/>
<path d="M345.298 336.192C345.289 338.238 343.632 339.885 341.595 339.885C341.586 339.885 341.586 339.885 341.576 339.885L298.842 339.7L297.13 332.322C302.842 332.331 309.415 332.349 313.155 332.359C315.025 332.368 316.192 332.368 316.192 332.368H316.303L343.687 333.136C344.669 333.794 345.307 334.923 345.298 336.192Z" fill="#E08B4B"/>
<path d="M304.73 332.322H302.11L293.334 297.827L296.482 297.022L296.491 297.031C296.556 297.198 296.611 297.364 296.648 297.54L304.73 332.322Z" fill="white"/>
<path d="M211.976 435.612C209.76 435.612 207.963 433.654 207.963 431.24V344.039C207.963 341.624 209.76 339.666 211.976 339.666C214.193 339.666 215.989 341.624 215.989 344.039V431.24C215.989 433.654 214.193 435.612 211.976 435.612Z" fill="#312A40"/>
<path d="M303.645 346.866H122.375C120.863 346.866 119.638 345.64 119.638 344.128V343.949C119.638 342.437 120.863 341.211 122.375 341.211H303.645C305.157 341.211 306.383 342.437 306.383 343.949V344.128C306.383 345.64 305.157 346.866 303.645 346.866Z" fill="#312A40"/>
<path d="M245.796 436.47H178.156C177.189 436.47 176.404 435.685 176.404 434.717V433.447C176.404 432.479 177.189 431.694 178.156 431.694H245.796C246.764 431.694 247.549 432.479 247.549 433.447V434.717C247.549 435.685 246.764 436.47 245.796 436.47Z" fill="#312A40"/>
<path d="M350.618 343.033H88.6656C86.7892 343.033 85.2683 341.512 85.2683 339.636V339.413C85.2683 337.536 86.7895 336.015 88.6656 336.015H350.618C352.494 336.015 354.016 337.536 354.016 339.413V339.636C354.016 341.512 352.494 343.033 350.618 343.033Z" fill="#4F456B"/>
<mask id="mask0_20_6180" style="mask-type:luminance" maskUnits="userSpaceOnUse" x="85" y="336" width="270" height="8">
<path d="M350.618 343.033H88.6656C86.7892 343.033 85.2683 341.512 85.2683 339.636V339.413C85.2683 337.536 86.7895 336.015 88.6656 336.015H350.618C352.494 336.015 354.016 337.536 354.016 339.413V339.636C354.016 341.512 352.494 343.033 350.618 343.033Z" fill="white"/>
</mask>
<g mask="url(#mask0_20_6180)">
<path d="M78.6582 338.547C160.857 338.283 360.664 338.215 360.664 338.215" stroke="#413A56" stroke-width="2" stroke-miterlimit="10" stroke-linecap="round"/>
</g>
<mask id="mask1_20_6180" style="mask-type:luminance" maskUnits="userSpaceOnUse" x="85" y="336" width="270" height="8">
<path d="M350.618 343.033H88.6656C86.7892 343.033 85.2683 341.512 85.2683 339.636V339.413C85.2683 337.536 86.7895 336.015 88.6656 336.015H350.618C352.494 336.015 354.016 337.536 354.016 339.413V339.636C354.016 341.512 352.494 343.033 350.618 343.033Z" fill="white"/>
</mask>
<g mask="url(#mask1_20_6180)">
<path d="M83.5845 340.695C141.672 341.015 356.677 340.896 356.677 340.896" stroke="#413A56" stroke-width="2" stroke-miterlimit="10" stroke-linecap="round"/>
</g>
<path d="M82.3237 278.16L82.0004 279.169H81.9929L81.0449 282.113L80.1483 284.872L80.0601 285.131L75.8339 298.148L67.6687 293.944L71.4978 282.141L71.5271 282.057L73.8938 274.781L74.1583 273.957L76.5101 275.169L76.5323 275.179L82.3237 278.16Z" fill="#EFC392"/>
<path d="M55.6432 347.55L94.1991 364.308L97.6817 365.822L97.9224 369.28L101.835 425.477C101.956 427.217 100.644 428.725 98.9043 428.846C97.2824 428.959 95.8616 427.826 95.5785 426.262L85.4748 370.843L89.1981 375.814L50.6421 359.056C43.1598 355.457 47.8593 344.535 55.6432 347.55Z" fill="#EFC392"/>
<path d="M52.0054 360.43L83.8474 375.715L93.0464 424.205L102.953 422.275C102.953 422.275 99.6666 368.738 98.7073 366.799C97.4956 364.35 58.7985 348.28 58.7985 348.28L52.0054 360.43Z" fill="#E28D4D"/>
<path d="M88.3943 300.221L87.2926 304.499L81.6547 326.273L79.655 333.975C79.2012 335.716 78.4144 337.29 77.3684 338.632C77.0813 339.012 76.7666 339.363 76.4425 339.706C75.3778 340.817 74.8225 342.27 74.8225 343.807C74.8225 343.807 74.8225 343.816 74.8225 343.826V350.426C74.8225 354.583 71.4525 357.953 67.2958 357.953H47.8357C43.679 357.953 40.3091 354.583 40.3091 350.426V343.826C40.3091 341.733 40.3831 339.326 41.0589 337.503C41.9199 335.17 42.5679 332.781 42.8086 330.318C42.9568 328.717 43.6232 326.976 44.1879 324.791L52.9273 291.038C54.7326 284.085 61.8241 279.91 68.7766 281.715L70.4152 282.141L70.6005 282.187L79.0714 284.381C79.7288 284.548 80.3675 284.77 80.9693 285.029H80.9785C81.0619 285.066 81.1265 285.094 81.2008 285.131C81.9136 285.455 82.5896 285.835 83.2097 286.27C87.5703 289.279 89.8015 294.796 88.3943 300.221Z" fill="#EFC392"/>
<path d="M62.8029 345.772C64.2174 345.987 105.823 352.326 105.794 352.321L106.933 355.613L128.666 418.421C129.209 419.991 128.377 421.704 126.807 422.247C125.336 422.756 123.734 422.044 123.092 420.663L95.2931 360.293L100.168 364.154L60.9138 358.175C52.7582 356.605 54.5028 344.856 62.8029 345.772Z" fill="#EFC392"/>
<path d="M417.158 367.57L391.691 368.27C390.136 368.312 388.841 367.086 388.798 365.531C388.755 363.976 389.981 362.681 391.536 362.638L417.003 361.939C418.558 361.896 419.853 363.122 419.896 364.677C419.939 366.232 418.713 367.527 417.158 367.57Z" fill="#312A40"/>
<path d="M432.367 437.065C430.75 437.065 429.378 435.823 429.244 434.183L423.651 365.358C423.511 363.632 424.797 362.119 426.523 361.978C428.249 361.838 429.763 363.124 429.903 364.85L435.497 433.675C435.637 435.401 434.351 436.914 432.625 437.055C432.538 437.062 432.452 437.065 432.367 437.065Z" fill="#312A40"/>
<path d="M409.36 360.132C408.299 360.132 407.267 359.577 406.706 358.588C405.874 357.124 406.387 355.262 407.851 354.431C414.036 350.916 417.672 346.378 418.657 340.941C420.796 329.138 410.289 316.387 410.183 316.259C409.104 314.968 409.275 313.045 410.566 311.965C411.854 310.885 413.775 311.053 414.857 312.342C415.367 312.949 427.296 327.372 424.664 342C423.348 349.313 418.705 355.279 410.863 359.733C410.388 360.003 409.87 360.132 409.36 360.132Z" fill="#312A40"/>
<path d="M419.711 321.947H389.871C385.057 321.947 381.155 318.045 381.155 313.231V295.8C381.155 290.986 385.057 287.084 389.871 287.084H419.711C424.525 287.084 428.427 290.986 428.427 295.8V313.231C428.427 318.045 424.525 321.947 419.711 321.947Z" fill="#312A40"/>
<path d="M414.689 321.947H384.848C380.035 321.947 376.133 318.045 376.133 313.231V295.8C376.133 290.986 380.035 287.084 384.848 287.084H414.689C419.502 287.084 423.404 290.986 423.404 295.8V313.231C423.404 318.045 419.502 321.947 414.689 321.947Z" fill="#4F456B"/>
<path d="M372.591 438.988C372.495 438.988 372.398 438.984 372.3 438.975C370.575 438.816 369.306 437.289 369.464 435.564L376.257 361.802C376.417 360.078 377.941 358.81 379.668 358.967C381.393 359.126 382.663 360.653 382.504 362.378L375.711 436.14C375.561 437.766 374.194 438.988 372.591 438.988Z" fill="#312A40"/>
<path d="M368.752 443.222C368.662 443.222 368.572 443.218 368.481 443.21C366.755 443.062 365.476 441.544 365.623 439.817L372.472 359.782C372.62 358.056 374.137 356.779 375.864 356.925C377.59 357.072 378.87 358.591 378.722 360.317L371.873 440.353C371.733 441.987 370.363 443.222 368.752 443.222Z" fill="#4F456B"/>
<path d="M428.845 365.104H379.85C376.858 365.104 374.433 362.679 374.433 359.688C374.433 356.696 376.858 354.271 379.85 354.271H428.845C431.836 354.271 434.261 356.696 434.261 359.688C434.261 362.679 431.836 365.104 428.845 365.104Z" fill="#312A40"/>
<path d="M426.777 365.104H377.782C374.791 365.104 372.366 362.679 372.366 359.688C372.366 356.696 374.791 354.271 377.782 354.271H426.777C429.769 354.271 432.194 356.696 432.194 359.688C432.194 362.679 429.769 365.104 426.777 365.104Z" fill="#4F456B"/>
<path d="M435.244 442.918C433.661 442.918 432.301 441.724 432.129 440.114L423.422 358.492C423.238 356.77 424.486 355.225 426.208 355.041C427.927 354.859 429.476 356.105 429.659 357.827L438.366 439.449C438.55 441.171 437.303 442.717 435.58 442.9C435.467 442.912 435.355 442.918 435.244 442.918Z" fill="#4F456B"/>
<path d="M411.848 296.529V326.071C411.848 326.756 411.792 327.432 411.691 328.089C411.394 329.978 410.691 331.737 409.672 333.264C408.543 334.94 408.488 337.088 409.58 338.782C410.339 339.958 410.783 341.356 410.783 342.856V344.142C410.783 344.355 410.774 344.559 410.765 344.762C410.441 351.567 404.821 356.983 397.943 356.983H389.111C382.269 356.983 376.668 351.623 376.298 344.874C376.279 344.633 376.27 344.392 376.27 344.142V342.855C376.27 341.772 376.501 340.745 376.918 339.819C377.075 339.458 377.26 339.106 377.473 338.782C378.566 337.088 378.501 334.94 377.381 333.264C377.297 333.134 377.214 333.005 377.14 332.875V332.866C375.918 330.885 375.205 328.561 375.205 326.071V296.529C375.205 291.465 377.26 286.892 380.575 283.577C382.232 281.92 384.204 280.578 386.398 279.652C387.111 279.347 387.851 279.087 388.611 278.875C390.175 278.439 391.823 278.208 393.526 278.208C395.6 278.208 397.591 278.55 399.451 279.199C399.988 279.375 400.516 279.587 401.034 279.819C407.414 282.68 411.848 289.086 411.848 296.529Z" fill="#EFC392"/>
<path d="M93.6029 265.659C93.5276 256.415 94.1825 248.132 83.9377 250.654C77.4163 252.259 73.6544 252.108 70.7938 259.981C67.9332 267.855 70.7315 276.097 77.0437 278.391C82.888 280.514 92.3839 277.218 93.536 270.072C93.9834 269.73 94.4459 269.253 94.8016 268.588C95.3509 267.561 94.502 266.656 93.6029 265.659Z" fill="#EFC392"/>
<path d="M73.2938 276.625C72.287 273.751 57.823 258.625 70.9085 247.552C83.994 236.48 87.3297 247.848 89.6389 247.552C91.9481 247.257 101.442 254.553 96.3105 256.862C91.179 259.171 79.914 253.815 79.914 257.839C79.914 261.863 79.6324 263.678 78.3494 267.013C77.0664 270.349 73.2938 276.625 73.2938 276.625Z" fill="#312A40"/>
<path d="M77.9595 268.588C79.388 268.588 80.5461 267.327 80.5461 265.771C80.5461 264.216 79.388 262.955 77.9595 262.955C76.5309 262.955 75.3728 264.216 75.3728 265.771C75.3728 267.327 76.5309 268.588 77.9595 268.588Z" fill="#EFC392"/>
<path d="M406.655 259.034C406.655 267.858 400.903 274.516 393.846 275.012C382.404 275.815 381.037 267.858 381.037 259.034C381.037 250.21 386.772 243.056 393.846 243.056C400.92 243.056 406.655 250.21 406.655 259.034Z" fill="#EFC392"/>
<path d="M38.5512 343.307C35.7833 351.232 31.6073 363.7 46.6085 362.129C58.8611 360.846 98.7069 366.095 98.7069 366.095L120.765 417.793L129.555 414.543C129.555 414.543 113.676 356.252 109.727 351.373C106.691 347.623 71.799 345.992 71.799 345.992L38.5512 343.307Z" fill="#F29D52"/>
<mask id="mask2_20_6180" style="mask-type:luminance" maskUnits="userSpaceOnUse" x="35" y="343" width="95" height="75">
<path d="M38.5512 343.307C35.7833 351.232 31.6073 363.7 46.6085 362.129C58.8611 360.846 98.7069 366.095 98.7069 366.095L120.765 417.793L129.555 414.543C129.555 414.543 113.676 356.252 109.727 351.373C106.691 347.623 71.799 345.992 71.799 345.992L38.5512 343.307Z" fill="white"/>
</mask>
<g mask="url(#mask2_20_6180)">
<path d="M124.687 419.816L100.363 364.656C100.2 364.286 99.8663 364.021 99.4709 363.947C95.7382 363.25 75.0855 359.961 34.9649 363.693L34.926 363.277C75.1022 359.541 95.8054 362.837 99.5477 363.536C100.079 363.635 100.527 363.991 100.746 364.487L125.07 419.647L124.687 419.816Z" fill="#F5F4F0"/>
</g>
<path d="M131.977 299.564C128.006 303.85 119.553 312.951 114.008 318.922C111.434 321.69 107.203 322.097 104.148 319.876L102.658 318.793L87.2899 304.498L81.6517 326.273L78.6986 337.234C78.4023 338.308 78.0412 339.363 77.606 340.4L75.3564 345.779C74.477 348.325 72.6625 347.362 69.9776 347.575C54.1745 348.843 45.9721 348.269 41.9634 346.908C39.8712 346.196 38.9267 345.279 38.6307 344.298C38.0567 342.344 40.0841 340.178 42.806 330.318C43.454 327.967 43.9077 326.032 44.1854 324.791L52.9247 291.037C54.73 284.085 61.8216 279.91 68.774 281.715L69.237 281.835L70.4127 282.141C70.4744 282.156 70.5361 282.172 70.5977 282.187C70.5977 282.187 73.1528 289.019 80.9666 285.029C81.0437 285.063 81.1209 285.097 81.198 285.131L81.2166 285.14C82.4942 285.723 83.9106 285.872 85.3085 285.714C87.7342 285.427 90.2893 286.316 91.965 288.334L109.425 309.127L127.885 295.37L131.977 299.564Z" fill="#8F93D9"/>
<path d="M69.2372 281.835C60.5813 291.769 43.8153 341.391 41.9636 346.909C39.8714 346.196 38.927 345.279 38.6309 344.298C38.057 342.344 40.0843 340.178 42.8062 330.318C43.4542 327.967 43.9079 326.032 44.1856 324.791L52.925 291.038C54.7303 284.085 61.8218 279.91 68.7743 281.715L69.2372 281.835Z" fill="#797FB7"/>
<path d="M152.047 424.798C152.018 425.108 151.969 425.298 151.969 425.298L127.901 434.252L122.618 419.752L128.293 417.487C128.293 417.487 137.75 422.234 141.028 421.511C151.624 419.154 152.172 423.312 152.047 424.798Z" fill="#8F93D9"/>
<path d="M151.942 423.611L152.047 424.798C152.018 425.108 151.969 425.298 151.969 425.298L127.901 434.252L127.335 432.639L151.942 423.611Z" fill="#312A40"/>
<path d="M134.299 420.164L133.323 423.016" stroke="#F5F4F0" stroke-width="2" stroke-miterlimit="10"/>
<path d="M138.127 421.316L137.365 424.146" stroke="#F5F4F0" stroke-width="2" stroke-miterlimit="10"/>
<path d="M122.518 440.062C122.397 440.35 122.294 440.517 122.294 440.517L96.6504 441.87L95.6191 426.491L101.85 425.85C101.85 425.85 109.64 433.343 112.984 433.633C123.801 434.549 123.081 438.681 122.518 440.062Z" fill="#8F93D9"/>
<path d="M122.773 438.899L122.518 440.063C122.397 440.35 122.294 440.517 122.294 440.517L96.6507 441.87L96.5925 440.161L122.773 438.899Z" fill="#312A40"/>
<path d="M106.966 430.337L105.182 432.767" stroke="#F5F4F0" stroke-width="2" stroke-miterlimit="10"/>
<path d="M110.297 432.623L108.782 435.13" stroke="#F5F4F0" stroke-width="2" stroke-miterlimit="10"/>
<path d="M129.558 295.811C129.435 295.811 129.31 295.789 129.189 295.743C128.649 295.538 128.376 294.935 128.581 294.395L129.487 292C129.569 291.118 129.958 290.253 130.442 289.177C130.516 289.012 130.594 288.841 130.672 288.663L130.684 288.637L131.664 286.583C131.912 286.062 132.537 285.84 133.058 286.09C133.579 286.338 133.8 286.962 133.551 287.483L132.578 289.524C132.5 289.701 132.423 289.871 132.349 290.035C131.924 290.981 131.588 291.728 131.563 292.274L131.556 292.441L130.536 295.135C130.378 295.553 129.98 295.811 129.558 295.811Z" fill="#EFC392"/>
<path d="M131.98 292.556C131.714 292.556 131.449 292.455 131.245 292.254C130.835 291.848 130.83 291.186 131.236 290.776L137.499 284.434C137.905 284.023 138.567 284.019 138.978 284.425C139.389 284.83 139.393 285.492 138.987 285.903L132.724 292.245C132.519 292.452 132.25 292.556 131.98 292.556Z" fill="#EFC392"/>
<path d="M134.371 292.131C134.018 292.131 133.674 291.952 133.477 291.628C133.177 291.135 133.334 290.492 133.827 290.192L140.966 285.85C141.46 285.55 142.103 285.707 142.403 286.2C142.703 286.694 142.546 287.337 142.053 287.637L134.914 291.979C134.744 292.082 134.556 292.131 134.371 292.131Z" fill="#EFC392"/>
<path d="M136.112 292.768C135.647 292.768 135.222 292.455 135.101 291.983C134.956 291.424 135.293 290.854 135.851 290.71L141.882 289.153C142.442 289.009 143.011 289.345 143.155 289.904C143.3 290.463 142.963 291.033 142.405 291.178L136.374 292.734C136.287 292.757 136.198 292.768 136.112 292.768Z" fill="#EFC392"/>
<path d="M133.663 295.102C133.138 295.102 132.685 294.707 132.625 294.173C132.561 293.599 132.974 293.082 133.548 293.018L140.553 292.234C141.128 292.168 141.644 292.583 141.709 293.157C141.773 293.73 141.36 294.248 140.786 294.312L133.78 295.096C133.741 295.1 133.702 295.102 133.663 295.102Z" fill="#EFC392"/>
<path d="M134.724 296.808C132.969 298.563 132.172 297.831 130.884 296.544C129.597 295.257 129.289 292.936 131.044 291.181C132.8 289.426 135.953 288.901 137.24 290.188C138.528 291.476 136.479 295.053 134.724 296.808Z" fill="#EFC392"/>
<path d="M386.616 279.523C386.449 279.357 386.593 281.643 386.408 281.495C383.269 278.995 376 280.083 373.5 283.221C367.168 291.174 363.342 296.317 357.204 304.427L355.889 306.177C347.863 306.695 339.799 307.223 331.763 307.852C329.051 308.065 326.348 308.287 323.644 308.528C319.987 308.898 319.987 314.203 323.644 314.583C326.014 314.796 328.393 314.99 330.773 315.175C339.299 315.86 347.853 316.416 356.38 316.962C357.861 317.073 359.37 316.814 360.749 316.249C362.897 315.472 364.508 313.555 366.036 311.944L369.054 308.778C371.183 306.547 373.312 304.306 375.423 302.057C379.302 297.946 383.144 293.799 386.949 289.614C388.208 288.235 388.828 286.485 388.828 284.745C388.829 282.828 388.069 280.921 386.616 279.523ZM356.648 306.13C356.454 306.14 356.25 306.158 356.056 306.167C356.259 306.084 356.491 306.056 356.704 306.121C356.695 306.13 356.648 306.121 356.648 306.13Z" fill="#EFC392"/>
<path d="M327.464 311.285C327.464 313.044 324.518 314.47 320.884 314.47C317.249 314.47 314.303 313.044 314.303 311.285C314.303 309.527 317.249 308.685 320.884 308.685C324.518 308.685 327.464 309.527 327.464 311.285Z" fill="#EFC392"/>
<path d="M318.882 313.074C318.791 313.074 318.7 313.062 318.608 313.037L311.78 311.194L307.714 312.093C307.152 312.218 306.592 311.862 306.468 311.298C306.343 310.735 306.699 310.177 307.263 310.052L311.83 309.041L319.154 311.019C319.711 311.169 320.041 311.743 319.89 312.301C319.765 312.767 319.342 313.074 318.882 313.074Z" fill="#EFC392"/>
<path d="M320.884 314.324C320.815 314.324 320.745 314.317 320.674 314.302L313.229 312.781L309.13 313.689C308.567 313.812 308.008 313.458 307.883 312.894C307.759 312.33 308.114 311.772 308.678 311.647L313.212 310.643L321.093 312.254C321.659 312.37 322.023 312.922 321.908 313.487C321.806 313.983 321.371 314.324 320.884 314.324Z" fill="#EFC392"/>
<path d="M317.998 311.142C317.921 311.142 317.843 311.134 317.764 311.116L309.026 309.12C308.463 308.992 308.111 308.431 308.239 307.868C308.368 307.305 308.928 306.952 309.491 307.082L318.23 309.078C318.793 309.206 319.145 309.767 319.016 310.33C318.906 310.814 318.475 311.142 317.998 311.142Z" fill="#EFC392"/>
<path d="M383.369 353.039L339.614 360.572L344.223 355.293L339.548 417.68C339.166 421.552 333.534 421.393 333.404 417.464L333.12 354.903L333.1 350.421C332.417 350.415 380.171 342.406 381.484 342.09C388.756 341.092 390.585 351.532 383.369 353.039Z" fill="#EFC392"/>
<path d="M377.136 339.69C362.882 343.063 348.629 346.436 334.376 349.809C333.303 350.063 332.533 351.003 332.495 352.105C331.832 371.449 331.17 390.793 330.507 410.137H343.691L352.02 365.644C352.192 364.726 352.872 363.986 353.773 363.737L387.969 354.299C389.014 354.01 389.745 353.068 389.763 351.983L389.963 340.241C389.99 338.69 388.584 337.507 387.061 337.797L377.136 339.69Z" fill="#E28D4D"/>
<path d="M408.376 352.919L352.717 368.271L356.792 362.76L356.133 430.369C356.01 434.142 350.532 434.347 350.168 430.537L345.688 363.074L346.064 359.041L349.763 357.562L405.422 342.21C412.554 340.499 415.414 350.705 408.376 352.919Z" fill="#EFC392"/>
<path d="M397.605 338.927L348.068 357.12C345.984 357.886 344.652 359.933 344.796 362.149L347.914 425.386H358.952L362.066 370.936L408.633 355.517C409.454 355.245 410.161 354.708 410.643 353.989C411.648 352.794 412.681 350.506 413.581 348.031C415.224 343.512 414.619 339.511 414.216 337.679C408.679 338.095 403.142 338.511 397.605 338.927Z" fill="#F29D52"/>
<mask id="mask3_20_6180" style="mask-type:luminance" maskUnits="userSpaceOnUse" x="344" y="337" width="71" height="89">
<path d="M397.605 338.927L348.068 357.12C345.984 357.886 344.652 359.933 344.796 362.149L347.914 425.386H358.952L362.066 370.936L408.633 355.517C409.454 355.245 410.161 354.708 410.643 353.989C411.648 352.794 412.681 350.506 413.581 348.031C415.224 343.512 414.619 339.511 414.216 337.679C408.679 338.095 403.142 338.511 397.605 338.927Z" fill="white"/>
</mask>
<g mask="url(#mask3_20_6180)">
<path d="M357.18 427.12L356.763 427.096L360.007 370.636C360.05 369.887 360.535 369.251 361.243 369.015C368.812 366.492 406.912 353.755 413.673 350.791L413.841 351.174C407.063 354.145 368.948 366.887 361.376 369.412C360.831 369.593 360.457 370.083 360.424 370.661L357.18 427.12Z" fill="#F5F4F0"/>
</g>
<path d="M329.199 445.42C329.344 445.715 329.464 445.883 329.464 445.883L356.509 445.638L356.058 429.383L350.207 429.144C350.207 429.144 342.299 437.52 338.803 438.041C327.491 439.709 328.517 444.005 329.199 445.42Z" fill="#8F93D9"/>
<path d="M328.855 444.214L329.199 445.421C329.344 445.715 329.464 445.883 329.464 445.883L356.509 445.638L356.459 443.838L328.855 444.214Z" fill="#312A40"/>
<path d="M344.915 434.186L346.949 436.624" stroke="#F5F4F0" stroke-width="2" stroke-miterlimit="10"/>
<path d="M341.653 436.731L343.295 439.344" stroke="#F5F4F0" stroke-width="2" stroke-miterlimit="10"/>
<path d="M312.059 433.699C312.213 434.002 312.339 434.176 312.339 434.176L340.399 433.648L339.767 416.785L333.692 416.596C333.692 416.596 325.572 425.368 321.95 425.944C310.229 427.789 311.337 432.237 312.059 433.699Z" fill="#8F93D9"/>
<path d="M311.69 432.45L312.059 433.699C312.213 434.002 312.339 434.176 312.339 434.176L340.399 433.648L340.329 431.781L311.69 432.45Z" fill="#312A40"/>
<path d="M328.253 421.882L330.387 424.392" stroke="#F5F4F0" stroke-width="2" stroke-miterlimit="10"/>
<path d="M324.93 424.527L326.784 427.138" stroke="#F5F4F0" stroke-width="2" stroke-miterlimit="10"/>
<path d="M387.103 279.167C397.829 288.069 399.672 279.337 399.672 279.337L408.903 282.203V318.927L406.899 341.703L376.488 342.726L380.322 283.158L387.103 279.167Z" fill="#F5F4F0"/>
<path d="M388.434 280.839L389.729 303.814C389.73 303.862 389.731 303.91 389.732 303.959L388.915 339.942C388.726 341.31 388.256 342.287 387.819 342.954C380.428 343.817 377.05 343.926 373.151 341.703C372.07 341.087 372.459 340.315 371.99 339.731C372.711 327.485 374.591 319.103 375.312 306.858C375.369 305.271 375.618 301.562 375.158 302.34C372.117 305.542 369.077 308.743 366.036 311.945C364.508 313.555 362.897 315.472 360.75 316.249C359.37 316.814 357.861 317.073 356.38 316.962C347.854 316.416 339.299 315.86 330.773 315.175C331.217 313.129 331.782 310.111 331.763 307.852C339.517 307.245 347.297 306.732 355.044 306.231C355.581 306.197 356.075 305.929 356.398 305.5L357.204 304.427C363.318 296.349 367.194 291.144 373.5 283.222C376.015 280.061 378.111 279.538 383.858 279.2C383.893 279.199 383.928 279.197 383.964 279.196C384.204 279.194 385.696 279.145 386.094 279.137C386.169 279.136 386.244 279.129 386.319 279.118C386.327 279.117 386.335 279.116 386.343 279.115C387.411 278.964 388.373 279.762 388.434 280.839Z" fill="#8F93D9"/>
<path d="M416.277 326.489C414.972 327.321 414.529 326.997 413.806 327.683C413.306 328.164 413.057 328.766 412.963 329.469C412.528 332.858 415.945 338.347 414.176 341.32C412.982 343.346 409.195 344.559 399.123 342.616C398.734 342.541 398.448 342.198 398.448 341.801L398.596 334.338V334.33L398.632 332.442C398.521 329.895 398.402 327.359 398.299 324.823C398.132 321.22 397.975 317.619 397.819 314.019C397.643 310.232 397.476 306.435 397.308 302.649C397.714 298.722 398.128 294.795 398.536 290.868C398.536 290.852 398.538 290.835 398.54 290.818C398.91 287.291 399.28 283.755 399.65 280.217C399.659 279.722 399.272 279.057 399.51 279.034C399.546 279.028 399.598 279.04 399.669 279.069C399.679 279.069 400.79 279.485 400.79 279.485C400.867 279.521 401.097 279.546 401.436 279.563C401.465 279.565 401.496 279.567 401.53 279.567C401.57 279.569 401.614 279.571 401.657 279.573C401.879 279.582 402.132 279.588 402.41 279.594C402.446 279.596 402.481 279.596 402.519 279.596C402.688 279.6 402.868 279.605 403.056 279.609C403.098 279.611 403.14 279.611 403.182 279.611C403.311 279.615 403.445 279.619 403.583 279.621C403.644 279.623 403.704 279.626 403.765 279.626C404.185 279.636 404.624 279.651 405.072 279.669C405.082 279.672 405.093 279.672 405.103 279.672H405.114C405.622 279.69 406.151 279.718 406.651 279.755C406.659 279.755 406.659 279.755 406.669 279.755C407.633 279.824 408.539 279.937 409.237 280.113C409.277 280.123 409.316 280.134 409.354 280.144C409.362 280.134 409.362 280.144 409.362 280.144C409.538 280.182 409.518 280.376 409.666 280.432C410.453 280.737 411.22 281.387 411.692 282.11C412.405 283.201 412.833 284.403 413.13 285.754C413.63 288.05 418.148 309.046 420.361 319.294C420.75 321.09 419.14 324.637 416.277 326.489Z" fill="#8F93D9"/>
<path d="M416.075 328.423C415.121 328.747 414.075 329.099 412.964 329.469C412.621 329.59 412.26 329.71 411.899 329.83C409.779 330.543 407.455 331.33 405.039 332.154C404.511 332.33 403.974 332.506 403.438 332.691C403.271 332.747 403.113 332.802 402.956 332.858C402.604 332.978 402.253 333.098 401.901 333.209C400.966 333.524 400.031 333.848 399.096 334.163C398.929 334.219 398.762 334.274 398.596 334.339C397.929 334.561 397.262 334.783 396.605 335.005C395.466 335.394 394.337 335.774 393.235 336.153C392.763 336.302 392.3 336.459 391.847 336.616C389.375 337.449 387.051 338.236 385.005 338.931H384.996C380.738 340.375 376.778 339.747 376.269 339.895C372.621 341.043 373.833 336.185 377.268 334.491L383.487 331.811L398.3 324.822L409.048 319.748L401.864 294.836L399.966 288.244C398.92 284.624 401.012 280.838 404.632 279.792C404.789 279.745 404.946 279.708 405.104 279.671H405.113C406.76 280 408.33 280.192 409.353 280.144C409.362 280.134 409.362 280.144 409.362 280.144C410.26 280.551 411.057 281.143 411.705 281.893C412.436 282.736 412.964 283.754 413.204 284.911C413.232 285.022 413.269 285.189 413.316 285.402C413.334 285.485 413.353 285.587 413.38 285.689C413.38 285.717 413.39 285.745 413.399 285.782C413.418 285.874 413.436 285.967 413.455 286.069C413.556 286.522 413.677 287.078 413.816 287.735C413.862 287.939 413.908 288.161 413.955 288.393C414.001 288.587 414.047 288.791 414.093 289.004C414.158 289.3 414.223 289.615 414.297 289.948C414.325 290.114 414.362 290.281 414.408 290.448C414.473 290.79 414.547 291.142 414.63 291.503C414.862 292.577 415.121 293.762 415.39 295.012C415.473 295.428 415.565 295.854 415.658 296.28C415.686 296.382 415.704 296.484 415.723 296.586C415.843 297.132 415.963 297.678 416.084 298.243C416.149 298.558 416.223 298.882 416.288 299.206C416.575 300.548 416.871 301.918 417.176 303.316C417.213 303.483 417.25 303.65 417.287 303.816C417.38 304.289 417.482 304.761 417.593 305.233C417.695 305.705 417.797 306.186 417.898 306.658C418.204 308.084 418.509 309.501 418.806 310.88C419.056 312.028 419.296 313.157 419.528 314.25C419.62 314.685 419.713 315.101 419.805 315.518C420.166 317.185 420.5 318.731 420.796 320.119C421.564 323.693 419.528 327.257 416.075 328.423Z" fill="#EFC392"/>
<path d="M416.677 328.22C416.482 328.285 416.277 328.35 416.074 328.423C415.121 328.747 414.075 329.099 412.963 329.469C412.612 329.59 412.261 329.709 411.899 329.83C409.779 330.543 407.456 331.33 405.039 332.153C404.512 332.329 403.974 332.507 403.437 332.691C403.272 332.747 403.113 332.802 402.956 332.858C402.605 332.969 402.253 333.09 401.9 333.209C400.965 333.525 400.031 333.849 399.096 334.163L398.596 334.33C397.929 334.552 397.262 334.784 396.606 335.005C395.466 335.394 394.337 335.775 393.235 336.153C392.763 336.302 392.301 336.459 391.847 336.615C389.376 337.45 387.05 338.236 385.006 338.93H384.995C384.617 336.82 384.042 333.914 383.488 331.813L398.3 324.823L409.047 319.748L401.89 294.927L401.865 294.837L399.966 288.244C398.921 284.625 401.011 280.838 404.631 279.793C404.79 279.745 404.947 279.709 405.103 279.672C405.405 279.715 405.88 279.755 406.651 279.755C406.66 279.755 406.667 279.755 406.669 279.755C407.633 279.824 408.539 279.937 409.237 280.113C409.276 280.123 409.315 280.134 409.354 280.144C409.363 280.134 409.363 280.144 409.363 280.144C410.26 280.552 411.056 281.144 411.704 281.894C412.436 282.737 412.963 283.755 413.204 284.911C413.233 285.022 413.268 285.19 413.316 285.403C413.333 285.486 413.352 285.587 413.381 285.689C413.381 285.716 413.39 285.746 413.398 285.781C413.408 285.875 413.436 285.967 413.454 286.07C413.557 286.521 413.676 287.078 413.816 287.734C413.862 287.947 413.908 288.161 413.954 288.393C414 288.587 414.046 288.79 414.094 289.003C414.159 289.309 414.224 289.624 414.297 289.948C414.324 290.114 414.362 290.281 414.408 290.448C414.473 290.791 414.556 291.142 414.63 291.504C414.862 292.577 415.121 293.762 415.389 295.013C415.483 295.429 415.566 295.845 415.658 296.28C415.685 296.382 415.704 296.485 415.723 296.585C415.842 297.133 415.964 297.679 416.083 298.243C416.148 298.557 416.223 298.881 416.288 299.205C416.574 300.547 416.871 301.919 417.176 303.316C417.214 303.483 417.249 303.65 417.287 303.815C417.39 304.288 417.49 304.76 417.592 305.233C417.695 305.706 417.797 306.186 417.898 306.659C418.203 308.083 418.51 309.501 418.805 310.881C419.056 312.028 419.296 313.158 419.529 314.249C419.621 314.684 419.713 315.102 419.805 315.518C420.166 317.185 420.499 318.73 420.796 320.118C420.842 320.323 420.879 320.526 420.925 320.731C421.619 323.951 419.796 327.173 416.677 328.22Z" fill="#797FB7"/>
<path d="M409.316 280.144L407.982 295.151L406.065 299.983L401.889 294.927L401.816 294.837L398.536 290.868C398.536 290.852 398.538 290.835 398.54 290.818C398.91 287.291 399.28 283.755 399.65 280.217C399.658 279.722 399.272 279.057 399.51 279.034L400.744 279.486C400.825 279.523 401.072 279.546 401.436 279.563C401.465 279.565 401.496 279.567 401.53 279.567C401.57 279.569 401.613 279.571 401.657 279.573C401.879 279.582 402.132 279.588 402.41 279.594C402.446 279.596 402.481 279.596 402.519 279.596C402.688 279.601 402.868 279.605 403.056 279.609C403.098 279.611 403.14 279.611 403.182 279.611C403.311 279.615 403.445 279.619 403.583 279.621C403.644 279.624 403.704 279.626 403.765 279.626C404.179 279.638 404.616 279.653 405.057 279.672H405.066C405.068 279.672 405.07 279.672 405.072 279.67C405.086 279.67 405.1 279.671 405.114 279.672C405.622 279.69 406.151 279.718 406.65 279.755C406.659 279.755 406.659 279.755 406.669 279.755C407.633 279.824 408.539 279.937 409.237 280.113C409.26 280.123 409.283 280.134 409.306 280.144C409.316 280.134 409.316 280.144 409.316 280.144Z" fill="#797FB7"/>
<path d="M374.963 321.144H373.194V322.453H374.963V321.144Z" fill="#312A40"/>
<path d="M379.239 342.627H371.881L370.581 324.667H380.785L379.239 342.627Z" fill="#D9564A"/>
<path d="M380.102 335.347L371.135 335.431L370.748 330.96H380.586L380.102 335.347Z" fill="#4F456B"/>
<path d="M380.833 324.667H370.533C370.25 324.667 370.02 324.437 370.02 324.154C370.02 323.871 370.25 323.641 370.533 323.641H380.833C381.117 323.641 381.346 323.871 381.346 324.154C381.346 324.437 381.117 324.667 380.833 324.667Z" fill="#312A40"/>
<path d="M380.586 323.938H370.503L371.328 321.696H379.909L380.586 323.938Z" fill="#312A40"/>
<path d="M403.202 240.759C399.206 242.757 395.21 238.579 388.49 239.487C382.75 240.263 373.445 241.179 377.768 251.241L377.756 251.232C374.261 257.409 381.324 264.61 381.324 264.61L381.284 258.681C381.334 258.529 381.394 258.384 381.448 258.234C384.603 256.939 390.524 254.056 394.098 249.521C397.307 249.978 400.129 251.922 401.749 254.22C405.628 259.723 403.693 269.084 403.693 269.084C403.693 269.084 410.65 260.74 411.013 255.199C411.376 249.658 407.199 238.761 403.202 240.759Z" fill="#312A40"/>
<path d="M404.959 263.651C405.97 263.651 406.789 262.42 406.789 260.901C406.789 259.382 405.97 258.151 404.959 258.151C403.949 258.151 403.13 259.382 403.13 260.901C403.13 262.42 403.949 263.651 404.959 263.651Z" fill="#EFC392"/>
<path d="M379.433 339.948C381.675 339.948 383.493 338.395 383.493 336.48C383.493 334.565 381.675 333.013 379.433 333.013C377.19 333.013 375.372 334.565 375.372 336.48C375.372 338.395 377.19 339.948 379.433 339.948Z" fill="#EFC392"/>
<path d="M378.347 334.752C378.295 334.752 378.242 334.748 378.189 334.739L370.24 333.532C369.669 333.446 369.277 332.913 369.364 332.342C369.45 331.771 369.981 331.378 370.554 331.465L378.503 332.672C379.074 332.759 379.466 333.292 379.379 333.863C379.301 334.381 378.855 334.752 378.347 334.752Z" fill="#EFC392"/>
<path d="M376.503 335.817C376.434 335.817 376.365 335.81 376.296 335.796L370.55 334.642C369.984 334.528 369.617 333.977 369.731 333.41C369.845 332.845 370.394 332.479 370.962 332.591L376.708 333.746C377.274 333.86 377.64 334.411 377.527 334.977C377.427 335.473 376.99 335.817 376.503 335.817Z" fill="#EFC392"/>
<path d="M375.599 337.439C375.511 337.439 375.421 337.428 375.332 337.404L370.657 336.171C370.099 336.024 369.765 335.452 369.912 334.894C370.06 334.336 370.631 334.002 371.19 334.149L375.865 335.382C376.423 335.529 376.756 336.101 376.609 336.66C376.485 337.129 376.062 337.439 375.599 337.439Z" fill="#EFC392"/>
<path d="M375.843 338.399C375.799 338.399 375.754 338.396 375.708 338.391L371.06 337.791C370.488 337.717 370.083 337.193 370.157 336.62C370.231 336.047 370.755 335.643 371.328 335.717L375.976 336.317C376.548 336.391 376.953 336.915 376.879 337.488C376.811 338.015 376.361 338.399 375.843 338.399Z" fill="#EFC392"/>
<path d="M375.868 339.896C373.437 339.896 371.328 339.166 371.218 339.128C370.673 338.936 370.387 338.339 370.579 337.794C370.77 337.25 371.366 336.963 371.911 337.155C371.955 337.17 374.822 338.151 377.375 337.676C377.941 337.571 378.488 337.944 378.594 338.512C378.7 339.079 378.325 339.625 377.758 339.731C377.126 339.849 376.486 339.896 375.868 339.896Z" fill="#EFC392"/>
<path d="M82.0447 279.027L81.1063 281.918C80.847 281.853 80.4041 281.798 80.0803 281.724C77.9325 281.261 74.9145 278.487 74.1274 276.441C74.831 277.885 77.208 279.749 82.0447 279.027Z" fill="#D8A873"/>
<path d="M398.136 273.894C394.85 276.233 392.208 276.515 388.921 278.854C388.911 276.95 388.909 276.675 388.899 274.771C391.531 275.49 393.034 276.017 398.136 273.894Z" fill="#D8A873"/>
<path d="M96.5318 210.125L93.2043 241.581L132.907 246.27L149.544 265.28L146.707 241.077L151.594 205.002L96.5318 210.125Z" fill="white"/>
<path d="M129.032 223.877C128.983 225.168 128.217 225.823 128.322 227.537C128.424 229.184 129.445 230.87 130.359 231.973C130.393 232.015 130.427 232.056 130.462 232.095C130.596 232.253 130.66 232.718 130.366 232.93C129.539 233.526 127.902 234.694 126.145 235.475C125.862 235.602 125.581 235.323 125.517 235.197L125.426 235.01C124.875 233.85 123.885 231.373 121.376 231.122C116.289 230.612 115.369 227.792 114.482 225.712C113.271 222.876 115.056 217.527 119.701 216.484C124.83 215.331 129.152 220.691 129.032 223.877Z" fill="#FFCC7B"/>
<path d="M129.04 233.513L121.933 221.194C121.933 221.194 123.32 218.996 124.913 221.83C124.95 221.896 125.765 223.544 122.958 225.114C122.889 225.153 122.822 225.193 122.757 225.238C121.392 226.18 119.858 226.396 118.929 225.647C118.312 225.149 117.723 224.053 118.109 223.273C118.447 222.591 119.619 222.676 119.619 222.676L127.752 234.354" stroke="#D9564A" stroke-miterlimit="10"/>
<path d="M125.517 235.197C126.866 238.495 130.793 236.858 131.231 235.256C131.669 233.654 130.462 232.095 130.462 232.095L125.517 235.197Z" fill="#DD8543"/>
<path d="M104.362 220.75L110.925 222.231" stroke="#FCBF49" stroke-width="2" stroke-miterlimit="10" stroke-linecap="round"/>
<path d="M108.257 228.928L113.54 227.367" stroke="#FCBF49" stroke-width="2" stroke-miterlimit="10" stroke-linecap="round"/>
<path d="M117.116 231.062L113.273 236.826" stroke="#FCBF49" stroke-width="2" stroke-miterlimit="10" stroke-linecap="round"/>
<path d="M112.099 216.324L114.554 218.308" stroke="#FCBF49" stroke-width="2" stroke-miterlimit="10" stroke-linecap="round"/>
<path d="M120.051 212.331V215.533" stroke="#FCBF49" stroke-width="2" stroke-miterlimit="10" stroke-linecap="round"/>
<path d="M130.575 212.918L126.081 216.761" stroke="#FCBF49" stroke-width="2" stroke-miterlimit="10" stroke-linecap="round"/>
<path d="M132.378 219.322L129.04 219.856" stroke="#FCBF49" stroke-width="2" stroke-miterlimit="10" stroke-linecap="round"/>
<path d="M136.86 225.352L129.656 226.153" stroke="#FCBF49" stroke-width="2" stroke-miterlimit="10" stroke-linecap="round"/>
<path d="M311.446 301.327L318.027 287.402L316.167 256.711L356.265 247.745L356.158 284.788L328.031 289.316L311.446 301.327Z" fill="white"/>
<path d="M108.195 86.8035L94.3965 117.584L117.889 96.9222L108.195 86.8035Z" fill="#D9564A"/>
<path d="M94.3965 117.584L122.984 105.272L128.574 116.31L94.3965 117.584Z" fill="#D9564A"/>
<path d="M117.889 96.9221H126.876L122.984 105.272L94.3965 117.584L117.889 96.9221Z" fill="#C6504A"/>
<g opacity="0.2">
<path d="M247.841 178.161C247.841 178.168 247.841 178.168 247.841 178.168C247.781 178.373 247.708 178.571 247.61 178.776C247.577 178.861 247.53 178.947 247.484 179.033C247.431 179.132 247.379 179.231 247.319 179.33C247.253 179.456 247.174 179.574 247.075 179.693C247.009 179.799 246.93 179.898 246.851 179.991L246.791 180.05C246.725 180.129 246.653 180.208 246.567 180.281C246.547 180.307 246.521 180.327 246.494 180.347C246.435 180.413 246.369 180.466 246.303 180.512C246.23 180.571 246.164 180.624 246.091 180.671C245.959 180.763 245.814 180.849 245.662 180.921C245.576 180.968 245.484 181.007 245.385 181.04C245.266 181.093 245.134 181.133 245.002 181.159C244.87 181.192 244.731 181.219 244.593 181.232C237.627 181.978 223.895 183.364 210.763 182.05C210.624 182.037 210.485 182.011 210.36 181.971C210.254 181.951 210.149 181.918 210.05 181.872C209.951 181.832 209.852 181.786 209.753 181.727C209.739 181.72 209.726 181.713 209.713 181.7C209.627 181.654 209.541 181.595 209.462 181.529C209.389 181.476 209.317 181.416 209.251 181.35C209.185 181.297 209.125 181.232 209.066 181.165C209 181.093 208.934 181.014 208.874 180.934C208.808 180.848 208.749 180.763 208.696 180.677C208.63 180.578 208.571 180.472 208.518 180.367C208.472 180.281 208.425 180.195 208.386 180.102C208.34 180.016 208.307 179.931 208.28 179.845C208.247 179.772 208.221 179.7 208.201 179.627C208.168 179.528 208.135 179.436 208.115 179.337C208.095 179.271 208.075 179.211 208.062 179.152C208.062 179.152 208.062 179.152 208.062 179.145C208.122 178.412 208.188 177.62 208.254 176.775C208.472 174.081 208.709 170.853 208.643 167.4C208.802 158.322 207.211 147.025 197.136 139.855C177.368 125.792 173.229 111.914 173.156 99.6012C173.209 94.3722 173.922 89.427 174.444 84.8715C176.345 68.1416 194.356 48.4469 217.035 45.2647C217.391 45.2118 217.755 45.1656 218.117 45.1261C218.864 45.0402 219.616 44.9743 220.375 44.9214C219.715 46.407 219.081 47.8792 218.481 49.3382V49.3449C215.345 56.9111 212.935 64.1471 211.238 71.0663C208.894 80.5869 207.884 89.4933 208.175 97.7923C208.28 100.843 208.564 103.814 209.013 106.699C210.413 115.618 213.463 123.739 218.091 131.081C218.098 131.081 218.098 131.088 218.098 131.088C218.474 131.695 218.864 132.289 219.266 132.883C219.59 133.365 219.927 133.841 220.263 134.316C223.822 139.274 228.14 143.843 233.211 148.036C235.475 149.911 237.885 151.706 240.447 153.43C241.562 154.182 242.711 154.922 243.886 155.642C244.078 155.76 244.269 155.879 244.461 155.998C245.306 156.526 246.111 157.048 246.87 157.549C246.936 157.596 246.996 157.635 247.055 157.675C246.831 159.689 246.712 161.715 246.686 163.716C246.62 167.829 246.917 171.843 247.418 175.455C247.537 176.3 247.663 177.125 247.801 177.924C247.814 178.003 247.827 178.082 247.841 178.161Z" fill="#F5F4F0"/>
</g>
<path d="M25.6956 314.207L57.8968 313.971" stroke="#094D6B" stroke-width="3" stroke-miterlimit="10" stroke-linecap="round"/>
<path d="M82.6697 441.81C81.0224 441.81 79.6408 440.525 79.5417 438.86L75.0889 363.886C74.9862 362.157 76.3045 360.672 78.0339 360.569C79.7639 360.465 81.2478 361.785 81.3507 363.514L85.8035 438.488C85.9062 440.217 84.5879 441.702 82.8587 441.804C82.7953 441.808 82.7322 441.81 82.6697 441.81Z" fill="#4F456B"/>
<path d="M86.2099 443.964C84.625 443.964 83.2638 442.766 83.0947 441.155L75.1009 365.071C74.9199 363.349 76.1698 361.806 77.8925 361.624C79.616 361.444 81.1585 362.693 81.3394 364.416L89.3331 440.5C89.5142 442.223 88.2642 443.766 86.5415 443.947C86.4301 443.958 86.3195 443.964 86.2099 443.964Z" fill="#312A40"/>
<path d="M61.8868 327.852H32.0466C27.2331 327.852 23.3308 323.95 23.3308 319.136V301.705C23.3308 296.892 27.2331 292.989 32.0466 292.989H61.8868C66.7002 292.989 70.6025 296.891 70.6025 301.705V319.136C70.6025 323.95 66.7004 327.852 61.8868 327.852Z" fill="#4F456B"/>
<path d="M56.7166 327.852H26.8761C22.0627 327.852 18.1604 323.95 18.1604 319.136V301.705C18.1604 296.892 22.0625 292.989 26.8761 292.989H56.7166C61.53 292.989 65.4323 296.891 65.4323 301.705V319.136C65.4321 323.95 61.53 327.852 56.7166 327.852Z" fill="#312A40"/>
<path d="M40.3093 326.766C43.0498 326.766 45.2715 324.877 45.2715 322.547C45.2715 320.217 43.0498 318.328 40.3093 318.328C37.5688 318.328 35.3472 320.217 35.3472 322.547C35.3472 324.877 37.5688 326.766 40.3093 326.766Z" fill="#252033"/>
<path d="M82.0151 366.95L33.0383 368.295C30.0479 368.377 27.5572 366.019 27.475 363.029C27.3928 360.038 29.7505 357.548 32.7407 357.466L81.7176 356.121C84.708 356.039 87.1987 358.396 87.2808 361.386C87.363 364.377 85.0055 366.868 82.0151 366.95Z" fill="#4F456B"/>
<path d="M68.367 370.252L42.8997 370.952C41.3447 370.995 40.0496 369.769 40.0069 368.214C39.9643 366.659 41.1902 365.364 42.7452 365.321L68.2125 364.622C69.7675 364.579 71.0626 365.805 71.1052 367.36C71.1477 368.915 69.9218 370.21 68.367 370.252Z" fill="#4F456B"/>
<path d="M32.6058 442.08C32.5826 442.08 32.5594 442.079 32.5359 442.079C30.8042 442.041 29.4309 440.607 29.4688 438.875L31.1267 362.942C31.1645 361.21 32.6028 359.831 34.3308 359.875C36.0625 359.913 37.4358 361.347 37.3979 363.079L35.74 439.012C35.7026 440.72 34.3061 442.08 32.6058 442.08Z" fill="#4F456B"/>
<path d="M28.1342 444.135C28.051 444.135 27.9673 444.132 27.8829 444.125C26.1562 443.988 24.8673 442.477 25.0041 440.75L31.0642 364.325C31.2011 362.598 32.712 361.309 34.4387 361.446C36.1654 361.583 37.4542 363.094 37.3175 364.821L31.2574 441.246C31.1271 442.889 29.7538 444.135 28.1342 444.135Z" fill="#312A40"/>
<path d="M77.882 367.063L28.9052 368.408C25.9148 368.49 23.4241 366.133 23.3419 363.142C23.2598 360.152 25.6175 357.661 28.6077 357.579L77.5845 356.234C80.5749 356.152 83.0656 358.51 83.1478 361.5C83.23 364.49 80.8725 366.981 77.882 367.063Z" fill="#312A40"/>
<path d="M43.0718 366.82C45.8123 366.82 48.0339 364.931 48.0339 362.601C48.0339 360.271 45.8123 358.382 43.0718 358.382C40.3312 358.382 38.1096 360.271 38.1096 362.601C38.1096 364.931 40.3312 366.82 43.0718 366.82Z" fill="#252033"/>
<path d="M45.2687 363.739C45.1577 363.915 45.0372 364.072 44.8892 364.22C44.3152 364.841 43.5006 365.174 42.6766 365.174C42.1302 365.174 41.5749 365.026 41.0658 364.711C34.5298 360.638 30.6045 355.222 29.401 348.621C26.9199 334.993 37.1683 321.403 37.6034 320.829C38.1126 320.162 38.844 319.764 39.6124 319.662C39.9087 319.616 40.2049 319.625 40.5012 319.672H40.5104C40.9917 319.746 41.4641 319.94 41.8714 320.255C42.0288 320.375 42.1769 320.514 42.3065 320.662C43.2602 321.736 43.3526 323.356 42.4453 324.532C42.3065 324.726 33.4005 336.622 35.4094 347.547C36.3075 352.444 39.2145 356.369 44.2968 359.536C45.7224 360.425 46.1575 362.304 45.2687 363.739Z" fill="#4F456B"/>
<path d="M59.3312 303.758C59.3404 304.526 58.7203 305.146 57.9518 305.156L25.7533 305.387H25.7441C25.3182 305.387 24.9387 305.202 24.6886 304.896C24.485 304.656 24.3553 304.35 24.3553 304.008C24.3461 303.248 24.9663 302.619 25.7347 302.61L57.0724 302.387L57.9334 302.378H57.9426C58.7111 302.378 59.3312 302.989 59.3312 303.758Z" fill="#4F456B"/>
<path d="M59.285 313.839C59.2942 314.608 58.6741 315.237 57.9057 315.237L25.7069 315.478H25.6977C25.2442 315.478 24.8367 315.265 24.596 314.932L24.5034 314.784C24.3738 314.58 24.3089 314.349 24.3089 314.099C24.2997 313.33 24.9199 312.71 25.6883 312.701L57.4889 312.46H57.8963C58.6555 312.46 59.2758 313.08 59.285 313.839Z" fill="#4F456B"/>
<path d="M344.046 272.53C345.081 268.145 342.366 263.751 337.981 262.716C333.597 261.681 329.203 264.396 328.168 268.78C327.132 273.165 329.847 277.559 334.232 278.594C338.617 279.629 343.01 276.914 344.046 272.53Z" fill="#F29D52"/>
<path d="M341.816 272.003C342.56 268.85 340.608 265.691 337.455 264.946C334.302 264.202 331.142 266.154 330.398 269.307C329.653 272.46 331.606 275.619 334.759 276.364C337.912 277.108 341.071 275.156 341.816 272.003Z" fill="#D9564A"/>
<path d="M338.747 271.279C339.091 269.821 338.188 268.359 336.73 268.015C335.272 267.671 333.811 268.574 333.466 270.032C333.122 271.49 334.025 272.951 335.483 273.296C336.941 273.64 338.403 272.737 338.747 271.279Z" fill="#F29D52"/>
<path d="M350.769 254.922L348.207 255.562L347.217 253.059L345.538 258.036L345.539 258.039L335.708 270.309C335.533 270.528 335.568 270.847 335.787 271.023C335.88 271.097 335.993 271.134 336.105 271.134C336.254 271.134 336.4 271.068 336.501 270.943L346.126 258.932L346.131 258.939L350.769 254.922Z" fill="#312A40"/>
<path d="M253.387 55.9551C269.504 58.9599 281.612 66.7509 289.005 81.0914C313.526 128.652 210.403 135.164 195.609 146.675C180.816 158.186 180.356 184.667 205.616 186.23" stroke="#D9564A" stroke-width="2" stroke-miterlimit="10" stroke-dasharray="20 20"/>
<path d="M120.468 96.9222C139.659 83.4454 156.571 73.8685 178.638 66.2371" stroke="#D9564A" stroke-width="2" stroke-miterlimit="10" stroke-dasharray="20 20"/>
</svg>
