<svg width="598" height="398" viewBox="0 0 598 398" fill="none" xmlns="http://www.w3.org/2000/svg">
<path d="M175.417 299.921C148.033 292.469 125.116 260.132 126.542 232.254C127.698 209.665 143.916 207.948 162.483 171.82C185.889 126.279 171.005 107.825 191.759 88.4741C214.701 67.0838 259.443 64.8711 289.585 79.2789C314.653 91.2618 321.928 111.063 354.697 118.289C367.287 121.065 367.414 118.407 385.637 120.971C406.302 123.879 433.669 127.683 453.916 144.481C480.277 166.352 487.498 204.819 484.016 233.647C482.804 243.681 476.195 286.492 443.325 306.094C417.369 321.572 406.083 304.065 349.123 316.125C315.167 323.314 304.992 332.538 285.84 326.089C263.675 318.625 265.755 300.472 243.307 295.014C214.846 288.095 202.477 307.284 175.417 299.921Z" fill="#F2F2F2"/>
<path d="M360.608 183.131C360.608 183.131 347.286 180.793 343.308 188.728L363.785 188.866L367.586 188.203V180.854L360.608 183.131Z" fill="#ED7447"/>
<path d="M346.246 188.607C346.217 188.607 346.188 188.6 346.161 188.587C346.063 188.54 346.021 188.422 346.069 188.324C346.107 188.246 347.017 186.397 349.098 185.228C349.193 185.175 349.313 185.209 349.366 185.304C349.419 185.399 349.386 185.519 349.291 185.572C347.317 186.681 346.433 188.477 346.424 188.495C346.39 188.566 346.319 188.607 346.246 188.607Z" fill="#B73A18"/>
<path d="M351.502 189.032C350.5 189.032 349.586 188.911 349.105 188.545C348.866 188.363 348.734 188.131 348.715 187.855C348.679 187.35 349.341 187.186 350.109 186.997C350.761 186.835 351.573 186.635 351.639 186.235C352.026 183.857 355.766 183.765 355.925 183.762C355.926 183.762 355.927 183.762 355.928 183.762C356.035 183.762 356.123 183.848 356.125 183.956C356.127 184.064 356.04 184.154 355.932 184.156C355.896 184.157 352.362 184.245 352.028 186.298C351.921 186.955 351.008 187.18 350.203 187.379C349.762 187.488 349.096 187.653 349.108 187.827C349.119 187.987 349.196 188.119 349.344 188.231C350.387 189.026 354.291 188.46 355.707 188.175C355.813 188.154 355.917 188.223 355.939 188.33C355.96 188.436 355.891 188.54 355.785 188.562C355.644 188.59 353.414 189.032 351.502 189.032Z" fill="#B73A18"/>
<path d="M265.564 150.084C265.564 150.084 263.337 145.376 260.091 145.949C256.846 146.521 251.629 145.567 251.947 146.967C252.265 148.366 254.11 148.43 254.11 148.43C254.11 148.43 248.447 151.483 247.874 153.392C247.302 155.3 247.175 156.763 248.765 156.318C250.356 155.873 256.21 153.01 258.183 153.646C260.155 154.282 261.491 155.109 261.491 155.109L266.009 151.483L265.564 150.084Z" fill="#ED7447"/>
<path d="M288.634 286.652C288.581 286.652 288.528 286.647 288.474 286.636C288.039 286.548 287.758 286.125 287.846 285.691L291.689 221.967C291.777 221.533 292.201 221.252 292.635 221.339C293.07 221.427 293.351 221.85 293.263 222.285L289.419 286.008C289.343 286.389 289.008 286.652 288.634 286.652Z" fill="#2B3058"/>
<path d="M342.941 286.892C342.625 286.892 342.326 286.704 342.198 286.393L325.604 208.056C325.435 207.646 325.632 207.178 326.042 207.009C326.452 206.841 326.921 207.037 327.089 207.448L343.684 285.785C343.852 286.195 343.656 286.663 343.246 286.832C343.146 286.872 343.043 286.892 342.941 286.892Z" fill="#2B3058"/>
<path d="M343.163 169.877C343.163 169.877 342.469 168.373 339.577 168.373C336.684 168.373 323.726 170.339 319.329 176.239C314.933 182.138 314.007 186.187 313.66 188.616C313.313 191.045 311.809 197.523 305.908 199.142C300.008 200.761 289.248 205.388 286.471 210.941C283.694 216.493 283.81 221.93 283.81 221.93H313.082C313.082 221.93 327.251 222.372 332.634 215.68C332.852 215.368 332.994 215.067 333.085 214.819C333.127 214.656 333.181 214.446 333.247 214.192C334.686 208.594 341.55 181.801 342.585 176.007C343.742 169.53 343.163 169.877 343.163 169.877Z" fill="#2B3058"/>
<path d="M231.312 286.019C231.373 286.019 231.435 286.013 231.498 286.001C232.002 285.899 232.329 285.407 232.227 284.903L227.763 210.887C227.661 210.382 227.169 210.056 226.665 210.158C226.16 210.26 225.833 210.751 225.935 211.256L230.399 285.271C230.489 285.714 230.878 286.019 231.312 286.019Z" fill="#2B3058"/>
<path d="M168.233 286.298C168.6 286.298 168.948 286.08 169.096 285.719L188.371 194.729C188.566 194.253 188.338 193.709 187.862 193.513C187.386 193.318 186.841 193.546 186.646 194.022L167.371 285.012C167.175 285.488 167.403 286.033 167.88 286.228C167.995 286.275 168.115 286.298 168.233 286.298Z" fill="#2B3058"/>
<path d="M166.129 166.396C166.129 166.396 166.978 164.556 170.518 164.556C174.058 164.556 189.918 166.963 195.299 174.183C200.68 181.403 201.812 186.358 202.237 189.331C202.662 192.304 204.503 200.232 211.725 202.214C218.946 204.196 232.115 209.859 235.514 216.654C238.912 223.449 238.771 230.103 238.771 230.103H202.945C202.945 230.103 185.604 230.645 179.015 222.454C178.748 222.072 178.575 221.704 178.463 221.4C178.412 221.201 178.345 220.944 178.266 220.634C176.504 213.781 168.103 180.99 166.837 173.9C165.421 165.972 166.129 166.396 166.129 166.396Z" fill="#2B3058"/>
<path d="M298.197 129.369C298.197 129.369 299.053 135.843 296.609 140.484C294.165 145.126 293.799 151.356 295.632 154.41C297.464 157.463 305.406 154.41 305.65 142.439C305.894 130.468 298.197 129.369 298.197 129.369Z" fill="#372420"/>
<path d="M301.167 115.893C301.167 115.893 309.015 112.436 313.829 119.781C318.642 127.126 312.678 133.607 312.678 133.607C310.899 139.764 314.979 144.225 314.979 144.225C314.979 144.225 315.627 145.512 315.319 146.6C315.011 147.687 312.728 150.467 306.596 149.772C300.507 149.082 300.248 146.999 300.328 144.356C300.328 144.32 300.33 144.301 300.33 144.301C304.515 142.14 303.783 137.928 303.783 137.928C296.876 138.036 297.093 132.724 296.779 126.351C296.465 119.978 301.167 115.893 301.167 115.893Z" fill="#ED7447"/>
<path d="M305.717 128.182C306.237 128.182 306.659 127.747 306.659 127.21C306.659 126.673 306.237 126.238 305.717 126.238C305.197 126.238 304.775 126.673 304.775 127.21C304.775 127.747 305.197 128.182 305.717 128.182Z" fill="#372420"/>
<path d="M299.35 128.078C299.87 128.078 300.291 127.642 300.291 127.105C300.291 126.569 299.87 126.133 299.35 126.133C298.83 126.133 298.408 126.569 298.408 127.105C298.408 127.642 298.83 128.078 299.35 128.078Z" fill="#372420"/>
<path d="M302.14 126.728C302.14 126.728 304.283 130.099 303.803 130.701C303.324 131.302 302.251 131.516 301.091 131.016L301.947 127.088C301.947 127.088 301.976 126.793 302.14 126.728Z" fill="#CE5632"/>
<path d="M307.772 124.429C307.879 124.244 307.784 123.979 307.694 123.835C307.45 123.446 306.918 123.425 306.36 123.403C305.772 123.38 305.135 123.355 304.921 123.754C304.831 123.922 304.812 124.17 304.921 124.348C305.055 124.568 305.314 124.569 306.438 124.591C307.411 124.61 307.664 124.618 307.772 124.429Z" fill="#372420"/>
<path d="M301.024 124.311C301.131 124.126 301.036 123.861 300.946 123.717C300.702 123.328 300.17 123.307 299.612 123.285C299.024 123.262 298.387 123.237 298.173 123.636C298.083 123.804 298.064 124.052 298.173 124.23C298.307 124.45 298.566 124.451 299.69 124.474C300.663 124.493 300.916 124.501 301.024 124.311Z" fill="#372420"/>
<mask id="mask0_2_211" style="mask-type:luminance" maskUnits="userSpaceOnUse" x="297" y="115" width="19" height="32">
<path d="M301.167 115.893C301.167 115.893 297.19 119.997 297.504 126.37C297.818 132.743 296.876 138.036 303.783 137.928C303.783 137.928 304.515 142.14 300.33 144.301C300.33 144.301 305.426 150.026 315.053 144.301C315.053 144.301 310.899 139.764 312.678 133.607C312.678 133.607 318.642 127.126 313.829 119.781C309.015 112.436 301.167 115.893 301.167 115.893Z" fill="white"/>
</mask>
<g mask="url(#mask0_2_211)">
<path d="M303.783 137.928C303.783 137.928 306.818 137.352 309.05 135.407C309.05 135.407 308.073 141.096 302.004 142.32L303.783 137.928Z" fill="#CE5632"/>
</g>
<path d="M302.914 135.74C304.878 135.487 305.683 133.955 305.914 133.394H299.898C300.102 134.04 300.894 136.001 302.914 135.74Z" fill="white"/>
<path d="M297.264 125.421C297.264 125.421 297.753 116.627 303.74 116.26C309.726 115.894 312.256 122.846 312.378 127.121C312.378 127.121 313.91 126.134 314.647 127.224C315.41 128.353 315.34 130.156 312.599 131.54C312.599 131.54 310.745 137.525 313.085 142.985C315.351 148.27 321.693 153.001 328.664 155.104C342.836 159.379 340.149 142.278 336.361 138.491C332.574 134.705 327.32 125.177 325.732 118.703C324.143 112.229 319.501 109.42 315.469 110.763C315.469 110.763 307.405 103.19 299.341 107.587C291.278 111.985 290.056 120.902 297.264 125.421Z" fill="#32281F"/>
<path d="M386.106 113.237C386.106 113.237 381.276 117.433 381.599 123.98C381.921 130.526 381.699 135.982 388.793 135.871C388.793 135.871 389.545 140.199 385.246 142.418C385.246 142.418 389.332 163.558 400.294 142.34C400.294 142.34 396.102 137.758 397.93 131.433C397.93 131.433 404.057 124.776 399.112 117.231C394.168 109.687 386.106 113.237 386.106 113.237Z" fill="#ED7447"/>
<path d="M391.338 125.86C391.872 125.86 392.305 125.413 392.305 124.862C392.305 124.31 391.872 123.863 391.338 123.863C390.804 123.863 390.37 124.31 390.37 124.862C390.37 125.413 390.804 125.86 391.338 125.86Z" fill="#1E1E1E"/>
<path d="M384.462 125.753C384.997 125.753 385.43 125.306 385.43 124.755C385.43 124.203 384.997 123.756 384.462 123.756C383.928 123.756 383.495 124.203 383.495 124.755C383.495 125.306 383.928 125.753 384.462 125.753Z" fill="#1E1E1E"/>
<path d="M387.552 124.367C387.552 124.367 389.753 127.83 389.261 128.448C388.768 129.066 387.666 129.286 386.474 128.772L387.354 124.737C387.354 124.737 387.383 124.433 387.552 124.367Z" fill="#CE5632"/>
<path d="M392.891 122.006C393 121.815 392.903 121.543 392.81 121.395C392.56 120.996 392.014 120.974 391.44 120.952C390.836 120.928 390.182 120.902 389.962 121.312C389.87 121.484 389.85 121.739 389.962 121.922C390.099 122.148 390.366 122.149 391.52 122.172C392.52 122.192 392.779 122.2 392.891 122.006Z" fill="#1E1E1E"/>
<path d="M385.959 121.885C386.068 121.694 385.971 121.422 385.879 121.274C385.629 120.875 385.082 120.853 384.508 120.831C383.905 120.807 383.25 120.781 383.03 121.191C382.938 121.363 382.918 121.618 383.03 121.802C383.168 122.027 383.434 122.028 384.589 122.051C385.588 122.071 385.848 122.079 385.959 121.885Z" fill="#1E1E1E"/>
<mask id="mask1_2_211" style="mask-type:luminance" maskUnits="userSpaceOnUse" x="382" y="112" width="20" height="34">
<path d="M386.106 113.237C386.106 113.237 382.021 117.453 382.343 123.999C382.666 130.546 381.699 135.982 388.793 135.871C388.793 135.871 389.545 140.199 385.246 142.418C385.246 142.418 390.481 148.299 400.37 142.418C400.37 142.418 396.102 137.758 397.93 131.433C397.93 131.433 404.057 124.776 399.112 117.231C394.168 109.687 386.106 113.237 386.106 113.237Z" fill="white"/>
</mask>
<g mask="url(#mask1_2_211)">
<path d="M388.793 135.871C388.793 135.871 391.91 135.28 394.203 133.283C394.203 133.283 393.2 139.126 386.966 140.384L388.793 135.871Z" fill="#CE5632"/>
</g>
<path d="M387.901 133.625C389.918 133.364 390.744 131.791 390.982 131.214H384.802C385.012 131.878 385.825 133.892 387.901 133.625Z" fill="white"/>
<path d="M382.888 117.854C380.919 107.19 391.913 105.386 399.626 114.409C407.339 123.432 413.247 111.647 422.612 112.402C431.947 113.156 442.65 119.62 437.727 136.518C434.769 146.673 425.185 150.906 418.612 152.334C410.91 153.449 405.928 149.469 404.173 148.299C394.275 141.089 395.328 127.267 395.328 127.267C395.328 127.267 397.962 127.177 398.189 125.134C398.335 123.819 396.554 123.863 396.554 123.863C396.554 121.676 396.344 115.339 389.671 115.448C382.997 115.557 382.063 120.515 381.844 126.859C381.827 127.355 381.852 127.828 381.914 128.279C382.08 130.124 382.639 133.25 384.508 134.455C387.232 136.21 388.866 135.847 388.866 135.847C388.866 135.847 389.456 141.354 385.355 140.931C381.522 140.535 379.604 138.086 379.604 138.086L379.604 138.091C371.444 126.856 382.888 117.854 382.888 117.854Z" fill="#32281F"/>
<path d="M213.497 113.268C213.497 113.268 218.509 117.622 218.174 124.415C217.839 131.208 218.071 136.87 210.709 136.755C210.709 136.755 209.928 141.245 214.39 143.548C214.39 143.548 214.899 150.292 198.775 143.467C198.775 143.467 203.124 138.712 201.228 132.149C201.228 132.149 194.87 125.242 200.001 117.413C205.132 109.584 213.497 113.268 213.497 113.268Z" fill="#ED7447"/>
<path d="M208.647 126.367C209.202 126.367 209.651 125.903 209.651 125.33C209.651 124.758 209.202 124.294 208.647 124.294C208.093 124.294 207.644 124.758 207.644 125.33C207.644 125.903 208.093 126.367 208.647 126.367Z" fill="black"/>
<path d="M215.434 126.255C215.989 126.255 216.438 125.792 216.438 125.219C216.438 124.647 215.989 124.183 215.434 124.183C214.88 124.183 214.43 124.647 214.43 125.219C214.43 125.792 214.88 126.255 215.434 126.255Z" fill="black"/>
<path d="M212.46 124.817C212.46 124.817 210.176 128.41 210.687 129.051C211.198 129.693 212.341 129.921 213.578 129.387L212.666 125.201C212.666 125.201 212.635 124.886 212.46 124.817Z" fill="#CE5632"/>
<path d="M206.457 122.367C206.343 122.169 206.444 121.887 206.54 121.733C206.8 121.319 207.367 121.296 207.962 121.273C208.588 121.248 209.268 121.222 209.496 121.647C209.592 121.826 209.612 122.09 209.496 122.28C209.353 122.514 209.077 122.516 207.879 122.539C206.842 122.56 206.572 122.568 206.457 122.367Z" fill="black"/>
<path d="M213.649 122.241C213.536 122.044 213.637 121.762 213.733 121.608C213.992 121.193 214.56 121.171 215.155 121.148C215.781 121.123 216.46 121.096 216.689 121.522C216.784 121.7 216.805 121.965 216.689 122.155C216.546 122.389 216.27 122.39 215.071 122.414C214.035 122.434 213.765 122.443 213.649 122.241Z" fill="black"/>
<mask id="mask2_2_211" style="mask-type:luminance" maskUnits="userSpaceOnUse" x="198" y="112" width="20" height="35">
<path d="M213.497 113.268C213.497 113.268 217.736 117.643 217.401 124.436C217.067 131.228 218.071 136.87 210.709 136.755C210.709 136.755 209.928 141.245 214.39 143.547C214.39 143.547 208.958 149.65 198.696 143.548C198.696 143.548 203.124 138.712 201.228 132.149C201.228 132.149 194.87 125.241 200.001 117.412C205.132 109.584 213.497 113.268 213.497 113.268Z" fill="white"/>
</mask>
<g mask="url(#mask2_2_211)">
<path d="M210.709 136.755C210.709 136.755 207.474 136.141 205.095 134.068C205.095 134.068 206.136 140.132 212.605 141.437L210.709 136.755Z" fill="#CE5632"/>
</g>
<path d="M211.635 134.423C209.542 134.153 208.684 132.52 208.437 131.922H214.85C214.632 132.611 213.789 134.701 211.635 134.423Z" fill="white"/>
<path d="M202.658 111.353C202.658 111.353 198.12 109.876 199.809 104.494C199.959 104.016 200.149 103.607 200.369 103.258C202.479 100.867 206.365 101.886 207.167 104.179C208.297 107.413 206.775 109.771 206.775 109.771C206.775 109.771 217.752 109.56 221.34 122.539C224.885 135.359 217.699 139.956 210.81 139.05C210.604 138.2 210.598 137.205 210.708 136.75C211.453 136.806 215.816 136.852 217.224 132.247C219.023 126.364 218.018 116.786 213.919 114.321C207.87 110.684 203.429 119.076 203.429 123.93C203.429 123.93 201.199 122.611 200.508 124.197C199.787 125.852 201.026 127.777 203.292 128.765C203.292 128.765 202.506 135.52 201.45 137.841C201.45 137.841 190.626 136.89 188.832 131.614C187.037 126.338 193.792 114.519 202.658 111.353Z" fill="#32281F"/>
<path d="M381.618 268.233L371.794 269.022L375.886 277.177C375.886 277.177 366.633 283.665 365.493 283.84C364.353 284.016 360.494 283.402 361.196 286.296H388.149C388.149 286.296 387.155 279.719 384.699 277.264L381.618 268.233Z" fill="#ED7447"/>
<path d="M361.41 284.717H365.522V283.834C365.712 283.793 366.082 283.612 366.575 283.334V284.717H381.846C381.857 283.702 382.038 280.672 383.691 278.229H376.543H374.37C374.478 276.431 375.64 276.3 375.64 276.3H385.452L384.969 277.264C387.424 279.719 388.149 286.295 388.149 286.295H361.196C361.021 285.573 361.13 285.069 361.41 284.717Z" fill="#1D1B26"/>
<path d="M327.561 267.806L317.736 268.595L314.331 276.749C314.331 276.749 305.078 283.238 303.938 283.413C302.798 283.588 298.939 282.975 299.641 285.868H326.594C326.594 285.868 325.6 279.292 323.144 276.837L327.561 267.806Z" fill="#ED7447"/>
<path d="M299.855 284.29H303.967V283.407C304.157 283.366 304.527 283.185 305.02 282.906V284.29H320.291C320.303 283.275 320.483 280.245 322.136 277.801H314.988H312.815C312.923 276.004 314.085 275.872 314.085 275.872H323.897L323.414 276.837C325.869 279.292 326.594 285.868 326.594 285.868H299.641C299.466 285.146 299.575 284.642 299.855 284.29Z" fill="#1D1B26"/>
<path d="M308.218 265.987C307.35 264.067 304.675 260.381 303.08 258.254C303.08 258.254 300.834 252.944 297.755 246.366L288.494 252.064C293.321 258.105 296.463 262.315 296.463 262.315L297.852 265.155C297.852 265.155 292.955 273.984 289.816 276.528C289.816 276.528 287.587 279.769 290.81 280.35C294.033 280.93 309.483 268.786 308.218 265.987Z" fill="#ED7447"/>
<path d="M305.895 262.159C305.716 263.409 305.124 265.902 303.186 267.755C300.496 270.326 295.299 276.157 292.419 277.036C291.091 277.441 290.33 277.026 289.896 276.462C289.869 276.484 289.842 276.507 289.816 276.528C289.816 276.528 287.588 279.769 290.81 280.35C293.238 280.787 302.604 274.004 306.536 269.433L307.885 272.081L310.618 270.689L308.165 265.874C307.711 264.91 306.845 263.546 305.895 262.159Z" fill="#32281F"/>
<path d="M262.844 280.442C263.022 278.342 262.483 273.821 262.127 271.187C262.127 271.187 262.753 265.455 263.27 258.211L252.405 258.676C253.677 266.302 254.369 271.509 254.369 271.509L254.198 274.666C254.198 274.666 245.618 279.991 241.638 280.683C241.638 280.683 238.112 282.428 240.643 284.505C243.174 286.582 262.585 283.502 262.844 280.442Z" fill="#ED7447"/>
<path d="M262.681 275.968C261.916 276.971 260.184 278.86 257.588 279.534C253.986 280.47 246.607 283.03 243.664 282.395C242.306 282.102 241.844 281.369 241.739 280.664C241.705 280.67 241.671 280.677 241.638 280.683C241.638 280.683 238.112 282.428 240.643 284.505C242.55 286.07 254.035 284.708 259.696 282.632L259.584 285.601L262.649 285.717L262.853 280.317C262.926 279.254 262.835 277.641 262.681 275.968Z" fill="#32281F"/>
<path d="M183.932 281.243C183.754 279.144 187.021 267.344 189.445 259.013L198.602 259.477C195.487 268.053 192.975 275.657 192.975 275.657C192.975 275.657 201.158 280.792 205.139 281.485C205.139 281.485 208.665 283.23 206.133 285.307C203.602 287.384 184.191 284.304 183.932 281.243Z" fill="#ED7447"/>
<path d="M184.686 276.648C185.452 277.652 186.593 279.662 189.188 280.336C192.79 281.272 200.17 283.831 203.113 283.196C204.47 282.903 204.932 282.17 205.037 281.466C205.071 281.472 205.105 281.479 205.139 281.485C205.139 281.485 208.665 283.23 206.133 285.307C204.227 286.871 192.742 285.51 187.08 283.434L187.192 286.403L184.127 286.519L183.923 281.119C183.85 280.056 183.925 278.353 184.686 276.648Z" fill="#32281F"/>
<path d="M211.936 280.976C211.758 278.877 215.025 267.077 217.449 258.746L226.606 259.21C223.49 267.786 220.978 275.39 220.978 275.39C220.978 275.39 229.162 280.525 233.143 281.218C233.143 281.218 236.668 282.963 234.137 285.039C231.606 287.116 212.195 284.037 211.936 280.976Z" fill="#ED7447"/>
<path d="M212.69 276.381C213.456 277.385 214.596 279.395 217.192 280.069C220.794 281.004 228.174 283.564 231.117 282.929C232.474 282.636 232.936 281.903 233.041 281.199C233.075 281.205 233.109 281.212 233.143 281.218C233.143 281.218 236.668 282.963 234.137 285.039C232.23 286.604 220.745 285.242 215.084 283.167L215.196 286.136L212.131 286.251L211.927 280.852C211.854 279.789 211.929 278.086 212.69 276.381Z" fill="#32281F"/>
<path d="M451.035 215.003C449.946 215.598 448.017 214.427 446.891 213.227C444.929 211.137 445.534 209.1 444.523 205.73C443.086 200.942 440.742 201.313 439.392 197.246C437.712 192.187 441.007 190.612 439.984 185.409C438.847 179.623 434.428 179.815 431.696 173.177C429.173 167.047 429.722 159.065 432.683 157.788C434.921 156.822 438.832 159.563 440.773 162.72C443.512 167.174 440.724 169.847 443.141 174.755C445.773 180.097 450.413 179.642 451.035 183.83C451.617 187.747 447.745 189.389 448.667 193.498C449.355 196.563 451.657 196.309 452.614 199.811C453.322 202.406 452.135 202.83 451.824 208.689C451.611 212.699 452.064 214.44 451.035 215.003Z" fill="#3E9D8B"/>
<path d="M466.427 150.488C464.041 149.613 461.206 152.149 459.915 153.842C459.411 154.503 457.942 156.609 457.744 163.707C457.565 170.149 458.716 170.524 458.139 174.36C457.418 179.153 455.542 179.089 453.995 184.62C452.587 189.652 452.049 197.178 455.179 198.825C455.988 199.25 457.205 199.369 458.139 198.825C461.006 197.155 457.62 191.344 460.112 185.014C462.377 179.263 466.803 179.918 467.611 175.15C468.485 169.994 463.565 167.717 465.046 162.917C466.099 159.502 469.104 158.992 469.19 155.618C469.241 153.619 468.255 151.159 466.427 150.488Z" fill="#3E9D8B"/>
<path d="M468.006 214.805C465.686 215.739 462.525 214.505 461.099 212.438C458.637 208.868 461.532 203.086 462.875 200.403C465.104 195.951 466.515 196.34 467.216 193.301C468.299 188.609 465.202 186.536 466.625 182.252C467.589 179.347 469.121 179.977 470.769 176.728C473.567 171.21 470.338 167.048 473.137 164.299C474.754 162.709 477.693 162.272 479.451 163.312C483.531 165.725 480.989 175.928 480.833 176.531C479.426 181.971 477.429 181.879 477.083 186.198C476.685 191.177 479.168 193.434 477.478 196.26C476.044 198.658 473.846 197.718 472.347 200.206C470.706 202.931 472.846 204.885 471.558 209.478C471.119 211.045 470.327 213.871 468.006 214.805Z" fill="#3E9D8B"/>
<path d="M436.432 215.003C434.438 213.415 435.857 211.008 434.261 207.9C432.394 204.265 429.291 205.297 427.157 201.784C425.047 198.31 427.592 196.493 425.776 192.511C423.635 187.817 419.125 188.212 418.08 184.028C417.316 180.972 418.872 177.362 420.448 177.123C422.219 176.854 422.597 181.06 427.355 184.62C430.464 186.946 432.279 186.627 433.669 188.96C434.998 191.189 433.846 192.329 434.459 195.471C435.592 201.278 440.336 201.519 441.957 207.703C442.084 208.184 443.475 213.721 440.971 215.397C439.727 216.229 437.685 216.001 436.432 215.003Z" fill="#3E9D8B"/>
<path d="M452.835 226.168C452.724 226.168 452.628 226.085 452.615 225.972C451.101 213.557 446.189 197.052 442.336 185.393C438.159 172.754 434.29 162.927 434.252 162.83C434.206 162.715 434.262 162.586 434.377 162.541C434.492 162.496 434.621 162.552 434.666 162.666C434.704 162.764 438.577 172.6 442.758 185.251C446.618 196.93 451.538 213.467 453.057 225.918C453.072 226.04 452.985 226.151 452.863 226.166C452.853 226.167 452.844 226.168 452.835 226.168Z" fill="#176657"/>
<path d="M455.968 226.168C455.852 226.168 455.755 226.079 455.746 225.961C455.04 216.218 455.125 206.333 455.999 196.582C456.699 188.781 457.901 181.047 459.574 173.595C462.424 160.904 465.697 153.328 465.73 153.253C465.779 153.14 465.91 153.088 466.023 153.137C466.136 153.187 466.187 153.318 466.138 153.431C466.105 153.505 462.846 161.052 460.006 173.706C457.385 185.384 454.596 203.923 456.191 225.929C456.199 226.052 456.107 226.158 455.985 226.167C455.979 226.168 455.974 226.168 455.968 226.168Z" fill="#176657"/>
<path d="M460.714 226.168C460.683 226.168 460.651 226.161 460.621 226.148C460.509 226.096 460.46 225.964 460.512 225.852C467.145 211.441 477.16 166.374 477.261 165.92C477.287 165.8 477.406 165.725 477.526 165.751C477.646 165.778 477.722 165.896 477.695 166.017C477.67 166.13 475.145 177.515 471.832 190.537C468.772 202.561 464.394 218.481 460.916 226.038C460.879 226.12 460.798 226.168 460.714 226.168Z" fill="#176657"/>
<path d="M450.246 226.168C450.183 226.168 450.121 226.142 450.077 226.09C442.446 217.211 434.979 205.441 430.059 197.131C424.73 188.129 421.156 181.133 421.121 181.064C421.065 180.954 421.109 180.82 421.218 180.764C421.328 180.708 421.462 180.752 421.518 180.861C421.553 180.931 425.121 187.916 430.444 196.907C435.355 205.201 442.806 216.946 450.414 225.8C450.495 225.893 450.484 226.034 450.391 226.114C450.349 226.15 450.297 226.168 450.246 226.168Z" fill="#176657"/>
<path d="M442.661 286.516C442.631 286.516 442.6 286.513 442.569 286.508C442.269 286.458 442.066 286.173 442.116 285.873L449.942 239.115C449.993 238.814 450.278 238.612 450.578 238.662C450.879 238.712 451.082 238.997 451.031 239.297L443.205 286.055C443.16 286.325 442.926 286.516 442.661 286.516Z" fill="#2B3058"/>
<path d="M463.551 286.516C463.287 286.516 463.053 286.325 463.008 286.055L455.181 239.297C455.131 238.997 455.334 238.712 455.634 238.662C455.935 238.612 456.22 238.815 456.27 239.115L464.096 285.873C464.147 286.173 463.944 286.458 463.643 286.508C463.612 286.513 463.582 286.516 463.551 286.516Z" fill="#2B3058"/>
<path d="M452.968 286.516C452.664 286.516 452.416 286.269 452.416 285.964V239.779C452.416 239.474 452.664 239.227 452.968 239.227C453.273 239.227 453.52 239.474 453.52 239.779V285.964C453.52 286.269 453.273 286.516 452.968 286.516Z" fill="#2B3058"/>
<path d="M438.652 230.427C438.652 236.435 443.523 241.306 449.532 241.306H456.404C462.414 241.306 467.285 236.435 467.285 230.427V219.772H438.652V230.427Z" fill="#C7470A"/>
<path d="M145.414 214.855C144.325 215.45 142.396 214.279 141.27 213.079C139.309 210.989 139.914 208.952 138.902 205.582C137.465 200.793 135.122 201.165 133.771 197.098C132.091 192.039 135.386 190.464 134.363 185.261C133.226 179.475 128.808 179.667 126.075 173.029C123.553 166.899 124.102 158.917 127.062 157.64C129.3 156.674 133.212 159.415 135.153 162.572C137.892 167.026 135.104 169.699 137.521 174.607C140.152 179.949 144.792 179.494 145.414 183.682C145.996 187.599 142.124 189.241 143.046 193.35C143.734 196.415 146.037 196.161 146.993 199.663C147.702 202.258 146.515 202.682 146.204 208.541C145.991 212.551 146.443 214.292 145.414 214.855Z" fill="#3E9D8B"/>
<path d="M160.807 150.34C158.421 149.465 155.585 152.001 154.294 153.694C153.791 154.355 152.322 156.461 152.124 163.559C151.944 170.001 153.095 170.376 152.518 174.212C151.798 179.005 149.922 178.941 148.374 184.472C146.966 189.504 146.428 197.03 149.558 198.677C150.367 199.102 151.584 199.221 152.518 198.677C155.385 197.007 151.999 191.196 154.492 184.866C156.756 179.115 161.183 179.77 161.991 175.001C162.864 169.846 157.945 167.569 159.425 162.769C160.479 159.354 163.483 158.844 163.569 155.47C163.62 153.471 162.634 151.011 160.807 150.34Z" fill="#3E9D8B"/>
<path d="M162.385 214.657C160.066 215.591 156.905 214.357 155.478 212.29C153.016 208.72 155.911 202.938 157.254 200.255C159.483 195.803 160.894 196.192 161.596 193.152C162.679 188.461 159.581 186.388 161.004 182.104C161.969 179.199 163.5 179.829 165.148 176.58C167.946 171.062 164.717 166.9 167.516 164.151C169.133 162.561 172.072 162.124 173.831 163.164C177.911 165.577 175.368 175.78 175.212 176.383C173.805 181.823 171.808 181.731 171.463 186.05C171.065 191.029 173.548 193.286 171.857 196.112C170.423 198.51 168.225 197.57 166.727 200.058C165.085 202.783 167.225 204.737 165.937 209.33C165.498 210.897 164.706 213.723 162.385 214.657Z" fill="#3E9D8B"/>
<path d="M130.811 214.855C128.818 213.267 130.237 210.86 128.641 207.752C126.774 204.117 123.67 205.149 121.536 201.636C119.426 198.162 121.971 196.345 120.155 192.363C118.014 187.669 113.504 188.064 112.459 183.88C111.696 180.824 113.251 177.214 114.827 176.974C116.599 176.706 116.976 180.912 121.734 184.472C124.843 186.798 126.658 186.479 128.049 188.812C129.377 191.041 128.225 192.181 128.838 195.323C129.971 201.13 134.716 201.371 136.337 207.555C136.463 208.036 137.854 213.573 135.35 215.249C134.107 216.081 132.065 215.853 130.811 214.855Z" fill="#3E9D8B"/>
<path d="M147.215 226.02C147.104 226.02 147.008 225.937 146.994 225.824C145.48 213.409 140.569 196.904 136.715 185.245C132.538 172.606 128.669 162.779 128.631 162.682C128.586 162.567 128.642 162.438 128.756 162.393C128.871 162.348 129 162.404 129.045 162.518C129.084 162.616 132.956 172.452 137.137 185.103C140.997 196.782 145.918 213.319 147.436 225.77C147.451 225.892 147.364 226.003 147.242 226.018C147.233 226.019 147.224 226.02 147.215 226.02Z" fill="#176657"/>
<path d="M150.347 226.02C150.232 226.02 150.134 225.931 150.126 225.813C149.419 216.07 149.505 206.185 150.379 196.434C151.078 188.633 152.281 180.899 153.954 173.448C156.803 160.756 160.076 153.18 160.109 153.105C160.158 152.992 160.289 152.94 160.402 152.99C160.515 153.039 160.566 153.17 160.517 153.283C160.485 153.357 157.225 160.904 154.385 173.558C151.764 185.236 148.975 203.775 150.57 225.781C150.579 225.904 150.486 226.01 150.364 226.019C150.358 226.02 150.353 226.02 150.347 226.02Z" fill="#176657"/>
<path d="M155.093 226.02C155.062 226.02 155.031 226.013 155.001 226C154.889 225.948 154.84 225.816 154.891 225.704C161.524 211.293 171.54 166.226 171.64 165.772C171.667 165.652 171.786 165.577 171.905 165.603C172.025 165.63 172.101 165.748 172.075 165.869C172.05 165.982 169.525 177.367 166.211 190.389C163.151 202.413 158.774 218.333 155.296 225.89C155.258 225.972 155.178 226.02 155.093 226.02Z" fill="#176657"/>
<path d="M144.625 226.02C144.562 226.02 144.5 225.994 144.456 225.942C136.826 217.063 129.359 205.293 124.438 196.983C119.109 187.981 115.536 180.985 115.5 180.916C115.444 180.806 115.488 180.672 115.598 180.616C115.707 180.56 115.841 180.604 115.897 180.713C115.932 180.783 119.501 187.768 124.823 196.759C129.734 205.053 137.185 216.799 144.794 225.652C144.874 225.745 144.863 225.886 144.77 225.966C144.728 226.002 144.676 226.02 144.625 226.02Z" fill="#176657"/>
<path d="M137.04 286.368C137.01 286.368 136.979 286.365 136.949 286.36C136.648 286.31 136.445 286.025 136.495 285.725L144.322 238.967C144.372 238.667 144.657 238.464 144.957 238.514C145.258 238.564 145.461 238.849 145.411 239.149L137.584 285.907C137.539 286.177 137.305 286.368 137.04 286.368Z" fill="#2B3058"/>
<path d="M157.931 286.368C157.666 286.368 157.432 286.177 157.387 285.907L149.561 239.149C149.51 238.849 149.713 238.564 150.014 238.514C150.314 238.464 150.599 238.667 150.649 238.967L158.476 285.725C158.526 286.025 158.323 286.31 158.023 286.36C157.992 286.365 157.961 286.368 157.931 286.368Z" fill="#2B3058"/>
<path d="M147.348 286.368C147.043 286.368 146.796 286.121 146.796 285.816V239.631C146.796 239.326 147.043 239.079 147.348 239.079C147.652 239.079 147.9 239.326 147.9 239.631V285.816C147.9 286.121 147.653 286.368 147.348 286.368Z" fill="#2B3058"/>
<path d="M133.031 230.279C133.031 236.287 137.902 241.158 143.912 241.158H150.784C156.793 241.158 161.664 236.287 161.664 230.279V219.624H133.031V230.279Z" fill="#C7470A"/>
<path d="M189.119 191.236C189.119 191.236 178.047 217.764 192.937 224.062H203.054L182.247 273.3L200.19 272.537L214.889 247.917L209.544 273.3L226.915 272.537C226.915 272.537 245.622 221.771 246.576 217.764C247.531 213.756 245.813 208.221 239.513 204.977C233.214 201.732 220.043 195.244 220.043 195.244L220.234 192.572L189.119 191.236Z" fill="#32281F"/>
<path d="M201.08 139.293C201.08 139.293 192.846 138.753 189.41 142.379C185.974 146.005 175.856 158.41 172.993 164.708C170.13 171.006 168.603 178.831 172.993 181.503C177.384 184.174 182.079 187.801 186.317 188.564C190.555 189.327 212.698 188.564 212.698 188.564L210.98 184.747L222.433 184.365V171.006C222.433 171.006 224.915 172.724 224.915 174.441C224.915 176.159 224.915 187.228 224.915 187.228H234.65C234.65 187.228 241.141 177.877 239.804 174.823C238.468 171.769 224.342 144.287 221.67 141.806C218.998 139.325 210.975 139.631 210.975 139.631C210.975 139.631 213.646 145.573 209.453 145.814C205.115 146.064 200.317 143.491 201.08 139.293Z" fill="#E8D2CA"/>
<path d="M209.194 184.418C209.174 184.418 209.154 184.416 209.135 184.411C207.055 183.877 202.873 182.059 198.965 179.988C196.263 178.556 191.541 175.861 190.287 173.902C188.2 170.642 192.812 161.945 193.01 161.576C193.071 161.461 193.215 161.417 193.33 161.479C193.445 161.541 193.488 161.684 193.427 161.799C193.38 161.887 188.747 170.619 190.686 173.647C192.666 176.74 205.097 182.887 209.252 183.952C209.379 183.985 209.455 184.114 209.423 184.24C209.395 184.347 209.299 184.418 209.194 184.418Z" fill="white"/>
<path d="M337.997 152.774C330.491 139.13 312.991 142.759 312.991 142.76C312.872 144.081 312.064 146.239 308.44 146.578C302.758 147.109 301.631 143.446 301.631 143.446C301.631 143.446 297.75 143.333 293.55 146.196C289.351 149.059 281.143 164.098 281.143 164.098L266.635 151.158C266.635 151.158 259.763 155.738 258.045 158.601C258.045 158.601 279.616 188.373 283.624 189.709C287.633 191.045 292.596 185.892 292.596 185.892L292.405 188.903H326.574C326.574 188.903 333.637 192.763 336.31 191.236C338.982 189.709 343.754 177.686 343.754 174.251C343.755 171.143 341.411 159.134 337.997 152.774Z" fill="#792A26"/>
<path d="M332.304 191.236C332.304 191.236 334.152 199.251 332.304 206.122C330.456 212.992 326.384 216.555 317.984 216.809H289.224L302.459 254.215L287.951 262.613L275.48 239.711L263.008 270.755L247.482 269.738L264.79 210.702C264.79 210.702 257.723 194.675 267.335 188.903L332.304 191.236Z" fill="#FFC971"/>
<path d="M396.629 137.298C396.629 137.298 392.118 141.654 385.246 142.418C385.246 142.418 382.102 146.768 380.766 154.784C379.43 162.8 374.085 177.794 359.768 180.084V188.903C359.768 188.903 376.185 192.572 384.011 182.457L383.82 191.593C383.82 191.593 411.499 191.236 414.744 192.381C417.989 193.526 419.707 187.801 419.707 185.51C419.707 183.22 420.28 165.281 416.844 154.975C413.408 144.669 407.491 138.944 404.245 138.18C401 137.417 396.629 137.298 396.629 137.298Z" fill="#C7470A"/>
<path d="M414.744 192.381C414.744 192.381 420.153 204.086 417.862 209.43C415.572 214.774 412.008 218.845 405.136 218.591C398.264 218.336 378.666 217.096 378.666 217.096C378.666 217.096 375.039 216.237 371.221 219.481L386.683 270.374L371.221 271.137L356.141 235.322L328.989 269.29H310.663L345.833 210.893C345.833 210.893 342.779 198.87 352.514 195.625C362.25 192.381 383.82 191.593 383.82 191.593C383.82 191.593 408.063 191.427 414.744 192.381Z" fill="#32281F"/>
<path d="M401.976 188.903H188.943V192.531H222.276V285.797H224.49V192.531H368.599V285.845H370.813V192.531H401.976V188.903Z" fill="#EE7447"/>
<path d="M383.151 181.308C382.457 180.614 381.639 180.398 380.871 180.411C380.879 179.816 380.66 179.433 380.477 179.217C380.311 179.042 380.12 179.002 380.014 178.995H379.932H375.558H373.313H368.939H368.857C368.751 179.002 368.56 179.042 368.394 179.217C368.166 179.485 367.884 180.011 368.05 180.881C368.31 182.247 371.823 188.881 371.823 188.881H373.313H375.558H377.048C377.048 188.881 377.223 188.551 377.498 188.023C380.542 187.93 382.659 186.271 383.456 184.53C384.021 183.296 383.904 182.061 383.151 181.308ZM382.49 184.088C381.886 185.407 380.331 186.665 378.067 186.918C378.95 185.193 380.156 182.765 380.632 181.492C381.238 181.435 381.886 181.546 382.4 182.059C382.831 182.491 382.865 183.268 382.49 184.088Z" fill="#792A26"/>
<path d="M370.92 177.533C370.782 177.533 370.649 177.454 370.587 177.319C370.541 177.222 369.493 174.91 370.876 173.587C371.023 173.447 371.256 173.452 371.397 173.599C371.537 173.746 371.532 173.979 371.385 174.119C370.383 175.078 371.246 176.991 371.255 177.011C371.34 177.195 371.259 177.413 371.075 177.499C371.025 177.522 370.972 177.533 370.92 177.533Z" fill="#792A26"/>
<path d="M378.005 177.533C377.866 177.533 377.733 177.454 377.671 177.319C377.626 177.222 376.578 174.91 377.961 173.587C378.108 173.447 378.341 173.452 378.481 173.599C378.622 173.746 378.617 173.979 378.47 174.119C377.467 175.078 378.33 176.991 378.339 177.011C378.424 177.195 378.344 177.413 378.159 177.499C378.109 177.522 378.057 177.533 378.005 177.533Z" fill="#792A26"/>
<path d="M374.496 177.533C374.397 177.533 374.299 177.493 374.226 177.415C374.21 177.398 372.653 175.675 374.483 173.609C375.221 172.776 375.146 172.092 374.954 171.664C374.699 171.1 374.171 170.804 373.959 170.804C373.756 170.804 373.591 170.64 373.591 170.436C373.591 170.233 373.756 170.068 373.959 170.068C374.492 170.068 375.26 170.552 375.625 171.362C375.855 171.874 376.085 172.91 375.034 174.097C373.642 175.669 374.719 176.864 374.765 176.914C374.904 177.063 374.895 177.296 374.746 177.434C374.675 177.5 374.585 177.533 374.496 177.533Z" fill="#792A26"/>
<path d="M258.523 154.555H212.906C211.788 154.555 210.77 155.461 210.632 156.578L206.888 186.884H192.804C192.384 186.884 192.043 187.225 192.043 187.645V189.016C192.043 189.436 192.384 189.777 192.804 189.777H208.258C208.353 189.791 208.451 189.799 208.552 189.799H254.169C255.286 189.799 256.304 188.893 256.442 187.776L260.296 156.578C260.435 155.461 259.64 154.555 258.523 154.555Z" fill="#C7C7C7"/>
<path d="M235.484 174.983C237.431 174.983 239.009 173.405 239.009 171.459C239.009 169.512 237.431 167.935 235.484 167.935C233.537 167.935 231.959 169.512 231.959 171.459C231.959 173.405 233.537 174.983 235.484 174.983Z" fill="#D8D8D8"/>
<path d="M380.878 285.863C380.826 285.863 380.772 285.858 380.719 285.847C380.284 285.76 380.003 285.337 380.091 284.902L383.934 221.179C384.022 220.744 384.446 220.463 384.88 220.551C385.314 220.639 385.596 221.062 385.508 221.496L381.664 285.22C381.588 285.6 381.253 285.863 380.878 285.863Z" fill="#2B3058"/>
<path d="M435.186 286.103C434.87 286.103 434.571 285.915 434.443 285.605L417.848 207.268C417.68 206.858 417.876 206.389 418.287 206.221C418.697 206.053 419.166 206.249 419.334 206.659L435.929 284.996C436.097 285.406 435.9 285.875 435.49 286.043C435.391 286.084 435.288 286.103 435.186 286.103Z" fill="#2B3058"/>
<path d="M435.408 169.088C435.408 169.088 434.714 167.584 431.822 167.584C428.929 167.584 415.971 169.551 411.574 175.45C407.178 181.349 406.252 185.398 405.905 187.827C405.558 190.256 404.054 196.734 398.153 198.354C392.252 199.973 381.492 204.6 378.716 210.152C375.939 215.705 376.054 221.141 376.054 221.141H405.326C405.326 221.141 419.496 221.584 424.879 214.891C425.097 214.579 425.239 214.278 425.33 214.03C425.372 213.868 425.426 213.657 425.491 213.404C426.931 207.805 433.795 181.012 434.83 175.219C435.987 168.741 435.408 169.088 435.408 169.088Z" fill="#2B3058"/>
<path d="M292.596 186.129C292.595 186.129 292.593 186.129 292.592 186.129C292.461 186.126 292.357 186.018 292.36 185.888C292.362 185.759 292.628 172.842 295.228 160.557C295.255 160.429 295.38 160.348 295.508 160.375C295.636 160.402 295.718 160.527 295.691 160.655C293.1 172.896 292.835 185.768 292.833 185.896C292.83 186.026 292.725 186.129 292.596 186.129Z" fill="white"/>
<path d="M325.567 154.555C325.567 154.555 325.325 149.923 327.488 147.187C329.652 144.452 334.997 140.953 335.697 141.716C336.397 142.48 334.87 143.816 334.87 143.816C334.87 143.816 338.306 141.23 339.26 142.162C340.181 143.06 337.868 144.451 337.868 144.451C337.868 144.451 340.112 143.222 340.511 144.028C341.202 145.42 338.9 146.699 336.1 147.845C336.1 147.845 338.161 147.312 338.475 148.438C338.681 149.175 336.1 149.88 334.7 150.728C333.3 151.577 332.585 154.625 332.585 154.625L325.567 154.555Z" fill="#ED7447"/>
<path d="M275.48 239.948C275.389 239.948 275.302 239.895 275.263 239.807C269.954 227.802 264.617 210.942 264.564 210.773C264.525 210.649 264.594 210.516 264.719 210.477C264.843 210.437 264.976 210.506 265.015 210.631C265.069 210.8 270.397 227.635 275.696 239.615C275.749 239.735 275.695 239.874 275.575 239.927C275.544 239.941 275.512 239.948 275.48 239.948Z" fill="white"/>
<path d="M289.224 217.046C289.13 217.046 289.041 216.99 289.004 216.897C288.972 216.816 285.764 208.742 285.005 205.327C284.977 205.2 285.057 205.074 285.185 205.045C285.312 205.017 285.439 205.097 285.467 205.225C286.218 208.602 289.411 216.641 289.444 216.722C289.492 216.843 289.433 216.981 289.311 217.029C289.282 217.041 289.253 217.046 289.224 217.046Z" fill="white"/>
<path d="M345.833 211.13C345.784 211.13 345.734 211.114 345.692 211.083C345.587 211.005 345.565 210.857 345.643 210.752C345.661 210.729 347.408 208.384 349.846 205.822C353.131 202.369 356.04 200.184 358.49 199.328C365.424 196.904 376.078 195.158 380.337 194.521C380.465 194.502 380.586 194.59 380.606 194.72C380.625 194.849 380.536 194.969 380.407 194.988C376.161 195.624 365.543 197.363 358.646 199.774C352.958 201.763 346.092 210.942 346.023 211.034C345.977 211.097 345.905 211.13 345.833 211.13Z" fill="white"/>
<path d="M356.141 235.558C356.095 235.558 356.049 235.545 356.008 235.517C355.9 235.444 355.872 235.297 355.945 235.189C355.997 235.113 361.143 227.526 363.508 224.594C365.902 221.626 370.913 219.36 371.125 219.265C371.244 219.212 371.384 219.266 371.437 219.385C371.491 219.504 371.437 219.644 371.318 219.697C371.267 219.72 366.198 222.012 363.876 224.891C361.523 227.808 356.388 235.378 356.337 235.454C356.291 235.522 356.217 235.558 356.141 235.558Z" fill="white"/>
<path d="M214.889 248.154C214.853 248.154 214.816 248.146 214.782 248.128C214.665 248.069 214.619 247.927 214.678 247.81C214.716 247.736 218.488 240.307 222.026 232.391C227.914 219.216 228.649 214.875 228.227 213.554C226.771 208.985 215.687 207.863 215.575 207.852C215.445 207.84 215.35 207.724 215.362 207.594C215.375 207.464 215.49 207.37 215.621 207.382C215.649 207.384 218.511 207.667 221.52 208.533C225.614 209.711 228.022 211.352 228.678 213.411C229.327 215.446 227.234 221.898 222.457 232.586C218.915 240.512 215.138 247.95 215.1 248.024C215.058 248.107 214.975 248.154 214.889 248.154Z" fill="white"/>
<path d="M380.372 182.138C380.372 182.138 384.881 177.017 386.535 177.533C388.189 178.049 390.353 179.305 392.771 178.995C395.189 178.685 396.716 177.533 396.716 177.533V184.198C396.716 184.198 391.698 186.627 388.544 186.918C385.39 187.209 380.772 186.757 380.408 185.647C380.045 184.537 380.372 182.138 380.372 182.138Z" fill="#ED7447"/>
<path d="M396.716 177.769C396.628 177.769 396.544 177.72 396.503 177.636C396.446 177.519 396.495 177.377 396.612 177.32C396.628 177.312 398.25 176.515 400.159 174.909C401.915 173.432 404.281 170.948 405.582 167.501C408.085 160.868 406.427 152.021 406.41 151.933C406.385 151.804 406.469 151.68 406.597 151.656C406.726 151.631 406.85 151.715 406.874 151.843C406.892 151.933 408.575 160.908 406.025 167.668C404.686 171.216 402.256 173.766 400.453 175.28C398.501 176.921 396.887 177.712 396.819 177.745C396.786 177.762 396.751 177.769 396.716 177.769Z" fill="white"/>
<path d="M401.977 186.087C400.82 186.087 399.794 185.849 399.01 185.585C397.545 185.092 396.615 184.418 396.576 184.389C396.47 184.312 396.448 184.164 396.525 184.059C396.602 183.953 396.75 183.93 396.855 184.007C396.891 184.034 400.498 186.615 404.526 185.177C404.649 185.134 404.785 185.198 404.829 185.321C404.872 185.444 404.808 185.579 404.685 185.623C403.742 185.96 402.824 186.087 401.977 186.087Z" fill="white"/>
<path d="M386.026 168.609C385.895 168.609 385.789 168.504 385.789 168.373C385.789 163.697 387.282 152.681 387.297 152.57C387.315 152.441 387.435 152.351 387.564 152.368C387.693 152.386 387.784 152.505 387.766 152.634C387.751 152.745 386.262 163.729 386.262 168.373C386.262 168.504 386.157 168.609 386.026 168.609Z" fill="white"/>
<path d="M324.317 189.102C324.213 189.102 324.117 189.033 324.089 188.927C324.078 188.889 323.064 185.069 322.574 178.946C322.123 173.299 322.038 164.475 324.196 154.505L324.236 154.318H333.297L333.35 154.482C333.362 154.517 334.485 158.031 335.404 163.505C336.253 168.556 337.098 176.362 336.307 184.865C336.295 184.996 336.179 185.091 336.049 185.079C335.919 185.067 335.824 184.952 335.836 184.822C336.622 176.369 335.782 168.607 334.938 163.584C334.135 158.807 333.18 155.541 332.951 154.791H324.618C322.515 164.622 322.6 173.318 323.045 178.895C323.53 184.978 324.535 188.766 324.545 188.804C324.579 188.93 324.504 189.06 324.378 189.094C324.358 189.099 324.337 189.102 324.317 189.102Z" fill="white"/>
<path d="M332.371 151.022C332.342 151.022 332.312 151.016 332.284 151.002C332.187 150.955 332.146 150.837 332.194 150.739C333.072 148.937 335.902 147.714 336.022 147.663C336.123 147.621 336.238 147.667 336.281 147.767C336.324 147.867 336.277 147.983 336.177 148.026C336.149 148.038 333.361 149.242 332.548 150.912C332.514 150.982 332.444 151.022 332.371 151.022Z" fill="#B73A18"/>
<path d="M332.419 148.093C332.376 148.093 332.334 148.079 332.298 148.051C332.212 147.984 332.197 147.86 332.264 147.774C333.721 145.907 337.749 144.285 337.92 144.217C338.021 144.176 338.136 144.226 338.176 144.327C338.217 144.428 338.167 144.542 338.066 144.583C338.025 144.599 333.966 146.234 332.574 148.017C332.536 148.067 332.477 148.093 332.419 148.093Z" fill="#B73A18"/>
<path d="M331.425 146.067C331.375 146.067 331.326 146.049 331.287 146.012C331.209 145.936 331.207 145.811 331.283 145.733C332.836 144.134 334.741 143.645 334.822 143.624C334.927 143.598 335.034 143.662 335.061 143.768C335.087 143.873 335.023 143.98 334.917 144.007C334.899 144.012 333.038 144.493 331.566 146.008C331.527 146.047 331.476 146.067 331.425 146.067Z" fill="#B73A18"/>
<path d="M257.443 148.627C257.435 148.627 257.427 148.626 257.42 148.625C256.037 148.464 254.146 148.624 254.127 148.626C254.019 148.635 253.923 148.555 253.914 148.447C253.905 148.338 253.985 148.243 254.093 148.233C254.172 148.227 256.043 148.068 257.465 148.234C257.574 148.247 257.651 148.345 257.638 148.453C257.627 148.553 257.541 148.627 257.443 148.627Z" fill="#B73A18"/>
</svg>
