<svg width="48" height="48" viewBox="0 0 48 48" fill="none" xmlns="http://www.w3.org/2000/svg">
<circle cx="24" cy="24" r="24" fill="#051623"/>
<path d="M20.3799 24.0001L22.7899 26.4201L27.6199 21.5801" stroke="url(#paint0_linear_24_197)" stroke-width="1.125" stroke-linecap="round" stroke-linejoin="round"/>
<path d="M22.7499 14.4498C23.4399 13.8598 24.5699 13.8598 25.2699 14.4498L26.8499 15.8098C27.1499 16.0698 27.7099 16.2798 28.1099 16.2798H29.8099C30.8699 16.2798 31.7399 17.1498 31.7399 18.2098V19.9098C31.7399 20.2998 31.9499 20.8698 32.2099 21.1698L33.5699 22.7498C34.1599 23.4398 34.1599 24.5698 33.5699 25.2698L32.2099 26.8498C31.9499 27.1498 31.7399 27.7098 31.7399 28.1098V29.8098C31.7399 30.8698 30.8699 31.7398 29.8099 31.7398H28.1099C27.7199 31.7398 27.1499 31.9498 26.8499 32.2098L25.2699 33.5698C24.5799 34.1598 23.4499 34.1598 22.7499 33.5698L21.1699 32.2098C20.8699 31.9498 20.3099 31.7398 19.9099 31.7398H18.1799C17.1199 31.7398 16.2499 30.8698 16.2499 29.8098V28.0998C16.2499 27.7098 16.0399 27.1498 15.7899 26.8498L14.4399 25.2598C13.8599 24.5698 13.8599 23.4498 14.4399 22.7598L15.7899 21.1698C16.0399 20.8698 16.2499 20.3098 16.2499 19.9198V18.1998C16.2499 17.1398 17.1199 16.2698 18.1799 16.2698H19.9099C20.2999 16.2698 20.8699 16.0598 21.1699 15.7998L22.7499 14.4498Z" stroke="url(#paint1_linear_24_197)" stroke-width="1.125" stroke-linecap="round" stroke-linejoin="round"/>
<defs>
<linearGradient id="paint0_linear_24_197" x1="20.5243" y1="24.0001" x2="27.6199" y2="24.0001" gradientUnits="userSpaceOnUse">
<stop stop-color="#26ACE2"/>
<stop offset="1" stop-color="#9E83BD"/>
</linearGradient>
<linearGradient id="paint1_linear_24_197" x1="14.4039" y1="24.0098" x2="34.0124" y2="24.0098" gradientUnits="userSpaceOnUse">
<stop stop-color="#26ACE2"/>
<stop offset="1" stop-color="#9E83BD"/>
</linearGradient>
</defs>
</svg>
