<svg width="598" height="398" viewBox="0 0 598 398" fill="none" xmlns="http://www.w3.org/2000/svg">
<g clip-path="url(#clip0_20_7116)">
<path d="M470.403 107.576C444.051 82.8824 404.188 76.6585 369.252 82.367C354.619 84.7588 340.106 88.994 325.123 87.6609C303.27 85.7168 284.021 72.3877 264.123 62.6175C237.039 49.3177 205.993 42.1601 177.2 47.9464C144.553 54.5083 117.786 79.294 114.591 112.18C113.145 127.082 127.849 153.333 123.209 167.456C118.501 181.779 84.1328 225.652 84.98 259.023C85.0196 260.58 85.1039 262.16 85.2279 263.757C86.9452 285.804 95.8245 305.304 109.159 319.848C126.127 338.359 150.308 348.841 176.111 346.321L223.908 341.655C262.948 337.844 302.27 339.868 340.841 347.453C409.483 360.95 444.988 342.821 462.077 319.848C477.11 299.642 477.897 275.688 474.458 266.209C467.943 248.246 485.645 233.451 492.494 216.73C498.589 201.849 500.595 183.953 499.109 167.737C497.079 145.599 487.315 123.424 470.403 107.576Z" fill="#F4F4F4"/>
<path d="M441.978 240.636C432.059 223.93 414.951 210.167 397.597 212.869C380.243 215.57 388.006 235.054 403.082 248.912C412.081 257.182 421.379 279.501 427.407 297.524C430.614 307.106 432.896 315.476 433.718 319.876H444.276C444.307 319.92 444.338 319.965 444.367 320.007C444.373 319.965 444.377 319.92 444.383 319.876C445.463 310.026 450.069 263.897 443.845 244.912C443.308 243.27 442.688 241.831 441.978 240.636Z" fill="#6FC183"/>
<path d="M434.711 265.091C433.817 263.447 432.973 261.895 432.084 258.91C431.551 257.122 431.369 255.213 431.177 253.192C430.685 248.032 430.129 242.183 423.116 237.18C418.519 233.901 415.321 230.655 412.751 228.048C410.004 225.259 407.833 223.057 405.148 221.925C400.333 219.895 397.25 217.071 397.219 217.043C396.928 216.773 396.412 216.739 396.068 216.968C395.724 217.197 395.681 217.6 395.972 217.87C396.105 217.993 399.289 220.908 404.373 223.052C406.752 224.055 408.829 226.162 411.458 228.83C414.066 231.477 417.313 234.772 422.015 238.127C428.547 242.787 429.055 248.125 429.547 253.287C429.744 255.359 429.931 257.316 430.492 259.201C431.414 262.294 432.285 263.896 433.208 265.593C434.236 267.484 435.3 269.44 436.517 273.777C438.759 281.761 436.554 293.793 436.532 293.914C436.466 294.263 436.775 294.588 437.222 294.64C437.262 294.644 437.302 294.646 437.341 294.646C437.74 294.646 438.089 294.417 438.148 294.099C438.242 293.597 440.42 281.717 438.114 273.502C436.863 269.048 435.769 267.037 434.711 265.091Z" fill="#265446"/>
<path d="M427.407 297.524C420.063 288.712 411.963 280.394 406.251 278.47C393.072 274.036 377.37 274.541 369.228 284.085C361.085 293.628 374.394 300.572 389.038 301.064C399.423 301.412 419.301 312.311 431.058 319.875H444.276C443.787 319.165 443.136 318.231 442.351 317.12C439.093 312.506 433.511 304.846 427.407 297.524Z" fill="#2E6857"/>
<path d="M427.823 304.913C424.899 302.662 423.24 301.898 421.636 301.158C420.28 300.533 419 299.943 417.008 298.459C415.814 297.57 414.787 296.437 413.699 295.237C410.923 292.175 407.777 288.703 400.91 288.843C396.408 288.934 392.816 288.382 389.93 287.938C386.844 287.463 384.407 287.089 382.151 287.643C378.107 288.636 374.79 288.298 374.757 288.295C374.442 288.261 374.096 288.485 373.985 288.795C373.874 289.104 374.04 289.383 374.355 289.416C374.498 289.432 377.923 289.78 382.194 288.731C384.193 288.24 386.525 288.599 389.477 289.053C392.407 289.503 396.053 290.064 400.658 289.97C407.054 289.841 409.926 293.009 412.704 296.073C413.818 297.303 414.871 298.464 416.13 299.401C418.194 300.939 419.516 301.548 420.914 302.193C422.474 302.912 424.087 303.656 426.935 305.847C432.177 309.882 436.509 318.617 436.553 318.704C436.678 318.959 437.03 319.02 437.34 318.84C437.368 318.824 437.394 318.806 437.419 318.788C437.674 318.598 437.788 318.286 437.674 318.054C437.495 317.689 433.217 309.064 427.823 304.913Z" fill="#265446"/>
<path d="M454.721 217.918C449.421 224.638 445.994 234.218 443.845 244.912C438.691 270.594 440.921 302.71 442.351 317.12C442.452 318.129 442.548 319.049 442.637 319.875H444.276C444.307 319.92 444.338 319.964 444.367 320.007C444.373 319.964 444.377 319.92 444.383 319.875H458.646C458.921 318.386 459.323 316.223 459.825 313.593C460.421 310.482 461.159 306.718 461.992 302.637C465.318 286.373 470.192 265.092 473.791 260.232C479.794 252.122 492.508 255.296 497.1 237.668C501.69 220.04 531.708 205.218 522.879 192.709C514.05 180.202 476.971 189.708 454.721 217.918Z" fill="#40947E"/>
<path d="M511.939 195.789C511.708 195.879 488.69 204.96 476.146 219.362C471.672 224.499 467.991 227.289 465.034 229.531C459.663 233.602 456.421 236.06 455.075 247.222C454.024 255.939 451.773 265.627 449.786 274.175C447.946 282.092 446.356 288.929 446.28 292.746C446.124 300.496 449.664 315.779 449.815 316.426C449.903 316.802 450.239 317.057 450.611 317.057C450.672 317.057 450.734 317.05 450.796 317.036C451.236 316.933 451.509 316.495 451.407 316.056C451.371 315.9 447.762 300.325 447.914 292.779C447.987 289.133 449.558 282.372 451.378 274.544C453.374 265.956 455.636 256.222 456.698 247.417C457.961 236.941 460.824 234.771 466.023 230.83C469.04 228.543 472.794 225.696 477.379 220.432C489.662 206.33 512.306 197.397 512.534 197.308C512.954 197.144 513.162 196.671 512.997 196.252C512.833 195.832 512.36 195.625 511.939 195.789Z" fill="#265446"/>
<path d="M475.794 278.495C470.939 282.522 465.892 292.972 461.992 302.637C459.106 309.79 456.849 316.51 455.761 319.875H461.775C461.884 319.649 461.971 319.41 462.036 319.161C462.852 316.014 464.302 311.219 465.989 309.218C468.604 306.118 472.852 304.487 475.14 302.039C477.427 299.592 482.003 297.636 484.781 294.645C487.56 291.656 484.945 288.335 488.704 287.193C492.462 286.051 498.182 284.582 498.182 284.582C498.182 284.582 509.62 278.383 507.496 271.334C505.372 264.284 485.763 270.227 475.794 278.495Z" fill="#6FC183"/>
<path d="M150.557 254.77C140.019 253.129 129.631 261.486 123.609 271.63C123.178 272.355 122.801 273.229 122.475 274.226C118.696 285.753 121.493 313.762 122.149 319.743C122.152 319.77 122.155 319.797 122.158 319.823C122.176 319.797 122.194 319.77 122.213 319.743H128.624C129.123 317.072 130.509 311.99 132.456 306.172C136.116 295.228 141.762 281.676 147.226 276.655C156.38 268.24 161.094 256.41 150.557 254.77Z" fill="#2E6857"/>
<path d="M151.485 257.259C151.276 257.12 150.963 257.14 150.786 257.304C150.767 257.321 148.895 259.036 145.972 260.268C144.341 260.956 143.023 262.293 141.355 263.986C139.795 265.569 137.853 267.54 135.062 269.531C130.804 272.569 130.466 276.12 130.167 279.253C130.051 280.48 129.94 281.639 129.617 282.725C129.077 284.538 128.564 285.48 128.021 286.478C127.379 287.66 126.715 288.881 125.955 291.586C124.555 296.574 125.877 303.787 125.934 304.092C125.97 304.285 126.182 304.424 126.424 304.424C126.448 304.424 126.472 304.423 126.497 304.42C126.768 304.389 126.956 304.191 126.916 303.979C126.902 303.906 125.563 296.6 126.924 291.752C127.664 289.119 128.31 287.931 128.934 286.783C129.494 285.753 130.023 284.78 130.583 282.902C130.924 281.757 131.037 280.569 131.157 279.311C131.455 276.176 131.764 272.935 135.73 270.106C138.586 268.069 140.557 266.068 142.141 264.461C143.737 262.841 144.998 261.561 146.442 260.952C149.529 259.651 151.462 257.881 151.543 257.806C151.72 257.642 151.694 257.397 151.485 257.259Z" fill="#265446"/>
<path d="M145.302 294.602C141.834 295.77 136.915 300.821 132.456 306.172C128.75 310.618 125.361 315.269 123.382 318.07C122.906 318.745 122.51 319.312 122.213 319.743H130.239C137.378 315.151 149.448 308.532 155.753 308.321C164.645 308.023 172.726 303.806 167.782 298.011C162.838 292.217 153.304 291.91 145.302 294.602Z" fill="#6FC183"/>
<path d="M164.425 300.568C164.405 300.57 162.391 300.775 159.935 300.172C158.565 299.836 157.085 300.063 155.212 300.351C153.459 300.621 151.278 300.956 148.545 300.901C144.375 300.816 142.465 302.924 140.779 304.783C140.119 305.512 139.495 306.2 138.771 306.739C137.561 307.64 136.783 307.999 135.96 308.378C134.986 308.827 133.979 309.292 132.203 310.658C128.928 313.179 126.331 318.416 126.222 318.637C126.153 318.778 126.222 318.968 126.377 319.083C126.392 319.094 126.408 319.105 126.425 319.115C126.613 319.224 126.827 319.187 126.903 319.032C126.929 318.979 129.56 313.675 132.743 311.226C134.472 309.895 135.451 309.444 136.398 309.007C137.248 308.615 138.05 308.245 139.304 307.312C140.068 306.743 140.707 306.037 141.384 305.291C143.07 303.43 144.814 301.506 148.698 301.585C151.494 301.642 153.708 301.301 155.487 301.028C157.28 300.752 158.696 300.535 159.909 300.833C162.502 301.469 164.582 301.258 164.669 301.249C164.86 301.228 164.961 301.059 164.893 300.871C164.826 300.683 164.616 300.547 164.425 300.568Z" fill="#265446"/>
<path d="M115.871 257.835C102.361 240.707 79.847 234.935 74.4862 242.529C69.1254 250.124 87.3518 259.124 90.139 269.828C92.9274 280.531 100.647 278.604 104.292 283.528C106.477 286.479 109.437 299.401 111.456 309.276C111.962 311.754 112.411 314.04 112.772 315.928C113.077 317.525 113.321 318.839 113.488 319.743H122.149C122.152 319.77 122.154 319.797 122.158 319.823C122.176 319.797 122.194 319.77 122.213 319.743H123.208C123.262 319.242 123.321 318.683 123.382 318.07C124.25 309.321 125.605 289.82 122.475 274.226C121.17 267.733 119.089 261.916 115.871 257.835Z" fill="#40947E"/>
<path d="M118.868 291.994C117.662 286.804 116.294 280.922 115.656 275.629C114.839 268.851 112.87 267.359 109.609 264.887C107.814 263.525 105.579 261.831 102.862 258.712C95.2455 249.968 81.2692 244.453 81.1289 244.399C80.8734 244.299 80.5859 244.425 80.4863 244.68C80.3866 244.935 80.5127 245.222 80.7679 245.322C80.9059 245.375 94.6552 250.8 102.113 259.362C104.897 262.559 107.177 264.287 109.009 265.676C112.165 268.068 113.904 269.387 114.671 275.747C115.315 281.093 116.689 287.004 117.901 292.218C119.006 296.971 119.96 301.076 120.004 303.29C120.096 307.872 117.905 317.329 117.883 317.424C117.821 317.691 117.987 317.957 118.254 318.019C118.292 318.028 118.33 318.032 118.367 318.032C118.593 318.032 118.797 317.877 118.85 317.649C118.942 317.256 121.091 307.976 120.997 303.271C120.95 300.953 119.985 296.802 118.868 291.994Z" fill="#265446"/>
<path d="M103.076 294.618C97.0231 289.597 85.1163 285.989 83.8265 290.27C82.5367 294.55 89.4818 298.314 89.4818 298.314C89.4818 298.314 92.9556 299.205 95.2369 299.899C97.5194 300.593 95.9316 302.609 97.6192 304.424C99.3056 306.24 102.085 307.428 103.473 308.913C104.862 310.4 107.442 311.39 109.03 313.273C110.054 314.488 110.934 317.399 111.43 319.31C111.469 319.461 111.522 319.606 111.588 319.743H115.24C114.579 317.7 113.209 313.62 111.457 309.277C109.088 303.408 106.024 297.063 103.076 294.618Z" fill="#6FC183"/>
<path d="M344.827 282.244H270.411V304.087H344.827V282.244Z" fill="#243354"/>
<g opacity="0.58">
<path d="M344.827 296.774H270.411V304.087H344.827V296.774Z" fill="#3D5891"/>
</g>
<path d="M345.489 304.087H269.748C260.867 304.087 253.668 311.132 253.668 319.822H361.572C361.572 311.132 354.372 304.087 345.489 304.087Z" fill="#243354"/>
<path d="M428.037 121.775H187.593C185.17 121.775 183.207 123.736 183.207 126.152V277.864C183.207 280.284 185.17 282.244 187.593 282.244H428.037C430.465 282.244 432.427 280.284 432.427 277.864V126.152C432.427 123.736 430.465 121.775 428.037 121.775Z" fill="#3D5891"/>
<path d="M425.452 123.942H190.184C187.762 123.942 185.799 125.903 185.799 128.32V275.697C185.799 278.116 187.762 280.075 190.184 280.075H425.452C427.871 280.075 429.836 278.116 429.836 275.697V128.32C429.836 125.903 427.871 123.942 425.452 123.942Z" fill="#5681BF"/>
<path d="M415.534 136.804H200.101C197.988 136.804 196.275 138.516 196.275 140.626V263.395C196.275 265.502 197.988 267.21 200.101 267.21H415.534C417.645 267.21 419.362 265.502 419.362 263.395V140.626C419.361 138.516 417.645 136.804 415.534 136.804Z" fill="#D1DBED"/>
<path d="M303.51 149.04H220.996V152.492H303.51V149.04Z" fill="#99B1DA"/>
<path d="M252.106 156.728H220.996V160.182H252.106V156.728Z" fill="#B5CAE8"/>
<path d="M308.517 156.728H259.717V160.182H308.517V156.728Z" fill="white"/>
<path d="M326.344 164.42H280.144V167.872H326.344V164.42Z" fill="white"/>
<path d="M339.028 156.728H316.361V160.182H339.028V156.728Z" fill="white"/>
<path d="M377.511 156.728H346.401V160.182H377.511V156.728Z" fill="white"/>
<path d="M274.403 164.42H220.996V167.872H274.403V164.42Z" fill="#B5CAE8"/>
<path d="M252.106 235.367H220.996V238.819H252.106V235.367Z" fill="#B5CAE8"/>
<path d="M308.517 235.367H259.717V238.819H308.517V235.367Z" fill="white"/>
<path d="M299.905 243.058H280.144V246.509H299.905V243.058Z" fill="#99B1DA"/>
<path d="M339.028 235.367H316.361V238.819H339.028V235.367Z" fill="white"/>
<path d="M274.403 243.058H220.996V246.509H274.403V243.058Z" fill="#99B1DA"/>
<path d="M268.512 177.449H237.401V180.902H268.512V177.449Z" fill="white"/>
<path d="M305.532 177.449H276.123V180.902H305.532V177.449Z" fill="#99B1DA"/>
<path d="M322.658 185.14H296.551V188.593H322.658V185.14Z" fill="white"/>
<path d="M372.621 185.14H329.499V188.593H372.621V185.14Z" fill="white"/>
<path d="M355.433 177.449H311.206V180.902H355.433V177.449Z" fill="#99B1DA"/>
<path d="M268.512 192.622H237.401V196.075H268.512V192.622Z" fill="#B5CAE8"/>
<path d="M305.532 192.622H276.123V196.075H305.532V192.622Z" fill="white"/>
<path d="M355.433 192.622H311.206V196.075H355.433V192.622Z" fill="white"/>
<path d="M393.919 177.449H362.809V180.902H393.919V177.449Z" fill="white"/>
<path d="M290.81 185.14H237.401V188.593H290.81V185.14Z" fill="#B5CAE8"/>
<path d="M268.512 252.948H237.401V256.4H268.512V252.948Z" fill="#B5CAE8"/>
<path d="M311.206 252.948H276.123V256.4H311.206V252.948Z" fill="white"/>
<path d="M376.947 252.948H318.818V256.4H376.947V252.948Z" fill="#99B1DA"/>
<path d="M322.658 223.962H296.551V227.414H322.658V223.962Z" fill="white"/>
<path d="M372.621 223.962H329.499V227.414H372.621V223.962Z" fill="white"/>
<path d="M268.512 215.277H237.401V218.73H268.512V215.277Z" fill="#B5CAE8"/>
<path d="M305.532 215.277H276.123V218.73H305.532V215.277Z" fill="white"/>
<path d="M355.433 215.277H311.206V218.73H355.433V215.277Z" fill="#99B1DA"/>
<path d="M290.81 223.962H237.401V227.414H290.81V223.962Z" fill="#99B1DA"/>
<path d="M342.35 203.87H316.245V207.324H342.35V203.87Z" fill="white"/>
<path d="M310.506 203.87H257.098V207.324H310.506V203.87Z" fill="#99B1DA"/>
<path d="M482.193 309.151C482.211 309.125 482.23 309.098 482.249 309.071H482.184C482.188 309.098 482.19 309.125 482.193 309.151Z" fill="#484848"/>
<path d="M175.888 346.321L223.685 341.655C262.724 337.843 302.047 339.868 340.618 347.453C409.26 360.95 444.764 342.821 461.853 319.848H108.936C125.904 338.358 150.085 348.84 175.888 346.321Z" fill="#7A8DB0"/>
<path d="M112.004 245.725L176.739 237.426C103.208 78.0237 79.2751 129.461 112.004 245.725Z" fill="#F19A6D"/>
<path d="M117.717 245.034L182.453 236.735C108.922 77.3332 84.9887 128.771 117.717 245.034Z" fill="#EF7C59"/>
<path d="M193.519 187.526C193.086 186.909 192.106 184.55 191.227 182.33C190.349 180.11 189.575 178.029 189.551 177.965C189.55 177.964 189.55 177.964 189.55 177.964H172.866L172.719 184.404L172.693 185.563C172.693 185.563 173.079 186.522 173.765 188.016C174.987 190.681 177.163 195.047 179.799 198.696C180.497 199.663 181.227 200.578 181.981 201.399C188.963 207.955 200.937 203.749 205.767 201.05C205.814 201.024 205.86 200.998 205.904 200.972C206.091 200.866 206.287 200.748 206.491 200.616C210.686 197.942 218.447 190.365 222.934 185.844L218.081 174.902C216.434 175.933 200.647 184.108 193.519 187.526Z" fill="#F5B0A6"/>
<path d="M239.767 164.675C239.087 164.158 227.659 165.36 225.102 166.754C223.305 167.733 219.516 171.403 217.422 173.498C216.538 174.383 213.963 177.172 213.963 177.172C213.963 177.172 215.697 180.438 217.635 182.707C218.906 184.196 221.71 186.482 221.71 186.482C223.373 187.238 224.957 186.57 226.19 185.619C227.668 184.477 228.641 182.926 228.641 182.926C228.125 183.951 229.009 184.755 229.009 184.755C229.996 186.042 232.158 183.092 232.652 181.739C233.147 180.386 232.452 178.247 232.452 178.247C234.093 176.098 232.307 173.79 232.307 173.79C232.307 173.79 233.767 173.346 233.672 172.141C233.577 170.936 230.447 169.687 230.447 169.687C230.447 169.687 238.463 167.321 239.436 166.987C240.407 166.653 240.447 165.193 239.767 164.675Z" fill="#F5B0A6"/>
<path d="M239.768 164.675C239.266 167.289 232.657 167.368 227.944 168.592C223.23 169.818 221.656 172.097 221.656 172.097C221.656 172.097 226.833 169.549 230.447 169.687C230.447 169.687 238.464 167.321 239.436 166.987C240.407 166.653 240.447 165.192 239.768 164.675Z" fill="#F18A8B"/>
<path d="M228.918 180.878C228.021 180.892 227.968 178.638 229.318 177.705C230.669 176.772 232.308 173.789 232.308 173.789C232.308 173.789 229.95 173.956 227.594 177.251C225.238 180.546 220.705 179.322 220.705 179.322C220.705 179.322 223.543 180.829 226.269 180.12C227.523 179.793 226.797 183.035 228.415 182.541C231.227 181.682 232.451 178.247 232.451 178.247C230.715 180.776 229.815 180.865 228.918 180.878Z" fill="#F18A8B"/>
<path d="M189.55 177.964H172.866L172.768 184.159L172.719 184.404L172.693 185.563C172.693 185.563 173.079 186.522 173.765 188.016C179.771 185.723 187.53 182.985 191.227 182.33C190.349 180.11 189.575 178.029 189.551 177.965C189.55 177.964 189.55 177.964 189.55 177.964Z" fill="#F18A8B"/>
<path d="M159.896 291.466L171.565 298.116L182.908 277.241L169.359 269.18L159.896 291.466Z" fill="#F5B0A6"/>
<path d="M181.362 306.766C179.269 305.564 175.468 301.397 174.227 300.004C173.969 299.715 173.786 299.37 173.689 298.995C173.389 297.835 172.599 295.151 171.45 294.015C170.545 293.12 169.353 293.154 168.559 293.317C167.938 293.445 167.291 293.314 166.76 292.967L163.797 291.031C163.461 290.812 163.183 290.514 162.991 290.163C162.443 289.161 161.193 287.185 160.597 288.757C160.022 290.277 157.445 297.287 156.158 300.794C155.736 301.943 156.237 303.225 157.325 303.786L180.83 315.9C182.386 316.703 184.268 315.648 184.372 313.902C184.584 310.318 183.308 307.884 181.362 306.766Z" fill="#243354"/>
<path d="M159.09 293.392C160.808 295.917 160.857 299.286 158.358 301.325C158.088 301.545 158.386 302.002 158.658 301.78C161.39 299.551 161.446 295.886 159.546 293.093C159.348 292.802 158.893 293.102 159.09 293.392Z" fill="black"/>
<path d="M183.811 314.96C175.553 310.771 170.559 307.595 162.301 303.406C160.412 302.448 158.523 301.489 156.634 300.531C156.321 300.372 156.079 300.86 156.392 301.019C164.65 305.208 181.68 314.489 183.569 315.448C183.882 315.606 184.124 315.118 183.811 314.96Z" fill="#1E1E1E"/>
<path d="M171.42 300.519C171.111 300.685 171.413 301.138 171.72 300.974C173.584 299.975 175.659 300.455 176.641 302.389C176.8 302.702 177.254 302.399 177.097 302.089C175.969 299.87 173.531 299.388 171.42 300.519Z" fill="white"/>
<path d="M173.736 302.685C173.427 302.851 173.729 303.305 174.036 303.14C175.9 302.142 177.974 302.622 178.957 304.556C179.115 304.868 179.569 304.565 179.412 304.256C178.285 302.036 175.847 301.554 173.736 302.685Z" fill="white"/>
<path d="M176.142 304.895C175.832 305.061 176.135 305.515 176.442 305.35C178.306 304.351 180.38 304.832 181.362 306.765C181.521 307.078 181.975 306.775 181.818 306.466C180.69 304.246 178.253 303.764 176.142 304.895Z" fill="white"/>
<path d="M163.759 277.698C163.759 277.698 183.7 290.332 183.7 289.183C183.7 288.035 190.76 243.54 190.76 243.54L177.527 241.712L163.759 277.698Z" fill="#284B89"/>
<path d="M182.816 304.751L196.14 306.484L198.703 282.873L183.103 280.546L182.816 304.751Z" fill="#F5B0A6"/>
<path d="M208.491 310.777C206.098 310.457 200.998 308.041 199.32 307.222C198.972 307.053 198.671 306.803 198.439 306.493C197.72 305.533 195.969 303.349 194.474 302.733C193.297 302.247 192.208 302.73 191.535 303.182C191.009 303.536 190.36 303.659 189.737 303.539L186.26 302.871C185.866 302.795 185.496 302.625 185.184 302.372C184.296 301.653 182.389 300.298 182.435 301.978C182.48 303.603 182.76 311.064 182.902 314.797C182.948 316.019 183.898 317.016 185.119 317.122L211.47 319.43C213.215 319.582 214.556 317.894 213.988 316.24C212.822 312.843 210.716 311.074 208.491 310.777Z" fill="#243354"/>
<path d="M183.11 306.388C182.817 306.194 182.509 306.644 182.802 306.838C185.351 308.523 186.677 311.622 185.139 314.455C184.973 314.761 185.423 315.07 185.59 314.762C187.271 311.666 185.929 308.253 183.11 306.388Z" fill="black"/>
<path d="M213.871 317.43C204.639 316.682 198.811 315.635 189.579 314.886C187.467 314.715 185.355 314.544 183.243 314.373C182.893 314.344 182.854 314.887 183.204 314.916C192.436 315.664 211.72 317.802 213.833 317.974C214.182 318.002 214.221 317.459 213.871 317.43Z" fill="black"/>
<path d="M196.919 308.762C196.696 309.033 197.148 309.337 197.37 309.069C198.714 307.439 200.816 307.097 202.46 308.515C202.726 308.744 203.031 308.292 202.768 308.065C200.881 306.438 198.442 306.915 196.919 308.762Z" fill="white"/>
<path d="M199.885 309.889C199.662 310.16 200.114 310.465 200.336 310.196C201.681 308.566 203.782 308.225 205.426 309.642C205.692 309.871 205.997 309.419 205.734 309.192C203.847 307.566 201.408 308.043 199.885 309.889Z" fill="white"/>
<path d="M202.951 311.023C202.727 311.294 203.179 311.599 203.401 311.331C204.746 309.7 206.848 309.359 208.491 310.777C208.757 311.006 209.062 310.553 208.799 310.327C206.913 308.7 204.474 309.177 202.951 311.023Z" fill="white"/>
<path d="M212.047 213.228C203.869 209.627 156.288 208.863 156.288 208.863L147.104 211.304L116.675 219.391C112.734 231.834 119.354 240.349 128.185 241.849C135.8 243.142 172.125 239.413 181.982 238.363C183.555 238.194 184.454 238.095 184.454 238.095L173.019 292.5C173.019 292.5 197.133 300.479 203.512 298.497C203.512 298.497 203.677 297.953 203.977 296.967C206.353 289.163 217.136 253.628 220.624 240.313C222.996 231.26 222.36 224.579 219.683 219.914C217.925 216.851 215.288 214.656 212.047 213.228Z" fill="#2C4DA2"/>
<g opacity="0.39">
<path d="M187.188 284.787C183.936 277.158 196.455 238.201 194.505 234.142C192.553 230.084 184.092 235.934 184.092 235.934C184.092 235.934 183.32 236.816 181.982 238.363C183.555 238.195 184.454 238.095 184.454 238.095L173.019 292.5C173.019 292.5 197.133 300.48 203.512 298.497C203.512 298.497 203.677 297.954 203.977 296.967C198.724 294.739 189.481 290.166 187.188 284.787Z" fill="#24447C"/>
</g>
<path d="M172.64 313.734C172.223 315.824 173.258 318.131 175.112 319.187C176.967 320.242 179.503 319.943 181.041 318.465C182.578 316.987 182.966 314.444 181.913 312.59C179.849 308.956 173.504 309.405 172.64 313.734Z" fill="#EF7C59"/>
<path d="M153.753 297.861L150.629 266.801C150.629 266.801 156.03 265.438 156.605 265.294C157.18 265.151 154.492 248.473 154.492 248.473L136.218 250.845C136.218 250.845 136.798 266.502 138.187 266.634C139.577 266.766 142.942 267.104 142.942 267.104L145.98 297.901C145.98 297.901 128.248 303.864 121.979 306.385C115.71 308.906 112.194 311.913 114.149 313.941C116.103 315.97 121.643 315.663 124.082 313.658C126.52 311.653 140.867 303.26 151.481 303.042C162.094 302.823 175.119 311.976 179.023 314.561C182.927 317.147 190.592 317.502 186.465 310.555C182.337 303.608 153.753 297.861 153.753 297.861Z" fill="#93493A"/>
<path d="M118.303 315.163C117.881 316.852 118.967 318.698 120.555 319.418C122.143 320.137 124.069 319.846 125.561 318.945C126.772 318.215 127.763 317.073 128.15 315.716C130.158 308.686 119.515 310.312 118.303 315.163Z" fill="#EF7C59"/>
<path d="M184.092 235.934L111.736 244.196C107.845 251.54 113.524 255.93 113.524 255.93C125.216 257.305 184.702 247.448 184.702 247.448L184.454 238.094L184.092 235.934Z" fill="#F19A6D"/>
<path d="M169.906 145.659L159.075 142.838C157.982 139.346 154.777 138.405 154.777 138.405C142.802 133.368 137.884 141.025 137.884 141.025C137.884 141.025 135.601 141.996 127.12 143.174C116.961 144.584 111.512 155.129 111.512 155.129L115.952 202.679L116.573 219.334C116.573 219.334 142.105 221.211 164.135 213.536C168.062 212.168 172.376 209.265 172.376 209.265L172.776 183.719L192.078 177.232C192.078 177.232 181.612 158.017 178.517 152.576C175.422 147.137 169.906 145.659 169.906 145.659Z" fill="#6FC183"/>
<g opacity="0.34">
<path d="M171.756 161.241L172.229 165.007C172.229 165.007 173.374 171.463 172.866 177.964L172.776 183.719L182.481 180.389C182.481 180.389 177.83 162.888 171.756 161.241Z" fill="#40947E"/>
</g>
<path d="M166.748 109.222C165.535 108.805 164.291 109.042 164.291 109.042C166.031 105.519 164.987 103.893 163.743 103.146C162.833 102.599 161.717 102.527 160.719 102.886C154.822 105.006 154.042 102.69 149.492 102.391C144.702 102.075 143.457 107.563 143.457 107.563C138.416 105.774 136.612 112.074 137.195 119.124C137.776 126.175 143.475 129.549 143.475 129.549L160.716 123.834C165.323 120.533 164.378 114.842 164.378 114.842C164.378 114.842 166.067 114.504 167.165 112.649C167.182 112.621 168.524 109.833 166.748 109.222Z" fill="black"/>
<g opacity="0.36">
<path d="M156.366 107.964C159.908 107.193 160.635 105.017 160.635 105.017C156.275 107.329 149.496 105.594 149.496 105.594C150.268 106.411 153.432 107.436 153.432 107.436L151.886 108.349C158.698 110.888 160.817 108.463 160.817 108.463C158.773 109.188 156.366 107.964 156.366 107.964Z" fill="#3C3C3C"/>
</g>
<path d="M161.045 112.948C160.614 112.145 160.341 111.68 160.341 111.68C160.341 111.68 155.399 115.714 146.577 115.196L149.009 118.72C149.043 118.768 149.077 118.821 149.111 118.878C149.205 119.034 149.289 119.195 149.367 119.355C149.393 119.408 149.416 119.461 149.438 119.515V119.516C149.461 119.568 149.483 119.622 149.504 119.675C149.525 119.726 149.547 119.775 149.566 119.825C149.619 119.967 149.667 120.11 149.709 120.253C149.713 120.266 149.716 120.277 149.72 120.29C149.764 120.446 149.803 120.604 149.835 120.762C150.145 122.292 149.843 123.88 149.052 125.197C148.673 125.83 148.181 126.399 147.591 126.87C147.588 126.873 147.583 126.876 147.579 126.879C147.577 126.86 147.573 126.841 147.57 126.822C147.48 126.25 147.26 125.728 146.947 125.289C146.375 124.487 145.487 123.973 144.488 123.973C142.757 123.973 141.354 125.518 141.354 127.424C141.354 129.33 142.757 130.876 144.488 130.876C144.584 130.876 144.681 130.869 144.775 130.859L142.74 136.265C142.74 136.265 140.269 141.165 143.765 146.039C147.26 150.913 150.998 151.635 150.998 151.635C150.998 151.635 155.628 146.416 156.122 144.234L157.915 136.302L157.988 135.982C160.738 136.602 163.769 136.378 165.524 133.402C166.907 131.058 166.746 127.54 165.79 124.014C164.58 119.547 162.185 115.07 161.045 112.948Z" fill="#F5B0A6"/>
<path d="M146.942 149.455C149.205 151.286 150.998 151.635 150.998 151.635C150.998 151.635 155.627 146.417 156.121 144.234L156.622 142.019C154.506 145.03 151.132 148.71 146.942 149.455Z" fill="#F18A8B"/>
<path d="M157.442 138.396L157.987 135.983C157.987 135.983 154.494 135.148 152.505 133.162C152.505 133.162 154 138.094 157.442 138.396Z" fill="#F18A8B"/>
<path d="M143.497 126.135C143.429 126.25 143.467 126.397 143.581 126.465L145.539 127.626H144.006C143.873 127.626 143.765 127.734 143.765 127.867C143.765 128 143.873 128.107 144.006 128.107H147.295L143.828 126.051C143.713 125.983 143.565 126.021 143.497 126.135Z" fill="#F18A8B"/>
<path d="M161.163 119.679C159.842 118.541 160.031 116.954 160.04 116.887C160.057 116.754 159.963 116.631 159.83 116.614C159.696 116.596 159.573 116.689 159.556 116.823C159.545 116.9 159.319 118.734 160.844 120.048C161.93 120.985 163.014 122.041 162.817 122.768C162.677 123.284 161.853 123.695 160.434 123.957C160.301 123.981 160.213 124.108 160.238 124.241C160.26 124.358 160.362 124.44 160.478 124.44C160.492 124.44 160.507 124.439 160.523 124.436C162.185 124.129 163.09 123.625 163.288 122.896C163.569 121.861 162.338 120.693 161.163 119.679Z" fill="#F18A8B"/>
<path d="M161.359 117.553C161.086 117.676 160.995 118.063 161.156 118.416C161.316 118.769 161.667 118.955 161.94 118.831C162.213 118.708 162.304 118.321 162.144 117.968C161.983 117.615 161.632 117.429 161.359 117.553Z" fill="black"/>
<path d="M157.124 119.044C156.851 119.167 156.76 119.554 156.92 119.907C157.081 120.26 157.432 120.446 157.705 120.322C157.978 120.199 158.069 119.812 157.908 119.459C157.748 119.106 157.396 118.92 157.124 119.044Z" fill="black"/>
<path d="M157.771 116.383C156.903 116.157 155.069 116.24 154.34 118.167C154.245 118.419 154.373 118.7 154.625 118.795C154.682 118.816 154.74 118.827 154.797 118.827C154.995 118.827 155.181 118.706 155.254 118.511C155.842 116.957 157.356 117.285 157.527 117.327C157.787 117.394 158.053 117.237 158.121 116.978C158.189 116.717 158.032 116.451 157.771 116.383Z" fill="black"/>
<path d="M162.04 114.405C160.333 114.435 159.9 115.621 159.882 115.672C159.794 115.926 159.926 116.209 160.181 116.297C160.235 116.316 160.29 116.325 160.345 116.325C160.545 116.325 160.731 116.202 160.801 116.002C160.826 115.94 161.072 115.397 162.057 115.38C162.326 115.376 162.541 115.154 162.536 114.885C162.532 114.615 162.314 114.402 162.04 114.405Z" fill="black"/>
<path d="M139.578 142.221L146.942 149.455L142.207 137.656L139.578 142.221Z" fill="#F5B0A6"/>
<path d="M159.063 142.52C158.887 142.526 158.749 142.675 158.756 142.85C158.756 142.865 158.797 144.336 157.827 146.467C156.939 148.42 155 151.338 150.8 154.2C149.661 153.8 142.019 150.856 137.473 142.683C137.388 142.529 137.193 142.474 137.039 142.559C136.885 142.645 136.829 142.839 136.915 142.993C139.54 147.714 143.158 150.686 145.73 152.349C148.521 154.152 150.663 154.83 150.753 154.858L150.9 154.904L151.027 154.818C155.464 151.829 157.501 148.746 158.429 146.687C159.446 144.429 159.397 142.89 159.394 142.825C159.387 142.65 159.239 142.513 159.063 142.52Z" fill="#40947E"/>
<path d="M154.285 122.53C152.99 122.744 152.021 123.405 152.121 124.006C152.221 124.607 153.351 124.921 154.646 124.707C155.941 124.493 156.91 123.832 156.81 123.23C156.711 122.629 155.58 122.316 154.285 122.53Z" fill="#F18A8B"/>
<path d="M156.681 167.081L157.174 170.136L169.316 168.559L169.118 165.504L156.681 167.081Z" fill="white"/>
<path d="M199.072 196.739C198.917 195.768 200.002 192.468 196.811 191.664C195.127 191.24 194.301 192.154 191.065 194.819C188.885 196.615 183.025 197.838 179.799 198.696C180.497 199.663 181.227 200.578 181.981 201.399C188.963 207.955 200.937 203.749 205.767 201.05C205.814 201.024 205.86 200.998 205.905 200.972C206.091 200.866 206.287 200.748 206.491 200.616C203.621 199.393 199.176 197.397 199.072 196.739Z" fill="#F18A8B"/>
<g opacity="0.34">
<path d="M142.885 179.883C142.671 177.044 143.481 172.44 141.739 170.187L131.219 156.582L138.91 175.084L135.123 176.788L141.505 190.834L158.575 194.719C147.428 189.925 143.223 184.343 142.885 179.883Z" fill="#40947E"/>
</g>
<path d="M128.894 210.732C126.398 208.611 107.35 215.869 103.541 217.103L105.018 222.688C105.018 222.688 131.39 212.852 128.894 210.732Z" fill="#93493A"/>
<path d="M111.778 244.723L115.256 246.688V216.635L107.696 219.286L111.778 244.723Z" fill="#93493A"/>
<path d="M120.933 213.915L134.904 243.54L141.505 243.147L124.165 212.383L120.933 213.915Z" fill="#93493A"/>
<path d="M137.048 181.023L135.124 176.788L117.743 184.117L123.848 196.527L125.715 200.323C127.371 203.69 130.596 206.014 134.32 206.523L177.388 210.988L187.65 202.286L141.505 190.835L137.048 181.023Z" fill="#F5B0A6"/>
<path d="M111.512 155.129C111.512 155.129 107.275 171.573 114.403 186.091L138.91 175.084L131.219 156.582C131.219 156.582 120.01 149.099 111.512 155.129Z" fill="#6FC183"/>
<path d="M117.743 184.117L123.848 196.527C124.189 195.059 124.421 193.527 124.586 192.077C125.109 187.512 132.885 183.063 137.048 181.023L135.124 176.788L117.743 184.117Z" fill="#F18A8B"/>
<path d="M197.006 198.392C195.26 198.084 191.645 198.918 189.513 199.07C187.21 199.233 185.216 199.434 183.488 199.665C181.756 199.897 180.392 199.883 179.157 200.178C178.192 203.29 177.297 207.303 177.388 210.988C178.364 211.387 179.461 211.979 180.966 212.401C183.035 212.979 185.874 213.232 190.222 212.203C195.973 210.842 201.597 217.254 202.843 214.933C203.358 213.973 201.913 212.739 200.193 211.684C202.671 212.778 205.372 213.659 205.982 212.641C206.561 211.674 205.615 210.533 204.191 209.479C206.331 210.366 208.304 210.792 208.757 209.632C209.448 207.862 205.844 205.761 203.159 204.477C205.861 205.551 209.639 206.75 209.931 205.199C210.438 202.507 199.617 198.853 197.006 198.392Z" fill="#F5B0A6"/>
<path d="M200.193 211.684C198.153 210.432 195.725 209.432 195.725 209.432C195.725 209.432 197.86 210.652 200.193 211.684Z" fill="#D2D2D2"/>
<path d="M203.153 204.475C201.722 203.791 200.553 203.34 200.438 203.297C200.555 203.353 201.698 203.895 203.153 204.475Z" fill="#D2D2D2"/>
<path d="M204.191 209.479C201.761 207.679 197.937 206.132 197.937 206.132C197.937 206.132 201.224 208.247 204.191 209.479Z" fill="#F18A8B"/>
<path d="M203.787 204.655C202.734 204.076 201.655 203.558 200.565 203.079C199.475 202.601 198.344 202.225 197.229 201.846C197.202 201.836 197.187 201.875 197.214 201.887C198.302 202.365 199.373 202.898 200.461 203.376C201.551 203.855 205.434 205.63 207.723 207.295C207.82 207.366 206.371 206.074 203.787 204.655Z" fill="#F18A8B"/>
<path d="M204.171 209.435C201.854 207.797 197.522 205.969 195.93 205.78C195.908 205.778 195.897 205.804 195.919 205.813C197.309 206.391 202.739 208.83 204.113 209.477C204.22 209.527 204.269 209.504 204.171 209.435Z" fill="#B8B8B8"/>
<path d="M200.532 211.898C198.389 210.418 196.23 209.351 194.211 208.879C194.164 208.868 194.155 208.939 194.195 208.957C196.729 210.066 198.361 210.9 200.449 211.943C200.555 211.996 200.629 211.965 200.532 211.898Z" fill="#F18A8B"/>
<path d="M194.892 194.359C193.827 195.971 184.983 199.409 184.881 199.493C188.299 199.642 195.443 198.117 197.006 198.392C197.006 198.392 197.66 197.725 197.663 195.366C197.668 193.008 195.855 192.903 194.892 194.359Z" fill="#F5B0A6"/>
<path d="M165.72 123.721C165.709 123.84 165.681 123.936 165.639 124.015C165.479 124.317 165.129 124.355 164.861 124.396C163.041 124.676 161.645 124.583 160.347 125.25C157.854 126.531 157.131 127.665 155.853 128.689C155.49 128.981 154.589 129.849 152.392 129.166C150.671 128.631 149.579 126.729 148.991 125.091C148.612 125.723 148.181 126.399 147.591 126.87C148.803 129.623 150.997 133.35 155.123 135.313C156.095 135.776 157.031 136.094 157.915 136.302C157.96 136.313 158.004 136.323 158.049 136.333C164.53 137.788 169.755 130.961 166.613 125.118C166.141 124.241 165.72 123.721 165.72 123.721Z" fill="black"/>
<path d="M159.548 128.53C159.548 128.53 160.017 130.759 161.791 130.297C163.565 129.836 163.408 127.863 163.408 127.863L159.548 128.53Z" fill="white"/>
<g opacity="0.72">
<path d="M393.696 146.686C403.185 137.212 403.185 121.852 393.695 112.378C384.206 102.904 368.82 102.904 359.33 112.378C349.84 121.852 349.84 137.212 359.33 146.686C368.82 156.16 384.206 156.16 393.696 146.686Z" fill="#99B1DA"/>
</g>
<path d="M396.069 144.633C405.559 135.159 405.559 119.798 396.069 110.324C386.579 100.85 371.193 100.85 361.703 110.324C352.213 119.798 352.213 135.159 361.703 144.633C371.193 154.107 386.579 154.107 396.069 144.633Z" fill="#3D5891"/>
<g opacity="0.3">
<path d="M389.593 125.024C388.624 125.024 387.747 125.382 387.055 125.954L376.323 119.769C376.36 119.551 376.39 119.33 376.39 119.102C376.39 116.896 374.599 115.108 372.39 115.108C370.181 115.108 368.39 116.896 368.39 119.102C368.39 121.307 370.181 123.095 372.39 123.095C373.359 123.095 374.236 122.737 374.928 122.165L385.66 128.35C385.623 128.568 385.593 128.788 385.593 129.017C385.593 129.245 385.623 129.466 385.66 129.684L374.928 135.869C374.236 135.297 373.36 134.939 372.39 134.939C370.181 134.939 368.39 136.727 368.39 138.932C368.39 141.137 370.181 142.925 372.39 142.925C374.599 142.925 376.39 141.137 376.39 138.932C376.39 138.704 376.36 138.483 376.323 138.265L387.055 132.08C387.747 132.652 388.624 133.01 389.593 133.01C391.802 133.01 393.593 131.222 393.593 129.017C393.593 126.812 391.802 125.024 389.593 125.024Z" fill="black"/>
</g>
<path d="M389.593 123.484C388.624 123.484 387.747 123.841 387.055 124.414L376.323 118.229C376.36 118.011 376.39 117.79 376.39 117.562C376.39 115.356 374.599 113.568 372.39 113.568C370.181 113.568 368.39 115.356 368.39 117.562C368.39 119.767 370.181 121.555 372.39 121.555C373.359 121.555 374.236 121.197 374.928 120.625L385.66 126.81C385.623 127.028 385.593 127.248 385.593 127.477C385.593 127.705 385.623 127.926 385.66 128.144L374.928 134.329C374.236 133.757 373.36 133.399 372.39 133.399C370.181 133.399 368.39 135.187 368.39 137.392C368.39 139.598 370.181 141.386 372.39 141.386C374.599 141.386 376.39 139.598 376.39 137.392C376.39 137.164 376.36 136.943 376.323 136.725L387.055 130.54C387.747 131.112 388.624 131.47 389.593 131.47C391.802 131.47 393.593 129.682 393.593 127.477C393.593 125.271 391.802 123.484 389.593 123.484Z" fill="white"/>
<path d="M266.296 98.4155H207.226C203.785 98.4155 200.997 101.2 200.997 104.634V118.138C200.997 121.572 203.785 124.357 207.226 124.357H266.296C269.737 124.357 272.526 121.572 272.526 118.138V104.634C272.526 101.2 269.737 98.4155 266.296 98.4155Z" fill="#99B1DA"/>
<path d="M258.696 137.422L264.327 121.07L249.611 121.837L258.696 137.422Z" fill="#99B1DA"/>
<path d="M222.273 107.607C222.862 107.277 223.533 107.112 224.287 107.112C225.57 107.112 226.661 107.654 227.561 108.736L230.06 106.478C229.386 105.633 228.539 104.986 227.521 104.537C226.502 104.088 225.358 103.864 224.089 103.864C222.634 103.864 221.328 104.171 220.171 104.785C219.013 105.399 218.104 106.254 217.443 107.35C216.781 108.446 216.451 109.687 216.451 111.073C216.451 112.46 216.781 113.701 217.443 114.797C218.104 115.893 219.013 116.748 220.171 117.362C221.328 117.976 222.634 118.283 224.089 118.283C225.358 118.283 226.502 118.058 227.521 117.609C228.539 117.161 229.386 116.514 230.06 115.668L227.561 113.41C226.661 114.493 225.57 115.035 224.287 115.035C223.533 115.035 222.862 114.87 222.273 114.539C221.685 114.21 221.228 113.744 220.905 113.143C220.58 112.543 220.418 111.853 220.418 111.073C220.418 110.295 220.58 109.605 220.905 109.004C221.229 108.403 221.685 107.937 222.273 107.607Z" fill="white"/>
<path d="M237.837 106.359H234.782V109.627H231.409V112.519H234.782V115.787H237.837V112.519H241.19V109.627H237.837V106.359Z" fill="white"/>
<path d="M250.078 106.359H247.023V109.627H243.65V112.519H247.023V115.787H250.078V112.519H253.431V109.627H250.078V106.359Z" fill="white"/>
<path d="M456.978 198.919C457.058 198.384 457.1 197.837 457.1 197.28C457.1 191.199 452.163 186.27 446.069 186.27C444.302 186.27 442.632 186.687 441.152 187.426C438.782 182.565 433.788 179.215 428.009 179.215C419.941 179.215 413.4 185.743 413.4 193.798C413.4 194.025 413.406 194.25 413.417 194.475C413.173 194.459 412.926 194.447 412.678 194.447C406.618 194.447 401.706 199.351 401.706 205.401C401.706 211.389 406.521 216.252 412.494 216.351V216.355H456.547V216.352C456.587 216.353 456.627 216.355 456.668 216.355C461.492 216.355 465.404 212.449 465.404 207.633C465.404 202.919 461.658 199.082 456.978 198.919Z" fill="#99B1DA"/>
<path d="M448.942 204.899C448.995 204.548 449.023 204.19 449.023 203.824C449.023 199.828 445.78 196.59 441.778 196.59C440.616 196.59 439.518 196.864 438.545 197.35C436.99 194.155 433.706 191.955 429.91 191.955C424.61 191.955 420.313 196.243 420.313 201.536C420.313 201.684 420.319 201.832 420.324 201.981C420.164 201.97 420.003 201.961 419.84 201.961C415.858 201.961 412.63 205.184 412.63 209.159C412.63 213.092 415.794 216.288 419.719 216.352V216.355H448.659V216.353C448.686 216.354 448.712 216.355 448.738 216.355C451.91 216.355 454.479 213.789 454.479 210.624C454.479 207.528 452.019 205.007 448.942 204.899Z" fill="#B5CAE8"/>
<path d="M418.978 203.146H415.327V199.596H412.65V209.045H415.327V205.36H418.978V209.045H421.655V199.596H418.978V203.146Z" fill="#3D5891"/>
<path d="M422.656 201.715H425.563V209.045H428.24V201.715H431.134V199.596H422.656V201.715Z" fill="#3D5891"/>
<path d="M440.909 199.596L437.664 205.049L434.338 199.596H432.134V209.045H434.608V204.172L437.028 208.113H438.218L440.652 204.037L440.679 209.045H443.14L443.113 199.596H440.909Z" fill="#3D5891"/>
<path d="M447.71 199.596H445.033V209.045H452.226V206.925H447.71V199.596Z" fill="#3D5891"/>
<path d="M284.841 260.922H231.362C228.227 260.922 225.685 263.459 225.685 266.589V284.541C225.685 287.67 228.227 290.208 231.362 290.208H284.841C287.976 290.208 290.517 287.67 290.517 284.541V266.589C290.517 263.459 287.976 260.922 284.841 260.922Z" fill="#3D5891"/>
<path d="M232.668 275.603L239.33 278.059V276.089L235.019 274.564L239.33 273.04V271.07L232.668 273.526V275.603Z" fill="white"/>
<path d="M244.668 273.89C245.307 273.89 245.794 274.219 246.127 274.875L248.114 273.863C247.861 273.234 247.433 272.741 246.83 272.386C246.226 272.031 245.51 271.853 244.681 271.853C243.87 271.853 243.145 272.013 242.506 272.332C241.866 272.651 241.368 273.097 241.012 273.667C240.656 274.239 240.479 274.888 240.479 275.617C240.479 276.345 240.656 276.998 241.012 277.573C241.368 278.149 241.866 278.598 242.506 278.922C243.145 279.246 243.87 279.408 244.681 279.408C245.51 279.408 246.226 279.23 246.83 278.875C247.433 278.52 247.861 278.027 248.114 277.398L246.127 276.386C245.794 277.042 245.307 277.371 244.668 277.371C244.208 277.371 243.827 277.216 243.526 276.905C243.224 276.595 243.073 276.165 243.073 275.617C243.073 275.077 243.224 274.655 243.526 274.349C243.827 274.043 244.208 273.89 244.668 273.89Z" fill="white"/>
<path d="M254.816 272.332C254.186 272.013 253.474 271.853 252.681 271.853C251.888 271.853 251.179 272.013 250.553 272.332C249.927 272.651 249.436 273.099 249.08 273.674C248.724 274.25 248.546 274.897 248.546 275.617C248.546 276.345 248.724 276.998 249.08 277.573C249.436 278.149 249.929 278.598 250.56 278.922C251.19 279.246 251.898 279.408 252.681 279.408C253.474 279.408 254.186 279.246 254.816 278.922C255.447 278.598 255.938 278.149 256.289 277.573C256.641 276.998 256.816 276.345 256.816 275.617C256.816 274.888 256.641 274.239 256.289 273.667C255.938 273.097 255.447 272.651 254.816 272.332ZM253.79 276.905C253.501 277.216 253.132 277.371 252.681 277.371C252.231 277.371 251.861 277.216 251.573 276.905C251.285 276.595 251.141 276.166 251.141 275.617C251.141 275.077 251.285 274.655 251.573 274.349C251.862 274.043 252.231 273.89 252.681 273.89C253.132 273.89 253.501 274.043 253.79 274.349C254.078 274.655 254.222 275.077 254.222 275.617C254.222 276.166 254.078 276.595 253.79 276.905Z" fill="white"/>
<path d="M263.222 272.608C262.744 272.105 262.068 271.853 261.195 271.853C260.528 271.853 259.92 272.006 259.37 272.311C258.821 272.617 258.386 273.056 258.066 273.627C257.747 274.198 257.587 274.861 257.587 275.617C257.587 276.372 257.747 277.038 258.066 277.613C258.386 278.189 258.821 278.632 259.37 278.942C259.92 279.252 260.528 279.408 261.195 279.408C262.149 279.408 262.866 279.124 263.343 278.558V279.286H265.789V269.276H263.222V272.608H263.222ZM262.83 276.905C262.541 277.215 262.176 277.371 261.735 277.371C261.285 277.371 260.915 277.216 260.627 276.905C260.339 276.595 260.195 276.165 260.195 275.617C260.195 275.077 260.339 274.655 260.627 274.349C260.915 274.043 261.285 273.89 261.735 273.89C262.186 273.89 262.553 274.043 262.837 274.349C263.12 274.655 263.262 275.077 263.262 275.617C263.262 276.165 263.118 276.595 262.83 276.905Z" fill="white"/>
<path d="M272.992 272.305C272.397 272.004 271.735 271.853 271.005 271.853C270.24 271.853 269.55 272.015 268.938 272.339C268.325 272.662 267.845 273.11 267.499 273.681C267.152 274.252 266.978 274.897 266.978 275.617C266.978 276.345 267.156 276.998 267.512 277.573C267.868 278.149 268.37 278.598 269.019 278.922C269.668 279.246 270.42 279.408 271.276 279.408C272.645 279.408 273.686 279.012 274.397 278.221L273.046 276.818C272.785 277.042 272.526 277.204 272.269 277.303C272.012 277.402 271.708 277.452 271.357 277.452C270.888 277.452 270.499 277.35 270.188 277.148C269.877 276.946 269.668 276.656 269.56 276.278H274.884C274.911 275.873 274.925 275.662 274.925 275.644C274.925 274.861 274.751 274.185 274.404 273.613C274.057 273.043 273.586 272.606 272.992 272.305ZM269.519 274.929C269.591 274.542 269.76 274.237 270.026 274.012C270.291 273.787 270.622 273.674 271.019 273.674C271.415 273.674 271.746 273.787 272.012 274.012C272.278 274.237 272.446 274.542 272.519 274.929H269.519Z" fill="white"/>
<path d="M276.073 273.04L280.384 274.564L276.073 276.089V278.059L282.735 275.603V273.526L276.073 271.07V273.04Z" fill="white"/>
<path d="M190.205 59.8341C182.128 57.3317 173.549 61.8396 171.042 69.9031C170.99 70.0717 170.945 70.2406 170.899 70.4097L170.886 70.4058C170.886 70.4058 168.241 78.5718 173.443 87.0844C173.443 87.0844 175.278 89.5219 173.627 94.8331L176.854 95.8332L180.785 97.0512L184.013 98.0513C185.664 92.7401 188.559 91.7677 188.559 91.7677C197.675 87.6913 200.125 79.4649 200.125 79.4649L200.122 79.464C200.18 79.2985 200.239 79.1338 200.291 78.9652C202.798 70.9018 198.282 62.3366 190.205 59.8341Z" fill="#F3CE90"/>
<path d="M186.658 81.4098C185.935 81.8222 185.156 82.875 184.327 84.5544L181.032 83.5335C181.301 81.6806 181.256 80.3723 180.894 79.6236C180.412 78.6263 179.87 78.4764 179.5 78.5278C178.731 78.6332 178.284 79.6364 178.122 80.54C177.917 81.6802 178.075 83.2231 179.193 83.8186L179.265 83.8485L180.105 84.1088C179.433 87.883 177.745 92.9511 176.877 95.2853L177.651 95.5722C177.662 95.5406 178.843 92.3558 179.831 88.8465C180.314 87.132 180.67 85.6332 180.899 84.3547L183.972 85.3068C183.435 86.4898 182.878 87.9264 182.304 89.6125C181.128 93.0638 180.296 96.3565 180.287 96.3891L181.088 96.5899C181.696 94.1754 183.178 89.0433 184.765 85.5528L185.681 85.8291C186.94 85.9698 187.946 84.7874 188.424 83.7321C188.803 82.8956 189.003 81.8159 188.429 81.2943C188.153 81.0432 187.621 80.8595 186.658 81.4098ZM180.238 83.2873L179.55 83.0744C178.897 82.6951 178.769 81.6074 178.934 80.6852C179.082 79.8613 179.429 79.3693 179.612 79.3441C179.686 79.3334 179.896 79.454 180.151 79.9816C180.462 80.6247 180.447 81.8207 180.238 83.2873ZM187.672 83.3924C187.285 84.246 186.562 85.07 185.809 85.0135L185.122 84.8004C185.78 83.4729 186.447 82.479 187.068 82.1249C187.577 81.8337 187.818 81.8528 187.873 81.9036C188.01 82.0281 188.017 82.6298 187.672 83.3924Z" fill="white"/>
<path d="M177.112 104.324L176.428 104.154L175.768 103.907L175.743 103.984L174.155 103.591C174.155 103.591 174.132 105.053 174.501 105.168C174.634 105.209 174.95 105.307 175.299 105.415C175.299 105.415 176.024 105.64 176.644 105.832C176.992 105.94 177.308 106.038 177.441 106.079C177.81 106.193 178.621 104.975 178.621 104.975L177.088 104.401L177.112 104.324Z" fill="#93493A"/>
<path d="M172.849 101.83C172.917 102.242 172.972 102.73 172.953 103.17C172.943 103.434 173.114 103.674 173.368 103.753L179.18 105.554C179.435 105.633 179.708 105.531 179.85 105.307C180.084 104.934 180.407 104.562 180.696 104.261C181.078 103.867 181.403 103.591 181.403 103.591L172.646 100.878C172.646 100.878 172.76 101.29 172.849 101.83Z" fill="#EF7C59"/>
<g opacity="0.48">
<path d="M175.111 101.642L172.646 100.878C172.646 100.878 172.76 101.29 172.849 101.83C172.917 102.242 172.972 102.731 172.953 103.17C172.943 103.435 173.114 103.674 173.368 103.753L175.588 104.441C175.696 103.483 175.667 102.234 175.667 102.234L175.111 101.642Z" fill="#93493A"/>
</g>
<g opacity="0.44">
<path d="M172.849 101.83L180.696 104.261C181.078 103.867 181.403 103.591 181.403 103.591L172.646 100.878C172.646 100.878 172.76 101.29 172.849 101.83Z" fill="#F3CE90"/>
</g>
<g opacity="0.54">
<path d="M171.042 69.9033C170.99 70.072 170.945 70.2409 170.899 70.4099L170.886 70.4061C170.886 70.4061 168.241 78.5721 173.443 87.0847C173.443 87.0847 175.278 89.5222 173.627 94.8333L176.854 95.8334L177.828 96.1351C179.281 90.8295 177.444 88.3856 177.444 88.3856C171.813 79.1716 174.676 70.3327 174.676 70.3327L174.69 70.3369C174.74 70.1541 174.789 69.9709 174.845 69.7885C176.437 64.6695 180.291 60.8774 184.969 59.1606C178.706 59.4463 173.008 63.5814 171.042 69.9033Z" fill="#F19A6D"/>
</g>
<path d="M182.796 101.544L172.66 98.4033C171.931 98.1776 171.15 98.588 170.924 99.3151C170.698 100.042 171.109 100.822 171.838 101.048L181.974 104.188C182.703 104.414 183.484 104.004 183.71 103.276C183.936 102.549 183.525 101.77 182.796 101.544Z" fill="#F19A6D"/>
<g opacity="0.55">
<path d="M170.924 99.3152C170.698 100.042 171.109 100.822 171.838 101.048L175.667 102.234C175.306 101.822 175.158 101.239 175.331 100.68C175.505 100.122 175.958 99.7248 176.489 99.5897L172.66 98.4032C171.931 98.1777 171.15 98.5879 170.924 99.3152Z" fill="#EF7C59"/>
</g>
<path d="M182.797 101.544L172.659 98.4026C172.139 98.2415 171.592 98.4057 171.24 98.777L183.753 102.654C183.731 102.503 183.682 102.356 183.611 102.222C183.444 101.908 183.159 101.656 182.797 101.544Z" fill="#EF7C59"/>
<path d="M184.358 99.8183C184.191 99.5049 183.906 99.2527 183.544 99.1404L173.406 95.9993C172.886 95.8382 172.339 96.0023 171.988 96.3737C171.846 96.5224 171.735 96.7038 171.671 96.911C171.558 97.2729 171.605 97.65 171.769 97.9652C171.934 98.2778 172.219 98.5299 172.584 98.643L182.722 101.784C183.45 102.01 184.231 101.599 184.457 100.872C184.521 100.665 184.532 100.453 184.5 100.251C184.478 100.1 184.429 99.9524 184.358 99.8183Z" fill="#F19A6D"/>
<g opacity="0.55">
<path d="M171.672 96.911C171.446 97.6382 171.857 98.4179 172.585 98.6436L176.414 99.83C176.053 99.4183 175.905 98.8348 176.079 98.2763C176.252 97.718 176.705 97.3206 177.236 97.1854L173.407 95.9989C172.679 95.7734 171.898 96.1838 171.672 96.911Z" fill="#EF7C59"/>
</g>
<path d="M183.544 99.1404L173.406 95.9993C172.886 95.8382 172.339 96.0023 171.988 96.3737L184.501 100.251C184.478 100.1 184.429 99.9525 184.358 99.8184C184.191 99.5049 183.906 99.2527 183.544 99.1404Z" fill="#EF7C59"/>
<path d="M184.291 96.7353L174.154 93.5947C173.426 93.369 172.645 93.7794 172.419 94.5065C172.193 95.2339 172.604 96.0135 173.332 96.2393L183.469 99.38C184.197 99.6058 184.978 99.1953 185.204 98.4679C185.43 97.7406 185.019 96.9611 184.291 96.7353Z" fill="#F19A6D"/>
<g opacity="0.55">
<path d="M172.419 94.5064C172.193 95.2338 172.604 96.0135 173.332 96.2393L177.162 97.4257C176.8 97.014 176.652 96.4305 176.826 95.8721C176.999 95.3138 177.452 94.9164 177.984 94.7812L174.154 93.5947C173.426 93.3689 172.645 93.7793 172.419 94.5064Z" fill="#EF7C59"/>
</g>
<path d="M193.203 66.3524C191.603 66.9604 191.043 69.3893 191.953 71.7775C192.864 74.1656 194.899 75.6087 196.5 75.0006C198.1 74.3925 198.66 71.9637 197.75 69.5756C196.84 67.1875 194.804 65.7443 193.203 66.3524Z" fill="white"/>
<path d="M179.927 48.2186C179.787 47.7643 179.305 47.5092 178.85 47.6492C178.395 47.7891 178.139 48.2705 178.279 48.7246L180.227 55.0444C180.351 55.4457 180.742 55.6914 181.145 55.6467C181.198 55.6409 181.252 55.63 181.304 55.6137C181.759 55.4739 182.015 54.9925 181.875 54.5382L179.927 48.2186Z" fill="#F19A6D"/>
<path d="M173.007 59.5797L168.047 55.2696C167.687 54.9577 167.143 54.995 166.831 55.3536C166.518 55.7121 166.556 56.2555 166.915 56.5675L171.875 60.8777C172.064 61.0421 172.305 61.1093 172.536 61.0837C172.744 61.0607 172.943 60.963 173.091 60.7935C173.404 60.4351 173.366 59.8916 173.007 59.5797Z" fill="#F19A6D"/>
<path d="M167.14 70.5791L161.545 69.0381C161.086 68.9116 160.612 69.1806 160.485 69.6387C160.359 70.0968 160.628 70.5705 161.087 70.6969L166.681 72.2379C166.79 72.2679 166.9 72.2756 167.005 72.2639C167.346 72.2263 167.645 71.9869 167.741 71.6375C167.868 71.1793 167.599 70.7055 167.14 70.5791Z" fill="#F19A6D"/>
<path d="M204.947 55.9704L199.757 60.0788C199.384 60.3741 199.322 60.9152 199.617 61.2876C199.809 61.5287 200.103 61.6399 200.389 61.6081C200.544 61.5909 200.696 61.5312 200.828 61.4271L206.018 57.3188C206.391 57.0235 206.453 56.4824 206.158 56.11C205.862 55.7376 205.32 55.6753 204.947 55.9704Z" fill="#F19A6D"/>
<path d="M210.744 68.497C210.743 68.4972 210.742 68.4973 210.741 68.4974L204.208 69.2466C203.735 69.3008 203.396 69.7274 203.45 70.1996C203.504 70.6706 203.93 71.0088 204.401 70.9565C204.402 70.9563 204.404 70.9562 204.405 70.9561L210.938 70.2069C211.41 70.1527 211.75 69.726 211.695 69.254C211.641 68.783 211.216 68.4447 210.744 68.497Z" fill="#F19A6D"/>
<path d="M208.291 83.5215L202.806 81.6295C202.356 81.4742 201.865 81.7126 201.71 82.1618C201.555 82.6109 201.793 83.1009 202.243 83.256L207.729 85.1481C207.853 85.1912 207.982 85.2039 208.105 85.1903C208.425 85.1547 208.712 84.9402 208.825 84.6159C208.98 84.1666 208.741 83.6766 208.291 83.5215Z" fill="#F19A6D"/>
<path d="M193.745 49.1283C193.29 48.9873 192.807 49.2411 192.666 49.695L190.785 55.7448C190.644 56.1986 190.898 56.6808 191.353 56.8216C191.47 56.8578 191.589 56.8679 191.703 56.8553C192.033 56.8187 192.327 56.592 192.431 56.255L194.312 50.2051C194.453 49.7512 194.199 49.2692 193.745 49.1283Z" fill="#F19A6D"/>
<path d="M476.609 138.606L479.45 135.479L476.355 130.892L472.385 132.347C470.997 131.05 469.423 130.019 467.736 129.271L467.531 125.054L462.092 123.996L460.315 127.827C458.471 127.887 456.624 128.252 454.849 128.933L451.718 126.097L447.123 129.187L448.58 133.15C447.28 134.536 446.248 136.108 445.499 137.792L441.275 137.997L440.215 143.426L444.052 145.2C444.113 147.041 444.478 148.885 445.161 150.656L442.319 153.783L445.415 158.371L449.385 156.916C450.773 158.213 452.347 159.244 454.034 159.992L454.239 164.208L459.678 165.267L461.455 161.436C463.299 161.375 465.146 161.01 466.92 160.329L470.052 163.165L474.647 160.075L473.19 156.112C474.489 154.726 475.522 153.154 476.271 151.47L480.495 151.265L481.555 145.836L477.718 144.062C477.657 142.221 477.292 140.377 476.609 138.606ZM466.692 153.236C461.931 156.438 455.473 155.181 452.266 150.428C449.059 145.676 450.318 139.228 455.078 136.027C459.838 132.825 466.297 134.082 469.504 138.834C472.711 143.587 471.452 150.034 466.692 153.236Z" fill="#F3CE90"/>
<path d="M454.519 133.597C450.498 136.302 448.988 141.321 450.546 145.68C450.174 141.999 451.79 138.238 455.078 136.027C459.838 132.825 466.297 134.082 469.504 138.834C470.002 139.571 470.379 140.352 470.665 141.153C470.499 139.505 469.937 137.874 468.945 136.405C465.738 131.652 459.28 130.395 454.519 133.597Z" fill="#F19A6D"/>
<path d="M479.936 148.836L475.712 149.041C474.963 150.725 473.931 152.297 472.632 153.682L473.425 155.84C474.61 154.52 475.569 153.048 476.271 151.471L480.495 151.266L481.555 145.836L480.608 145.398L479.936 148.836Z" fill="#F19A6D"/>
<path d="M469.494 160.736L466.362 157.899C464.588 158.581 462.741 158.946 460.896 159.006L459.119 162.837L454.125 161.866L454.24 164.208L459.678 165.267L461.455 161.436C463.3 161.375 465.147 161.011 466.921 160.329L470.052 163.166L474.648 160.075L473.821 157.826L469.494 160.736Z" fill="#F19A6D"/>
<path d="M448.826 154.486L444.856 155.941L442.94 153.101L442.32 153.783L445.415 158.371L449.385 156.916C450.647 158.095 452.068 159.042 453.583 159.769L453.476 157.562C451.789 156.814 450.214 155.783 448.826 154.486Z" fill="#F19A6D"/>
<path d="M440.603 141.435L440.215 143.426L443.761 145.065C443.629 144.303 443.519 143.538 443.494 142.77L440.603 141.435Z" fill="#F19A6D"/>
<path d="M476.05 136.177C476.341 136.932 476.545 137.705 476.722 138.482L479.45 135.48L478.271 133.732L476.05 136.177Z" fill="#F19A6D"/>
<path d="M456.846 140.634C455.119 142.341 454.712 145.103 455.843 147.25C457.62 150.627 462.142 151.377 464.924 148.628C466.651 146.922 467.057 144.16 465.927 142.012C464.15 138.636 459.628 137.885 456.846 140.634Z" fill="#F3CE90"/>
<path d="M465.166 140.917C465.495 142.713 464.942 144.639 463.624 145.941C461.177 148.359 457.391 148.061 455.304 145.659C455.376 146.055 455.477 146.446 455.638 146.821C457.246 150.56 462.027 151.49 464.924 148.629C466.532 147.039 467.025 144.518 466.132 142.442C465.882 141.862 465.55 141.358 465.166 140.917Z" fill="#F19A6D"/>
<path d="M500.355 165.759L502.481 163.419L500.165 159.986L497.194 161.075C496.156 160.105 494.977 159.333 493.715 158.774L493.562 155.618L489.492 154.826L488.163 157.693C486.782 157.738 485.4 158.011 484.073 158.521L481.729 156.398L478.29 158.711L479.381 161.676C478.409 162.713 477.636 163.89 477.075 165.15L473.915 165.303L473.121 169.366L475.993 170.693C476.039 172.071 476.312 173.451 476.822 174.777L474.696 177.116L477.013 180.549L479.983 179.46C481.022 180.431 482.2 181.202 483.462 181.762L483.616 184.917L487.685 185.709L489.015 182.843C490.395 182.797 491.778 182.524 493.105 182.014L495.449 184.137L498.887 181.824L497.797 178.859C498.769 177.822 499.542 176.646 500.102 175.386L503.263 175.232L504.057 171.17L501.185 169.842C501.139 168.464 500.866 167.084 500.355 165.759ZM492.934 176.707C489.372 179.103 484.539 178.162 482.139 174.606C479.739 171.05 480.681 166.224 484.243 163.829C487.806 161.433 492.639 162.374 495.038 165.93C497.438 169.486 496.496 174.311 492.934 176.707Z" fill="#F19A6D"/>
<g opacity="0.5">
<path d="M483.825 162.01C480.816 164.034 479.686 167.79 480.852 171.052C480.574 168.298 481.783 165.483 484.244 163.828C487.806 161.432 492.639 162.373 495.039 165.929C495.411 166.481 495.693 167.065 495.907 167.664C495.783 166.431 495.362 165.211 494.621 164.111C492.221 160.555 487.388 159.614 483.825 162.01Z" fill="#EF7C59"/>
</g>
<path d="M502.845 173.414L499.684 173.567C499.123 174.828 498.351 176.004 497.379 177.041L497.972 178.655C498.859 177.667 499.577 176.566 500.102 175.386L503.263 175.232L504.056 171.17L503.347 170.842L502.845 173.414Z" fill="#EF7C59"/>
<path d="M495.031 182.319L492.687 180.196C491.359 180.706 489.977 180.979 488.597 181.024L487.267 183.891L483.531 183.164L483.616 184.917L487.686 185.709L489.015 182.843C490.396 182.797 491.778 182.524 493.105 182.014L495.449 184.137L498.887 181.824L498.269 180.141L495.031 182.319Z" fill="#EF7C59"/>
<path d="M479.565 177.642L476.595 178.731L475.161 176.605L474.696 177.116L477.013 180.549L479.983 179.46C480.928 180.343 481.991 181.051 483.125 181.595L483.045 179.944C481.782 179.384 480.604 178.613 479.565 177.642Z" fill="#EF7C59"/>
<path d="M473.412 167.875L473.121 169.365L475.775 170.592C475.676 170.021 475.594 169.449 475.575 168.875L473.412 167.875Z" fill="#EF7C59"/>
<path d="M499.937 163.941C500.155 164.506 500.307 165.085 500.44 165.666L502.481 163.419L501.599 162.112L499.937 163.941Z" fill="#EF7C59"/>
<path d="M484.954 168.018C484.359 168.899 484.155 170.031 484.39 171.066C485.257 174.872 490.023 175.775 492.224 172.517C492.819 171.636 493.023 170.505 492.787 169.469C491.921 165.663 487.155 164.76 484.954 168.018Z" fill="#F19A6D"/>
<g opacity="0.5">
<path d="M491.793 167.488C492.039 168.832 491.625 170.273 490.638 171.248C488.808 173.057 485.974 172.834 484.412 171.037C484.467 171.333 484.542 171.626 484.663 171.906C485.865 174.703 489.444 175.4 491.611 173.259C492.815 172.069 493.183 170.183 492.515 168.629C492.328 168.195 492.079 167.818 491.793 167.488Z" fill="#EF7C59"/>
</g>
<path d="M380.123 278.271H314.6V315.709H380.123V278.271Z" fill="#F3CE90"/>
<path d="M347.369 278.271H314.6V315.709H347.369V278.271Z" fill="#F19A6D"/>
<path d="M373.207 284.936H321.653C320.872 284.936 320.244 285.693 320.244 286.631C320.244 287.568 320.872 288.328 321.653 288.328H373.207C373.988 288.328 374.619 287.568 374.619 286.631C374.619 285.693 373.988 284.936 373.207 284.936Z" fill="white"/>
<path d="M334.564 284.936H320.624C320.409 284.936 320.244 285.693 320.244 286.631C320.244 287.568 320.409 288.328 320.624 288.328H334.564C334.781 288.328 334.952 287.568 334.952 286.631C334.952 285.693 334.782 284.936 334.564 284.936Z" fill="#93493A"/>
<path d="M354.355 291.043C353.553 291.043 352.901 291.828 352.901 292.793C352.901 293.757 353.553 294.539 354.355 294.539C355.157 294.539 355.811 293.757 355.811 292.793C355.811 291.828 355.157 291.043 354.355 291.043Z" fill="#EF7C59"/>
<path d="M361.108 291.043C360.306 291.043 359.655 291.828 359.655 292.793C359.655 293.757 360.306 294.539 361.108 294.539C361.912 294.539 362.561 293.757 362.561 292.793C362.561 291.828 361.912 291.043 361.108 291.043Z" fill="#F19A6D"/>
<path d="M367.908 291.043C367.106 291.043 366.454 291.828 366.454 292.793C366.454 293.757 367.106 294.539 367.908 294.539C368.709 294.539 369.358 293.757 369.358 292.793C369.358 291.828 368.709 291.043 367.908 291.043Z" fill="white"/>
<path d="M373.207 299.893H321.653C320.872 299.893 320.244 300.651 320.244 301.588C320.244 302.525 320.872 303.286 321.653 303.286H373.207C373.988 303.286 374.619 302.525 374.619 301.588C374.619 300.651 373.988 299.893 373.207 299.893Z" fill="white"/>
<path d="M334.564 299.893H320.624C320.409 299.893 320.244 300.651 320.244 301.588C320.244 302.525 320.409 303.286 320.624 303.286H334.564C334.781 303.286 334.952 302.525 334.952 301.588C334.952 300.651 334.782 299.893 334.564 299.893Z" fill="#93493A"/>
<path d="M354.355 306.001C353.553 306.001 352.901 306.786 352.901 307.75C352.901 308.715 353.553 309.497 354.355 309.497C355.157 309.497 355.811 308.715 355.811 307.75C355.811 306.786 355.157 306.001 354.355 306.001Z" fill="#EF7C59"/>
<path d="M361.108 306.001C360.306 306.001 359.655 306.786 359.655 307.75C359.655 308.715 360.306 309.497 361.108 309.497C361.912 309.497 362.561 308.715 362.561 307.75C362.561 306.786 361.912 306.001 361.108 306.001Z" fill="#F19A6D"/>
<path d="M367.908 306.001C367.106 306.001 366.454 306.786 366.454 307.75C366.454 308.715 367.106 309.497 367.908 309.497C368.709 309.497 369.358 308.715 369.358 307.75C369.358 306.786 368.709 306.001 367.908 306.001Z" fill="white"/>
<path d="M368.996 315.709H325.732C324.785 315.709 324.022 316.63 324.022 317.768C324.022 318.901 324.785 319.822 325.732 319.822H368.996C369.94 319.822 370.698 318.901 370.698 317.768C370.698 316.63 369.94 315.709 368.996 315.709Z" fill="#93493A"/>
<path d="M451.782 292.28H386.259V315.709H451.782V292.28Z" fill="#F3CE90"/>
<path d="M419.028 292.28H386.259V315.709H419.028V292.28Z" fill="#F19A6D"/>
<path d="M444.866 299.893H393.312C392.531 299.893 391.903 300.651 391.903 301.588C391.903 302.525 392.531 303.286 393.312 303.286H444.866C445.647 303.286 446.278 302.525 446.278 301.588C446.278 300.651 445.647 299.893 444.866 299.893Z" fill="white"/>
<path d="M406.223 299.893H392.283C392.068 299.893 391.903 300.651 391.903 301.588C391.903 302.525 392.068 303.286 392.283 303.286H406.223C406.441 303.286 406.611 302.525 406.611 301.588C406.611 300.651 406.441 299.893 406.223 299.893Z" fill="#93493A"/>
<path d="M426.014 306.001C425.212 306.001 424.56 306.786 424.56 307.75C424.56 308.715 425.212 309.497 426.014 309.497C426.816 309.497 427.47 308.715 427.47 307.75C427.47 306.786 426.816 306.001 426.014 306.001Z" fill="#EF7C59"/>
<path d="M432.767 306.001C431.965 306.001 431.314 306.786 431.314 307.75C431.314 308.715 431.965 309.497 432.767 309.497C433.572 309.497 434.221 308.715 434.221 307.75C434.221 306.786 433.572 306.001 432.767 306.001Z" fill="#F19A6D"/>
<path d="M439.567 306.001C438.765 306.001 438.113 306.786 438.113 307.75C438.113 308.715 438.765 309.497 439.567 309.497C440.368 309.497 441.017 308.715 441.017 307.75C441.017 306.786 440.368 306.001 439.567 306.001Z" fill="white"/>
<path d="M440.655 315.709H397.391C396.444 315.709 395.682 316.63 395.682 317.768C395.682 318.901 396.444 319.822 397.391 319.822H440.655C441.599 319.822 442.357 318.901 442.357 317.768C442.357 316.63 441.599 315.709 440.655 315.709Z" fill="#93493A"/>
</g>
<defs>
<clipPath id="clip0_20_7116">
<rect width="598" height="398" fill="white"/>
</clipPath>
</defs>
</svg>
