<svg width="492" height="328" viewBox="0 0 492 328" fill="none" xmlns="http://www.w3.org/2000/svg">
<path fill-rule="evenodd" clip-rule="evenodd" d="M120.533 228.429C119.662 228.786 118.667 228.37 118.309 227.5C117.951 226.631 118.366 225.634 119.237 225.277L142.867 215.493C143.737 215.135 144.732 215.55 145.091 216.421C145.448 217.291 145.033 218.287 144.162 218.645L120.533 228.429Z" fill="#C09162"/>
<path fill-rule="evenodd" clip-rule="evenodd" d="M167.792 225.277C168.663 225.634 169.078 226.63 168.72 227.5C168.362 228.37 167.367 228.786 166.497 228.429L142.867 218.645C141.997 218.287 141.581 217.291 141.939 216.421C142.296 215.55 143.292 215.135 144.162 215.493L167.792 225.277Z" fill="#C09162"/>
<path fill-rule="evenodd" clip-rule="evenodd" d="M127.846 165.77C127.986 164.837 128.857 164.195 129.789 164.335C130.722 164.475 131.365 165.344 131.225 166.278L117.722 255.259C117.583 256.192 116.712 256.834 115.779 256.694C114.846 256.554 114.204 255.684 114.343 254.75L127.846 165.77Z" fill="#A97F58"/>
<path fill-rule="evenodd" clip-rule="evenodd" d="M155.537 166.279C155.398 165.345 156.041 164.476 156.973 164.335C157.906 164.196 158.776 164.838 158.916 165.771L172.419 254.752C172.559 255.685 171.916 256.555 170.983 256.696C170.05 256.836 169.18 256.193 169.04 255.26L155.537 166.279Z" fill="#A97F58"/>
<path fill-rule="evenodd" clip-rule="evenodd" d="M119.238 230.459C118.367 230.101 117.952 229.107 118.309 228.236C118.667 227.365 119.663 226.95 120.533 227.307L144.163 237.092C145.034 237.449 145.449 238.445 145.091 239.315C144.734 240.185 143.738 240.601 142.867 240.244L119.238 230.459Z" fill="#C09162"/>
<path fill-rule="evenodd" clip-rule="evenodd" d="M166.497 227.307C167.368 226.95 168.363 227.365 168.721 228.236C169.079 229.106 168.663 230.101 167.793 230.459L144.163 240.244C143.293 240.601 142.298 240.185 141.939 239.315C141.582 238.445 141.997 237.449 142.868 237.092L166.497 227.307Z" fill="#C09162"/>
<path fill-rule="evenodd" clip-rule="evenodd" d="M141.622 170.455C141.622 169.511 142.387 168.747 143.331 168.747C144.275 168.747 145.041 169.511 145.041 170.455V267.928C145.041 268.872 144.275 269.637 143.331 269.637C142.387 269.637 141.622 268.872 141.622 267.928V170.455Z" fill="#A97F58"/>
<path fill-rule="evenodd" clip-rule="evenodd" d="M143.381 159.322C159.388 159.322 172.364 162.842 172.364 167.184C172.364 167.875 172.364 168.54 172.364 169.236C172.364 182.232 114.398 182.232 114.398 169.236C114.398 168.54 114.398 167.875 114.398 167.184C114.398 162.842 127.375 159.322 143.381 159.322Z" fill="#D2A368"/>
<path fill-rule="evenodd" clip-rule="evenodd" d="M116.375 167.111C116.346 167.022 116.395 166.925 116.485 166.897C116.574 166.868 116.67 166.917 116.699 167.007C117.126 168.328 118.924 169.596 121.202 170.645C124.062 171.963 127.666 172.924 130.305 173.221C130.399 173.233 130.466 173.317 130.456 173.41C130.446 173.504 130.361 173.571 130.268 173.561C127.598 173.258 123.952 172.287 121.059 170.954C118.702 169.869 116.836 168.535 116.375 167.111Z" fill="#A97F58"/>
<path fill-rule="evenodd" clip-rule="evenodd" d="M133.666 39.4239C123.443 41.079 117.985 43.2183 117.815 56.7555C117.773 60.0853 117.477 62.8622 117.055 65.1562C115.76 72.1872 109.838 73.7787 109.838 73.7787C122.35 90.1577 151.926 86.8272 158.428 72.4614C158.934 71.3456 156.045 71.545 153.388 64.0062C151.474 58.5746 151.84 53.6847 151.681 51.0332C151.415 46.6058 147.203 37.7531 133.666 39.4239Z" fill="#3F2716"/>
<path fill-rule="evenodd" clip-rule="evenodd" d="M121.328 162.766L161.682 199.727C169.591 191.954 175.744 192.2 170.299 182.164L147.235 139.647C134.828 140.113 109.665 144.424 121.328 162.766Z" fill="#7B8FC6"/>
<path fill-rule="evenodd" clip-rule="evenodd" d="M143.695 162.094L192.767 187.64C196.369 183.234 208.251 181.41 200.9 172.142C189.634 157.937 163.753 143.318 150.375 134.25C140.27 140.362 123.081 151.504 143.695 162.094Z" fill="#7B8FC6"/>
<path fill-rule="evenodd" clip-rule="evenodd" d="M155.311 100.661C157.759 109.214 156.157 114.044 156.163 118.259C156.165 119.775 156.296 121.146 156.509 122.423C157.016 125.452 155.824 126.315 156.678 128.918C157.478 131.354 160.341 135.515 160.436 138.678C160.493 140.564 165.138 141.852 163.286 143.473C161.48 145.053 155.177 150.338 150.572 152.036C142.74 154.924 119.715 159.84 115.107 151.642C114.307 150.22 115.859 149.673 116.288 147.624C116.689 145.708 116.67 147.093 116.964 146.111C117.73 143.552 115.304 142.116 116.023 138.533C117.896 129.212 119.573 108.192 122.753 91.5455C123.541 87.4238 115.196 81.5257 119.369 80.1088C128.645 76.96 142.717 76.4345 151.793 78.8729C164.583 82.3083 153.708 95.0551 155.311 100.661Z" fill="#88342A"/>
<path fill-rule="evenodd" clip-rule="evenodd" d="M179.43 108.123C172.693 97.452 161.512 81.8071 152.744 79.4265C146.487 77.7281 146.294 87.1233 150.385 96.3283C152.094 100.176 167.882 113.207 170.067 114.967C172.61 117.016 177.195 116.142 177.513 114.922C177.8 113.82 184.282 115.808 179.43 108.123Z" fill="#88342A"/>
<path fill-rule="evenodd" clip-rule="evenodd" d="M139.458 66.6279C140.083 70.2726 141.373 75.8611 141.228 80.331C140.946 88.9273 129.386 81.1865 129.124 78.5297C128.792 75.1499 128.747 71.0099 128.279 66.4658L139.458 66.6279Z" fill="#E3AB84"/>
<path fill-rule="evenodd" clip-rule="evenodd" d="M128.826 74.2755C128.693 71.8778 128.565 69.2479 128.279 66.4658C136.931 66.5911 140.846 67.4177 141.213 77.5791C141.245 78.4732 133.777 82.8573 128.826 74.2755Z" fill="#D67F54"/>
<path fill-rule="evenodd" clip-rule="evenodd" d="M124.686 64.8884C124.039 60.8159 119.71 36.0546 139.608 39.7944C148.209 41.4108 150.284 49.8181 149.525 58.2438C148.756 66.7796 144.804 74.7874 140.359 76.4707C131.008 78.7339 125.335 68.9602 124.686 64.8884Z" fill="#E3AB84"/>
<path fill-rule="evenodd" clip-rule="evenodd" d="M133.104 63.7277C133.824 64.4375 133.793 65.4156 133.035 65.9109C132.276 66.4061 131.078 66.2323 130.358 65.5218C129.639 64.8121 129.669 63.834 130.428 63.338C131.186 62.8434 132.385 63.0179 133.104 63.7277Z" fill="#CF806B"/>
<path fill-rule="evenodd" clip-rule="evenodd" d="M144.951 64.1068C144.144 64.7287 144.045 65.7029 144.733 66.2815C145.419 66.8607 146.632 66.8259 147.44 66.204C148.247 65.5822 148.346 64.6087 147.658 64.0294C146.972 63.4502 145.759 63.4849 144.951 64.1068Z" fill="#CF806B"/>
<path fill-rule="evenodd" clip-rule="evenodd" d="M135.684 55.4923C135.646 55.4589 135.606 55.4274 135.566 55.3972C135.101 55.0594 134.681 54.9092 134.125 54.8514C133.576 54.8173 133.148 54.8941 132.64 55.1361C132.399 55.2693 131.43 55.9627 131.606 56.3248C131.695 56.3779 132.606 56.0021 132.863 55.9489C133.261 55.8814 133.573 55.8873 133.966 55.9765C134.33 56.0716 134.595 56.1962 134.902 56.4304C134.91 56.4344 134.965 56.4816 134.977 56.4914C135.585 57.0582 135.475 57.3219 136.014 57.0018C136.821 56.6515 136.173 55.9752 135.684 55.4923Z" fill="#3F2716"/>
<path fill-rule="evenodd" clip-rule="evenodd" d="M144.123 55.8428C144.164 55.8126 144.207 55.7831 144.25 55.7549C144.745 55.4479 145.177 55.3246 145.737 55.3022C146.288 55.3029 146.708 55.4065 147.192 55.6794C147.419 55.827 148.323 56.5795 148.114 56.9298C148.02 56.977 147.147 56.5454 146.895 56.4765C146.504 56.384 146.193 56.3702 145.793 56.4345C145.421 56.506 145.145 56.6136 144.818 56.8281C144.809 56.8314 144.751 56.8753 144.738 56.8845C144.079 57.4113 144.165 57.6816 143.657 57.328C142.885 56.9265 143.592 56.2928 144.123 55.8428Z" fill="#3F2716"/>
<path fill-rule="evenodd" clip-rule="evenodd" d="M138.947 65.5441C138.853 65.5389 138.781 65.4588 138.786 65.365C138.792 65.2706 138.872 65.1991 138.966 65.2037C139.354 65.226 139.818 65.2489 140.18 65.2004C140.479 65.161 140.702 65.079 140.712 64.9137C140.748 64.3843 140.492 61.0544 140.491 61.0453C140.484 60.9508 140.555 60.8695 140.649 60.8622C140.743 60.8557 140.825 60.9259 140.832 61.0197C140.832 61.0295 141.09 64.3817 141.053 64.9353C141.028 65.3119 140.683 65.4772 140.224 65.5382C139.831 65.5913 139.349 65.5677 138.947 65.5441Z" fill="#D67F54"/>
<path fill-rule="evenodd" clip-rule="evenodd" d="M123.811 59.7662C123.781 59.0728 120.997 58.1209 119.946 60.3343C118.895 62.5476 120.436 65.8302 123.624 66.2357C126.812 66.6411 125.898 66.031 125.898 66.031L123.811 59.7662Z" fill="#E3AB84"/>
<path fill-rule="evenodd" clip-rule="evenodd" d="M121.171 62.0418C121.166 62.1363 121.087 62.2085 120.993 62.2039C120.899 62.1993 120.826 62.1192 120.831 62.0254C120.863 61.378 121.01 60.9575 121.227 60.7154C121.402 60.5206 121.617 60.4373 121.851 60.4432C122.069 60.4484 122.299 60.533 122.525 60.6754C123.056 61.0106 123.584 61.6837 123.856 62.3974C124.026 62.8435 124.162 63.3132 124.19 63.5769C124.2 63.6622 124.198 63.7337 124.185 63.7868C124.15 63.9278 124.065 63.9888 123.925 63.9515C123.87 63.937 123.811 63.8977 123.75 63.8288C123.509 63.5624 123.211 63.4437 122.97 63.4562C122.882 63.4608 122.803 63.4837 122.741 63.5237C122.686 63.5598 122.642 63.6123 122.619 63.6786C122.564 63.8347 122.603 64.0715 122.794 64.3883C122.842 64.469 122.816 64.574 122.736 64.6225C122.655 64.6717 122.55 64.6455 122.501 64.5648C122.252 64.1509 122.211 63.8124 122.297 63.567C122.347 63.4247 122.438 63.3145 122.556 63.2377C122.668 63.1649 122.805 63.1236 122.953 63.1157C123.223 63.1013 123.541 63.2016 123.819 63.426C123.767 63.182 123.662 62.8461 123.538 62.5181C123.29 61.8693 122.816 61.2612 122.344 60.9634C122.169 60.8525 121.997 60.7862 121.844 60.783C121.708 60.7797 121.583 60.8276 121.482 60.9417C121.313 61.1293 121.198 61.4796 121.171 62.0418Z" fill="#D67F54"/>
<path fill-rule="evenodd" clip-rule="evenodd" d="M135.222 58.9349C135.751 59.4263 135.818 60.3197 135.372 60.9305C134.925 61.5412 134.134 61.6389 133.605 61.1476C133.075 60.6569 133.009 59.7634 133.455 59.1521C133.901 58.5413 134.693 58.4442 135.222 58.9349Z" fill="#3F2716"/>
<path fill-rule="evenodd" clip-rule="evenodd" d="M144.396 59.1596C143.806 59.586 143.622 60.4644 143.985 61.1224C144.348 61.7804 145.12 61.968 145.71 61.5416C146.3 61.1152 146.484 60.2368 146.121 59.5788C145.759 58.9209 144.986 58.7332 144.396 59.1596Z" fill="#3F2716"/>
<path fill-rule="evenodd" clip-rule="evenodd" d="M136.233 68.6442C138.169 68.6107 140.088 68.6127 142.02 68.6514C141.835 71.116 139.985 71.7575 138.895 71.7536C137.809 71.749 136.17 70.8588 136.233 68.6442Z" fill="#88342A"/>
<path fill-rule="evenodd" clip-rule="evenodd" d="M136.976 70.8689C138.352 69.7642 139.817 69.7878 141.022 70.9391C140.36 71.5544 139.507 71.7558 138.895 71.7532C138.298 71.7512 137.533 71.4803 136.976 70.8689Z" fill="#D17B65"/>
<path fill-rule="evenodd" clip-rule="evenodd" d="M119.902 122.664C119.38 117.311 123.457 104.681 123.823 94.9294C123.952 91.4769 130.305 79.3146 126.843 78.9623C118.194 78.0827 111.147 83.3484 109.421 89.1087C108.056 93.6626 105.268 112.328 105.155 115.58C105.123 116.499 104.475 129.721 105.298 127.923C108.537 120.847 112.698 128.052 119.902 122.664Z" fill="#88342A"/>
<path fill-rule="evenodd" clip-rule="evenodd" d="M157.161 88.8335C158.173 88.8551 159.082 89.231 159.733 89.8227C160.384 90.4138 160.778 91.2207 160.759 92.101C160.74 92.982 160.313 93.7712 159.638 94.3341C158.962 94.8969 158.038 95.2347 157.026 95.2131C156.014 95.1921 155.105 94.8156 154.454 94.2238C153.804 93.6321 153.41 92.8259 153.429 91.9449C153.447 91.0646 153.875 90.2754 154.55 89.7119C155.225 89.1497 156.149 88.8119 157.161 88.8335ZM158.635 90.7372C158.255 90.3922 157.724 90.1724 157.132 90.1593C156.541 90.1468 156.001 90.3443 155.606 90.6729C155.211 91.0016 154.962 91.4627 154.951 91.9777C154.94 92.4927 155.17 92.9637 155.55 93.3087C155.93 93.6538 156.461 93.8742 157.053 93.8867C157.644 93.8991 158.184 93.7023 158.579 93.373C158.974 93.0444 159.223 92.5832 159.234 92.0682C159.245 91.5539 159.016 91.0836 158.635 90.7372Z" fill="#E8DAC7"/>
<path fill-rule="evenodd" clip-rule="evenodd" d="M148.981 99.1435C155.566 99.2833 157.03 94.9714 157.186 87.6471C157.219 86.0517 153.388 84.6112 149.305 84.5679C145.436 84.5265 141.304 85.7985 141.272 87.3099C141.107 95.1078 142.398 99.0045 148.981 99.1435Z" fill="#E8DAC7"/>
<path fill-rule="evenodd" clip-rule="evenodd" d="M127.084 78.4385C127.059 78.348 127.111 78.2535 127.202 78.2279C127.293 78.2023 127.387 78.2555 127.413 78.3466C128.294 81.4574 130.979 83.9345 133.868 85.1933C135.152 85.7529 136.475 86.0711 137.695 86.0973C138.903 86.1229 140.01 85.8618 140.877 85.2629C141.898 84.5583 142.59 83.3769 142.728 81.6358C142.994 78.262 142.671 77.8619 142.67 77.8606C142.614 77.7845 142.631 77.6782 142.707 77.6224C142.783 77.5667 142.89 77.5831 142.946 77.6592C142.946 77.6605 143.345 78.1623 143.069 81.6627C142.923 83.5172 142.174 84.7814 141.071 85.5443C140.142 86.1852 138.966 86.4653 137.689 86.4384C136.424 86.4115 135.056 86.0835 133.733 85.5069C130.759 84.2106 127.995 81.6549 127.084 78.4385Z" fill="#470F00"/>
<path fill-rule="evenodd" clip-rule="evenodd" d="M161.56 230.053C161.757 231.522 177.883 255.673 182.063 248.662C184.874 243.949 176.512 236.141 175.509 225.829C174.209 212.465 160.782 224.235 161.56 230.053Z" fill="#160831"/>
<path fill-rule="evenodd" clip-rule="evenodd" d="M167.34 220.198C165.248 226.498 175.652 228.875 175.872 224.946C175.872 224.946 194.707 197.421 196.27 195.418C198.131 193.032 208.918 180.163 200.201 171.235C197.947 169.557 192.381 177.266 185.828 180.798C175.372 186.432 172.681 205.8 167.34 220.198Z" fill="#7B8FC6"/>
<path fill-rule="evenodd" clip-rule="evenodd" d="M142.75 245.794C142.961 247.26 159.322 271.253 163.434 264.201C166.199 259.46 157.76 251.735 156.657 241.434C155.226 228.083 141.916 239.983 142.75 245.794Z" fill="#160831"/>
<path fill-rule="evenodd" clip-rule="evenodd" d="M147.769 237.155C147.256 243.774 157.925 243.575 157.193 239.71C157.193 239.71 168.847 208.46 169.882 206.14C171.114 203.376 178.696 192.896 170.155 182.647C167.564 181.562 161.738 189.459 156.227 194.464C147.435 202.449 149.487 221.895 147.769 237.155Z" fill="#7B8FC6"/>
<path fill-rule="evenodd" clip-rule="evenodd" d="M166.749 105.707C165.986 105.812 163.299 102.206 161.983 102.341C155.913 102.965 152.025 99.8289 155.193 99.1171C153.623 98.3398 151.941 96.4124 154.714 96.0149C154.717 95.9893 154.721 95.9644 154.725 95.9401C154.231 95.7742 152.936 95.2435 153.277 94.3401C153.695 93.2308 155.196 93.0019 155.667 93.181C156.138 93.3601 154.399 92.2226 154.809 91.4452C155.953 89.2778 162.286 91.2884 166.016 94.182C169.77 97.094 169.403 105.343 166.749 105.707Z" fill="#E4AE7C"/>
<path fill-rule="evenodd" clip-rule="evenodd" d="M169.634 97.76C169.327 97.4012 168.948 96.8836 168.516 96.2906C167.237 94.5351 165.95 90.0435 161.719 89.1972C161.157 89.0851 160.364 88.4146 159.697 88.4717C157.74 88.639 160.617 91.8409 162.575 93.2454C161.892 97.5284 165.487 104.176 169.634 97.76Z" fill="#E3AB84"/>
<path fill-rule="evenodd" clip-rule="evenodd" d="M168.13 96.0811C169.849 97.9808 176.18 104.539 176.18 104.539C176.18 104.539 171.206 112.861 170.482 112.499C169.758 112.137 162.521 102.097 162.521 102.097L168.13 96.0811Z" fill="#E3AB84"/>
<path fill-rule="evenodd" clip-rule="evenodd" d="M172.432 100.225C171.165 99.0548 170.081 98.0354 169.367 97.344C169.335 97.3132 169.441 100.289 168.152 102.3C166.916 104.229 164.282 105.192 164.349 105.422C170.736 127.273 183.034 129.209 185.553 120.471C186.057 118.72 185.824 116.757 184.931 114.726C182.66 109.557 176.977 104.427 172.432 100.225Z" fill="#88342A"/>
<path fill-rule="evenodd" clip-rule="evenodd" d="M172.411 100.245C171.772 99.655 171.184 99.1072 170.671 98.6251C170.176 98.1593 169.741 97.7467 169.388 97.4056C169.388 97.4279 169.389 97.4594 169.388 97.5014C169.367 98.139 169.288 100.583 168.178 102.316C167.334 103.633 165.846 104.5 164.999 104.993C164.613 105.218 164.364 105.362 164.379 105.414C166.971 114.282 170.536 119.867 174.025 122.787C175.701 124.19 177.359 124.977 178.882 125.218C180.403 125.458 181.789 125.153 182.924 124.371C184.105 123.558 185.016 122.23 185.525 120.463C185.774 119.598 185.842 118.681 185.739 117.729C185.635 116.762 185.353 115.758 184.905 114.738C182.72 109.767 177.373 104.828 172.923 100.719L172.411 100.245ZM170.711 98.5805C171.235 99.0731 171.823 99.6202 172.451 100.201L172.964 100.674C177.416 104.788 182.769 109.731 184.96 114.713C185.41 115.739 185.694 116.748 185.799 117.722C185.902 118.681 185.834 119.606 185.582 120.479C185.068 122.26 184.15 123.6 182.958 124.421C181.81 125.211 180.408 125.52 178.872 125.277C177.339 125.035 175.671 124.243 173.986 122.833C170.489 119.906 166.917 114.311 164.321 105.43C164.293 105.334 164.558 105.18 164.97 104.94C165.812 104.45 167.292 103.588 168.127 102.284C169.229 100.565 169.308 98.1337 169.328 97.5C169.331 97.4272 169.332 97.3761 169.337 97.3478C169.336 97.3393 169.339 97.3301 169.346 97.3229C169.359 97.3091 169.374 97.3091 169.388 97.3223L169.389 97.3229C169.741 97.664 170.19 98.0904 170.711 98.5805Z" fill="#470F00"/>
<path fill-rule="evenodd" clip-rule="evenodd" d="M165.956 174.144C166.005 174.224 165.98 174.329 165.899 174.377C165.819 174.427 165.713 174.402 165.665 174.321C163.682 171.076 155.391 161.164 155.368 161.135L155.36 161.126L149.036 153.536C148.976 153.464 148.986 153.357 149.058 153.297C149.13 153.237 149.238 153.246 149.298 153.319L155.621 160.908L155.629 160.917C155.653 160.945 163.959 170.875 165.956 174.144Z" fill="#5C65A7"/>
<path fill-rule="evenodd" clip-rule="evenodd" d="M153.861 158.945C153.861 159.039 153.784 159.116 153.69 159.116C153.595 159.116 153.519 159.039 153.519 158.945C153.519 157.168 151.187 151.518 151.18 151.502C151.144 151.415 151.186 151.316 151.273 151.28C151.36 151.244 151.46 151.285 151.495 151.373C151.502 151.389 153.861 157.103 153.861 158.945Z" fill="#5C65A7"/>
<path fill-rule="evenodd" clip-rule="evenodd" d="M159.116 193.562C159.206 193.536 159.301 193.59 159.326 193.68C159.352 193.772 159.299 193.865 159.208 193.89C158.356 194.132 157.625 194.289 157.08 194.407C156.718 194.485 156.444 194.544 156.289 194.586C156.896 194.948 158.829 195.969 158.834 195.972C158.918 196.015 158.95 196.119 158.906 196.203C158.862 196.286 158.759 196.318 158.676 196.274C158.668 196.27 156.268 195.002 155.942 194.769C155.802 194.67 155.78 194.561 155.866 194.441C155.969 194.296 156.369 194.21 157.008 194.073C157.549 193.956 158.274 193.8 159.116 193.562Z" fill="#5C65A7"/>
<path fill-rule="evenodd" clip-rule="evenodd" d="M188.128 180.409C188.214 180.37 188.315 180.409 188.354 180.494C188.393 180.581 188.354 180.681 188.269 180.72C187.213 181.199 186.192 181.601 185.351 181.931C184.22 182.374 183.432 182.684 183.394 182.808C183.381 182.852 183.427 182.745 183.453 182.753C184.359 183.026 188.873 184.561 188.886 184.565C188.975 184.595 189.023 184.691 188.993 184.781C188.963 184.87 188.866 184.918 188.776 184.887C188.763 184.883 184.258 183.351 183.355 183.081C183.105 183.005 183.016 182.881 183.067 182.711C183.152 182.426 184.005 182.092 185.227 181.612C186.063 181.285 187.079 180.886 188.128 180.409Z" fill="#5C65A7"/>
<path fill-rule="evenodd" clip-rule="evenodd" d="M126.614 162.696C126.54 162.755 126.433 162.743 126.375 162.67C126.317 162.596 126.328 162.49 126.402 162.431C127.494 161.557 127.998 160.373 128.206 159.21C128.416 158.033 128.327 156.873 128.238 156.069C128.227 155.975 128.295 155.891 128.388 155.881C128.482 155.87 128.567 155.938 128.577 156.031C128.669 156.856 128.76 158.047 128.541 159.269C128.319 160.503 127.782 161.761 126.614 162.696Z" fill="#5C65A7"/>
<path fill-rule="evenodd" clip-rule="evenodd" d="M123.442 156.051C123.442 155.956 123.518 155.879 123.613 155.879C123.706 155.879 123.784 155.956 123.784 156.051C123.784 156.14 123.78 156.272 123.777 156.409C123.734 158.212 123.663 161.137 132.581 168.037C142.188 175.468 156.451 194.066 156.493 194.119C156.55 194.194 156.536 194.301 156.462 194.358C156.387 194.415 156.281 194.402 156.223 194.328C156.182 194.274 141.944 175.71 132.373 168.307C123.318 161.303 123.391 158.27 123.437 156.401C123.439 156.293 123.442 156.188 123.442 156.051Z" fill="#5C65A7"/>
<path fill-rule="evenodd" clip-rule="evenodd" d="M117.466 148.418C117.385 148.369 117.359 148.265 117.408 148.184C117.455 148.103 117.56 148.077 117.641 148.126C121.405 150.369 124.24 150.27 127.658 150.15C128.48 150.121 129.334 150.091 130.218 150.091C132.528 150.091 136.531 149.52 140.56 148.725C144.701 147.907 148.861 146.854 151.234 145.942C155.905 144.145 159.039 141.19 159.048 141.182C159.117 141.118 159.225 141.122 159.289 141.191C159.353 141.259 159.349 141.368 159.28 141.432C159.271 141.44 156.091 144.438 151.355 146.26C148.961 147.181 144.78 148.24 140.625 149.06C136.577 149.859 132.549 150.433 130.218 150.433C129.306 150.433 128.472 150.462 127.669 150.491C124.197 150.611 121.315 150.712 117.466 148.418Z" fill="#470F00"/>
<path fill-rule="evenodd" clip-rule="evenodd" d="M160.103 91.2641C160.014 91.2332 159.967 91.1362 159.998 91.0476C160.028 90.959 160.125 90.9111 160.214 90.942C161.399 91.3526 163.526 92.3478 163.532 92.3504C163.618 92.3904 163.654 92.4921 163.615 92.5767C163.575 92.662 163.473 92.6987 163.389 92.6594C163.382 92.6561 161.269 91.6675 160.103 91.2641Z" fill="#D67F54"/>
<path fill-rule="evenodd" clip-rule="evenodd" d="M141.577 87.5838C141.499 87.5313 141.479 87.4257 141.531 87.3476C141.583 87.2696 141.689 87.2486 141.767 87.3004C142.686 87.917 145.499 88.2555 148.369 88.3303C151.483 88.4116 154.643 88.1814 155.515 87.6579C155.596 87.6094 155.701 87.6356 155.749 87.7163C155.797 87.7976 155.77 87.9019 155.69 87.9498C154.763 88.5055 151.527 88.7528 148.36 88.6708C145.436 88.5947 142.554 88.2378 141.577 87.5838Z" fill="#20201E"/>
<path fill-rule="evenodd" clip-rule="evenodd" d="M134.377 102.269L136.355 96.0663L139.505 83.8726C142.345 84.5122 141.105 88.1949 140.97 90.3309C144.077 96.2487 136.745 105.345 134.377 102.269Z" fill="#E4AE7C"/>
<path fill-rule="evenodd" clip-rule="evenodd" d="M136.222 97.9614C136.807 96.3463 140.847 88.7026 143.97 88.7085C146.153 88.7131 148.796 96.343 146.849 98.8529C144.719 101.598 142.881 102.999 141.359 103.457C140.65 103.671 134.22 110.192 133.651 110.037C131.744 109.516 136.428 100.637 136.222 97.9614Z" fill="#E4AE7C"/>
<path fill-rule="evenodd" clip-rule="evenodd" d="M142.573 93.0811C142.647 93.0057 150.892 84.8378 149.977 83.7646C149.061 82.6914 142.198 89.4134 141.065 90.4145L142.573 93.0811Z" fill="#E4AE7C"/>
<path fill-rule="evenodd" clip-rule="evenodd" d="M145.293 97.1699L153.827 91.9088C153.827 91.9088 155.383 89.8634 152.45 90.9176C149.515 91.9724 144.642 94.2763 144.642 94.2763L145.293 97.1699Z" fill="#E4AE7C"/>
<path fill-rule="evenodd" clip-rule="evenodd" d="M143.812 99.8459L151.996 96.1795C151.996 96.1795 154.314 94.1413 151.191 94.7166C148.07 95.2919 143.725 96.9227 143.725 96.9227L143.812 99.8459Z" fill="#E4AE7C"/>
<path fill-rule="evenodd" clip-rule="evenodd" d="M145.093 94.3062L153.899 88.0499C153.899 88.0499 154.179 86.0242 151.408 87.3624C148.637 88.7 144.099 91.4756 144.099 91.4756L145.093 94.3062Z" fill="#E4AE7C"/>
<path fill-rule="evenodd" clip-rule="evenodd" d="M112.874 114.397C122.387 109.326 134.988 99.2908 135.003 99.2954C135.614 99.4581 136.592 100.6 137.523 102.026C138.232 103.111 138.912 104.362 139.383 105.472C139.927 106.752 140.19 107.846 139.896 108.287C132.575 119.269 122.894 129.122 117.205 132.7C106.335 139.535 98.0896 122.28 112.874 114.397Z" fill="#88342A"/>
<path fill-rule="evenodd" clip-rule="evenodd" d="M112.795 114.247C121.583 109.562 133.018 100.629 134.691 99.3223C134.871 99.1819 134.966 99.1072 135.05 99.1308L135.055 99.1321C135.379 99.222 135.779 99.5395 136.212 100.008C136.671 100.505 137.176 101.18 137.668 101.933C138.029 102.486 138.384 103.082 138.705 103.679C139.02 104.261 139.306 104.849 139.542 105.405C139.83 106.086 140.042 106.717 140.135 107.231C140.226 107.73 140.206 108.131 140.039 108.38L140.04 108.381C136.556 113.607 132.537 118.579 128.666 122.743C124.391 127.343 120.295 130.959 117.297 132.843C113.866 135.001 110.685 134.8 108.375 133.255C107.272 132.518 106.37 131.474 105.736 130.234C105.104 128.996 104.738 127.565 104.707 126.048C104.623 122.02 106.898 117.391 112.795 114.247ZM134.9 99.5906C133.225 100.899 121.769 109.849 112.955 114.547C107.19 117.621 104.966 122.127 105.046 126.042C105.077 127.505 105.429 128.887 106.038 130.078C106.646 131.267 107.509 132.267 108.564 132.972C110.767 134.445 113.815 134.63 117.115 132.555C120.088 130.685 124.16 127.09 128.416 122.512C132.273 118.362 136.28 113.405 139.755 108.191C139.869 108.021 139.876 107.705 139.8 107.291C139.711 106.803 139.507 106.197 139.227 105.537C138.998 104.996 138.716 104.418 138.404 103.84C138.085 103.249 137.736 102.662 137.381 102.118C136.901 101.382 136.407 100.723 135.96 100.238C135.568 99.8137 135.221 99.5303 134.963 99.4601L134.957 99.4581C134.876 99.4365 134.991 99.5198 134.9 99.5906Z" fill="#470F00"/>
<path fill-rule="evenodd" clip-rule="evenodd" d="M141.9 39.9938C141.191 40.7266 138.34 45.0503 144.52 50.234C147.374 52.6284 149.369 58.9352 149.796 62.9289C149.967 64.5236 153.383 50.5003 152.383 47.2151C150.527 41.1103 146.184 36.2487 141.9 39.9938Z" fill="#3F2716"/>
<path fill-rule="evenodd" clip-rule="evenodd" d="M121.733 43.8583C119.223 46.3065 117.897 50.1907 117.815 56.7553C117.645 70.2925 113.276 74.6831 113.276 74.6831C113.276 74.6831 113.48 74.8162 113.872 75.0406C117.924 74.3019 146.172 46.7316 143.077 39.7235C141.238 32.2897 128.275 38.0317 122.327 43.243C122.115 43.4293 121.918 43.6359 121.733 43.8583Z" fill="#3F2716"/>
<path fill-rule="evenodd" clip-rule="evenodd" d="M118.866 90.5945C118.822 90.5118 118.853 90.4088 118.937 90.3642C119.019 90.3203 119.123 90.3511 119.167 90.4344C119.809 91.6388 120.275 92.9994 120.603 94.3396C121.021 96.0511 121.216 97.7318 121.267 99.011C121.359 101.289 120.094 110.052 120.091 110.078C120.077 110.171 119.991 110.236 119.898 110.223C119.805 110.21 119.74 110.123 119.753 110.03C119.756 110.004 121.017 101.27 120.928 99.0247C120.877 97.7652 120.685 96.1088 120.272 94.4209C119.95 93.1037 119.494 91.7707 118.866 90.5945Z" fill="#470F00"/>
<path fill-rule="evenodd" clip-rule="evenodd" d="M122.012 88.083C122.005 87.9885 122.077 87.9079 122.171 87.9013C122.265 87.8947 122.347 87.9662 122.352 88.0601C122.716 93.4209 121.268 100.118 121.264 100.138C121.244 100.23 121.154 100.289 121.061 100.27C120.969 100.25 120.911 100.159 120.93 100.067C120.934 100.048 122.373 93.3959 122.012 88.083Z" fill="#470F00"/>
<path fill-rule="evenodd" clip-rule="evenodd" d="M127.909 134.102C127.816 134.117 127.728 134.054 127.713 133.961C127.698 133.867 127.761 133.78 127.854 133.765C133.878 132.782 138.689 131.279 142.435 129.701C149.002 126.933 152.287 123.941 153.089 123.139C153.772 122.456 137.579 128.828 137.532 128.846C137.444 128.881 137.345 128.837 137.312 128.75C137.277 128.662 137.321 128.563 137.408 128.529C137.459 128.509 155.179 121.532 153.33 123.381C152.519 124.193 149.194 127.222 142.566 130.015C138.799 131.602 133.962 133.114 127.909 134.102Z" fill="#470F00"/>
<path fill-rule="evenodd" clip-rule="evenodd" d="M155.537 93.3508C155.444 93.3376 155.38 93.251 155.393 93.1579C155.406 93.0647 155.493 92.9998 155.586 93.0129C155.902 93.0575 157.114 93.1927 157.118 93.1927C157.211 93.2025 157.28 93.2865 157.269 93.3803C157.259 93.4741 157.175 93.5417 157.082 93.5318C157.078 93.5325 155.856 93.3967 155.537 93.3508Z" fill="#D67F54"/>
<path fill-rule="evenodd" clip-rule="evenodd" d="M154.702 96.1572C154.608 96.1572 154.532 96.0805 154.532 95.9866C154.532 95.8915 154.608 95.8154 154.702 95.8154C155.342 95.8154 156.571 95.9519 156.575 95.9519C156.668 95.9624 156.736 96.0457 156.726 96.1395C156.716 96.2333 156.632 96.3009 156.538 96.291C156.535 96.2917 155.329 96.1572 154.702 96.1572Z" fill="#D67F54"/>
<path fill-rule="evenodd" clip-rule="evenodd" d="M155.291 99.2331C155.196 99.2331 155.12 99.1563 155.12 99.0618C155.12 98.9674 155.196 98.8906 155.291 98.8906H156.512C156.606 98.8906 156.683 98.9674 156.683 99.0618C156.683 99.1563 156.606 99.2331 156.512 99.2331H155.291Z" fill="#D67F54"/>
<path fill-rule="evenodd" clip-rule="evenodd" d="M139.203 41.7657C139.199 41.6719 139.271 41.5912 139.365 41.5866C139.458 41.582 139.538 41.6549 139.543 41.748C139.643 43.6445 136.345 49.0342 132.115 54.2094C128.522 58.6046 124.252 62.8607 120.82 64.7021C120.737 64.7467 120.634 64.7159 120.589 64.6326C120.545 64.5493 120.576 64.4463 120.659 64.4017C124.048 62.5832 128.281 58.3599 131.851 53.9936C136.035 48.8748 139.299 43.5828 139.203 41.7657Z" fill="#593720"/>
<path fill-rule="evenodd" clip-rule="evenodd" d="M119.954 60.6029C119.887 60.6692 119.779 60.6679 119.713 60.601C119.647 60.5334 119.648 60.4258 119.715 60.3602C123.629 56.499 128.916 50.5517 132.786 46.1978C135.533 43.1068 137.57 40.8153 137.934 40.6133C138.016 40.5674 138.12 40.5976 138.166 40.6796C138.211 40.7616 138.182 40.8659 138.1 40.9118C137.789 41.0843 135.768 43.358 133.041 46.4255C129.17 50.7793 123.882 56.7279 119.954 60.6029Z" fill="#593720"/>
<path fill-rule="evenodd" clip-rule="evenodd" d="M120.712 55.0386C120.67 55.1232 120.568 55.1586 120.483 55.1173C120.399 55.076 120.363 54.9736 120.405 54.889C121.265 53.1231 122.625 50.4269 124.316 47.86C126.014 45.2845 128.046 42.8442 130.244 41.6083C134.624 39.145 136.652 39.145 136.658 39.145C136.752 39.1444 136.829 39.2198 136.83 39.3136C136.83 39.4074 136.755 39.4842 136.66 39.4855C136.654 39.4855 134.715 39.4848 130.411 41.9061C128.266 43.1119 126.273 45.5115 124.601 48.0469C122.925 50.5903 121.57 53.2766 120.712 55.0386Z" fill="#593720"/>
<path fill-rule="evenodd" clip-rule="evenodd" d="M143.364 42.3096C143.359 42.2152 143.43 42.1345 143.525 42.1292C143.619 42.1233 143.699 42.1955 143.705 42.2893C143.957 46.3316 145.374 47.8214 146.749 49.2665C147.328 49.8759 147.9 50.4775 148.383 51.2549C150.035 53.9163 150.217 58.6519 150.217 58.665C150.221 58.7588 150.148 58.8382 150.053 58.8415C149.959 58.8454 149.88 58.772 149.876 58.6782C149.875 58.6644 149.697 54.0192 148.092 51.4346C147.627 50.6848 147.068 50.097 146.502 49.5014C145.085 48.0123 143.624 46.4766 143.364 42.3096Z" fill="#593720"/>
<path fill-rule="evenodd" clip-rule="evenodd" d="M144.461 41.1839C144.427 41.096 144.471 40.9983 144.559 40.9648C144.647 40.9314 144.746 40.9753 144.779 41.0632C145.73 43.5344 147.135 45.1593 148.353 46.5671C148.859 47.1529 149.334 47.7013 149.734 48.2615C151.125 50.2098 150.942 53.6053 150.941 53.6151C150.937 53.7089 150.857 53.7817 150.763 53.7772C150.669 53.7726 150.596 53.6925 150.6 53.5987C150.601 53.5895 150.778 50.3102 149.456 48.459C149.065 47.9125 148.596 47.3693 148.094 46.7901C146.86 45.362 145.434 43.7135 144.461 41.1839Z" fill="#593720"/>
<path fill-rule="evenodd" clip-rule="evenodd" d="M433.576 265.624C432.526 266.676 405.069 276.136 406.038 268.008C406.689 262.542 418.054 261.396 425.13 253.784C434.299 243.919 437.736 261.457 433.576 265.624Z" fill="#160831"/>
<path fill-rule="evenodd" clip-rule="evenodd" d="M393.414 265.624C392.363 266.676 364.906 276.136 365.875 268.008C366.526 262.542 377.891 261.396 384.968 253.784C394.136 243.919 397.574 261.457 393.414 265.624Z" fill="#160831"/>
<path fill-rule="evenodd" clip-rule="evenodd" d="M394.486 134.608C394.486 134.608 400.756 193.026 406.127 203.073C411.499 213.12 417.775 210.896 419.417 210.609C422.887 210.002 427.164 177.753 427.141 153.382C427.132 143.337 424.134 131.026 423.612 128.508L394.486 134.608Z" fill="#5C65A7"/>
<path fill-rule="evenodd" clip-rule="evenodd" d="M381.449 131.438C376.278 147.608 369.428 194.613 372.563 200.141C376.068 206.321 382.137 206.312 386.83 199.891C396.326 186.897 404.445 153.429 404.084 149.731C404.084 149.731 407.486 133.044 404.009 131.698C400.531 130.353 381.449 131.438 381.449 131.438Z" fill="#5C65A7"/>
<path fill-rule="evenodd" clip-rule="evenodd" d="M403.768 64.2729C409.953 64.7406 418.283 65.4832 423.697 68.8813C432.109 74.1608 425.717 89.0874 424.45 96.2883C422.809 105.613 424.272 119.011 425.749 129.414C425.9 130.486 426.686 131.617 426.835 132.617C427.129 134.721 426.315 134.433 426.326 135.03C426.359 136.908 428.375 137.238 426.699 138.859C425.067 140.439 419.801 143.312 415.38 145.01C407.863 147.898 383.85 148.231 378.347 140.033C377.393 138.611 378.796 138.227 379.135 136.195C379.327 135.048 378.464 134.805 378.651 133.823C378.867 132.686 379.903 132.556 379.961 131.695C380.033 130.617 380.061 129.457 380.244 127.466C381.101 118.146 382.956 96.5829 384.318 79.9362C384.657 75.8139 383.784 70.2563 387.005 67.5949C389.472 65.5573 401.691 64.1161 403.768 64.2729Z" fill="#7E9493"/>
<path fill-rule="evenodd" clip-rule="evenodd" d="M381.201 137.657C381.126 137.601 381.11 137.494 381.166 137.418C381.222 137.343 381.33 137.327 381.405 137.383C384.059 139.363 387.67 140.608 391.813 141.248C396.406 141.957 401.651 141.922 406.975 141.319C417.103 140.171 424.744 135.509 424.767 135.495C424.847 135.446 424.952 135.472 425.001 135.553C425.049 135.634 425.023 135.739 424.943 135.787C424.92 135.801 417.216 140.502 407.012 141.659C401.662 142.265 396.386 142.299 391.76 141.585C387.563 140.936 383.901 139.671 381.201 137.657Z" fill="#5C6D69"/>
<path fill-rule="evenodd" clip-rule="evenodd" d="M364.063 87.6202C369.784 85.9737 380.581 69.1932 388.808 66.6715C395.007 64.7718 398.754 74.4845 394.078 83.4061C392.122 87.1361 379.936 95.4161 377.642 97.0319C375.701 98.399 373.133 99.3548 370.195 99.9543C370.269 99.8336 368.667 102.668 370.41 99.5903C372.155 96.5123 372.94 91.9197 364.063 87.6202Z" fill="#7E9493"/>
<path fill-rule="evenodd" clip-rule="evenodd" d="M352.904 65.1211L352.154 61.7165L348.771 48.624C345.932 49.263 347.172 52.9458 347.306 55.0823C344.198 61.0008 350.536 68.1977 352.904 65.1211Z" fill="#E3AB84"/>
<path fill-rule="evenodd" clip-rule="evenodd" d="M352.053 62.7138C351.468 61.0987 347.429 53.455 344.305 53.4609C342.122 53.4655 339.502 61.0771 341.426 63.6053C347.88 72.0867 351.655 67.9789 352.053 62.7138Z" fill="#E3AB84"/>
<path fill-rule="evenodd" clip-rule="evenodd" d="M343.182 59.0585L333.699 52.3489C333.699 52.3489 334.097 50.7765 336.868 52.1134C339.64 53.451 344.177 56.2266 344.177 56.2266L343.182 59.0585Z" fill="#E3AB84"/>
<path fill-rule="evenodd" clip-rule="evenodd" d="M345.703 57.8337C345.629 57.7583 337.383 49.5904 338.299 48.5172C339.215 47.4433 346.077 54.1653 347.21 55.167L345.703 57.8337Z" fill="#E3AB84"/>
<path fill-rule="evenodd" clip-rule="evenodd" d="M342.983 61.9218L332.685 56.2087C332.685 56.2087 332.892 54.616 335.826 55.6702C338.76 56.7244 343.634 59.0282 343.634 59.0282L342.983 61.9218Z" fill="#E3AB84"/>
<path fill-rule="evenodd" clip-rule="evenodd" d="M344.464 64.5977L333.115 60.6145C333.115 60.6145 333.013 59.0289 336.134 59.6043C339.257 60.1796 344.551 61.6752 344.551 61.6752L344.464 64.5977Z" fill="#E3AB84"/>
<path fill-rule="evenodd" clip-rule="evenodd" d="M347.155 55.0035C347.198 54.9202 347.301 54.8881 347.385 54.9314C347.468 54.9747 347.5 55.0776 347.457 55.161C346.745 56.5176 346.52 57.8407 346.625 59.0314C346.749 60.4332 347.326 61.6521 348.098 62.5285C348.161 62.5987 348.154 62.7069 348.083 62.7699C348.013 62.8322 347.904 62.825 347.841 62.7548C347.026 61.8285 346.414 60.5408 346.284 59.0622C346.174 57.8112 346.409 56.4244 347.155 55.0035Z" fill="#B58460"/>
<path fill-rule="evenodd" clip-rule="evenodd" d="M401.589 52.4976C400.714 56.1653 399.015 61.8049 398.931 66.3208C398.573 85.5626 410.41 68.9599 410.975 65.9357C411.629 62.4379 411.925 57.9719 412.755 53.0584L401.589 52.4976Z" fill="#E3AB84"/>
<path fill-rule="evenodd" clip-rule="evenodd" d="M411.705 60.8161C411.992 58.4322 412.29 55.8161 412.756 53.0582C403.908 52.6141 399.967 53.2235 399.063 64.0521C398.963 65.2579 403.116 66.5561 406.48 65.721C408.673 65.1752 409.803 63.6697 411.705 60.8161Z" fill="#D67F54"/>
<path fill-rule="evenodd" clip-rule="evenodd" d="M416.442 51.7157C417.35 47.6938 423.269 23.263 403.172 25.7099C394.484 26.7674 391.87 35.0231 392.084 43.4796C392.2 48.0598 392.509 52.7299 394.107 56.2165C395.498 59.2518 398.04 61.3458 400.054 62.2616C409.24 65.1237 415.532 55.737 416.442 51.7157Z" fill="#E3AB84"/>
<path fill-rule="evenodd" clip-rule="evenodd" d="M407.846 49.7067C407.082 50.3692 407.05 51.3467 407.775 51.8905C408.5 52.4337 409.707 52.3372 410.471 51.6747C411.234 51.0128 411.267 50.0347 410.542 49.4915C409.818 48.9483 408.61 49.0448 407.846 49.7067Z" fill="#CF806B"/>
<path fill-rule="evenodd" clip-rule="evenodd" d="M396.269 49.6274C397.035 50.3004 397.071 51.2785 396.347 51.8119C395.624 52.3452 394.417 52.2324 393.651 51.5593C392.885 50.8869 392.849 49.9088 393.573 49.3748C394.297 48.8415 395.504 48.955 396.269 49.6274Z" fill="#CF806B"/>
<path fill-rule="evenodd" clip-rule="evenodd" d="M405.803 41.3213C405.844 41.2911 405.885 41.2623 405.928 41.234C406.414 40.927 406.841 40.8044 407.401 40.7827C407.951 40.7847 408.373 40.8883 408.864 41.1625C409.096 41.3108 410.019 42.0652 409.819 42.4155C409.726 42.4627 408.842 42.0291 408.589 41.9596C408.196 41.8658 407.885 41.8513 407.486 41.9156C407.117 41.9871 406.844 42.0941 406.523 42.3086C406.514 42.3119 406.456 42.3558 406.444 42.365C405.8 42.8911 405.893 43.1614 405.376 42.8065C404.596 42.405 405.284 41.7713 405.803 41.3213Z" fill="#3F2716"/>
<path fill-rule="evenodd" clip-rule="evenodd" d="M397.63 41.4339C397.59 41.4005 397.55 41.369 397.509 41.3381C397.035 40.9996 396.612 40.8488 396.055 40.7897C395.505 40.7549 395.079 40.831 394.578 41.0725C394.342 41.205 393.391 41.8977 393.578 42.2605C393.668 42.3136 394.568 41.939 394.823 41.8865C395.219 41.819 395.531 41.8255 395.926 41.9154C396.293 42.0112 396.561 42.1365 396.873 42.372C396.882 42.3759 396.938 42.4232 396.949 42.433C397.572 43.0011 397.47 43.2655 398 42.9447C398.795 42.5957 398.131 41.9174 397.63 41.4339Z" fill="#3F2716"/>
<path fill-rule="evenodd" clip-rule="evenodd" d="M402.17 51.1088C402.264 51.1095 402.34 51.1856 402.34 51.28C402.34 51.3738 402.263 51.4499 402.169 51.4493C401.764 51.4467 401.279 51.4388 400.893 51.362C400.441 51.2715 400.107 51.0845 400.107 50.7067C400.105 50.1497 400.579 46.8225 400.58 46.8127C400.594 46.7195 400.679 46.6546 400.773 46.6677C400.867 46.6815 400.931 46.7674 400.918 46.8606C400.918 46.8704 400.446 50.178 400.447 50.7067C400.447 50.8713 400.665 50.9678 400.961 51.0268C401.322 51.099 401.785 51.1062 402.17 51.1088Z" fill="#D67F54"/>
<path fill-rule="evenodd" clip-rule="evenodd" d="M417.646 46.6611C417.72 45.9717 420.56 45.2009 421.465 47.4779C422.371 49.7548 420.622 52.9312 417.415 53.1293C414.207 53.3281 415.159 52.7777 415.159 52.7777L417.646 46.6611Z" fill="#E3AB84"/>
<path fill-rule="evenodd" clip-rule="evenodd" d="M420.474 49.1082C420.474 49.202 420.396 49.2768 420.301 49.2755C420.207 49.2742 420.132 49.1967 420.134 49.1023C420.143 48.5401 420.05 48.1832 419.896 47.9858C419.801 47.8657 419.68 47.8093 419.545 47.8041C419.392 47.7982 419.217 47.8519 419.034 47.9517C418.544 48.2193 418.031 48.7946 417.741 49.4263C417.596 49.7445 417.471 50.0732 417.402 50.3146C417.693 50.1079 418.017 50.0286 418.287 50.0607C418.435 50.0778 418.568 50.1283 418.675 50.2083C418.79 50.2923 418.873 50.4084 418.913 50.5527C418.983 50.8033 418.92 51.1378 418.645 51.5354C418.591 51.6128 418.485 51.6318 418.407 51.578C418.33 51.5249 418.311 51.4186 418.365 51.3412C418.575 51.0381 418.63 50.8046 418.585 50.6445C418.566 50.5763 418.526 50.5212 418.473 50.4819C418.414 50.4379 418.338 50.4103 418.249 50.3999C418.008 50.3716 417.703 50.4714 417.445 50.7213C417.379 50.7856 417.319 50.8217 417.264 50.8322C417.121 50.8604 417.041 50.7934 417.014 50.6498C417.004 50.5947 417.008 50.5232 417.022 50.4399C417.068 50.1807 417.233 49.7202 417.432 49.2846C417.749 48.5899 418.321 47.953 418.871 47.6525C419.106 47.5246 419.341 47.4551 419.559 47.4636C419.793 47.4728 420.003 47.5699 420.165 47.7752C420.365 48.0304 420.485 48.4594 420.474 49.1082Z" fill="#D67F54"/>
<path fill-rule="evenodd" clip-rule="evenodd" d="M406.043 44.787C405.483 45.2422 405.359 46.1298 405.765 46.7688C406.17 47.407 406.954 47.5553 407.514 47.0994C408.073 46.6441 408.199 45.7565 407.793 45.1176C407.386 44.4793 406.603 44.3311 406.043 44.787Z" fill="#3F2716"/>
<path fill-rule="evenodd" clip-rule="evenodd" d="M397.144 44.7263C397.704 45.1894 397.832 46.0789 397.428 46.7113C397.023 47.3444 396.24 47.4821 395.679 47.0183C395.118 46.5552 394.991 45.6657 395.395 45.0333C395.799 44.4002 396.583 44.2625 397.144 44.7263Z" fill="#3F2716"/>
<path fill-rule="evenodd" clip-rule="evenodd" d="M404.678 54.7182C402.927 54.6697 401.191 54.6579 399.44 54.6821C399.448 57.1428 401.081 57.7975 402.068 57.8008C403.05 57.8047 404.591 56.9283 404.678 54.7182Z" fill="#88342A"/>
<path fill-rule="evenodd" clip-rule="evenodd" d="M403.861 56.9328C402.687 55.8202 401.36 55.8327 400.195 56.9728C400.754 57.5914 401.512 57.7987 402.067 57.8007C402.608 57.8026 403.317 57.5383 403.861 56.9328Z" fill="#D17B65"/>
<path fill-rule="evenodd" clip-rule="evenodd" d="M433.488 249.668C433.488 249.668 436.408 255.724 430.572 255.657C424.736 255.59 422.798 254.213 422.798 254.213C422.798 254.213 422.575 251.007 421.649 248.224C418.267 238.067 410.318 214.263 409.505 212.441C408.273 209.678 402.32 195.761 407.966 192.929C410.557 191.843 418.916 197.388 424.427 202.393C433.22 210.379 431.769 234.408 433.488 249.668Z" fill="#5C65A7"/>
<path fill-rule="evenodd" clip-rule="evenodd" d="M394.508 251.01C395.122 258.994 383.716 255.549 384.788 252.953C384.788 252.953 375.812 217.275 374.95 215.097C373.924 212.503 368.628 192.383 373.99 189.724C376.442 188.705 383.656 197.347 388.559 202.047C396.38 209.543 393.563 236.684 394.508 251.01Z" fill="#5C65A7"/>
<path fill-rule="evenodd" clip-rule="evenodd" d="M375.633 96.3243C377.34 93.615 374.256 91.8484 372.633 86.4961C372.284 86.2849 373.711 87.795 371.752 85.823C369.794 83.8518 358.619 69.9721 355.417 66.3162C354.475 65.2417 353.138 63.6693 352.423 63.5171C352.163 63.462 351.719 64.5929 350.632 65.6281C349.044 67.1408 346.511 68.6509 346.66 69.0583C349.988 78.1314 353.734 87.4611 359.805 96.1577C363.652 101.669 371.184 103.382 375.633 96.3243Z" fill="#7E9493"/>
<path fill-rule="evenodd" clip-rule="evenodd" d="M417.206 71.4649C419.991 64.3421 428.78 68.9584 432.202 80.4843C433.634 85.3026 432.959 110.64 432.602 114.026C431.76 121.999 422.129 117.29 420.226 100.93C419.382 93.6646 414.679 77.9318 417.206 71.4649Z" fill="#7E9493"/>
<path fill-rule="evenodd" clip-rule="evenodd" d="M398.837 77.9107C399.85 77.9462 400.753 78.3345 401.396 78.9348C402.039 79.535 402.421 80.3458 402.391 81.2268C402.36 82.1072 401.923 82.8904 401.24 83.4441C400.557 83.9984 399.629 84.3231 398.616 84.2884C397.605 84.2536 396.701 83.8646 396.059 83.2644C395.416 82.6641 395.033 81.8526 395.063 80.9723C395.094 80.0913 395.532 79.3087 396.215 78.7544C396.898 78.2013 397.826 77.876 398.837 77.9107ZM400.286 79.8348C399.911 79.4845 399.383 79.2575 398.791 79.2365C398.201 79.2162 397.658 79.4058 397.26 79.7298C396.861 80.0532 396.605 80.5111 396.587 81.0254C396.57 81.5404 396.793 82.014 397.169 82.365C397.544 82.7153 398.072 82.9423 398.663 82.9633C399.254 82.9836 399.797 82.794 400.196 82.4699C400.594 82.1459 400.85 81.6886 400.868 81.1737C400.885 80.6594 400.662 80.1851 400.286 79.8348Z" fill="#E8DAC7"/>
<path fill-rule="evenodd" clip-rule="evenodd" d="M390.521 88.1098C397.102 88.3381 398.626 83.6392 398.879 76.3176C399.015 72.4032 383.095 72.2819 382.971 75.8564C382.701 83.6517 383.939 87.8815 390.521 88.1098Z" fill="#E8DAC7"/>
<path fill-rule="evenodd" clip-rule="evenodd" d="M410.017 89.5316C410.017 89.5316 408.639 93.5883 406.414 94.388C404.419 95.1043 397.316 93.997 396.105 92.1117C395.316 91.4386 394.654 90.6107 394.873 90.042C395.18 89.2443 396.214 89.2299 396.214 89.2299C396.214 89.2299 394.257 88.1547 394.754 86.9509C395.126 86.0502 395.878 85.8187 396.232 85.7596C396.236 85.7301 396.24 85.7012 396.244 85.6724C395.75 85.4782 394.455 84.857 394.796 83.8002C395.214 82.5019 396.715 82.2343 397.186 82.4442C397.657 82.6541 395.917 81.3238 396.328 80.4139C398.105 76.4759 412.402 84.3295 410.017 89.5316Z" fill="#E3AB84"/>
<path fill-rule="evenodd" clip-rule="evenodd" d="M411.56 88.6088C409.43 86.1226 409.048 79.1722 403.237 78.0111C402.674 77.8989 401.882 77.2292 401.215 77.2856C399.258 77.4529 402.135 80.6548 404.094 82.0593C403.41 86.3423 407.413 95.0251 411.56 88.6088Z" fill="#E3AB84"/>
<path fill-rule="evenodd" clip-rule="evenodd" d="M409.74 85.4829C411.459 87.3827 415.982 93.4428 415.982 93.4428C415.982 93.4428 409.56 100.408 408.836 100.046C408.111 99.684 402.956 91.1816 402.956 91.1816L409.74 85.4829Z" fill="#E3AB84"/>
<path fill-rule="evenodd" clip-rule="evenodd" d="M428.641 121.91C435.733 115.445 431.867 109.048 427.206 104.199C423.147 99.9752 416.217 92.6995 412.752 88.6901C412.603 88.5182 412.65 91.81 411.499 93.5091C408.532 97.8826 406.502 96.6231 406.59 97.4916C407.249 103.999 419.859 129.916 428.641 121.91Z" fill="#7E9493"/>
<path fill-rule="evenodd" clip-rule="evenodd" d="M428.526 121.784C432.018 118.601 432.814 115.441 432.164 112.484C431.51 109.508 429.395 106.722 427.084 104.317C424.704 101.84 421.337 98.3148 418.263 95.0164C416.192 92.7946 414.251 90.6724 412.829 89.0383C412.825 89.1151 412.819 89.2109 412.806 89.3237C412.696 90.3451 412.478 92.3682 411.64 93.6041C409.625 96.5771 408.02 96.9969 407.204 97.2108C406.902 97.2901 406.746 97.3308 406.76 97.4745C407.049 100.323 409.651 106.929 413.221 112.751C415.151 115.9 417.363 118.815 419.643 120.774C421.893 122.709 424.203 123.709 426.359 123.062C427.099 122.841 427.824 122.424 428.526 121.784ZM432.498 112.412C433.173 115.483 432.355 118.754 428.756 122.036C428.015 122.712 427.245 123.154 426.456 123.39C424.172 124.075 421.756 123.043 419.42 121.034C417.111 119.049 414.876 116.106 412.929 112.93C409.335 107.067 406.712 100.396 406.42 97.5092C406.376 97.0756 406.629 97.0094 407.118 96.8821C407.891 96.6794 409.413 96.2806 411.357 93.4145C412.146 92.2508 412.358 90.2828 412.466 89.2896C412.509 88.892 412.537 88.6323 412.621 88.5594C412.712 88.4807 412.799 88.4853 412.881 88.5804C414.312 90.2368 416.339 92.4548 418.512 94.7862C421.588 98.0872 424.951 101.609 427.328 104.082C429.678 106.524 431.826 109.361 432.498 112.412Z" fill="#5C6D69"/>
<path fill-rule="evenodd" clip-rule="evenodd" d="M383.729 75.583C383.652 75.5305 383.631 75.4242 383.683 75.3468C383.736 75.2681 383.841 75.2478 383.919 75.2996C384.838 75.9162 387.651 76.2547 390.521 76.3295C393.635 76.4102 396.795 76.1806 397.668 75.6571C397.748 75.6086 397.853 75.6348 397.901 75.7155C397.949 75.7962 397.923 75.9011 397.842 75.949C396.916 76.5047 393.68 76.752 390.513 76.67C387.589 76.5939 384.706 76.237 383.729 75.583Z" fill="#C2AE97"/>
<path fill-rule="evenodd" clip-rule="evenodd" d="M395.594 149.474C395.597 149.381 395.676 149.306 395.77 149.31C395.864 149.312 395.938 149.391 395.935 149.485L395.899 150.563C395.653 158.035 395.554 161.045 396.963 162.288C397.014 162.333 397.094 162.398 397.19 162.475C397.59 162.797 398.228 163.311 398.437 163.805C398.473 163.891 398.432 163.991 398.345 164.028C398.259 164.064 398.159 164.024 398.122 163.937C397.947 163.524 397.35 163.042 396.976 162.741C396.881 162.665 396.801 162.6 396.738 162.543C395.207 161.192 395.308 158.139 395.559 150.551L395.594 149.474Z" fill="#37456C"/>
<path fill-rule="evenodd" clip-rule="evenodd" d="M398.489 148.571C398.492 148.476 398.57 148.403 398.664 148.405C398.758 148.407 398.832 148.486 398.829 148.58C398.811 149.169 398.768 150.009 398.716 151.017C398.508 155.056 398.161 161.789 398.737 165.099C399.482 169.379 399.287 169.437 399.287 169.437C399.205 169.484 399.1 169.455 399.054 169.374C399.007 169.291 399.035 169.188 399.117 169.141C399.116 169.14 399.081 169.068 398.401 165.157C397.819 161.811 398.167 155.054 398.376 151C398.427 149.985 398.471 149.14 398.489 148.571Z" fill="#37456C"/>
<path fill-rule="evenodd" clip-rule="evenodd" d="M417.937 145.131C417.942 145.037 418.021 144.963 418.115 144.968C418.209 144.972 418.282 145.051 418.278 145.146C418.187 147.215 418.143 148.834 418.344 150.04C418.538 151.205 418.964 151.979 419.812 152.404C421.608 153.302 423.413 154.024 423.418 154.026C423.506 154.062 423.548 154.161 423.512 154.248C423.477 154.336 423.376 154.378 423.29 154.342C423.284 154.34 421.481 153.619 419.659 152.708C418.698 152.228 418.22 151.373 418.007 150.097C417.802 148.859 417.847 147.222 417.937 145.131Z" fill="#37456C"/>
<path fill-rule="evenodd" clip-rule="evenodd" d="M422.009 143.437C421.999 143.343 422.068 143.259 422.162 143.249C422.255 143.24 422.339 143.309 422.348 143.402C422.552 145.329 422.812 147.149 423.066 148.919C423.716 153.449 424.318 157.652 423.796 162.613C423.072 169.484 422.35 200.592 422.349 200.681C422.347 200.775 422.269 200.85 422.175 200.848C422.081 200.846 422.007 200.769 422.009 200.674C422.01 200.585 422.732 169.457 423.456 162.579C423.974 157.659 423.374 153.476 422.728 148.967C422.474 147.198 422.213 145.378 422.009 143.437Z" fill="#37456C"/>
<path fill-rule="evenodd" clip-rule="evenodd" d="M383.484 199.166C383.393 199.139 383.343 199.043 383.37 198.953C383.399 198.863 383.494 198.812 383.584 198.84C386.255 199.67 386.647 200.159 386.648 200.16C386.71 200.231 386.701 200.339 386.629 200.4C386.624 200.404 386.619 200.408 386.614 200.411L384.54 201.944C384.465 202.001 384.358 201.984 384.302 201.909C384.245 201.834 384.262 201.727 384.337 201.671L386.241 200.264C385.975 200.09 385.27 199.72 383.484 199.166Z" fill="#37456C"/>
<path fill-rule="evenodd" clip-rule="evenodd" d="M419.44 199.8C419.35 199.772 419.3 199.677 419.328 199.587C419.355 199.496 419.45 199.446 419.54 199.474C422.212 200.303 422.604 200.792 422.606 200.793C422.667 200.865 422.657 200.973 422.585 201.033C422.581 201.038 422.576 201.041 422.571 201.045L420.496 202.578C420.421 202.635 420.314 202.619 420.258 202.543C420.202 202.467 420.218 202.361 420.293 202.305L422.197 200.897C421.933 200.723 421.226 200.354 419.44 199.8Z" fill="#37456C"/>
<path fill-rule="evenodd" clip-rule="evenodd" d="M419.509 96.1504C419.509 96.2449 419.432 96.321 419.337 96.321C419.243 96.321 419.167 96.2449 419.167 96.1504C419.167 95.5725 419.019 90.7247 418.796 86.4994C418.67 84.1043 418.517 81.9061 418.355 80.7974C418.341 80.7043 418.405 80.6177 418.499 80.6039C418.592 80.5901 418.679 80.6551 418.692 80.7482C418.857 81.8654 419.009 84.0748 419.137 86.4823C419.362 90.7227 419.509 95.5738 419.509 96.1504Z" fill="#5C6D69"/>
<path fill-rule="evenodd" clip-rule="evenodd" d="M419.234 89.1251C419.217 89.2176 419.129 89.2792 419.036 89.2628C418.944 89.2458 418.883 89.1572 418.899 89.0647C419.401 86.2839 421.707 81.0812 421.714 81.0661C421.752 80.9802 421.853 80.9408 421.94 80.9789C422.026 81.0169 422.064 81.1173 422.027 81.2039C422.02 81.2183 419.728 86.3882 419.234 89.1251Z" fill="#5C6D69"/>
<path fill-rule="evenodd" clip-rule="evenodd" d="M369.391 83.5189C369.348 83.4356 369.38 83.3326 369.464 83.2893C369.548 83.2467 369.65 83.2788 369.694 83.3628C370.526 84.9818 370.572 89.8473 370.572 89.8611C370.573 89.9549 370.498 90.0323 370.403 90.0337C370.309 90.0343 370.233 89.9595 370.231 89.8651C370.231 89.8519 370.187 85.0664 369.391 83.5189Z" fill="#5C6D69"/>
<path fill-rule="evenodd" clip-rule="evenodd" d="M369.717 83.9116C369.632 83.871 369.596 83.7693 369.638 83.6847C369.678 83.6 369.78 83.564 369.864 83.6046C370.356 83.8414 371.077 84.5342 371.776 85.3122C372.824 86.4779 373.84 87.8548 373.953 88.1527C373.987 88.2406 373.942 88.3396 373.855 88.3724C373.766 88.4065 373.668 88.3619 373.634 88.274C373.53 88.0005 372.546 86.6799 371.522 85.5398C370.847 84.7894 370.162 84.1255 369.717 83.9116Z" fill="#5C6D69"/>
<path fill-rule="evenodd" clip-rule="evenodd" d="M391.86 45.2622C390.527 32.707 392.691 24.0603 405.649 24.6408C412.436 24.9452 419.41 29.1069 421.117 33.5139C422.174 36.2442 418.341 49.1713 416.963 47.2204C416.246 46.2055 415.704 42.9255 415.723 42.4624C415.8 40.581 414.116 40.8841 414.236 36.6752C414.373 31.9159 395.073 31.7302 394.783 36.4744C394.527 40.6768 392.87 40.2241 392.785 42.1049C392.761 42.6625 392.617 48.6636 391.86 45.2622Z" fill="#623A1C"/>
<path fill-rule="evenodd" clip-rule="evenodd" d="M403.081 35.0108C402.196 37.3193 397.182 37.3022 396.373 35.7042C395.867 36.9677 392.412 37.1015 391.963 36.3156C390.849 37.5784 389.452 36.3714 390.489 35.1702C389.029 33.3597 389.545 31.2283 390.81 30.1676C390.319 26.7478 393.414 24.5332 395.005 25.5283C395.191 20.9481 400.227 21.6232 401.074 23.4508C405.529 17.4431 412.674 20.3912 412.337 24.5089C414.824 23.2245 419.152 23.8083 418.067 27.6944C420.935 27.7515 423.8 29.0714 421.618 33.0612C423.039 34.877 423.279 37.1139 421.278 38.0632C422.081 39.383 420.67 40.3087 419.691 38.9212C419.143 39.6212 415.751 38.8399 415.413 37.4938C414.411 38.9199 409.568 38.4876 408.874 35.5559C407.829 37.6794 403.842 37.3048 403.081 35.0108Z" fill="#232221"/>
<path fill-rule="evenodd" clip-rule="evenodd" d="M402.977 25.1566C402.924 25.232 402.821 25.2484 402.746 25.1927C402.671 25.1375 402.652 25.0313 402.704 24.9558C403.299 24.1043 404.32 23.344 405.425 22.8835C406.467 22.4479 407.591 22.278 408.51 22.5457C410.452 23.1118 410.474 24.3149 410.474 24.3182C410.477 24.412 410.405 24.4875 410.314 24.4881C410.222 24.4888 410.145 24.414 410.142 24.3202C410.142 24.3175 410.127 23.3657 408.428 22.8704C407.584 22.6244 406.537 22.7878 405.557 23.1964C404.505 23.6353 403.536 24.3543 402.977 25.1566Z" fill="#3D3D3C"/>
<path fill-rule="evenodd" clip-rule="evenodd" d="M397.518 26.175C397.487 26.2623 397.393 26.3056 397.306 26.2721C397.22 26.2387 397.174 26.1403 397.205 26.053C397.441 25.3885 397.836 24.9037 398.308 24.598C398.644 24.3802 399.018 24.2543 399.402 24.2195C399.785 24.1847 400.179 24.2405 400.551 24.3861C401.086 24.5954 401.579 24.989 401.947 25.5663C401.997 25.6456 401.976 25.7493 401.9 25.7985C401.824 25.8477 401.722 25.8234 401.671 25.744C401.345 25.2337 400.91 24.8853 400.439 24.7017C400.114 24.5744 399.772 24.5252 399.44 24.556C399.106 24.5862 398.782 24.6951 398.49 24.884C398.075 25.1523 397.728 25.582 397.518 26.175Z" fill="#3D3D3C"/>
<path fill-rule="evenodd" clip-rule="evenodd" d="M411.761 27.1442C411.689 27.1993 411.584 27.1829 411.528 27.1075C411.473 27.0321 411.486 26.9264 411.558 26.8713C412.61 26.0677 413.688 25.663 414.568 25.6112C415.038 25.5836 415.455 25.6564 415.789 25.8224C416.137 25.9962 416.393 26.2685 416.521 26.6332C416.642 26.9743 416.649 27.3929 416.511 27.8803C416.486 27.9695 416.395 28.0193 416.306 27.9918C416.218 27.9642 416.167 27.8698 416.191 27.7799C416.308 27.3627 416.306 27.0143 416.208 26.7388C416.111 26.4646 415.917 26.258 415.649 26.1248C415.369 25.9851 415.008 25.9247 414.595 25.949C413.773 25.9989 412.758 26.3826 411.761 27.1442Z" fill="#3D3D3C"/>
<path fill-rule="evenodd" clip-rule="evenodd" d="M403.562 32.452C403.525 32.3654 403.564 32.2663 403.648 32.2315C403.733 32.1968 403.83 32.2381 403.866 32.3253C404.145 32.9879 404.591 33.4504 405.104 33.7141C405.418 33.8761 405.76 33.9634 406.103 33.9765C406.447 33.9896 406.795 33.928 407.123 33.7915C407.695 33.554 408.206 33.0883 408.535 32.3962C408.575 32.3135 408.674 32.2801 408.757 32.3227C408.839 32.3654 408.875 32.467 408.835 32.5504C408.468 33.3198 407.897 33.8387 407.256 34.1051C406.885 34.2592 406.49 34.3288 406.099 34.3143C405.707 34.2993 405.319 34.1995 404.96 34.0145C404.379 33.7161 403.875 33.1952 403.562 32.452Z" fill="#3D3D3C"/>
<path fill-rule="evenodd" clip-rule="evenodd" d="M414.662 33.8341C414.709 33.7554 414.812 33.7324 414.89 33.7823C414.968 33.8321 414.993 33.9371 414.947 34.0158C414.543 34.6908 413.978 35.1113 413.366 35.2989C412.988 35.4144 412.59 35.4406 412.202 35.3822C411.814 35.3239 411.433 35.1808 411.087 34.9598C410.487 34.5767 409.988 33.9574 409.726 33.1289C409.697 33.039 409.745 32.9445 409.832 32.9183C409.919 32.8914 410.012 32.9426 410.04 33.0318C410.277 33.777 410.723 34.3326 411.258 34.6738C411.564 34.8699 411.9 34.9959 412.242 35.047C412.584 35.0982 412.932 35.0752 413.264 34.9742C413.803 34.8102 414.302 34.4363 414.662 33.8341Z" fill="#3D3D3C"/>
<path fill-rule="evenodd" clip-rule="evenodd" d="M275.756 228.429C274.886 228.786 273.89 228.37 273.532 227.5C273.175 226.631 273.591 225.634 274.461 225.277L298.09 215.493C298.961 215.135 299.957 215.55 300.314 216.421C300.672 217.291 300.256 218.287 299.387 218.645L275.756 228.429Z" fill="#C09162"/>
<path fill-rule="evenodd" clip-rule="evenodd" d="M323.016 225.277C323.886 225.634 324.302 226.63 323.944 227.5C323.586 228.37 322.59 228.786 321.72 228.429L298.09 218.645C297.221 218.287 296.805 217.291 297.162 216.421C297.52 215.55 298.516 215.135 299.387 215.493L323.016 225.277Z" fill="#C09162"/>
<path fill-rule="evenodd" clip-rule="evenodd" d="M283.07 165.77C283.21 164.837 284.08 164.195 285.014 164.335C285.946 164.475 286.589 165.344 286.45 166.278L272.946 255.259C272.807 256.192 271.936 256.834 271.003 256.694C270.071 256.554 269.428 255.684 269.567 254.75L283.07 165.77Z" fill="#A97F58"/>
<path fill-rule="evenodd" clip-rule="evenodd" d="M310.761 166.279C310.621 165.345 311.264 164.476 312.197 164.335C313.13 164.196 314 164.838 314.14 165.771L327.642 254.752C327.782 255.685 327.139 256.555 326.207 256.696C325.274 256.836 324.404 256.193 324.263 255.26L310.761 166.279Z" fill="#A97F58"/>
<path fill-rule="evenodd" clip-rule="evenodd" d="M321.721 227.307C322.591 226.95 323.586 227.365 323.944 228.236C324.302 229.106 323.887 230.101 323.016 230.459L299.387 240.244C298.517 240.601 297.521 240.185 297.163 239.315C296.805 238.445 297.221 237.449 298.091 237.092L321.721 227.307Z" fill="#C09162"/>
<path fill-rule="evenodd" clip-rule="evenodd" d="M296.846 170.455C296.846 169.511 297.611 168.747 298.555 168.747C299.499 168.747 300.264 169.511 300.264 170.455V267.928C300.264 268.872 299.499 269.637 298.555 269.637C297.611 269.637 296.846 268.872 296.846 267.928V170.455Z" fill="#A97F58"/>
<path fill-rule="evenodd" clip-rule="evenodd" d="M298.605 159.322C314.61 159.322 327.587 162.842 327.587 167.184C327.587 167.875 327.587 168.54 327.587 169.236C327.587 182.232 269.622 182.232 269.622 169.236C269.622 168.54 269.622 167.875 269.622 167.184C269.622 162.842 282.598 159.322 298.605 159.322Z" fill="#D2A368"/>
<path fill-rule="evenodd" clip-rule="evenodd" d="M305.32 174.828C305.226 174.828 305.149 174.752 305.149 174.657C305.149 174.563 305.226 174.487 305.32 174.487C305.95 174.489 306.757 174.455 307.686 174.385C310.818 174.147 315.296 173.484 318.989 172.306C322.632 171.144 325.504 169.492 325.51 167.277C325.51 167.213 325.507 167.145 325.501 167.072C325.495 166.978 325.565 166.896 325.659 166.889C325.753 166.883 325.835 166.953 325.842 167.047C325.848 167.12 325.849 167.197 325.849 167.277C325.843 169.679 322.866 171.426 319.091 172.63C315.367 173.818 310.861 174.486 307.71 174.725C306.782 174.797 305.965 174.829 305.32 174.828Z" fill="#A97F58"/>
<path fill-rule="evenodd" clip-rule="evenodd" d="M274.461 230.459C273.591 230.101 273.175 229.107 273.533 228.236C273.891 227.365 274.886 226.95 275.757 227.307L299.387 237.092C300.256 237.449 300.672 238.445 300.314 239.315C299.957 240.185 298.961 240.601 298.09 240.244L274.461 230.459Z" fill="#C09162"/>
<path fill-rule="evenodd" clip-rule="evenodd" d="M282.571 40.8933C286.774 40.3416 287.559 38.6576 290.037 38.2371C293.396 37.6664 297.361 38.4392 299.764 40.7516C301.044 41.9835 302.256 43.4169 303.196 44.0034C309.503 47.9374 309.676 52.5753 304.926 64.1458C301.568 72.3262 297.99 72.83 299.232 74.7291C300.475 76.6289 293.784 70.4782 292.351 65.593C290.927 60.7412 276.796 41.6523 282.571 40.8933Z" fill="#3F2716"/>
<path fill-rule="evenodd" clip-rule="evenodd" d="M290.11 61.031L294.611 80.7156C301.599 80.2938 299.95 76.773 302.557 76.2718C305.165 75.7706 309.258 75.9622 310.636 70.4105C309.003 69.9198 305.556 68.2326 305.46 66.1812C305.366 64.2329 306.066 62.631 306.505 59.4139L302.244 58.2666L290.11 61.031Z" fill="#3F2716"/>
<path fill-rule="evenodd" clip-rule="evenodd" d="M273.205 59.3288C273.928 62.8666 274.907 64.5381 275.009 66.4864C275.116 68.5364 271.855 70.5582 270.278 71.209C272.203 76.5961 276.255 75.9984 278.9 76.2379C281.545 76.4773 280.253 80.1444 287.249 79.8695L290.585 57.5576L273.205 59.3288Z" fill="#3F2716"/>
<path fill-rule="evenodd" clip-rule="evenodd" d="M310.555 165.66L275.991 212.752C268.081 204.978 265.561 205.42 266.468 194.285C267.862 177.216 281.997 159.176 288.267 145.437C300.674 145.902 322.217 147.319 310.555 165.66Z" fill="#6B6C68"/>
<path fill-rule="evenodd" clip-rule="evenodd" d="M289.294 169.654L232.289 182.463C226.914 177.07 226.576 171.185 235.613 163.552C249.465 151.851 273.341 147.287 288.245 141.041C296.945 149.028 311.593 163.346 289.294 169.654Z" fill="#6B6C68"/>
<path fill-rule="evenodd" clip-rule="evenodd" d="M289.75 265.624C288.7 266.676 261.243 276.136 262.212 268.008C262.862 262.542 274.228 261.396 281.304 253.784C290.473 243.919 293.91 261.457 289.75 265.624Z" fill="#160831"/>
<path fill-rule="evenodd" clip-rule="evenodd" d="M281.568 255.593C279.062 254.742 279.274 252.252 279.274 252.252C279.274 252.252 266.655 214.248 265.62 211.928C264.388 209.164 258.434 195.247 264.08 192.416C266.67 191.33 275.031 196.874 280.542 201.88C288.74 209.328 288.033 230.724 289.293 245.952C289.464 248.015 289.927 250.179 289.868 252.025C289.741 255.944 283.259 256.169 281.568 255.593Z" fill="#6B6C68"/>
<path fill-rule="evenodd" clip-rule="evenodd" d="M302.24 195.644C302.431 197.119 293.984 225.174 289.224 221.251C284.977 217.75 289.157 207.517 287.452 197.265C286.181 189.626 287.845 187.413 292.246 189.212C302.865 193.554 301.917 193.163 302.24 195.644Z" fill="#160831"/>
<path fill-rule="evenodd" clip-rule="evenodd" d="M293.667 190.1C294.621 190.225 292.724 190.261 291.439 191.757C289.534 193.975 287.673 198.1 287.892 199.932C287.892 199.932 249.035 187.995 246.547 187.481C243.584 186.869 228.808 183.581 229.804 177.343C230.436 174.605 239.816 171.054 247.097 169.501C258.714 167.023 277.379 180.417 293.667 190.1Z" fill="#6B6C68"/>
<path fill-rule="evenodd" clip-rule="evenodd" d="M264.97 173.731C265.048 173.783 265.069 173.889 265.017 173.967C264.964 174.046 264.859 174.067 264.78 174.015C262.72 172.641 258.89 171.053 255.22 170.096C252.176 169.305 249.252 168.947 247.56 169.511L243.761 170.777C243.672 170.807 243.576 170.759 243.546 170.669C243.516 170.58 243.565 170.483 243.654 170.455L247.454 169.188C249.214 168.601 252.206 168.96 255.305 169.767C259.011 170.733 262.883 172.34 264.97 173.731Z" fill="#4A4B49"/>
<path fill-rule="evenodd" clip-rule="evenodd" d="M263.116 172.736C263.169 172.814 263.15 172.92 263.072 172.973C262.994 173.026 262.888 173.007 262.835 172.928C261.729 171.313 260.278 169.969 258.646 168.898C256.846 167.716 254.824 166.866 252.803 166.349C252.711 166.326 252.656 166.233 252.679 166.141C252.702 166.05 252.796 165.995 252.887 166.018C254.942 166.544 257 167.408 258.833 168.612C260.499 169.707 261.983 171.082 263.116 172.736Z" fill="#4A4B49"/>
<path fill-rule="evenodd" clip-rule="evenodd" d="M272.971 173.523C272.915 173.598 272.807 173.614 272.733 173.557C272.658 173.5 272.642 173.394 272.698 173.319C273.294 172.525 275.203 169.787 277.072 167.109C278.603 164.914 280.107 162.759 280.837 161.744C282.483 159.459 284.67 157.909 284.676 157.905C284.753 157.85 284.859 157.868 284.914 157.945C284.969 158.021 284.951 158.128 284.874 158.182C284.868 158.187 282.725 159.704 281.114 161.942C280.38 162.962 278.879 165.113 277.351 167.304C275.481 169.985 273.57 172.725 272.971 173.523Z" fill="#4A4B49"/>
<path fill-rule="evenodd" clip-rule="evenodd" d="M283.459 155.594C283.513 155.517 283.619 155.498 283.696 155.552C283.773 155.606 283.793 155.712 283.739 155.79C282.345 157.78 281.236 159.103 280.373 160.13C279.279 161.433 278.589 162.256 278.243 163.341C277.616 165.313 277.347 167.645 277.346 167.651C277.336 167.745 277.251 167.812 277.157 167.801C277.063 167.79 276.996 167.706 277.007 167.612C277.008 167.605 277.28 165.246 277.919 163.238C278.285 162.087 278.992 161.244 280.111 159.911C280.972 158.885 282.08 157.565 283.459 155.594Z" fill="#4A4B49"/>
<path fill-rule="evenodd" clip-rule="evenodd" d="M304.796 159.683C304.84 159.6 304.944 159.568 305.027 159.611C305.111 159.655 305.142 159.759 305.098 159.842C304.288 161.373 303.772 163.062 303.597 164.634C303.427 166.173 303.581 167.595 304.104 168.642C304.146 168.726 304.112 168.828 304.028 168.87C303.944 168.912 303.842 168.878 303.799 168.794C303.246 167.687 303.08 166.197 303.258 164.598C303.437 162.983 303.965 161.251 304.796 159.683Z" fill="#4A4B49"/>
<path fill-rule="evenodd" clip-rule="evenodd" d="M308.774 160.319C308.816 160.235 308.919 160.201 309.003 160.243C309.087 160.285 309.121 160.387 309.079 160.471C309.065 160.498 304.454 169.72 298.378 176.341C292.347 182.911 291.095 188.101 291.091 188.116C291.069 188.208 290.976 188.263 290.885 188.24C290.793 188.218 290.738 188.125 290.761 188.034C290.765 188.018 292.037 182.745 298.128 176.11C304.173 169.522 308.761 160.345 308.774 160.319Z" fill="#4A4B49"/>
<path fill-rule="evenodd" clip-rule="evenodd" d="M287.512 199.758C287.603 199.786 287.653 199.882 287.625 199.972C287.598 200.061 287.503 200.112 287.412 200.084C285.337 199.441 281.633 198.294 277.272 196.949C272.868 195.59 267.832 194.04 263.186 192.618C263.095 192.592 263.045 192.496 263.072 192.407C263.099 192.316 263.195 192.265 263.284 192.292C268.052 193.751 273.055 195.291 277.372 196.623C281.734 197.969 285.437 199.115 287.512 199.758Z" fill="#4A4B49"/>
<path fill-rule="evenodd" clip-rule="evenodd" d="M264.926 173.977C264.842 173.935 264.808 173.832 264.851 173.748C264.893 173.663 264.996 173.63 265.08 173.672C273.743 178.041 284.856 184.656 292.076 188.955L293.755 189.952C293.836 190.001 293.863 190.105 293.816 190.186C293.768 190.267 293.663 190.294 293.582 190.246C293.092 189.956 292.935 189.861 291.902 189.246C284.69 184.954 273.591 178.346 264.926 173.977Z" fill="#4A4B49"/>
<path fill-rule="evenodd" clip-rule="evenodd" d="M286.341 79.6812C280.208 80.1482 273.021 82.3393 267.979 85.7367C260.143 91.0162 267.101 104.496 269.154 111.697C269.875 114.223 273.299 129.068 271.882 136.901C271.39 139.618 269.663 142.308 269.025 144.154C268.643 145.26 269.463 145.889 268.909 146.525C267.369 148.294 265.081 148.101 265.702 148.539C267.662 149.92 275.076 154.137 279.683 155.835C287.514 158.723 312.53 163.458 317.951 155.26C318.254 154.802 316.294 152.451 316.546 150.361C317.654 141.162 309.472 105.662 307.501 95.3445C306.713 91.2228 308.882 83.5844 304.733 82.0992C300.054 80.4224 288.402 79.5244 286.341 79.6812Z" fill="#5C65A7"/>
<path fill-rule="evenodd" clip-rule="evenodd" d="M247.728 116.641C254.757 106.512 265.171 86.2937 271.359 83.9498C277.422 81.6538 281.789 91.1035 277.699 100.309C275.989 104.157 264.363 113.207 262.178 114.967C260.367 116.427 253.656 121.026 255.127 117.988C255.977 116.234 248.657 122.283 247.512 120.863C247.186 120.458 246.53 118.366 247.728 116.641Z" fill="#5C65A7"/>
<path fill-rule="evenodd" clip-rule="evenodd" d="M285.731 68.9799C285.206 72.046 284.209 76.4885 283.992 80.4829C283.671 86.4236 283.646 89.2864 285.273 90.1097C289.583 92.2922 295.648 85.1516 296.069 80.8378C296.398 77.4659 296.444 73.3423 296.911 68.8179L285.731 68.9799Z" fill="#E3AB84"/>
<path fill-rule="evenodd" clip-rule="evenodd" d="M283.922 81.8537C288.604 84.5774 293.147 81.5664 296.316 77.4743C296.469 74.8549 296.591 71.9311 296.911 68.8184L289.407 68.9266C287.582 69.4612 286.196 70.3409 285.214 71.8005C284.714 74.4691 284.148 77.5937 283.992 80.4834C283.966 80.9596 283.943 81.4162 283.922 81.8537Z" fill="#D67F54"/>
<path fill-rule="evenodd" clip-rule="evenodd" d="M264.393 109.288C267.056 109.494 270.119 112.519 269.819 113.733C267.357 118.131 263.972 124.715 256.93 128.89C249.624 133.222 242.614 125.685 247.676 116.813C248.853 114.749 255.064 112.369 259.378 110.829C262 109.893 263.01 109.182 264.393 109.288Z" fill="#5C65A7"/>
<path fill-rule="evenodd" clip-rule="evenodd" d="M265.683 108.008C265.683 108.008 267.415 106.217 272.143 107.268C276.871 108.32 279.636 107.111 282.452 107.955C285.268 108.799 286.537 109.737 283.471 111.012C280.403 112.286 272.222 113.049 268.044 114.742C265.643 115.715 262.147 113.085 261.421 111.148C260.884 109.716 263.003 109.613 265.683 108.008Z" fill="#E3AB84"/>
<path fill-rule="evenodd" clip-rule="evenodd" d="M274.773 105.044C281.949 105.296 287.765 106.54 287.762 107.822C287.757 109.104 281.937 109.938 274.759 109.686C267.582 109.434 261.766 108.19 261.77 106.908C261.774 105.627 267.595 104.792 274.773 105.044Z" fill="#E8DAC7"/>
<path fill-rule="evenodd" clip-rule="evenodd" d="M265.855 107.313C265.772 107.269 265.739 107.166 265.784 107.083C265.827 106.999 265.931 106.967 266.014 107.011C267.193 107.634 270.774 107.975 274.424 108.05C278.384 108.131 282.408 107.898 283.526 107.369C283.612 107.329 283.713 107.365 283.753 107.451C283.794 107.536 283.757 107.638 283.671 107.678C282.509 108.228 278.421 108.473 274.418 108.391C270.721 108.315 267.081 107.961 265.855 107.313Z" fill="#C2AE97"/>
<path fill-rule="evenodd" clip-rule="evenodd" d="M275.37 109.023C274.678 110.021 271.013 110.311 269.79 110.529C267.777 112.804 262.439 111.4 263.351 109.664C265.397 105.765 271.038 108.105 275.062 107.797C275.988 107.726 275.647 108.623 275.37 109.023Z" fill="#E3AB84"/>
<path fill-rule="evenodd" clip-rule="evenodd" d="M299.675 85.9816C301.547 78.5661 310.844 82.0488 315.68 93.0572C317.701 97.659 320.197 122.882 320.266 126.286C320.426 134.302 310.282 130.832 306.351 114.838C304.606 107.735 297.974 92.7134 299.675 85.9816Z" fill="#5C65A7"/>
<path fill-rule="evenodd" clip-rule="evenodd" d="M281.426 92.1729C282.437 92.2077 283.341 92.5967 283.984 93.197C284.627 93.7972 285.009 94.6087 284.979 95.489C284.949 96.37 284.51 97.1526 283.827 97.707C283.145 98.2613 282.216 98.586 281.204 98.5512C280.193 98.5158 279.289 98.1268 278.646 97.5272C278.004 96.927 277.62 96.1162 277.651 95.2352C277.681 94.3548 278.12 93.5715 278.803 93.0179C279.485 92.4629 280.414 92.1382 281.426 92.1729ZM282.874 94.097C282.499 93.746 281.97 93.5191 281.38 93.4987C280.789 93.4784 280.246 93.668 279.848 93.9914C279.449 94.3154 279.193 94.7727 279.175 95.2876C279.158 95.8019 279.38 96.2762 279.756 96.6265C280.132 96.9768 280.66 97.2038 281.251 97.2248C281.842 97.2451 282.384 97.0549 282.783 96.7315C283.182 96.4081 283.438 95.9502 283.456 95.4359C283.473 94.9216 283.25 94.448 282.874 94.097Z" fill="#E8DAC7"/>
<path fill-rule="evenodd" clip-rule="evenodd" d="M273.109 102.372C279.69 102.6 281.213 97.9014 281.467 90.5798C281.602 86.6654 265.683 86.5441 265.559 90.1186C265.288 97.9139 266.527 102.144 273.109 102.372Z" fill="#E8DAC7"/>
<path fill-rule="evenodd" clip-rule="evenodd" d="M292.605 103.794C292.605 103.794 291.745 107.44 289.273 107.836C286.801 108.232 279.904 108.259 278.692 106.373C277.903 105.7 277.242 104.872 277.46 104.304C277.767 103.506 278.802 103.491 278.802 103.491C278.802 103.491 276.845 102.416 277.342 101.212C277.714 100.312 278.465 100.08 278.82 100.02C278.823 99.991 278.827 99.9621 278.831 99.9332C278.338 99.7391 277.042 99.1178 277.383 98.061C277.802 96.7628 279.303 96.4945 279.774 96.7051C280.245 96.915 278.505 95.5846 278.916 94.6747C280.693 90.7374 294.989 98.5917 292.605 103.794Z" fill="#E4AE7C"/>
<path fill-rule="evenodd" clip-rule="evenodd" d="M293.741 100.835C293.433 100.476 293.054 99.9587 292.622 99.3657C291.343 97.6102 290.056 93.1186 285.825 92.2724C285.263 92.1602 284.47 91.4904 283.803 91.5468C281.846 91.7141 284.723 94.916 286.681 96.3205C285.998 100.604 289.593 107.252 293.741 100.835Z" fill="#E3AB84"/>
<path fill-rule="evenodd" clip-rule="evenodd" d="M292.327 99.7441C294.046 101.643 299.654 107.614 299.654 107.614C299.654 107.614 294.137 116.117 293.412 115.755C292.689 115.394 286.356 105.443 286.356 105.443L292.327 99.7441Z" fill="#E3AB84"/>
<path fill-rule="evenodd" clip-rule="evenodd" d="M315.189 135.087C324.04 129.14 319.409 123.31 313.835 118.461C308.982 114.237 299.788 106.6 295.645 102.591C295.576 102.524 294.521 103.656 293.286 105.109C291.333 107.406 288.932 110.507 289.27 110.94C294.916 118.171 307.581 140.199 315.189 135.087Z" fill="#5C65A7"/>
<path fill-rule="evenodd" clip-rule="evenodd" d="M315.094 134.945C319.445 132.021 320.486 129.142 319.756 126.405C319.019 123.64 316.488 120.995 313.723 118.589C312.257 117.314 310.452 115.775 308.513 114.121C303.866 110.16 298.446 105.539 295.526 102.713C295.486 102.681 295.616 102.806 295.599 102.82L295.589 102.828C295.506 102.902 295.391 103.016 295.25 103.161C294.815 103.611 294.148 104.358 293.416 105.219C292.319 106.51 291.08 108.053 290.269 109.231C289.68 110.087 289.312 110.717 289.404 110.835C290.491 112.228 291.826 114.149 293.332 116.317C299.675 125.447 309.079 138.986 315.094 134.945ZM320.086 126.318C320.853 129.195 319.784 132.204 315.284 135.228C308.991 139.457 299.472 125.753 293.052 116.513C291.543 114.341 290.206 112.416 289.136 111.045C288.932 110.785 289.314 110.017 289.989 109.038C290.809 107.849 292.054 106.296 293.156 104.999C293.89 104.134 294.563 103.381 295.004 102.925C295.149 102.775 295.271 102.656 295.363 102.574L295.373 102.564C295.446 102.499 295.514 102.456 295.574 102.435C295.602 102.423 295.632 102.418 295.663 102.421L295.669 102.423C295.704 102.428 295.738 102.443 295.764 102.469C298.676 105.287 304.091 109.904 308.734 113.863C310.705 115.544 312.538 117.107 313.947 118.333C316.755 120.774 319.326 123.469 320.086 126.318Z" fill="#3F467B"/>
<path fill-rule="evenodd" clip-rule="evenodd" d="M266.318 89.8453C266.239 89.7929 266.219 89.6872 266.271 89.6092C266.323 89.5311 266.429 89.5101 266.507 89.5626C267.427 90.1786 270.239 90.5177 273.108 90.5919C276.222 90.6732 279.382 90.4423 280.255 89.9195C280.336 89.8709 280.44 89.8972 280.489 89.9778C280.536 90.0585 280.51 90.1635 280.429 90.2114C279.503 90.767 276.267 91.015 273.1 90.9323C270.176 90.8569 267.294 90.4994 266.318 89.8453Z" fill="#C2AE97"/>
<path fill-rule="evenodd" clip-rule="evenodd" d="M275.057 109.236C275.113 109.161 275.22 109.146 275.295 109.202C275.37 109.259 275.386 109.365 275.33 109.44C274.829 110.109 273.224 110.326 271.707 110.531C270.701 110.667 269.735 110.797 269.208 111.039C269.122 111.078 269.021 111.04 268.982 110.955C268.943 110.869 268.981 110.768 269.066 110.729C269.641 110.466 270.631 110.332 271.662 110.193C273.11 109.997 274.642 109.791 275.057 109.236Z" fill="#B58460"/>
<path fill-rule="evenodd" clip-rule="evenodd" d="M300.502 67.2393C300.834 65.1539 300.128 59.8757 298.547 54.0255C297.162 48.9061 295.553 42.9463 287.481 43.6404C286.764 43.7021 286.372 41.9971 285.58 42.1454C276.981 43.7624 274.905 52.1697 275.664 60.5947C276.433 69.1306 280.385 77.139 284.83 78.8223C294.181 81.0855 299.855 71.3118 300.502 67.2393Z" fill="#E3AB84"/>
<path fill-rule="evenodd" clip-rule="evenodd" d="M291.795 65.7905C291.075 66.501 291.106 67.4784 291.865 67.9737C292.623 68.4696 293.822 68.2951 294.541 67.5853C295.262 66.8749 295.23 65.8975 294.472 65.4015C293.713 64.9062 292.515 65.0807 291.795 65.7905Z" fill="#CF806B"/>
<path fill-rule="evenodd" clip-rule="evenodd" d="M280.239 66.4594C281.045 67.0813 281.144 68.0548 280.457 68.6341C279.77 69.2127 278.557 69.1786 277.75 68.556C276.942 67.9341 276.844 66.9606 277.531 66.3814C278.218 65.8021 279.43 65.8369 280.239 66.4594Z" fill="#CF806B"/>
<path fill-rule="evenodd" clip-rule="evenodd" d="M289.215 57.5552C289.253 57.5224 289.293 57.4902 289.333 57.46C289.799 57.1222 290.218 56.9726 290.775 56.9149C291.324 56.8808 291.752 56.9575 292.26 57.1996C292.501 57.3321 293.471 58.0262 293.294 58.3883C293.205 58.4408 292.295 58.0655 292.037 58.0124C291.639 57.9448 291.327 57.9501 290.933 58.0399C290.569 58.1351 290.304 58.2597 289.998 58.4939C289.989 58.4978 289.934 58.5451 289.923 58.5549C289.314 59.1217 289.425 59.3854 288.885 59.0646C288.079 58.7143 288.727 58.038 289.215 57.5552Z" fill="#3F2716"/>
<path fill-rule="evenodd" clip-rule="evenodd" d="M281.066 58.1948C281.024 58.164 280.982 58.1351 280.94 58.1076C280.444 57.7999 280.013 57.6773 279.452 57.6543C278.901 57.655 278.482 57.7586 277.997 58.0315C277.77 58.1791 276.866 58.9315 277.076 59.2818C277.169 59.3291 278.043 58.8974 278.294 58.8285C278.685 58.7354 278.996 58.7216 279.397 58.7866C279.768 58.8581 280.044 58.9656 280.371 59.1802C280.38 59.1841 280.439 59.2274 280.451 59.2366C281.11 59.7633 281.024 60.0336 281.532 59.6794C282.304 59.2786 281.597 58.6449 281.066 58.1948Z" fill="#3F2716"/>
<path fill-rule="evenodd" clip-rule="evenodd" d="M286.223 67.5562C286.318 67.5509 286.398 67.6231 286.402 67.7169C286.407 67.8114 286.335 67.8914 286.241 67.8967C285.839 67.9196 285.358 67.9432 284.964 67.8908C284.506 67.8297 284.161 67.6638 284.136 67.2879C284.099 66.7349 284.356 63.3821 284.357 63.3722C284.364 63.2778 284.446 63.2082 284.54 63.2148C284.634 63.222 284.704 63.304 284.697 63.3978C284.697 63.4076 284.441 66.7368 284.475 67.2662C284.487 67.4309 284.71 67.5129 285.008 67.5529C285.372 67.6015 285.835 67.5785 286.223 67.5562Z" fill="#D67F54"/>
<path fill-rule="evenodd" clip-rule="evenodd" d="M301.379 62.1187C301.408 61.4253 304.193 60.4735 305.243 62.6868C306.293 64.9008 304.754 68.1828 301.565 68.5882C298.377 68.9943 299.291 68.3835 299.291 68.3835L301.379 62.1187Z" fill="#E3AB84"/>
<path fill-rule="evenodd" clip-rule="evenodd" d="M304.359 64.378C304.364 64.4724 304.291 64.5518 304.196 64.5564C304.103 64.561 304.022 64.4882 304.019 64.3937C303.992 63.8315 303.876 63.4812 303.708 63.2949C303.607 63.1814 303.482 63.1329 303.345 63.1362C303.193 63.1401 303.021 63.2057 302.845 63.3172C302.373 63.6157 301.899 64.2232 301.652 64.8719C301.527 65.1993 301.422 65.5358 301.37 65.7799C301.648 65.5555 301.966 65.4551 302.237 65.4696C302.385 65.4774 302.522 65.5188 302.634 65.5916C302.752 65.6683 302.843 65.7785 302.892 65.9209C302.979 66.1662 302.937 66.5047 302.688 66.9187C302.64 66.9987 302.535 67.0256 302.455 66.9764C302.374 66.9278 302.348 66.8229 302.396 66.7422C302.586 66.4254 302.627 66.1892 302.571 66.0324C302.548 65.9655 302.504 65.9137 302.449 65.8769C302.387 65.8369 302.309 65.8146 302.22 65.81C301.978 65.7969 301.681 65.9163 301.44 66.1826C301.378 66.2509 301.32 66.2902 301.265 66.3053C301.124 66.3427 301.04 66.2817 301.004 66.14C300.991 66.0869 300.99 66.0154 300.998 65.9301C301.027 65.6664 301.162 65.196 301.332 64.7499C301.604 64.0362 302.133 63.3631 302.663 63.0279C302.89 62.8849 303.12 62.801 303.337 62.7957C303.572 62.7898 303.787 62.8725 303.961 63.0673C304.179 63.31 304.328 63.7305 304.359 64.378Z" fill="#D67F54"/>
<path fill-rule="evenodd" clip-rule="evenodd" d="M289.678 60.9977C289.148 61.4884 289.082 62.3818 289.528 62.9932C289.975 63.604 290.765 63.7017 291.295 63.2104C291.824 62.719 291.891 61.8262 291.445 61.2148C290.998 60.6041 290.208 60.5063 289.678 60.9977Z" fill="#3F2716"/>
<path fill-rule="evenodd" clip-rule="evenodd" d="M280.794 61.5119C281.383 61.9383 281.568 62.8167 281.205 63.4746C280.842 64.1326 280.071 64.3195 279.48 63.8938C278.89 63.4681 278.705 62.589 279.068 61.931C279.431 61.2724 280.203 61.0855 280.794 61.5119Z" fill="#3F2716"/>
<path fill-rule="evenodd" clip-rule="evenodd" d="M288.956 70.9966C287.207 71.0615 285.473 71.1619 283.727 71.299C283.894 73.7551 285.566 74.3015 286.551 74.2418C287.532 74.1815 289.013 73.2073 288.956 70.9966Z" fill="#88342A"/>
<path fill-rule="evenodd" clip-rule="evenodd" d="M288.285 73.2591C287.041 72.2246 285.718 72.323 284.629 73.5359C285.227 74.1171 285.998 74.2746 286.552 74.2411C287.091 74.2083 287.781 73.8987 288.285 73.2591Z" fill="#D17B65"/>
<path fill-rule="evenodd" clip-rule="evenodd" d="M304.349 110.099C304.349 110.193 304.272 110.27 304.178 110.27C304.084 110.27 304.007 110.193 304.007 110.099C304.007 104.325 302.207 95.3222 302.201 95.2966C302.183 95.2041 302.243 95.1143 302.336 95.0966C302.429 95.0782 302.518 95.1385 302.536 95.2317C302.542 95.2573 304.349 104.293 304.349 110.099Z" fill="#3F467B"/>
<path fill-rule="evenodd" clip-rule="evenodd" d="M251.271 115.212C251.195 115.267 251.088 115.25 251.033 115.174C250.978 115.097 250.995 114.991 251.071 114.935C252.083 114.199 261.571 110.223 261.598 110.212C261.686 110.175 261.785 110.216 261.822 110.303C261.859 110.39 261.818 110.49 261.73 110.527C261.703 110.539 252.249 114.501 251.271 115.212Z" fill="#3F467B"/>
<path fill-rule="evenodd" clip-rule="evenodd" d="M270.719 147.154C270.636 147.108 270.607 147.005 270.652 146.923C270.697 146.841 270.801 146.811 270.883 146.856C275.93 149.65 280.438 151.228 284.789 152.175C289.144 153.122 293.342 153.438 297.766 153.709C306.608 154.25 314.705 152.63 314.729 152.626C314.822 152.608 314.911 152.668 314.929 152.761C314.947 152.854 314.887 152.943 314.795 152.962C314.771 152.966 306.634 154.594 297.746 154.05C293.305 153.778 289.092 153.461 284.717 152.509C280.34 151.556 275.802 149.968 270.719 147.154Z" fill="#3F467B"/>
<path fill-rule="evenodd" clip-rule="evenodd" d="M283.702 48.5887C281.809 48.5874 277.639 52.345 278.041 55.2898C279.37 65.0058 276.67 63.8263 276.994 68.1972C270.724 60.9379 271.197 58.8958 273.138 54.5072C273.767 53.0856 273.512 53.6071 274.988 50.48C276.119 48.0823 276.422 41.8877 279.008 40.6177C282.401 38.9521 284.151 40.6164 286.71 42.711C289.855 40.621 291.608 38.6634 295.948 40.8886C298.881 42.3915 298.899 46.0598 299.8 50.1953C301.859 59.6443 305.959 56.3453 303.015 62.8849C302.592 63.827 301.023 65.5634 299.861 68.4688C298.74 61.5644 293.565 65.2741 292.456 54.7879C292.07 51.1484 290.407 49.3687 288.799 49.0663C288.616 49.0322 287.285 48.6215 286.051 50.5528C285.742 51.0376 285.532 48.59 283.702 48.5887Z" fill="#4C3124"/>
<path fill-rule="evenodd" clip-rule="evenodd" d="M287.719 47.336C287.66 47.4095 287.553 47.4213 287.48 47.3629C287.406 47.3045 287.395 47.1969 287.453 47.1235C288.034 46.3986 289.093 45.8672 290.206 45.7583C290.664 45.7131 291.133 45.7393 291.582 45.8521C292.033 45.9656 292.466 46.1677 292.849 46.4747C293.581 47.0605 294.127 48.0242 294.269 49.4752C294.383 50.6377 294.428 51.6151 294.468 52.4745C294.584 54.9994 294.654 56.4879 296.314 58.6133L296.438 58.7727C298.664 61.6198 300.422 63.8698 300.24 66.5089C300.233 66.6027 300.153 66.6742 300.058 66.6677C299.964 66.6618 299.893 66.5798 299.899 66.486C300.073 63.9755 298.351 61.772 296.17 58.982L296.046 58.8232C294.319 56.6119 294.248 55.0834 294.128 52.4896C294.088 51.6341 294.043 50.6606 293.93 49.508C293.798 48.1593 293.302 47.2724 292.637 46.741C292.295 46.4681 291.907 46.2871 291.5 46.1841C291.089 46.0804 290.66 46.0568 290.239 46.0981C289.213 46.1979 288.244 46.6794 287.719 47.336Z" fill="#6B4125"/>
<path fill-rule="evenodd" clip-rule="evenodd" d="M289.064 44.1844C288.996 44.2513 288.889 44.2513 288.822 44.1844C288.755 44.1175 288.755 44.0092 288.822 43.943C289.663 43.1013 290.719 42.5601 291.793 42.381C292.458 42.2695 293.131 42.2984 293.765 42.4814C294.401 42.6644 294.997 43.0023 295.502 43.5087C296.21 44.2165 296.746 45.2537 296.98 46.6588L297.093 47.3397C297.804 51.63 297.997 52.7931 300.305 56.6398C301.544 58.7036 301.957 60.36 302.003 61.6622C302.049 62.9729 301.727 63.9182 301.496 64.5637C301.465 64.6522 301.367 64.6988 301.278 64.6673C301.189 64.6358 301.143 64.5381 301.175 64.4489C301.397 63.8276 301.707 62.9191 301.663 61.674C301.619 60.421 301.217 58.821 300.013 56.8143C297.672 52.9118 297.477 51.7349 296.757 47.3942L296.644 46.7139C296.422 45.3849 295.922 44.41 295.262 43.7494C294.796 43.2837 294.251 42.9741 293.671 42.8068C293.088 42.6388 292.466 42.6133 291.849 42.7156C290.845 42.8848 289.855 43.3932 289.064 44.1844Z" fill="#6B4125"/>
<path fill-rule="evenodd" clip-rule="evenodd" d="M285.479 47.4295C285.519 47.5155 285.481 47.6165 285.396 47.6558C285.311 47.6952 285.21 47.6578 285.17 47.5725C285.025 47.2596 284.868 46.9821 284.702 46.7388C284.195 45.9994 283.604 45.5737 283.006 45.3953C282.416 45.2195 281.815 45.2851 281.287 45.5291C281.15 45.5927 281.018 45.6682 280.892 45.7548C280.442 46.0618 280.181 46.7873 279.892 47.5876C279.61 48.3683 279.304 49.2171 278.762 49.8718C277.462 51.4403 276.544 52.7379 276.054 54.0728C275.569 55.398 275.503 56.7697 275.902 58.4989C276.726 62.0649 275.813 65.8015 275.811 65.8126C275.789 65.9038 275.698 65.9609 275.606 65.9392C275.514 65.9169 275.457 65.8257 275.479 65.7339C275.482 65.7234 276.375 62.0642 275.57 58.575C275.155 56.7762 275.225 55.3442 275.734 53.9554C276.239 52.5765 277.176 51.2507 278.499 49.6534C279.005 49.0426 279.3 48.2253 279.572 47.4728C279.88 46.6174 280.16 45.8413 280.7 45.4727C280.841 45.3762 280.99 45.291 281.145 45.2195C281.746 44.942 282.429 44.8672 283.104 45.0686C283.773 45.268 284.43 45.737 284.983 46.5459C285.16 46.805 285.326 47.0982 285.479 47.4295Z" fill="#6B4125"/>
<path fill-rule="evenodd" clip-rule="evenodd" d="M285.746 44.2538C285.791 44.3365 285.76 44.4401 285.676 44.4848C285.593 44.5294 285.49 44.4985 285.445 44.4152C285.007 43.6018 284.168 42.9681 283.225 42.6256C282.708 42.4367 282.16 42.3377 281.632 42.3442C281.109 42.3514 280.606 42.4636 280.17 42.6978C279.645 42.9805 279.217 43.4437 278.971 44.1213C278.564 45.2405 278.045 46.481 277.531 47.6447C276.669 49.597 275.81 51.3478 275.525 51.9185C275.483 52.0025 275.381 52.0366 275.297 51.9946C275.212 51.9527 275.179 51.8503 275.221 51.7657C275.503 51.2022 276.352 49.4684 277.218 47.5069C277.732 46.3452 278.248 45.1106 278.65 44.0052C278.928 43.2416 279.413 42.7181 280.008 42.3974C280.494 42.1363 281.051 42.0116 281.627 42.0038C282.197 41.9965 282.787 42.1035 283.341 42.3049C284.359 42.6748 285.267 43.3643 285.746 44.2538Z" fill="#6B4125"/>
<path fill-rule="evenodd" clip-rule="evenodd" d="M222.669 262.697C231.645 262.697 239.793 264.083 245.712 266.324C251.981 268.698 255.859 272.113 255.859 276.006C255.859 279.9 251.981 283.315 245.712 285.689C239.793 287.929 231.645 289.315 222.669 289.315C204.339 289.315 189.48 283.357 189.48 276.006C189.48 272.113 193.358 268.698 199.627 266.324C205.545 264.083 213.694 262.697 222.669 262.697ZM244.87 268.559C239.211 266.416 231.363 265.091 222.669 265.091C213.975 265.091 206.128 266.417 200.468 268.559C195.157 270.569 191.873 273.211 191.873 276.007C191.873 282.035 205.661 286.923 222.669 286.923C231.363 286.923 239.211 285.598 244.87 283.454C250.181 281.444 253.465 278.803 253.465 276.007C253.465 273.21 250.181 270.569 244.87 268.559Z" fill="#C09162"/>
<path fill-rule="evenodd" clip-rule="evenodd" d="M220.178 227.391C220.178 226.447 220.943 225.682 221.887 225.682C222.831 225.682 223.596 226.447 223.596 227.391V306.25C223.596 307.194 222.831 307.959 221.887 307.959C220.943 307.959 220.178 307.194 220.178 306.25V227.391Z" fill="#A97F58"/>
<path fill-rule="evenodd" clip-rule="evenodd" d="M188.967 227.391C188.967 226.447 189.733 225.682 190.676 225.682C191.62 225.682 192.386 226.447 192.386 227.391V295.95C192.386 296.893 191.62 297.659 190.676 297.659C189.732 297.659 188.967 296.893 188.967 295.95V227.391Z" fill="#A97F58"/>
<path fill-rule="evenodd" clip-rule="evenodd" d="M252.953 227.391C252.953 226.447 253.718 225.682 254.662 225.682C255.606 225.682 256.371 226.447 256.371 227.391V295.95C256.371 296.893 255.606 297.659 254.662 297.659C253.718 297.659 252.953 296.893 252.953 295.95V227.391Z" fill="#A97F58"/>
<path fill-rule="evenodd" clip-rule="evenodd" d="M221.936 209.045C244.286 209.045 262.405 215.127 262.405 222.629C262.405 223.821 262.405 224.972 262.405 226.172C262.405 248.627 181.468 248.627 181.468 226.172C181.468 224.972 181.468 223.821 181.468 222.629C181.468 215.126 199.586 209.045 221.936 209.045Z" fill="#D2A368"/>
<path fill-rule="evenodd" clip-rule="evenodd" d="M221.936 208.457C244.286 208.457 262.405 214.802 262.405 222.629C262.405 230.456 244.286 236.801 221.936 236.801C199.586 236.801 181.468 230.456 181.468 222.629C181.468 214.801 199.586 208.457 221.936 208.457Z" fill="#C09162"/>
<path fill-rule="evenodd" clip-rule="evenodd" d="M185.172 227.784C185.101 227.721 185.094 227.613 185.157 227.543C185.219 227.472 185.326 227.465 185.397 227.528L185.423 227.55C192.109 233.436 207.84 236.522 223.401 236.446C238.958 236.369 254.329 233.133 260.306 226.375L260.326 226.352C260.389 226.282 260.496 226.275 260.566 226.338C260.637 226.401 260.644 226.508 260.581 226.578L260.56 226.601C254.515 233.437 239.043 236.71 223.402 236.786C207.767 236.863 191.946 233.748 185.197 227.806L185.172 227.784Z" fill="#794D2F"/>
<path fill-rule="evenodd" clip-rule="evenodd" d="M235.25 222.771L221.936 227.472L208.624 222.771V206.603L221.936 201.946L235.25 206.603V222.771Z" fill="#D8D8D8"/>
<path fill-rule="evenodd" clip-rule="evenodd" d="M221.941 203.422L230.471 206.439L221.932 209.459L213.402 206.442L221.941 203.422Z" fill="#4F4F4E"/>
<path fill-rule="evenodd" clip-rule="evenodd" d="M221.936 210.79C226.966 210.79 231.069 204.847 231.069 197.561C231.069 190.276 226.966 184.333 221.936 184.333C216.907 184.333 212.804 190.276 212.804 197.561C212.804 204.848 216.907 210.79 221.936 210.79Z" fill="#759F74"/>
<path fill-rule="evenodd" clip-rule="evenodd" d="M221.936 210.79C225.603 210.79 228.593 204.969 228.593 197.831C228.593 190.695 225.602 184.874 221.936 184.874C218.27 184.874 215.28 190.695 215.28 197.831C215.28 204.969 218.27 210.79 221.936 210.79Z" fill="#688D68"/>
<path fill-rule="evenodd" clip-rule="evenodd" d="M221.936 210.79C223.518 210.79 224.807 204.969 224.807 197.831C224.807 190.695 223.517 184.874 221.936 184.874C220.355 184.874 219.066 190.695 219.066 197.831C219.066 204.969 220.355 210.79 221.936 210.79Z" fill="#759F74"/>
<path fill-rule="evenodd" clip-rule="evenodd" d="M235.25 222.771L221.936 227.472L208.624 222.771V206.603L213.484 206.471L221.932 209.459L230.38 206.471L235.25 206.603V222.771Z" fill="#D8D8D8"/>
<path fill-rule="evenodd" clip-rule="evenodd" d="M208.624 206.648L221.936 211.305V227.472L208.624 222.814V206.648Z" fill="#AFB0B0"/>
<path fill-rule="evenodd" clip-rule="evenodd" d="M235.25 206.648L221.937 211.305V227.472L235.25 222.814V206.648Z" fill="#EBEBEB"/>
<path fill-rule="evenodd" clip-rule="evenodd" d="M214.957 188.126C214.841 188.046 214.81 187.888 214.889 187.771C214.968 187.654 215.127 187.623 215.243 187.702C215.981 188.202 216.841 188.882 216.843 188.884C216.954 188.971 216.975 189.131 216.887 189.243C216.801 189.354 216.639 189.373 216.528 189.286C216.527 189.285 215.674 188.612 214.957 188.126Z" fill="#5C6D69"/>
<path fill-rule="evenodd" clip-rule="evenodd" d="M213.263 193.081C213.125 193.051 213.036 192.915 213.066 192.777C213.095 192.638 213.231 192.55 213.369 192.579C214.209 192.758 215.167 193.027 215.169 193.027C215.306 193.066 215.385 193.207 215.347 193.344C215.308 193.479 215.168 193.559 215.031 193.521C215.029 193.52 214.089 193.256 213.263 193.081Z" fill="#5C6D69"/>
<path fill-rule="evenodd" clip-rule="evenodd" d="M212.681 198.377C212.544 198.408 212.407 198.321 212.377 198.183C212.347 198.045 212.434 197.91 212.571 197.879C213.437 197.687 214.472 197.532 214.475 197.531C214.615 197.511 214.745 197.607 214.766 197.747C214.786 197.888 214.689 198.017 214.549 198.037C214.546 198.038 213.512 198.194 212.681 198.377Z" fill="#5C6D69"/>
<path fill-rule="evenodd" clip-rule="evenodd" d="M213.591 203.362C213.463 203.421 213.311 203.363 213.253 203.234C213.195 203.106 213.252 202.953 213.382 202.896C214.038 202.598 214.666 202.344 214.668 202.343C214.799 202.289 214.948 202.351 215.003 202.481C215.057 202.611 214.995 202.761 214.865 202.816C214.862 202.817 214.24 203.068 213.591 203.362Z" fill="#5C6D69"/>
<path fill-rule="evenodd" clip-rule="evenodd" d="M229.072 187.779C229.18 187.688 229.341 187.701 229.433 187.808C229.525 187.915 229.513 188.077 229.405 188.169C228.845 188.649 228.22 189.266 228.219 189.268C228.118 189.366 227.956 189.365 227.857 189.265C227.758 189.164 227.76 189.002 227.86 188.903C227.862 188.901 228.5 188.271 229.072 187.779Z" fill="#5C6D69"/>
<path fill-rule="evenodd" clip-rule="evenodd" d="M230.838 192.54C230.975 192.507 231.113 192.591 231.147 192.727C231.181 192.865 231.097 193.003 230.96 193.037C230.268 193.209 229.396 193.515 229.393 193.516C229.26 193.561 229.114 193.491 229.068 193.357C229.023 193.224 229.093 193.079 229.227 193.033C229.229 193.032 230.132 192.715 230.838 192.54Z" fill="#5C6D69"/>
<path fill-rule="evenodd" clip-rule="evenodd" d="M231.407 197.896C231.543 197.935 231.622 198.075 231.584 198.211C231.546 198.347 231.405 198.426 231.269 198.389C230.592 198.198 229.736 198.036 229.734 198.036C229.595 198.01 229.503 197.877 229.53 197.738C229.556 197.599 229.69 197.508 229.828 197.533C229.83 197.534 230.71 197.699 231.407 197.896Z" fill="#5C6D69"/>
<path fill-rule="evenodd" clip-rule="evenodd" d="M230.947 203.033C231.069 203.104 231.11 203.261 231.038 203.382C230.967 203.504 230.81 203.544 230.689 203.474C230.119 203.139 229.463 202.808 229.461 202.808C229.335 202.743 229.285 202.589 229.349 202.463C229.414 202.337 229.568 202.287 229.694 202.351C229.696 202.352 230.338 202.675 230.947 203.033Z" fill="#5C6D69"/>
<path fill-rule="evenodd" clip-rule="evenodd" d="M222.587 187.937C222.703 187.855 222.862 187.882 222.943 187.997C223.025 188.112 222.999 188.271 222.884 188.353C222.249 188.804 221.641 189.284 221.639 189.285C221.529 189.373 221.368 189.354 221.281 189.244C221.194 189.134 221.213 188.973 221.323 188.886C221.324 188.885 221.956 188.386 222.587 187.937Z" fill="#5C6D69"/>
<path fill-rule="evenodd" clip-rule="evenodd" d="M224.915 192.555C225.054 192.527 225.189 192.617 225.217 192.755C225.245 192.893 225.156 193.028 225.018 193.057C224.173 193.23 223.14 193.52 223.137 193.521C223.001 193.559 222.859 193.479 222.821 193.343C222.783 193.208 222.863 193.066 222.999 193.027C223.001 193.027 224.043 192.735 224.915 192.555Z" fill="#5C6D69"/>
<path fill-rule="evenodd" clip-rule="evenodd" d="M225.431 197.842C225.569 197.871 225.658 198.007 225.629 198.146C225.6 198.284 225.465 198.373 225.327 198.344C224.514 198.172 223.619 198.037 223.617 198.037C223.477 198.016 223.382 197.884 223.403 197.746C223.425 197.606 223.555 197.511 223.695 197.533C223.697 197.532 224.619 197.671 225.431 197.842Z" fill="#5C6D69"/>
<path fill-rule="evenodd" clip-rule="evenodd" d="M225.104 203.042C225.231 203.103 225.286 203.256 225.226 203.383C225.165 203.511 225.013 203.566 224.885 203.505C224.143 203.155 223.309 202.818 223.307 202.817C223.176 202.765 223.113 202.615 223.165 202.484C223.218 202.354 223.367 202.289 223.498 202.342C223.5 202.343 224.351 202.687 225.104 203.042Z" fill="#5C6D69"/>
<path fill-rule="evenodd" clip-rule="evenodd" d="M84.595 216.728C84.8843 207.9 85.7836 192.755 110.406 178.23C103.595 214.871 93.4234 213.11 84.595 216.728Z" fill="#677D65"/>
<path fill-rule="evenodd" clip-rule="evenodd" d="M84.7807 216.729C84.7807 216.729 70.2857 219.136 56.675 179.939C95.871 193.55 84.7807 216.729 84.7807 216.729Z" fill="#677D65"/>
<path fill-rule="evenodd" clip-rule="evenodd" d="M59.8147 183.416C59.6684 183.296 59.6468 183.081 59.7668 182.935C59.8862 182.789 60.1014 182.768 60.2477 182.888C62.2754 184.547 69.4527 190.829 75.766 199.471C79.4049 204.454 82.7564 210.219 84.6719 216.338C84.7276 216.518 84.6273 216.709 84.4475 216.766C84.2678 216.821 84.0762 216.721 84.0205 216.541C82.1292 210.499 78.8151 204.8 75.2163 199.872C68.9541 191.3 61.8286 185.063 59.8147 183.416Z" fill="#5C6D69"/>
<path fill-rule="evenodd" clip-rule="evenodd" d="M107.322 182.101C107.422 181.942 107.633 181.894 107.792 181.994C107.952 182.094 107.999 182.305 107.899 182.464C107.855 182.534 92.5444 206.873 84.5687 216.154C84.4461 216.297 84.2309 216.314 84.0879 216.192C83.9449 216.07 83.9278 215.854 84.0505 215.711C91.994 206.466 107.277 182.171 107.322 182.101Z" fill="#5C6D69"/>
<path fill-rule="evenodd" clip-rule="evenodd" d="M84.7808 216.729C84.7808 216.729 66.6896 203.269 84.7808 165.929C102.872 203.268 84.7808 216.729 84.7808 216.729Z" fill="#4D685B"/>
<path fill-rule="evenodd" clip-rule="evenodd" d="M84.2946 171.013C84.2834 170.825 84.4271 170.664 84.6154 170.652C84.803 170.641 84.9644 170.785 84.9755 170.973C85.0208 171.715 85.0713 172.517 85.1231 173.337C85.7011 182.474 86.4279 193.964 84.8305 216.463C84.8174 216.651 84.6541 216.792 84.4658 216.778C84.2775 216.765 84.1358 216.602 84.1496 216.414C85.7443 193.958 85.0188 182.494 84.4422 173.379C84.3923 172.591 84.3431 171.82 84.2946 171.013Z" fill="#4B5855"/>
<path fill-rule="evenodd" clip-rule="evenodd" d="M69.1121 218.915H85.2346H101.357L97.1141 247.765H85.2346H73.3551L69.1121 218.915Z" fill="#D67F54"/>
<path fill-rule="evenodd" clip-rule="evenodd" d="M96.0901 218.915H100.431V225.209L97.1141 247.765H96.0901V218.915Z" fill="#CD745F"/>
<path d="M91.7481 218.915H87.406V247.765H91.7481V218.915Z" fill="#CD745F"/>
<path d="M83.0633 218.915H78.7219V247.765H83.0633V218.915Z" fill="#CD745F"/>
<path fill-rule="evenodd" clip-rule="evenodd" d="M70.0383 218.915H74.3797V247.765H73.3551L70.0383 225.209V218.915Z" fill="#CD745F"/>
<path d="M102.735 213.93H67.7339V220.056H102.735V213.93Z" fill="#D67F54"/>
<path fill-rule="evenodd" clip-rule="evenodd" d="M69.7707 220.61C69.5818 220.61 69.429 220.457 69.429 220.269C69.429 220.08 69.5818 219.927 69.7707 219.927H100.742C100.931 219.927 101.084 220.079 101.084 220.269C101.084 220.457 100.931 220.61 100.742 220.61H69.7707Z" fill="#AB6744"/>
</svg>
